  0
SECTION
  2
HEADER
  9
$ACADVER
  1
AC1009
  9
$EXTMIN
 10
0.0
 20
0.0
 30
0.0
  9
$EXTMAX
 10
1000.0
 20
1000.0
 30
0.0
  9
$FILLMODE
 70
 0
  9
$SPLFRAME
 70
 1
  0
ENDSEC
  0
SECTION
  2
TABLES
  0
TABLE
  2
LAYER
 70
1
  0
LAYER
  2
0
 70
     0
 62
     7
  6
CONTINUOUS
  0
ENDTAB
  0
ENDSEC
  0
SECTION
  2
ENTITIES
  0
LINE
  8
0
 62
     0
 10
0.0937066
 20
111.344
 30
0.0
 11
301.844
 21
111.344
 31
0.0
  0
LINE
  8
0
 62
     0
 10
301.844
 20
111.344
 30
0.0
 11
301.844
 21
0.0937066
 31
0.0
  0
LINE
  8
0
 62
     0
 10
301.844
 20
0.0937066
 30
0.0
 11
0.0937066
 21
0.0937066
 31
0.0
  0
LINE
  8
0
 62
     0
 10
0.0937066
 20
0.0937066
 30
0.0
 11
0.0937066
 21
111.344
 31
0.0
  0
LINE
  8
0
 62
     0
 10
298.881
 20
4.01973
 30
0.0
 11
298.462
 21
3.80753
 31
0.0
  0
LINE
  8
0
 62
     0
 10
298.462
 20
3.80753
 30
0.0
 11
298.13
 21
3.47541
 31
0.0
  0
LINE
  8
0
 62
     0
 10
298.13
 20
3.47541
 30
0.0
 11
297.918
 21
3.05649
 31
0.0
  0
LINE
  8
0
 62
     0
 10
297.918
 20
3.05649
 30
0.0
 11
297.845
 21
2.59347
 31
0.0
  0
LINE
  8
0
 62
     0
 10
297.845
 20
2.59347
 30
0.0
 11
297.918
 21
2.13045
 31
0.0
  0
LINE
  8
0
 62
     0
 10
297.918
 20
2.13045
 30
0.0
 11
298.13
 21
1.71152
 31
0.0
  0
LINE
  8
0
 62
     0
 10
298.13
 20
1.71152
 30
0.0
 11
298.462
 21
1.37942
 31
0.0
  0
LINE
  8
0
 62
     0
 10
298.462
 20
1.37942
 30
0.0
 11
298.881
 21
1.1672
 31
0.0
  0
LINE
  8
0
 62
     0
 10
298.881
 20
1.1672
 30
0.0
 11
299.344
 21
1.09416
 31
0.0
  0
LINE
  8
0
 62
     0
 10
299.344
 20
1.09416
 30
0.0
 11
299.807
 21
1.1672
 31
0.0
  0
LINE
  8
0
 62
     0
 10
299.807
 20
1.1672
 30
0.0
 11
300.226
 21
1.37942
 31
0.0
  0
LINE
  8
0
 62
     0
 10
300.226
 20
1.37942
 30
0.0
 11
300.559
 21
1.71152
 31
0.0
  0
LINE
  8
0
 62
     0
 10
300.559
 20
1.71152
 30
0.0
 11
300.771
 21
2.13045
 31
0.0
  0
LINE
  8
0
 62
     0
 10
300.771
 20
2.13045
 30
0.0
 11
300.845
 21
2.59347
 31
0.0
  0
LINE
  8
0
 62
     0
 10
300.845
 20
2.59347
 30
0.0
 11
300.771
 21
3.05649
 31
0.0
  0
LINE
  8
0
 62
     0
 10
300.771
 20
3.05649
 30
0.0
 11
300.559
 21
3.47541
 31
0.0
  0
LINE
  8
0
 62
     0
 10
300.559
 20
3.47541
 30
0.0
 11
300.226
 21
3.80753
 31
0.0
  0
LINE
  8
0
 62
     0
 10
300.226
 20
3.80753
 30
0.0
 11
299.807
 21
4.01973
 31
0.0
  0
LINE
  8
0
 62
     0
 10
299.807
 20
4.01973
 30
0.0
 11
299.344
 21
4.09416
 31
0.0
  0
LINE
  8
0
 62
     0
 10
299.344
 20
4.09416
 30
0.0
 11
298.881
 21
4.01973
 31
0.0
  0
LINE
  8
0
 62
     0
 10
2.12907
 20
4.01973
 30
0.0
 11
1.71152
 21
3.80753
 31
0.0
  0
LINE
  8
0
 62
     0
 10
1.71152
 20
3.80753
 30
0.0
 11
1.37942
 21
3.47541
 31
0.0
  0
LINE
  8
0
 62
     0
 10
1.37942
 20
3.47541
 30
0.0
 11
1.1672
 21
3.05649
 31
0.0
  0
LINE
  8
0
 62
     0
 10
1.1672
 20
3.05649
 30
0.0
 11
1.09279
 21
2.59347
 31
0.0
  0
LINE
  8
0
 62
     0
 10
1.09279
 20
2.59347
 30
0.0
 11
1.1672
 21
2.13045
 31
0.0
  0
LINE
  8
0
 62
     0
 10
1.1672
 20
2.13045
 30
0.0
 11
1.37942
 21
1.71152
 31
0.0
  0
LINE
  8
0
 62
     0
 10
1.37942
 20
1.71152
 30
0.0
 11
1.71152
 21
1.37942
 31
0.0
  0
LINE
  8
0
 62
     0
 10
1.71152
 20
1.37942
 30
0.0
 11
2.12907
 21
1.1672
 31
0.0
  0
LINE
  8
0
 62
     0
 10
2.12907
 20
1.1672
 30
0.0
 11
2.59347
 21
1.09416
 31
0.0
  0
LINE
  8
0
 62
     0
 10
2.59347
 20
1.09416
 30
0.0
 11
3.05649
 21
1.1672
 31
0.0
  0
LINE
  8
0
 62
     0
 10
3.05649
 20
1.1672
 30
0.0
 11
3.47541
 21
1.37942
 31
0.0
  0
LINE
  8
0
 62
     0
 10
3.47541
 20
1.37942
 30
0.0
 11
3.80615
 21
1.71152
 31
0.0
  0
LINE
  8
0
 62
     0
 10
3.80615
 20
1.71152
 30
0.0
 11
4.01973
 21
2.13045
 31
0.0
  0
LINE
  8
0
 62
     0
 10
4.01973
 20
2.13045
 30
0.0
 11
4.09416
 21
2.59347
 31
0.0
  0
LINE
  8
0
 62
     0
 10
4.09416
 20
2.59347
 30
0.0
 11
4.01973
 21
3.05649
 31
0.0
  0
LINE
  8
0
 62
     0
 10
4.01973
 20
3.05649
 30
0.0
 11
3.80615
 21
3.47541
 31
0.0
  0
LINE
  8
0
 62
     0
 10
3.80615
 20
3.47541
 30
0.0
 11
3.47541
 21
3.80753
 31
0.0
  0
LINE
  8
0
 62
     0
 10
3.47541
 20
3.80753
 30
0.0
 11
3.05649
 21
4.01973
 31
0.0
  0
LINE
  8
0
 62
     0
 10
3.05649
 20
4.01973
 30
0.0
 11
2.59347
 21
4.09416
 31
0.0
  0
LINE
  8
0
 62
     0
 10
2.59347
 20
4.09416
 30
0.0
 11
2.12907
 21
4.01973
 31
0.0
  0
LINE
  8
0
 62
     0
 10
298.881
 20
110.271
 30
0.0
 11
298.462
 21
110.059
 31
0.0
  0
LINE
  8
0
 62
     0
 10
298.462
 20
110.059
 30
0.0
 11
298.13
 21
109.726
 31
0.0
  0
LINE
  8
0
 62
     0
 10
298.13
 20
109.726
 30
0.0
 11
297.918
 21
109.309
 31
0.0
  0
LINE
  8
0
 62
     0
 10
297.918
 20
109.309
 30
0.0
 11
297.845
 21
108.844
 31
0.0
  0
LINE
  8
0
 62
     0
 10
297.845
 20
108.844
 30
0.0
 11
297.918
 21
108.381
 31
0.0
  0
LINE
  8
0
 62
     0
 10
297.918
 20
108.381
 30
0.0
 11
298.13
 21
107.962
 31
0.0
  0
LINE
  8
0
 62
     0
 10
298.13
 20
107.962
 30
0.0
 11
298.462
 21
107.632
 31
0.0
  0
LINE
  8
0
 62
     0
 10
298.462
 20
107.632
 30
0.0
 11
298.881
 21
107.418
 31
0.0
  0
LINE
  8
0
 62
     0
 10
298.881
 20
107.418
 30
0.0
 11
299.344
 21
107.344
 31
0.0
  0
LINE
  8
0
 62
     0
 10
299.344
 20
107.344
 30
0.0
 11
299.807
 21
107.418
 31
0.0
  0
LINE
  8
0
 62
     0
 10
299.807
 20
107.418
 30
0.0
 11
300.226
 21
107.632
 31
0.0
  0
LINE
  8
0
 62
     0
 10
300.226
 20
107.632
 30
0.0
 11
300.559
 21
107.962
 31
0.0
  0
LINE
  8
0
 62
     0
 10
300.559
 20
107.962
 30
0.0
 11
300.771
 21
108.381
 31
0.0
  0
LINE
  8
0
 62
     0
 10
300.771
 20
108.381
 30
0.0
 11
300.845
 21
108.844
 31
0.0
  0
LINE
  8
0
 62
     0
 10
300.845
 20
108.844
 30
0.0
 11
300.771
 21
109.309
 31
0.0
  0
LINE
  8
0
 62
     0
 10
300.771
 20
109.309
 30
0.0
 11
300.559
 21
109.726
 31
0.0
  0
LINE
  8
0
 62
     0
 10
300.559
 20
109.726
 30
0.0
 11
300.226
 21
110.059
 31
0.0
  0
LINE
  8
0
 62
     0
 10
300.226
 20
110.059
 30
0.0
 11
299.807
 21
110.271
 31
0.0
  0
LINE
  8
0
 62
     0
 10
299.807
 20
110.271
 30
0.0
 11
299.344
 21
110.344
 31
0.0
  0
LINE
  8
0
 62
     0
 10
299.344
 20
110.344
 30
0.0
 11
298.881
 21
110.271
 31
0.0
  0
LINE
  8
0
 62
     0
 10
2.12907
 20
110.271
 30
0.0
 11
1.71152
 21
110.059
 31
0.0
  0
LINE
  8
0
 62
     0
 10
1.71152
 20
110.059
 30
0.0
 11
1.37942
 21
109.726
 31
0.0
  0
LINE
  8
0
 62
     0
 10
1.37942
 20
109.726
 30
0.0
 11
1.1672
 21
109.309
 31
0.0
  0
LINE
  8
0
 62
     0
 10
1.1672
 20
109.309
 30
0.0
 11
1.09279
 21
108.844
 31
0.0
  0
LINE
  8
0
 62
     0
 10
1.09279
 20
108.844
 30
0.0
 11
1.1672
 21
108.381
 31
0.0
  0
LINE
  8
0
 62
     0
 10
1.1672
 20
108.381
 30
0.0
 11
1.37942
 21
107.962
 31
0.0
  0
LINE
  8
0
 62
     0
 10
1.37942
 20
107.962
 30
0.0
 11
1.71152
 21
107.632
 31
0.0
  0
LINE
  8
0
 62
     0
 10
1.71152
 20
107.632
 30
0.0
 11
2.12907
 21
107.418
 31
0.0
  0
LINE
  8
0
 62
     0
 10
2.12907
 20
107.418
 30
0.0
 11
2.59347
 21
107.344
 31
0.0
  0
LINE
  8
0
 62
     0
 10
2.59347
 20
107.344
 30
0.0
 11
3.05649
 21
107.418
 31
0.0
  0
LINE
  8
0
 62
     0
 10
3.05649
 20
107.418
 30
0.0
 11
3.47541
 21
107.632
 31
0.0
  0
LINE
  8
0
 62
     0
 10
3.47541
 20
107.632
 30
0.0
 11
3.80615
 21
107.962
 31
0.0
  0
LINE
  8
0
 62
     0
 10
3.80615
 20
107.962
 30
0.0
 11
4.01973
 21
108.381
 31
0.0
  0
LINE
  8
0
 62
     0
 10
4.01973
 20
108.381
 30
0.0
 11
4.09416
 21
108.844
 31
0.0
  0
LINE
  8
0
 62
     0
 10
4.09416
 20
108.844
 30
0.0
 11
4.01973
 21
109.309
 31
0.0
  0
LINE
  8
0
 62
     0
 10
4.01973
 20
109.309
 30
0.0
 11
3.80615
 21
109.726
 31
0.0
  0
LINE
  8
0
 62
     0
 10
3.80615
 20
109.726
 30
0.0
 11
3.47541
 21
110.059
 31
0.0
  0
LINE
  8
0
 62
     0
 10
3.47541
 20
110.059
 30
0.0
 11
3.05649
 21
110.271
 31
0.0
  0
LINE
  8
0
 62
     0
 10
3.05649
 20
110.271
 30
0.0
 11
2.59347
 21
110.344
 31
0.0
  0
LINE
  8
0
 62
     0
 10
2.59347
 20
110.344
 30
0.0
 11
2.12907
 21
110.271
 31
0.0
  0
ENDSEC
  0
EOF
