  0
SECTION
  2
HEADER
  9
$ACADVER
  1
AC1009
  9
$EXTMIN
 10
0.0
 20
0.0
 30
0.0
  9
$EXTMAX
 10
1000.0
 20
1000.0
 30
0.0
  9
$FILLMODE
 70
 0
  9
$SPLFRAME
 70
 1
  0
ENDSEC
  0
SECTION
  2
TABLES
  0
TABLE
  2
LAYER
 70
1
  0
LAYER
  2
0
 70
     0
 62
     7
  6
CONTINUOUS
  0
ENDTAB
  0
ENDSEC
  0
SECTION
  2
ENTITIES
  0
LINE
  8
0
 62
     0
 10
0.0950846
 20
123.906
 30
0.0
 11
285.845
 21
123.906
 31
0.0
  0
LINE
  8
0
 62
     0
 10
285.845
 20
123.906
 30
0.0
 11
285.845
 21
0.0799264
 31
0.0
  0
LINE
  8
0
 62
     0
 10
285.845
 20
0.0799264
 30
0.0
 11
0.0950846
 21
0.0799264
 31
0.0
  0
LINE
  8
0
 62
     0
 10
0.0950846
 20
0.0799264
 30
0.0
 11
0.0950846
 21
123.906
 31
0.0
  0
LINE
  8
0
 62
     0
 10
79.412
 20
16.0569
 30
0.0
 11
82.7126
 21
16.0569
 31
0.0
  0
LINE
  8
0
 62
     0
 10
82.7126
 20
16.0569
 30
0.0
 11
82.7126
 21
1.85622
 31
0.0
  0
LINE
  8
0
 62
     0
 10
82.7126
 20
1.85622
 30
0.0
 11
79.412
 21
1.85622
 31
0.0
  0
LINE
  8
0
 62
     0
 10
79.412
 20
1.85622
 30
0.0
 11
79.412
 21
16.0569
 31
0.0
  0
LINE
  8
0
 62
     0
 10
179.412
 20
16.0569
 30
0.0
 11
182.713
 21
16.0569
 31
0.0
  0
LINE
  8
0
 62
     0
 10
182.713
 20
16.0569
 30
0.0
 11
182.713
 21
1.85622
 31
0.0
  0
LINE
  8
0
 62
     0
 10
182.713
 20
1.85622
 30
0.0
 11
179.412
 21
1.85622
 31
0.0
  0
LINE
  8
0
 62
     0
 10
179.412
 20
1.85622
 30
0.0
 11
179.412
 21
16.0569
 31
0.0
  0
LINE
  8
0
 62
     0
 10
5.00091
 20
16.6067
 30
0.0
 11
5.00091
 21
15.6063
 31
0.0
  0
LINE
  8
0
 62
     0
 10
5.00091
 20
15.6063
 30
0.0
 11
4.20028
 21
15.6063
 31
0.0
  0
LINE
  8
0
 62
     0
 10
4.20028
 20
15.6063
 30
0.0
 11
4.20028
 21
12.5071
 31
0.0
  0
LINE
  8
0
 62
     0
 10
4.20028
 20
12.5071
 30
0.0
 11
5.00091
 21
12.5071
 31
0.0
  0
LINE
  8
0
 62
     0
 10
5.00091
 20
12.5071
 30
0.0
 11
5.00091
 21
6.70691
 31
0.0
  0
LINE
  8
0
 62
     0
 10
5.00091
 20
6.70691
 30
0.0
 11
4.20028
 21
6.70691
 31
0.0
  0
LINE
  8
0
 62
     0
 10
4.20028
 20
6.70691
 30
0.0
 11
4.20028
 21
3.60634
 31
0.0
  0
LINE
  8
0
 62
     0
 10
4.20028
 20
3.60634
 30
0.0
 11
5.00091
 21
3.60634
 31
0.0
  0
LINE
  8
0
 62
     0
 10
5.00091
 20
3.60634
 30
0.0
 11
5.00091
 21
2.60587
 31
0.0
  0
LINE
  8
0
 62
     0
 10
5.00091
 20
2.60587
 30
0.0
 11
19.0004
 21
2.60587
 31
0.0
  0
LINE
  8
0
 62
     0
 10
19.0004
 20
2.60587
 30
0.0
 11
19.0004
 21
3.60634
 31
0.0
  0
LINE
  8
0
 62
     0
 10
19.0004
 20
3.60634
 30
0.0
 11
19.801
 21
3.60634
 31
0.0
  0
LINE
  8
0
 62
     0
 10
19.801
 20
3.60634
 30
0.0
 11
19.801
 21
6.70691
 31
0.0
  0
LINE
  8
0
 62
     0
 10
19.801
 20
6.70691
 30
0.0
 11
19.0004
 21
6.70691
 31
0.0
  0
LINE
  8
0
 62
     0
 10
19.0004
 20
6.70691
 30
0.0
 11
19.0004
 21
12.5071
 31
0.0
  0
LINE
  8
0
 62
     0
 10
19.0004
 20
12.5071
 30
0.0
 11
19.801
 21
12.5071
 31
0.0
  0
LINE
  8
0
 62
     0
 10
19.801
 20
12.5071
 30
0.0
 11
19.801
 21
15.6063
 31
0.0
  0
LINE
  8
0
 62
     0
 10
19.801
 20
15.6063
 30
0.0
 11
19.0004
 21
15.6063
 31
0.0
  0
LINE
  8
0
 62
     0
 10
19.0004
 20
15.6063
 30
0.0
 11
19.0004
 21
16.6067
 31
0.0
  0
LINE
  8
0
 62
     0
 10
19.0004
 20
16.6067
 30
0.0
 11
5.00091
 21
16.6067
 31
0.0
  0
LINE
  8
0
 62
     0
 10
28.8134
 20
16.6067
 30
0.0
 11
28.8134
 21
15.6063
 31
0.0
  0
LINE
  8
0
 62
     0
 10
28.8134
 20
15.6063
 30
0.0
 11
28.0128
 21
15.6063
 31
0.0
  0
LINE
  8
0
 62
     0
 10
28.0128
 20
15.6063
 30
0.0
 11
28.0128
 21
12.5071
 31
0.0
  0
LINE
  8
0
 62
     0
 10
28.0128
 20
12.5071
 30
0.0
 11
28.8134
 21
12.5071
 31
0.0
  0
LINE
  8
0
 62
     0
 10
28.8134
 20
12.5071
 30
0.0
 11
28.8134
 21
6.70691
 31
0.0
  0
LINE
  8
0
 62
     0
 10
28.8134
 20
6.70691
 30
0.0
 11
28.0128
 21
6.70691
 31
0.0
  0
LINE
  8
0
 62
     0
 10
28.0128
 20
6.70691
 30
0.0
 11
28.0128
 21
3.60634
 31
0.0
  0
LINE
  8
0
 62
     0
 10
28.0128
 20
3.60634
 30
0.0
 11
28.8134
 21
3.60634
 31
0.0
  0
LINE
  8
0
 62
     0
 10
28.8134
 20
3.60634
 30
0.0
 11
28.8134
 21
2.60587
 31
0.0
  0
LINE
  8
0
 62
     0
 10
28.8134
 20
2.60587
 30
0.0
 11
42.8128
 21
2.60587
 31
0.0
  0
LINE
  8
0
 62
     0
 10
42.8128
 20
2.60587
 30
0.0
 11
42.8128
 21
3.60634
 31
0.0
  0
LINE
  8
0
 62
     0
 10
42.8128
 20
3.60634
 30
0.0
 11
43.6122
 21
3.60634
 31
0.0
  0
LINE
  8
0
 62
     0
 10
43.6122
 20
3.60634
 30
0.0
 11
43.6122
 21
6.70691
 31
0.0
  0
LINE
  8
0
 62
     0
 10
43.6122
 20
6.70691
 30
0.0
 11
42.8128
 21
6.70691
 31
0.0
  0
LINE
  8
0
 62
     0
 10
42.8128
 20
6.70691
 30
0.0
 11
42.8128
 21
12.5071
 31
0.0
  0
LINE
  8
0
 62
     0
 10
42.8128
 20
12.5071
 30
0.0
 11
43.6122
 21
12.5071
 31
0.0
  0
LINE
  8
0
 62
     0
 10
43.6122
 20
12.5071
 30
0.0
 11
43.6122
 21
15.6063
 31
0.0
  0
LINE
  8
0
 62
     0
 10
43.6122
 20
15.6063
 30
0.0
 11
42.8128
 21
15.6063
 31
0.0
  0
LINE
  8
0
 62
     0
 10
42.8128
 20
15.6063
 30
0.0
 11
42.8128
 21
16.6067
 31
0.0
  0
LINE
  8
0
 62
     0
 10
42.8128
 20
16.6067
 30
0.0
 11
28.8134
 21
16.6067
 31
0.0
  0
LINE
  8
0
 62
     0
 10
52.626
 20
16.6067
 30
0.0
 11
52.626
 21
15.6063
 31
0.0
  0
LINE
  8
0
 62
     0
 10
52.626
 20
15.6063
 30
0.0
 11
51.8252
 21
15.6063
 31
0.0
  0
LINE
  8
0
 62
     0
 10
51.8252
 20
15.6063
 30
0.0
 11
51.8252
 21
12.5071
 31
0.0
  0
LINE
  8
0
 62
     0
 10
51.8252
 20
12.5071
 30
0.0
 11
52.626
 21
12.5071
 31
0.0
  0
LINE
  8
0
 62
     0
 10
52.626
 20
12.5071
 30
0.0
 11
52.626
 21
6.70691
 31
0.0
  0
LINE
  8
0
 62
     0
 10
52.626
 20
6.70691
 30
0.0
 11
51.8252
 21
6.70691
 31
0.0
  0
LINE
  8
0
 62
     0
 10
51.8252
 20
6.70691
 30
0.0
 11
51.8252
 21
3.60634
 31
0.0
  0
LINE
  8
0
 62
     0
 10
51.8252
 20
3.60634
 30
0.0
 11
52.626
 21
3.60634
 31
0.0
  0
LINE
  8
0
 62
     0
 10
52.626
 20
3.60634
 30
0.0
 11
52.626
 21
2.60587
 31
0.0
  0
LINE
  8
0
 62
     0
 10
52.626
 20
2.60587
 30
0.0
 11
66.6253
 21
2.60587
 31
0.0
  0
LINE
  8
0
 62
     0
 10
66.6253
 20
2.60587
 30
0.0
 11
66.6253
 21
3.60634
 31
0.0
  0
LINE
  8
0
 62
     0
 10
66.6253
 20
3.60634
 30
0.0
 11
67.4261
 21
3.60634
 31
0.0
  0
LINE
  8
0
 62
     0
 10
67.4261
 20
3.60634
 30
0.0
 11
67.4261
 21
6.70691
 31
0.0
  0
LINE
  8
0
 62
     0
 10
67.4261
 20
6.70691
 30
0.0
 11
66.6253
 21
6.70691
 31
0.0
  0
LINE
  8
0
 62
     0
 10
66.6253
 20
6.70691
 30
0.0
 11
66.6253
 21
12.5071
 31
0.0
  0
LINE
  8
0
 62
     0
 10
66.6253
 20
12.5071
 30
0.0
 11
67.4261
 21
12.5071
 31
0.0
  0
LINE
  8
0
 62
     0
 10
67.4261
 20
12.5071
 30
0.0
 11
67.4261
 21
15.6063
 31
0.0
  0
LINE
  8
0
 62
     0
 10
67.4261
 20
15.6063
 30
0.0
 11
66.6253
 21
15.6063
 31
0.0
  0
LINE
  8
0
 62
     0
 10
66.6253
 20
15.6063
 30
0.0
 11
66.6253
 21
16.6067
 31
0.0
  0
LINE
  8
0
 62
     0
 10
66.6253
 20
16.6067
 30
0.0
 11
52.626
 21
16.6067
 31
0.0
  0
LINE
  8
0
 62
     0
 10
124.062
 20
16.6067
 30
0.0
 11
124.062
 21
15.6063
 31
0.0
  0
LINE
  8
0
 62
     0
 10
124.062
 20
15.6063
 30
0.0
 11
123.263
 21
15.6063
 31
0.0
  0
LINE
  8
0
 62
     0
 10
123.263
 20
15.6063
 30
0.0
 11
123.263
 21
12.5071
 31
0.0
  0
LINE
  8
0
 62
     0
 10
123.263
 20
12.5071
 30
0.0
 11
124.062
 21
12.5071
 31
0.0
  0
LINE
  8
0
 62
     0
 10
124.062
 20
12.5071
 30
0.0
 11
124.062
 21
6.70691
 31
0.0
  0
LINE
  8
0
 62
     0
 10
124.062
 20
6.70691
 30
0.0
 11
123.263
 21
6.70691
 31
0.0
  0
LINE
  8
0
 62
     0
 10
123.263
 20
6.70691
 30
0.0
 11
123.263
 21
3.60634
 31
0.0
  0
LINE
  8
0
 62
     0
 10
123.263
 20
3.60634
 30
0.0
 11
124.062
 21
3.60634
 31
0.0
  0
LINE
  8
0
 62
     0
 10
124.062
 20
3.60634
 30
0.0
 11
124.062
 21
2.60587
 31
0.0
  0
LINE
  8
0
 62
     0
 10
124.062
 20
2.60587
 30
0.0
 11
138.063
 21
2.60587
 31
0.0
  0
LINE
  8
0
 62
     0
 10
138.063
 20
2.60587
 30
0.0
 11
138.063
 21
3.60634
 31
0.0
  0
LINE
  8
0
 62
     0
 10
138.063
 20
3.60634
 30
0.0
 11
138.862
 21
3.60634
 31
0.0
  0
LINE
  8
0
 62
     0
 10
138.862
 20
3.60634
 30
0.0
 11
138.862
 21
6.70691
 31
0.0
  0
LINE
  8
0
 62
     0
 10
138.862
 20
6.70691
 30
0.0
 11
138.063
 21
6.70691
 31
0.0
  0
LINE
  8
0
 62
     0
 10
138.063
 20
6.70691
 30
0.0
 11
138.063
 21
12.5071
 31
0.0
  0
LINE
  8
0
 62
     0
 10
138.063
 20
12.5071
 30
0.0
 11
138.862
 21
12.5071
 31
0.0
  0
LINE
  8
0
 62
     0
 10
138.862
 20
12.5071
 30
0.0
 11
138.862
 21
15.6063
 31
0.0
  0
LINE
  8
0
 62
     0
 10
138.862
 20
15.6063
 30
0.0
 11
138.063
 21
15.6063
 31
0.0
  0
LINE
  8
0
 62
     0
 10
138.063
 20
15.6063
 30
0.0
 11
138.063
 21
16.6067
 31
0.0
  0
LINE
  8
0
 62
     0
 10
138.063
 20
16.6067
 30
0.0
 11
124.062
 21
16.6067
 31
0.0
  0
LINE
  8
0
 62
     0
 10
195.501
 20
16.6067
 30
0.0
 11
195.501
 21
15.6063
 31
0.0
  0
LINE
  8
0
 62
     0
 10
195.501
 20
15.6063
 30
0.0
 11
194.7
 21
15.6063
 31
0.0
  0
LINE
  8
0
 62
     0
 10
194.7
 20
15.6063
 30
0.0
 11
194.7
 21
12.5071
 31
0.0
  0
LINE
  8
0
 62
     0
 10
194.7
 20
12.5071
 30
0.0
 11
195.501
 21
12.5071
 31
0.0
  0
LINE
  8
0
 62
     0
 10
195.501
 20
12.5071
 30
0.0
 11
195.501
 21
6.70691
 31
0.0
  0
LINE
  8
0
 62
     0
 10
195.501
 20
6.70691
 30
0.0
 11
194.7
 21
6.70691
 31
0.0
  0
LINE
  8
0
 62
     0
 10
194.7
 20
6.70691
 30
0.0
 11
194.7
 21
3.60634
 31
0.0
  0
LINE
  8
0
 62
     0
 10
194.7
 20
3.60634
 30
0.0
 11
195.501
 21
3.60634
 31
0.0
  0
LINE
  8
0
 62
     0
 10
195.501
 20
3.60634
 30
0.0
 11
195.501
 21
2.60587
 31
0.0
  0
LINE
  8
0
 62
     0
 10
195.501
 20
2.60587
 30
0.0
 11
209.5
 21
2.60587
 31
0.0
  0
LINE
  8
0
 62
     0
 10
209.5
 20
2.60587
 30
0.0
 11
209.5
 21
3.60634
 31
0.0
  0
LINE
  8
0
 62
     0
 10
209.5
 20
3.60634
 30
0.0
 11
210.301
 21
3.60634
 31
0.0
  0
LINE
  8
0
 62
     0
 10
210.301
 20
3.60634
 30
0.0
 11
210.301
 21
6.70691
 31
0.0
  0
LINE
  8
0
 62
     0
 10
210.301
 20
6.70691
 30
0.0
 11
209.5
 21
6.70691
 31
0.0
  0
LINE
  8
0
 62
     0
 10
209.5
 20
6.70691
 30
0.0
 11
209.5
 21
12.5071
 31
0.0
  0
LINE
  8
0
 62
     0
 10
209.5
 20
12.5071
 30
0.0
 11
210.301
 21
12.5071
 31
0.0
  0
LINE
  8
0
 62
     0
 10
210.301
 20
12.5071
 30
0.0
 11
210.301
 21
15.6063
 31
0.0
  0
LINE
  8
0
 62
     0
 10
210.301
 20
15.6063
 30
0.0
 11
209.5
 21
15.6063
 31
0.0
  0
LINE
  8
0
 62
     0
 10
209.5
 20
15.6063
 30
0.0
 11
209.5
 21
16.6067
 31
0.0
  0
LINE
  8
0
 62
     0
 10
209.5
 20
16.6067
 30
0.0
 11
195.501
 21
16.6067
 31
0.0
  0
LINE
  8
0
 62
     0
 10
219.313
 20
16.6067
 30
0.0
 11
219.313
 21
15.6063
 31
0.0
  0
LINE
  8
0
 62
     0
 10
219.313
 20
15.6063
 30
0.0
 11
218.513
 21
15.6063
 31
0.0
  0
LINE
  8
0
 62
     0
 10
218.513
 20
15.6063
 30
0.0
 11
218.513
 21
12.5071
 31
0.0
  0
LINE
  8
0
 62
     0
 10
218.513
 20
12.5071
 30
0.0
 11
219.313
 21
12.5071
 31
0.0
  0
LINE
  8
0
 62
     0
 10
219.313
 20
12.5071
 30
0.0
 11
219.313
 21
6.70691
 31
0.0
  0
LINE
  8
0
 62
     0
 10
219.313
 20
6.70691
 30
0.0
 11
218.513
 21
6.70691
 31
0.0
  0
LINE
  8
0
 62
     0
 10
218.513
 20
6.70691
 30
0.0
 11
218.513
 21
3.60634
 31
0.0
  0
LINE
  8
0
 62
     0
 10
218.513
 20
3.60634
 30
0.0
 11
219.313
 21
3.60634
 31
0.0
  0
LINE
  8
0
 62
     0
 10
219.313
 20
3.60634
 30
0.0
 11
219.313
 21
2.60587
 31
0.0
  0
LINE
  8
0
 62
     0
 10
219.313
 20
2.60587
 30
0.0
 11
233.313
 21
2.60587
 31
0.0
  0
LINE
  8
0
 62
     0
 10
233.313
 20
2.60587
 30
0.0
 11
233.313
 21
3.60634
 31
0.0
  0
LINE
  8
0
 62
     0
 10
233.313
 20
3.60634
 30
0.0
 11
234.112
 21
3.60634
 31
0.0
  0
LINE
  8
0
 62
     0
 10
234.112
 20
3.60634
 30
0.0
 11
234.112
 21
6.70691
 31
0.0
  0
LINE
  8
0
 62
     0
 10
234.112
 20
6.70691
 30
0.0
 11
233.313
 21
6.70691
 31
0.0
  0
LINE
  8
0
 62
     0
 10
233.313
 20
6.70691
 30
0.0
 11
233.313
 21
12.5071
 31
0.0
  0
LINE
  8
0
 62
     0
 10
233.313
 20
12.5071
 30
0.0
 11
234.112
 21
12.5071
 31
0.0
  0
LINE
  8
0
 62
     0
 10
234.112
 20
12.5071
 30
0.0
 11
234.112
 21
15.6063
 31
0.0
  0
LINE
  8
0
 62
     0
 10
234.112
 20
15.6063
 30
0.0
 11
233.313
 21
15.6063
 31
0.0
  0
LINE
  8
0
 62
     0
 10
233.313
 20
15.6063
 30
0.0
 11
233.313
 21
16.6067
 31
0.0
  0
LINE
  8
0
 62
     0
 10
233.313
 20
16.6067
 30
0.0
 11
219.313
 21
16.6067
 31
0.0
  0
LINE
  8
0
 62
     0
 10
243.126
 20
16.6067
 30
0.0
 11
243.126
 21
15.6063
 31
0.0
  0
LINE
  8
0
 62
     0
 10
243.126
 20
15.6063
 30
0.0
 11
242.325
 21
15.6063
 31
0.0
  0
LINE
  8
0
 62
     0
 10
242.325
 20
15.6063
 30
0.0
 11
242.325
 21
12.5071
 31
0.0
  0
LINE
  8
0
 62
     0
 10
242.325
 20
12.5071
 30
0.0
 11
243.126
 21
12.5071
 31
0.0
  0
LINE
  8
0
 62
     0
 10
243.126
 20
12.5071
 30
0.0
 11
243.126
 21
6.70691
 31
0.0
  0
LINE
  8
0
 62
     0
 10
243.126
 20
6.70691
 30
0.0
 11
242.325
 21
6.70691
 31
0.0
  0
LINE
  8
0
 62
     0
 10
242.325
 20
6.70691
 30
0.0
 11
242.325
 21
3.60634
 31
0.0
  0
LINE
  8
0
 62
     0
 10
242.325
 20
3.60634
 30
0.0
 11
243.126
 21
3.60634
 31
0.0
  0
LINE
  8
0
 62
     0
 10
243.126
 20
3.60634
 30
0.0
 11
243.126
 21
2.60587
 31
0.0
  0
LINE
  8
0
 62
     0
 10
243.126
 20
2.60587
 30
0.0
 11
257.125
 21
2.60587
 31
0.0
  0
LINE
  8
0
 62
     0
 10
257.125
 20
2.60587
 30
0.0
 11
257.125
 21
3.60634
 31
0.0
  0
LINE
  8
0
 62
     0
 10
257.125
 20
3.60634
 30
0.0
 11
257.926
 21
3.60634
 31
0.0
  0
LINE
  8
0
 62
     0
 10
257.926
 20
3.60634
 30
0.0
 11
257.926
 21
6.70691
 31
0.0
  0
LINE
  8
0
 62
     0
 10
257.926
 20
6.70691
 30
0.0
 11
257.125
 21
6.70691
 31
0.0
  0
LINE
  8
0
 62
     0
 10
257.125
 20
6.70691
 30
0.0
 11
257.125
 21
12.5071
 31
0.0
  0
LINE
  8
0
 62
     0
 10
257.125
 20
12.5071
 30
0.0
 11
257.926
 21
12.5071
 31
0.0
  0
LINE
  8
0
 62
     0
 10
257.926
 20
12.5071
 30
0.0
 11
257.926
 21
15.6063
 31
0.0
  0
LINE
  8
0
 62
     0
 10
257.926
 20
15.6063
 30
0.0
 11
257.125
 21
15.6063
 31
0.0
  0
LINE
  8
0
 62
     0
 10
257.125
 20
15.6063
 30
0.0
 11
257.125
 21
16.6067
 31
0.0
  0
LINE
  8
0
 62
     0
 10
257.125
 20
16.6067
 30
0.0
 11
243.126
 21
16.6067
 31
0.0
  0
LINE
  8
0
 62
     0
 10
266.938
 20
16.6067
 30
0.0
 11
266.938
 21
15.6063
 31
0.0
  0
LINE
  8
0
 62
     0
 10
266.938
 20
15.6063
 30
0.0
 11
266.138
 21
15.6063
 31
0.0
  0
LINE
  8
0
 62
     0
 10
266.138
 20
15.6063
 30
0.0
 11
266.138
 21
12.5071
 31
0.0
  0
LINE
  8
0
 62
     0
 10
266.138
 20
12.5071
 30
0.0
 11
266.938
 21
12.5071
 31
0.0
  0
LINE
  8
0
 62
     0
 10
266.938
 20
12.5071
 30
0.0
 11
266.938
 21
6.70691
 31
0.0
  0
LINE
  8
0
 62
     0
 10
266.938
 20
6.70691
 30
0.0
 11
266.138
 21
6.70691
 31
0.0
  0
LINE
  8
0
 62
     0
 10
266.138
 20
6.70691
 30
0.0
 11
266.138
 21
3.60634
 31
0.0
  0
LINE
  8
0
 62
     0
 10
266.138
 20
3.60634
 30
0.0
 11
266.938
 21
3.60634
 31
0.0
  0
LINE
  8
0
 62
     0
 10
266.938
 20
3.60634
 30
0.0
 11
266.938
 21
2.60587
 31
0.0
  0
LINE
  8
0
 62
     0
 10
266.938
 20
2.60587
 30
0.0
 11
280.938
 21
2.60587
 31
0.0
  0
LINE
  8
0
 62
     0
 10
280.938
 20
2.60587
 30
0.0
 11
280.938
 21
3.60634
 31
0.0
  0
LINE
  8
0
 62
     0
 10
280.938
 20
3.60634
 30
0.0
 11
281.737
 21
3.60634
 31
0.0
  0
LINE
  8
0
 62
     0
 10
281.737
 20
3.60634
 30
0.0
 11
281.737
 21
6.70691
 31
0.0
  0
LINE
  8
0
 62
     0
 10
281.737
 20
6.70691
 30
0.0
 11
280.938
 21
6.70691
 31
0.0
  0
LINE
  8
0
 62
     0
 10
280.938
 20
6.70691
 30
0.0
 11
280.938
 21
12.5071
 31
0.0
  0
LINE
  8
0
 62
     0
 10
280.938
 20
12.5071
 30
0.0
 11
281.737
 21
12.5071
 31
0.0
  0
LINE
  8
0
 62
     0
 10
281.737
 20
12.5071
 30
0.0
 11
281.737
 21
15.6063
 31
0.0
  0
LINE
  8
0
 62
     0
 10
281.737
 20
15.6063
 30
0.0
 11
280.938
 21
15.6063
 31
0.0
  0
LINE
  8
0
 62
     0
 10
280.938
 20
15.6063
 30
0.0
 11
280.938
 21
16.6067
 31
0.0
  0
LINE
  8
0
 62
     0
 10
280.938
 20
16.6067
 30
0.0
 11
266.938
 21
16.6067
 31
0.0
  0
LINE
  8
0
 62
     0
 10
7.97609
 20
35.1069
 30
0.0
 11
11.2751
 21
35.1069
 31
0.0
  0
LINE
  8
0
 62
     0
 10
11.2751
 20
35.1069
 30
0.0
 11
11.2751
 21
20.9062
 31
0.0
  0
LINE
  8
0
 62
     0
 10
11.2751
 20
20.9062
 30
0.0
 11
7.97609
 21
20.9062
 31
0.0
  0
LINE
  8
0
 62
     0
 10
7.97609
 20
20.9062
 30
0.0
 11
7.97609
 21
35.1069
 31
0.0
  0
LINE
  8
0
 62
     0
 10
31.7762
 20
35.1069
 30
0.0
 11
35.0752
 21
35.1069
 31
0.0
  0
LINE
  8
0
 62
     0
 10
35.0752
 20
35.1069
 30
0.0
 11
35.0752
 21
20.9062
 31
0.0
  0
LINE
  8
0
 62
     0
 10
35.0752
 20
20.9062
 30
0.0
 11
31.7762
 21
20.9062
 31
0.0
  0
LINE
  8
0
 62
     0
 10
31.7762
 20
20.9062
 30
0.0
 11
31.7762
 21
35.1069
 31
0.0
  0
LINE
  8
0
 62
     0
 10
246.101
 20
35.1069
 30
0.0
 11
249.4
 21
35.1069
 31
0.0
  0
LINE
  8
0
 62
     0
 10
249.4
 20
35.1069
 30
0.0
 11
249.4
 21
20.9062
 31
0.0
  0
LINE
  8
0
 62
     0
 10
249.4
 20
20.9062
 30
0.0
 11
246.101
 21
20.9062
 31
0.0
  0
LINE
  8
0
 62
     0
 10
246.101
 20
20.9062
 30
0.0
 11
246.101
 21
35.1069
 31
0.0
  0
LINE
  8
0
 62
     0
 10
269.901
 20
35.1069
 30
0.0
 11
273.2
 21
35.1069
 31
0.0
  0
LINE
  8
0
 62
     0
 10
273.2
 20
35.1069
 30
0.0
 11
273.2
 21
20.9062
 31
0.0
  0
LINE
  8
0
 62
     0
 10
273.2
 20
20.9062
 30
0.0
 11
269.901
 21
20.9062
 31
0.0
  0
LINE
  8
0
 62
     0
 10
269.901
 20
20.9062
 30
0.0
 11
269.901
 21
35.1069
 31
0.0
  0
LINE
  8
0
 62
     0
 10
14.5259
 20
35.6567
 30
0.0
 11
14.5259
 21
34.6563
 31
0.0
  0
LINE
  8
0
 62
     0
 10
14.5259
 20
34.6563
 30
0.0
 11
13.7253
 21
34.6563
 31
0.0
  0
LINE
  8
0
 62
     0
 10
13.7253
 20
34.6563
 30
0.0
 11
13.7253
 21
31.5557
 31
0.0
  0
LINE
  8
0
 62
     0
 10
13.7253
 20
31.5557
 30
0.0
 11
14.5259
 21
31.5557
 31
0.0
  0
LINE
  8
0
 62
     0
 10
14.5259
 20
31.5557
 30
0.0
 11
14.5259
 21
25.7569
 31
0.0
  0
LINE
  8
0
 62
     0
 10
14.5259
 20
25.7569
 30
0.0
 11
13.7253
 21
25.7569
 31
0.0
  0
LINE
  8
0
 62
     0
 10
13.7253
 20
25.7569
 30
0.0
 11
13.7253
 21
22.6563
 31
0.0
  0
LINE
  8
0
 62
     0
 10
13.7253
 20
22.6563
 30
0.0
 11
14.5259
 21
22.6563
 31
0.0
  0
LINE
  8
0
 62
     0
 10
14.5259
 20
22.6563
 30
0.0
 11
14.5259
 21
21.6559
 31
0.0
  0
LINE
  8
0
 62
     0
 10
14.5259
 20
21.6559
 30
0.0
 11
28.5254
 21
21.6559
 31
0.0
  0
LINE
  8
0
 62
     0
 10
28.5254
 20
21.6559
 30
0.0
 11
28.5254
 21
22.6563
 31
0.0
  0
LINE
  8
0
 62
     0
 10
28.5254
 20
22.6563
 30
0.0
 11
29.326
 21
22.6563
 31
0.0
  0
LINE
  8
0
 62
     0
 10
29.326
 20
22.6563
 30
0.0
 11
29.326
 21
25.7569
 31
0.0
  0
LINE
  8
0
 62
     0
 10
29.326
 20
25.7569
 30
0.0
 11
28.5254
 21
25.7569
 31
0.0
  0
LINE
  8
0
 62
     0
 10
28.5254
 20
25.7569
 30
0.0
 11
28.5254
 21
31.5557
 31
0.0
  0
LINE
  8
0
 62
     0
 10
28.5254
 20
31.5557
 30
0.0
 11
29.326
 21
31.5557
 31
0.0
  0
LINE
  8
0
 62
     0
 10
29.326
 20
31.5557
 30
0.0
 11
29.326
 21
34.6563
 31
0.0
  0
LINE
  8
0
 62
     0
 10
29.326
 20
34.6563
 30
0.0
 11
28.5254
 21
34.6563
 31
0.0
  0
LINE
  8
0
 62
     0
 10
28.5254
 20
34.6563
 30
0.0
 11
28.5254
 21
35.6567
 31
0.0
  0
LINE
  8
0
 62
     0
 10
28.5254
 20
35.6567
 30
0.0
 11
14.5259
 21
35.6567
 31
0.0
  0
LINE
  8
0
 62
     0
 10
45.4822
 20
35.6567
 30
0.0
 11
45.4822
 21
34.6563
 31
0.0
  0
LINE
  8
0
 62
     0
 10
45.4822
 20
34.6563
 30
0.0
 11
44.6814
 21
34.6563
 31
0.0
  0
LINE
  8
0
 62
     0
 10
44.6814
 20
34.6563
 30
0.0
 11
44.6814
 21
31.5557
 31
0.0
  0
LINE
  8
0
 62
     0
 10
44.6814
 20
31.5557
 30
0.0
 11
45.4822
 21
31.5557
 31
0.0
  0
LINE
  8
0
 62
     0
 10
45.4822
 20
31.5557
 30
0.0
 11
45.4822
 21
25.7569
 31
0.0
  0
LINE
  8
0
 62
     0
 10
45.4822
 20
25.7569
 30
0.0
 11
44.6814
 21
25.7569
 31
0.0
  0
LINE
  8
0
 62
     0
 10
44.6814
 20
25.7569
 30
0.0
 11
44.6814
 21
22.6563
 31
0.0
  0
LINE
  8
0
 62
     0
 10
44.6814
 20
22.6563
 30
0.0
 11
45.4822
 21
22.6563
 31
0.0
  0
LINE
  8
0
 62
     0
 10
45.4822
 20
22.6563
 30
0.0
 11
45.4822
 21
21.6559
 31
0.0
  0
LINE
  8
0
 62
     0
 10
45.4822
 20
21.6559
 30
0.0
 11
59.4815
 21
21.6559
 31
0.0
  0
LINE
  8
0
 62
     0
 10
59.4815
 20
21.6559
 30
0.0
 11
59.4815
 21
22.6563
 31
0.0
  0
LINE
  8
0
 62
     0
 10
59.4815
 20
22.6563
 30
0.0
 11
60.2823
 21
22.6563
 31
0.0
  0
LINE
  8
0
 62
     0
 10
60.2823
 20
22.6563
 30
0.0
 11
60.2823
 21
25.7569
 31
0.0
  0
LINE
  8
0
 62
     0
 10
60.2823
 20
25.7569
 30
0.0
 11
59.4815
 21
25.7569
 31
0.0
  0
LINE
  8
0
 62
     0
 10
59.4815
 20
25.7569
 30
0.0
 11
59.4815
 21
31.5557
 31
0.0
  0
LINE
  8
0
 62
     0
 10
59.4815
 20
31.5557
 30
0.0
 11
60.2823
 21
31.5557
 31
0.0
  0
LINE
  8
0
 62
     0
 10
60.2823
 20
31.5557
 30
0.0
 11
60.2823
 21
34.6563
 31
0.0
  0
LINE
  8
0
 62
     0
 10
60.2823
 20
34.6563
 30
0.0
 11
59.4815
 21
34.6563
 31
0.0
  0
LINE
  8
0
 62
     0
 10
59.4815
 20
34.6563
 30
0.0
 11
59.4815
 21
35.6567
 31
0.0
  0
LINE
  8
0
 62
     0
 10
59.4815
 20
35.6567
 30
0.0
 11
45.4822
 21
35.6567
 31
0.0
  0
LINE
  8
0
 62
     0
 10
64.5322
 20
35.6567
 30
0.0
 11
64.5322
 21
34.6563
 31
0.0
  0
LINE
  8
0
 62
     0
 10
64.5322
 20
34.6563
 30
0.0
 11
63.7314
 21
34.6563
 31
0.0
  0
LINE
  8
0
 62
     0
 10
63.7314
 20
34.6563
 30
0.0
 11
63.7314
 21
31.5557
 31
0.0
  0
LINE
  8
0
 62
     0
 10
63.7314
 20
31.5557
 30
0.0
 11
64.5322
 21
31.5557
 31
0.0
  0
LINE
  8
0
 62
     0
 10
64.5322
 20
31.5557
 30
0.0
 11
64.5322
 21
25.7569
 31
0.0
  0
LINE
  8
0
 62
     0
 10
64.5322
 20
25.7569
 30
0.0
 11
63.7314
 21
25.7569
 31
0.0
  0
LINE
  8
0
 62
     0
 10
63.7314
 20
25.7569
 30
0.0
 11
63.7314
 21
22.6563
 31
0.0
  0
LINE
  8
0
 62
     0
 10
63.7314
 20
22.6563
 30
0.0
 11
64.5322
 21
22.6563
 31
0.0
  0
LINE
  8
0
 62
     0
 10
64.5322
 20
22.6563
 30
0.0
 11
64.5322
 21
21.6559
 31
0.0
  0
LINE
  8
0
 62
     0
 10
64.5322
 20
21.6559
 30
0.0
 11
78.5315
 21
21.6559
 31
0.0
  0
LINE
  8
0
 62
     0
 10
78.5315
 20
21.6559
 30
0.0
 11
78.5315
 21
22.6563
 31
0.0
  0
LINE
  8
0
 62
     0
 10
78.5315
 20
22.6563
 30
0.0
 11
79.3323
 21
22.6563
 31
0.0
  0
LINE
  8
0
 62
     0
 10
79.3323
 20
22.6563
 30
0.0
 11
79.3323
 21
25.7569
 31
0.0
  0
LINE
  8
0
 62
     0
 10
79.3323
 20
25.7569
 30
0.0
 11
78.5315
 21
25.7569
 31
0.0
  0
LINE
  8
0
 62
     0
 10
78.5315
 20
25.7569
 30
0.0
 11
78.5315
 21
31.5557
 31
0.0
  0
LINE
  8
0
 62
     0
 10
78.5315
 20
31.5557
 30
0.0
 11
79.3323
 21
31.5557
 31
0.0
  0
LINE
  8
0
 62
     0
 10
79.3323
 20
31.5557
 30
0.0
 11
79.3323
 21
34.6563
 31
0.0
  0
LINE
  8
0
 62
     0
 10
79.3323
 20
34.6563
 30
0.0
 11
78.5315
 21
34.6563
 31
0.0
  0
LINE
  8
0
 62
     0
 10
78.5315
 20
34.6563
 30
0.0
 11
78.5315
 21
35.6567
 31
0.0
  0
LINE
  8
0
 62
     0
 10
78.5315
 20
35.6567
 30
0.0
 11
64.5322
 21
35.6567
 31
0.0
  0
LINE
  8
0
 62
     0
 10
83.5822
 20
35.6567
 30
0.0
 11
83.5822
 21
34.6563
 31
0.0
  0
LINE
  8
0
 62
     0
 10
83.5822
 20
34.6563
 30
0.0
 11
82.7814
 21
34.6563
 31
0.0
  0
LINE
  8
0
 62
     0
 10
82.7814
 20
34.6563
 30
0.0
 11
82.7814
 21
31.5557
 31
0.0
  0
LINE
  8
0
 62
     0
 10
82.7814
 20
31.5557
 30
0.0
 11
83.5822
 21
31.5557
 31
0.0
  0
LINE
  8
0
 62
     0
 10
83.5822
 20
31.5557
 30
0.0
 11
83.5822
 21
25.7569
 31
0.0
  0
LINE
  8
0
 62
     0
 10
83.5822
 20
25.7569
 30
0.0
 11
82.7814
 21
25.7569
 31
0.0
  0
LINE
  8
0
 62
     0
 10
82.7814
 20
25.7569
 30
0.0
 11
82.7814
 21
22.6563
 31
0.0
  0
LINE
  8
0
 62
     0
 10
82.7814
 20
22.6563
 30
0.0
 11
83.5822
 21
22.6563
 31
0.0
  0
LINE
  8
0
 62
     0
 10
83.5822
 20
22.6563
 30
0.0
 11
83.5822
 21
21.6559
 31
0.0
  0
LINE
  8
0
 62
     0
 10
83.5822
 20
21.6559
 30
0.0
 11
97.5815
 21
21.6559
 31
0.0
  0
LINE
  8
0
 62
     0
 10
97.5815
 20
21.6559
 30
0.0
 11
97.5815
 21
22.6563
 31
0.0
  0
LINE
  8
0
 62
     0
 10
97.5815
 20
22.6563
 30
0.0
 11
98.3823
 21
22.6563
 31
0.0
  0
LINE
  8
0
 62
     0
 10
98.3823
 20
22.6563
 30
0.0
 11
98.3823
 21
25.7569
 31
0.0
  0
LINE
  8
0
 62
     0
 10
98.3823
 20
25.7569
 30
0.0
 11
97.5815
 21
25.7569
 31
0.0
  0
LINE
  8
0
 62
     0
 10
97.5815
 20
25.7569
 30
0.0
 11
97.5815
 21
31.5557
 31
0.0
  0
LINE
  8
0
 62
     0
 10
97.5815
 20
31.5557
 30
0.0
 11
98.3823
 21
31.5557
 31
0.0
  0
LINE
  8
0
 62
     0
 10
98.3823
 20
31.5557
 30
0.0
 11
98.3823
 21
34.6563
 31
0.0
  0
LINE
  8
0
 62
     0
 10
98.3823
 20
34.6563
 30
0.0
 11
97.5815
 21
34.6563
 31
0.0
  0
LINE
  8
0
 62
     0
 10
97.5815
 20
34.6563
 30
0.0
 11
97.5815
 21
35.6567
 31
0.0
  0
LINE
  8
0
 62
     0
 10
97.5815
 20
35.6567
 30
0.0
 11
83.5822
 21
35.6567
 31
0.0
  0
LINE
  8
0
 62
     0
 10
102.632
 20
35.6567
 30
0.0
 11
102.632
 21
34.6563
 31
0.0
  0
LINE
  8
0
 62
     0
 10
102.632
 20
34.6563
 30
0.0
 11
101.831
 21
34.6563
 31
0.0
  0
LINE
  8
0
 62
     0
 10
101.831
 20
34.6563
 30
0.0
 11
101.831
 21
31.5557
 31
0.0
  0
LINE
  8
0
 62
     0
 10
101.831
 20
31.5557
 30
0.0
 11
102.632
 21
31.5557
 31
0.0
  0
LINE
  8
0
 62
     0
 10
102.632
 20
31.5557
 30
0.0
 11
102.632
 21
25.7569
 31
0.0
  0
LINE
  8
0
 62
     0
 10
102.632
 20
25.7569
 30
0.0
 11
101.831
 21
25.7569
 31
0.0
  0
LINE
  8
0
 62
     0
 10
101.831
 20
25.7569
 30
0.0
 11
101.831
 21
22.6563
 31
0.0
  0
LINE
  8
0
 62
     0
 10
101.831
 20
22.6563
 30
0.0
 11
102.632
 21
22.6563
 31
0.0
  0
LINE
  8
0
 62
     0
 10
102.632
 20
22.6563
 30
0.0
 11
102.632
 21
21.6559
 31
0.0
  0
LINE
  8
0
 62
     0
 10
102.632
 20
21.6559
 30
0.0
 11
116.632
 21
21.6559
 31
0.0
  0
LINE
  8
0
 62
     0
 10
116.632
 20
21.6559
 30
0.0
 11
116.632
 21
22.6563
 31
0.0
  0
LINE
  8
0
 62
     0
 10
116.632
 20
22.6563
 30
0.0
 11
117.432
 21
22.6563
 31
0.0
  0
LINE
  8
0
 62
     0
 10
117.432
 20
22.6563
 30
0.0
 11
117.432
 21
25.7569
 31
0.0
  0
LINE
  8
0
 62
     0
 10
117.432
 20
25.7569
 30
0.0
 11
116.632
 21
25.7569
 31
0.0
  0
LINE
  8
0
 62
     0
 10
116.632
 20
25.7569
 30
0.0
 11
116.632
 21
31.5557
 31
0.0
  0
LINE
  8
0
 62
     0
 10
116.632
 20
31.5557
 30
0.0
 11
117.432
 21
31.5557
 31
0.0
  0
LINE
  8
0
 62
     0
 10
117.432
 20
31.5557
 30
0.0
 11
117.432
 21
34.6563
 31
0.0
  0
LINE
  8
0
 62
     0
 10
117.432
 20
34.6563
 30
0.0
 11
116.632
 21
34.6563
 31
0.0
  0
LINE
  8
0
 62
     0
 10
116.632
 20
34.6563
 30
0.0
 11
116.632
 21
35.6567
 31
0.0
  0
LINE
  8
0
 62
     0
 10
116.632
 20
35.6567
 30
0.0
 11
102.632
 21
35.6567
 31
0.0
  0
LINE
  8
0
 62
     0
 10
121.682
 20
35.6567
 30
0.0
 11
121.682
 21
34.6563
 31
0.0
  0
LINE
  8
0
 62
     0
 10
121.682
 20
34.6563
 30
0.0
 11
120.881
 21
34.6563
 31
0.0
  0
LINE
  8
0
 62
     0
 10
120.881
 20
34.6563
 30
0.0
 11
120.881
 21
31.5557
 31
0.0
  0
LINE
  8
0
 62
     0
 10
120.881
 20
31.5557
 30
0.0
 11
121.682
 21
31.5557
 31
0.0
  0
LINE
  8
0
 62
     0
 10
121.682
 20
31.5557
 30
0.0
 11
121.682
 21
25.7569
 31
0.0
  0
LINE
  8
0
 62
     0
 10
121.682
 20
25.7569
 30
0.0
 11
120.881
 21
25.7569
 31
0.0
  0
LINE
  8
0
 62
     0
 10
120.881
 20
25.7569
 30
0.0
 11
120.881
 21
22.6563
 31
0.0
  0
LINE
  8
0
 62
     0
 10
120.881
 20
22.6563
 30
0.0
 11
121.682
 21
22.6563
 31
0.0
  0
LINE
  8
0
 62
     0
 10
121.682
 20
22.6563
 30
0.0
 11
121.682
 21
21.6559
 31
0.0
  0
LINE
  8
0
 62
     0
 10
121.682
 20
21.6559
 30
0.0
 11
135.682
 21
21.6559
 31
0.0
  0
LINE
  8
0
 62
     0
 10
135.682
 20
21.6559
 30
0.0
 11
135.682
 21
22.6563
 31
0.0
  0
LINE
  8
0
 62
     0
 10
135.682
 20
22.6563
 30
0.0
 11
136.482
 21
22.6563
 31
0.0
  0
LINE
  8
0
 62
     0
 10
136.482
 20
22.6563
 30
0.0
 11
136.482
 21
25.7569
 31
0.0
  0
LINE
  8
0
 62
     0
 10
136.482
 20
25.7569
 30
0.0
 11
135.682
 21
25.7569
 31
0.0
  0
LINE
  8
0
 62
     0
 10
135.682
 20
25.7569
 30
0.0
 11
135.682
 21
31.5557
 31
0.0
  0
LINE
  8
0
 62
     0
 10
135.682
 20
31.5557
 30
0.0
 11
136.482
 21
31.5557
 31
0.0
  0
LINE
  8
0
 62
     0
 10
136.482
 20
31.5557
 30
0.0
 11
136.482
 21
34.6563
 31
0.0
  0
LINE
  8
0
 62
     0
 10
136.482
 20
34.6563
 30
0.0
 11
135.682
 21
34.6563
 31
0.0
  0
LINE
  8
0
 62
     0
 10
135.682
 20
34.6563
 30
0.0
 11
135.682
 21
35.6567
 31
0.0
  0
LINE
  8
0
 62
     0
 10
135.682
 20
35.6567
 30
0.0
 11
121.682
 21
35.6567
 31
0.0
  0
LINE
  8
0
 62
     0
 10
140.732
 20
35.6567
 30
0.0
 11
140.732
 21
34.6563
 31
0.0
  0
LINE
  8
0
 62
     0
 10
140.732
 20
34.6563
 30
0.0
 11
139.931
 21
34.6563
 31
0.0
  0
LINE
  8
0
 62
     0
 10
139.931
 20
34.6563
 30
0.0
 11
139.931
 21
31.5557
 31
0.0
  0
LINE
  8
0
 62
     0
 10
139.931
 20
31.5557
 30
0.0
 11
140.732
 21
31.5557
 31
0.0
  0
LINE
  8
0
 62
     0
 10
140.732
 20
31.5557
 30
0.0
 11
140.732
 21
25.7569
 31
0.0
  0
LINE
  8
0
 62
     0
 10
140.732
 20
25.7569
 30
0.0
 11
139.931
 21
25.7569
 31
0.0
  0
LINE
  8
0
 62
     0
 10
139.931
 20
25.7569
 30
0.0
 11
139.931
 21
22.6563
 31
0.0
  0
LINE
  8
0
 62
     0
 10
139.931
 20
22.6563
 30
0.0
 11
140.732
 21
22.6563
 31
0.0
  0
LINE
  8
0
 62
     0
 10
140.732
 20
22.6563
 30
0.0
 11
140.732
 21
21.6559
 31
0.0
  0
LINE
  8
0
 62
     0
 10
140.732
 20
21.6559
 30
0.0
 11
154.732
 21
21.6559
 31
0.0
  0
LINE
  8
0
 62
     0
 10
154.732
 20
21.6559
 30
0.0
 11
154.732
 21
22.6563
 31
0.0
  0
LINE
  8
0
 62
     0
 10
154.732
 20
22.6563
 30
0.0
 11
155.532
 21
22.6563
 31
0.0
  0
LINE
  8
0
 62
     0
 10
155.532
 20
22.6563
 30
0.0
 11
155.532
 21
25.7569
 31
0.0
  0
LINE
  8
0
 62
     0
 10
155.532
 20
25.7569
 30
0.0
 11
154.732
 21
25.7569
 31
0.0
  0
LINE
  8
0
 62
     0
 10
154.732
 20
25.7569
 30
0.0
 11
154.732
 21
31.5557
 31
0.0
  0
LINE
  8
0
 62
     0
 10
154.732
 20
31.5557
 30
0.0
 11
155.532
 21
31.5557
 31
0.0
  0
LINE
  8
0
 62
     0
 10
155.532
 20
31.5557
 30
0.0
 11
155.532
 21
34.6563
 31
0.0
  0
LINE
  8
0
 62
     0
 10
155.532
 20
34.6563
 30
0.0
 11
154.732
 21
34.6563
 31
0.0
  0
LINE
  8
0
 62
     0
 10
154.732
 20
34.6563
 30
0.0
 11
154.732
 21
35.6567
 31
0.0
  0
LINE
  8
0
 62
     0
 10
154.732
 20
35.6567
 30
0.0
 11
140.732
 21
35.6567
 31
0.0
  0
LINE
  8
0
 62
     0
 10
159.782
 20
35.6567
 30
0.0
 11
159.782
 21
34.6563
 31
0.0
  0
LINE
  8
0
 62
     0
 10
159.782
 20
34.6563
 30
0.0
 11
158.981
 21
34.6563
 31
0.0
  0
LINE
  8
0
 62
     0
 10
158.981
 20
34.6563
 30
0.0
 11
158.981
 21
31.5557
 31
0.0
  0
LINE
  8
0
 62
     0
 10
158.981
 20
31.5557
 30
0.0
 11
159.782
 21
31.5557
 31
0.0
  0
LINE
  8
0
 62
     0
 10
159.782
 20
31.5557
 30
0.0
 11
159.782
 21
25.7569
 31
0.0
  0
LINE
  8
0
 62
     0
 10
159.782
 20
25.7569
 30
0.0
 11
158.981
 21
25.7569
 31
0.0
  0
LINE
  8
0
 62
     0
 10
158.981
 20
25.7569
 30
0.0
 11
158.981
 21
22.6563
 31
0.0
  0
LINE
  8
0
 62
     0
 10
158.981
 20
22.6563
 30
0.0
 11
159.782
 21
22.6563
 31
0.0
  0
LINE
  8
0
 62
     0
 10
159.782
 20
22.6563
 30
0.0
 11
159.782
 21
21.6559
 31
0.0
  0
LINE
  8
0
 62
     0
 10
159.782
 20
21.6559
 30
0.0
 11
173.782
 21
21.6559
 31
0.0
  0
LINE
  8
0
 62
     0
 10
173.782
 20
21.6559
 30
0.0
 11
173.782
 21
22.6563
 31
0.0
  0
LINE
  8
0
 62
     0
 10
173.782
 20
22.6563
 30
0.0
 11
174.582
 21
22.6563
 31
0.0
  0
LINE
  8
0
 62
     0
 10
174.582
 20
22.6563
 30
0.0
 11
174.582
 21
25.7569
 31
0.0
  0
LINE
  8
0
 62
     0
 10
174.582
 20
25.7569
 30
0.0
 11
173.782
 21
25.7569
 31
0.0
  0
LINE
  8
0
 62
     0
 10
173.782
 20
25.7569
 30
0.0
 11
173.782
 21
31.5557
 31
0.0
  0
LINE
  8
0
 62
     0
 10
173.782
 20
31.5557
 30
0.0
 11
174.582
 21
31.5557
 31
0.0
  0
LINE
  8
0
 62
     0
 10
174.582
 20
31.5557
 30
0.0
 11
174.582
 21
34.6563
 31
0.0
  0
LINE
  8
0
 62
     0
 10
174.582
 20
34.6563
 30
0.0
 11
173.782
 21
34.6563
 31
0.0
  0
LINE
  8
0
 62
     0
 10
173.782
 20
34.6563
 30
0.0
 11
173.782
 21
35.6567
 31
0.0
  0
LINE
  8
0
 62
     0
 10
173.782
 20
35.6567
 30
0.0
 11
159.782
 21
35.6567
 31
0.0
  0
LINE
  8
0
 62
     0
 10
178.832
 20
35.6567
 30
0.0
 11
178.832
 21
34.6563
 31
0.0
  0
LINE
  8
0
 62
     0
 10
178.832
 20
34.6563
 30
0.0
 11
178.031
 21
34.6563
 31
0.0
  0
LINE
  8
0
 62
     0
 10
178.031
 20
34.6563
 30
0.0
 11
178.031
 21
31.5557
 31
0.0
  0
LINE
  8
0
 62
     0
 10
178.031
 20
31.5557
 30
0.0
 11
178.832
 21
31.5557
 31
0.0
  0
LINE
  8
0
 62
     0
 10
178.832
 20
31.5557
 30
0.0
 11
178.832
 21
25.7569
 31
0.0
  0
LINE
  8
0
 62
     0
 10
178.832
 20
25.7569
 30
0.0
 11
178.031
 21
25.7569
 31
0.0
  0
LINE
  8
0
 62
     0
 10
178.031
 20
25.7569
 30
0.0
 11
178.031
 21
22.6563
 31
0.0
  0
LINE
  8
0
 62
     0
 10
178.031
 20
22.6563
 30
0.0
 11
178.832
 21
22.6563
 31
0.0
  0
LINE
  8
0
 62
     0
 10
178.832
 20
22.6563
 30
0.0
 11
178.832
 21
21.6559
 31
0.0
  0
LINE
  8
0
 62
     0
 10
178.832
 20
21.6559
 30
0.0
 11
192.832
 21
21.6559
 31
0.0
  0
LINE
  8
0
 62
     0
 10
192.832
 20
21.6559
 30
0.0
 11
192.832
 21
22.6563
 31
0.0
  0
LINE
  8
0
 62
     0
 10
192.832
 20
22.6563
 30
0.0
 11
193.632
 21
22.6563
 31
0.0
  0
LINE
  8
0
 62
     0
 10
193.632
 20
22.6563
 30
0.0
 11
193.632
 21
25.7569
 31
0.0
  0
LINE
  8
0
 62
     0
 10
193.632
 20
25.7569
 30
0.0
 11
192.832
 21
25.7569
 31
0.0
  0
LINE
  8
0
 62
     0
 10
192.832
 20
25.7569
 30
0.0
 11
192.832
 21
31.5557
 31
0.0
  0
LINE
  8
0
 62
     0
 10
192.832
 20
31.5557
 30
0.0
 11
193.632
 21
31.5557
 31
0.0
  0
LINE
  8
0
 62
     0
 10
193.632
 20
31.5557
 30
0.0
 11
193.632
 21
34.6563
 31
0.0
  0
LINE
  8
0
 62
     0
 10
193.632
 20
34.6563
 30
0.0
 11
192.832
 21
34.6563
 31
0.0
  0
LINE
  8
0
 62
     0
 10
192.832
 20
34.6563
 30
0.0
 11
192.832
 21
35.6567
 31
0.0
  0
LINE
  8
0
 62
     0
 10
192.832
 20
35.6567
 30
0.0
 11
178.832
 21
35.6567
 31
0.0
  0
LINE
  8
0
 62
     0
 10
197.882
 20
35.6567
 30
0.0
 11
197.882
 21
34.6563
 31
0.0
  0
LINE
  8
0
 62
     0
 10
197.882
 20
34.6563
 30
0.0
 11
197.081
 21
34.6563
 31
0.0
  0
LINE
  8
0
 62
     0
 10
197.081
 20
34.6563
 30
0.0
 11
197.081
 21
31.5557
 31
0.0
  0
LINE
  8
0
 62
     0
 10
197.081
 20
31.5557
 30
0.0
 11
197.882
 21
31.5557
 31
0.0
  0
LINE
  8
0
 62
     0
 10
197.882
 20
31.5557
 30
0.0
 11
197.882
 21
25.7569
 31
0.0
  0
LINE
  8
0
 62
     0
 10
197.882
 20
25.7569
 30
0.0
 11
197.081
 21
25.7569
 31
0.0
  0
LINE
  8
0
 62
     0
 10
197.081
 20
25.7569
 30
0.0
 11
197.081
 21
22.6563
 31
0.0
  0
LINE
  8
0
 62
     0
 10
197.081
 20
22.6563
 30
0.0
 11
197.882
 21
22.6563
 31
0.0
  0
LINE
  8
0
 62
     0
 10
197.882
 20
22.6563
 30
0.0
 11
197.882
 21
21.6559
 31
0.0
  0
LINE
  8
0
 62
     0
 10
197.882
 20
21.6559
 30
0.0
 11
211.882
 21
21.6559
 31
0.0
  0
LINE
  8
0
 62
     0
 10
211.882
 20
21.6559
 30
0.0
 11
211.882
 21
22.6563
 31
0.0
  0
LINE
  8
0
 62
     0
 10
211.882
 20
22.6563
 30
0.0
 11
212.682
 21
22.6563
 31
0.0
  0
LINE
  8
0
 62
     0
 10
212.682
 20
22.6563
 30
0.0
 11
212.682
 21
25.7569
 31
0.0
  0
LINE
  8
0
 62
     0
 10
212.682
 20
25.7569
 30
0.0
 11
211.882
 21
25.7569
 31
0.0
  0
LINE
  8
0
 62
     0
 10
211.882
 20
25.7569
 30
0.0
 11
211.882
 21
31.5557
 31
0.0
  0
LINE
  8
0
 62
     0
 10
211.882
 20
31.5557
 30
0.0
 11
212.682
 21
31.5557
 31
0.0
  0
LINE
  8
0
 62
     0
 10
212.682
 20
31.5557
 30
0.0
 11
212.682
 21
34.6563
 31
0.0
  0
LINE
  8
0
 62
     0
 10
212.682
 20
34.6563
 30
0.0
 11
211.882
 21
34.6563
 31
0.0
  0
LINE
  8
0
 62
     0
 10
211.882
 20
34.6563
 30
0.0
 11
211.882
 21
35.6567
 31
0.0
  0
LINE
  8
0
 62
     0
 10
211.882
 20
35.6567
 30
0.0
 11
197.882
 21
35.6567
 31
0.0
  0
LINE
  8
0
 62
     0
 10
216.932
 20
35.6567
 30
0.0
 11
216.932
 21
34.6563
 31
0.0
  0
LINE
  8
0
 62
     0
 10
216.932
 20
34.6563
 30
0.0
 11
216.131
 21
34.6563
 31
0.0
  0
LINE
  8
0
 62
     0
 10
216.131
 20
34.6563
 30
0.0
 11
216.131
 21
31.5557
 31
0.0
  0
LINE
  8
0
 62
     0
 10
216.131
 20
31.5557
 30
0.0
 11
216.932
 21
31.5557
 31
0.0
  0
LINE
  8
0
 62
     0
 10
216.932
 20
31.5557
 30
0.0
 11
216.932
 21
25.7569
 31
0.0
  0
LINE
  8
0
 62
     0
 10
216.932
 20
25.7569
 30
0.0
 11
216.131
 21
25.7569
 31
0.0
  0
LINE
  8
0
 62
     0
 10
216.131
 20
25.7569
 30
0.0
 11
216.131
 21
22.6563
 31
0.0
  0
LINE
  8
0
 62
     0
 10
216.131
 20
22.6563
 30
0.0
 11
216.932
 21
22.6563
 31
0.0
  0
LINE
  8
0
 62
     0
 10
216.932
 20
22.6563
 30
0.0
 11
216.932
 21
21.6559
 31
0.0
  0
LINE
  8
0
 62
     0
 10
216.932
 20
21.6559
 30
0.0
 11
230.932
 21
21.6559
 31
0.0
  0
LINE
  8
0
 62
     0
 10
230.932
 20
21.6559
 30
0.0
 11
230.932
 21
22.6563
 31
0.0
  0
LINE
  8
0
 62
     0
 10
230.932
 20
22.6563
 30
0.0
 11
231.732
 21
22.6563
 31
0.0
  0
LINE
  8
0
 62
     0
 10
231.732
 20
22.6563
 30
0.0
 11
231.732
 21
25.7569
 31
0.0
  0
LINE
  8
0
 62
     0
 10
231.732
 20
25.7569
 30
0.0
 11
230.932
 21
25.7569
 31
0.0
  0
LINE
  8
0
 62
     0
 10
230.932
 20
25.7569
 30
0.0
 11
230.932
 21
31.5557
 31
0.0
  0
LINE
  8
0
 62
     0
 10
230.932
 20
31.5557
 30
0.0
 11
231.732
 21
31.5557
 31
0.0
  0
LINE
  8
0
 62
     0
 10
231.732
 20
31.5557
 30
0.0
 11
231.732
 21
34.6563
 31
0.0
  0
LINE
  8
0
 62
     0
 10
231.732
 20
34.6563
 30
0.0
 11
230.932
 21
34.6563
 31
0.0
  0
LINE
  8
0
 62
     0
 10
230.932
 20
34.6563
 30
0.0
 11
230.932
 21
35.6567
 31
0.0
  0
LINE
  8
0
 62
     0
 10
230.932
 20
35.6567
 30
0.0
 11
216.932
 21
35.6567
 31
0.0
  0
LINE
  8
0
 62
     0
 10
252.65
 20
35.6567
 30
0.0
 11
252.65
 21
34.6563
 31
0.0
  0
LINE
  8
0
 62
     0
 10
252.65
 20
34.6563
 30
0.0
 11
251.85
 21
34.6563
 31
0.0
  0
LINE
  8
0
 62
     0
 10
251.85
 20
34.6563
 30
0.0
 11
251.85
 21
31.5557
 31
0.0
  0
LINE
  8
0
 62
     0
 10
251.85
 20
31.5557
 30
0.0
 11
252.65
 21
31.5557
 31
0.0
  0
LINE
  8
0
 62
     0
 10
252.65
 20
31.5557
 30
0.0
 11
252.65
 21
25.7569
 31
0.0
  0
LINE
  8
0
 62
     0
 10
252.65
 20
25.7569
 30
0.0
 11
251.85
 21
25.7569
 31
0.0
  0
LINE
  8
0
 62
     0
 10
251.85
 20
25.7569
 30
0.0
 11
251.85
 21
22.6563
 31
0.0
  0
LINE
  8
0
 62
     0
 10
251.85
 20
22.6563
 30
0.0
 11
252.65
 21
22.6563
 31
0.0
  0
LINE
  8
0
 62
     0
 10
252.65
 20
22.6563
 30
0.0
 11
252.65
 21
21.6559
 31
0.0
  0
LINE
  8
0
 62
     0
 10
252.65
 20
21.6559
 30
0.0
 11
266.65
 21
21.6559
 31
0.0
  0
LINE
  8
0
 62
     0
 10
266.65
 20
21.6559
 30
0.0
 11
266.65
 21
22.6563
 31
0.0
  0
LINE
  8
0
 62
     0
 10
266.65
 20
22.6563
 30
0.0
 11
267.451
 21
22.6563
 31
0.0
  0
LINE
  8
0
 62
     0
 10
267.451
 20
22.6563
 30
0.0
 11
267.451
 21
25.7569
 31
0.0
  0
LINE
  8
0
 62
     0
 10
267.451
 20
25.7569
 30
0.0
 11
266.65
 21
25.7569
 31
0.0
  0
LINE
  8
0
 62
     0
 10
266.65
 20
25.7569
 30
0.0
 11
266.65
 21
31.5557
 31
0.0
  0
LINE
  8
0
 62
     0
 10
266.65
 20
31.5557
 30
0.0
 11
267.451
 21
31.5557
 31
0.0
  0
LINE
  8
0
 62
     0
 10
267.451
 20
31.5557
 30
0.0
 11
267.451
 21
34.6563
 31
0.0
  0
LINE
  8
0
 62
     0
 10
267.451
 20
34.6563
 30
0.0
 11
266.65
 21
34.6563
 31
0.0
  0
LINE
  8
0
 62
     0
 10
266.65
 20
34.6563
 30
0.0
 11
266.65
 21
35.6567
 31
0.0
  0
LINE
  8
0
 62
     0
 10
266.65
 20
35.6567
 30
0.0
 11
252.65
 21
35.6567
 31
0.0
  0
LINE
  8
0
 62
     0
 10
250.862
 20
54.157
 30
0.0
 11
254.161
 21
54.157
 31
0.0
  0
LINE
  8
0
 62
     0
 10
254.161
 20
54.157
 30
0.0
 11
254.161
 21
39.9563
 31
0.0
  0
LINE
  8
0
 62
     0
 10
254.161
 20
39.9563
 30
0.0
 11
250.862
 21
39.9563
 31
0.0
  0
LINE
  8
0
 62
     0
 10
250.862
 20
39.9563
 30
0.0
 11
250.862
 21
54.157
 31
0.0
  0
LINE
  8
0
 62
     0
 10
274.662
 20
54.157
 30
0.0
 11
277.963
 21
54.157
 31
0.0
  0
LINE
  8
0
 62
     0
 10
277.963
 20
54.157
 30
0.0
 11
277.963
 21
39.9563
 31
0.0
  0
LINE
  8
0
 62
     0
 10
277.963
 20
39.9563
 30
0.0
 11
274.662
 21
39.9563
 31
0.0
  0
LINE
  8
0
 62
     0
 10
274.662
 20
39.9563
 30
0.0
 11
274.662
 21
54.157
 31
0.0
  0
LINE
  8
0
 62
     0
 10
9.76341
 20
54.7067
 30
0.0
 11
9.76341
 21
53.7062
 31
0.0
  0
LINE
  8
0
 62
     0
 10
9.76341
 20
53.7062
 30
0.0
 11
8.96278
 21
53.7062
 31
0.0
  0
LINE
  8
0
 62
     0
 10
8.96278
 20
53.7062
 30
0.0
 11
8.96278
 21
50.6056
 31
0.0
  0
LINE
  8
0
 62
     0
 10
8.96278
 20
50.6056
 30
0.0
 11
9.76341
 21
50.6056
 31
0.0
  0
LINE
  8
0
 62
     0
 10
9.76341
 20
50.6056
 30
0.0
 11
9.76341
 21
44.807
 31
0.0
  0
LINE
  8
0
 62
     0
 10
9.76341
 20
44.807
 30
0.0
 11
8.96278
 21
44.807
 31
0.0
  0
LINE
  8
0
 62
     0
 10
8.96278
 20
44.807
 30
0.0
 11
8.96278
 21
41.7064
 31
0.0
  0
LINE
  8
0
 62
     0
 10
8.96278
 20
41.7064
 30
0.0
 11
9.76341
 21
41.7064
 31
0.0
  0
LINE
  8
0
 62
     0
 10
9.76341
 20
41.7064
 30
0.0
 11
9.76341
 21
40.706
 31
0.0
  0
LINE
  8
0
 62
     0
 10
9.76341
 20
40.706
 30
0.0
 11
23.7629
 21
40.706
 31
0.0
  0
LINE
  8
0
 62
     0
 10
23.7629
 20
40.706
 30
0.0
 11
23.7629
 21
41.7064
 31
0.0
  0
LINE
  8
0
 62
     0
 10
23.7629
 20
41.7064
 30
0.0
 11
24.5622
 21
41.7064
 31
0.0
  0
LINE
  8
0
 62
     0
 10
24.5622
 20
41.7064
 30
0.0
 11
24.5622
 21
44.807
 31
0.0
  0
LINE
  8
0
 62
     0
 10
24.5622
 20
44.807
 30
0.0
 11
23.7629
 21
44.807
 31
0.0
  0
LINE
  8
0
 62
     0
 10
23.7629
 20
44.807
 30
0.0
 11
23.7629
 21
50.6056
 31
0.0
  0
LINE
  8
0
 62
     0
 10
23.7629
 20
50.6056
 30
0.0
 11
24.5622
 21
50.6056
 31
0.0
  0
LINE
  8
0
 62
     0
 10
24.5622
 20
50.6056
 30
0.0
 11
24.5622
 21
53.7062
 31
0.0
  0
LINE
  8
0
 62
     0
 10
24.5622
 20
53.7062
 30
0.0
 11
23.7629
 21
53.7062
 31
0.0
  0
LINE
  8
0
 62
     0
 10
23.7629
 20
53.7062
 30
0.0
 11
23.7629
 21
54.7067
 31
0.0
  0
LINE
  8
0
 62
     0
 10
23.7629
 20
54.7067
 30
0.0
 11
9.76341
 21
54.7067
 31
0.0
  0
LINE
  8
0
 62
     0
 10
35.9572
 20
54.7067
 30
0.0
 11
35.9572
 21
53.7062
 31
0.0
  0
LINE
  8
0
 62
     0
 10
35.9572
 20
53.7062
 30
0.0
 11
35.1565
 21
53.7062
 31
0.0
  0
LINE
  8
0
 62
     0
 10
35.1565
 20
53.7062
 30
0.0
 11
35.1565
 21
50.6056
 31
0.0
  0
LINE
  8
0
 62
     0
 10
35.1565
 20
50.6056
 30
0.0
 11
35.9572
 21
50.6056
 31
0.0
  0
LINE
  8
0
 62
     0
 10
35.9572
 20
50.6056
 30
0.0
 11
35.9572
 21
44.807
 31
0.0
  0
LINE
  8
0
 62
     0
 10
35.9572
 20
44.807
 30
0.0
 11
35.1565
 21
44.807
 31
0.0
  0
LINE
  8
0
 62
     0
 10
35.1565
 20
44.807
 30
0.0
 11
35.1565
 21
41.7064
 31
0.0
  0
LINE
  8
0
 62
     0
 10
35.1565
 20
41.7064
 30
0.0
 11
35.9572
 21
41.7064
 31
0.0
  0
LINE
  8
0
 62
     0
 10
35.9572
 20
41.7064
 30
0.0
 11
35.9572
 21
40.706
 31
0.0
  0
LINE
  8
0
 62
     0
 10
35.9572
 20
40.706
 30
0.0
 11
49.9565
 21
40.706
 31
0.0
  0
LINE
  8
0
 62
     0
 10
49.9565
 20
40.706
 30
0.0
 11
49.9565
 21
41.7064
 31
0.0
  0
LINE
  8
0
 62
     0
 10
49.9565
 20
41.7064
 30
0.0
 11
50.7573
 21
41.7064
 31
0.0
  0
LINE
  8
0
 62
     0
 10
50.7573
 20
41.7064
 30
0.0
 11
50.7573
 21
44.807
 31
0.0
  0
LINE
  8
0
 62
     0
 10
50.7573
 20
44.807
 30
0.0
 11
49.9565
 21
44.807
 31
0.0
  0
LINE
  8
0
 62
     0
 10
49.9565
 20
44.807
 30
0.0
 11
49.9565
 21
50.6056
 31
0.0
  0
LINE
  8
0
 62
     0
 10
49.9565
 20
50.6056
 30
0.0
 11
50.7573
 21
50.6056
 31
0.0
  0
LINE
  8
0
 62
     0
 10
50.7573
 20
50.6056
 30
0.0
 11
50.7573
 21
53.7062
 31
0.0
  0
LINE
  8
0
 62
     0
 10
50.7573
 20
53.7062
 30
0.0
 11
49.9565
 21
53.7062
 31
0.0
  0
LINE
  8
0
 62
     0
 10
49.9565
 20
53.7062
 30
0.0
 11
49.9565
 21
54.7067
 31
0.0
  0
LINE
  8
0
 62
     0
 10
49.9565
 20
54.7067
 30
0.0
 11
35.9572
 21
54.7067
 31
0.0
  0
LINE
  8
0
 62
     0
 10
55.0072
 20
54.7067
 30
0.0
 11
55.0072
 21
53.7062
 31
0.0
  0
LINE
  8
0
 62
     0
 10
55.0072
 20
53.7062
 30
0.0
 11
54.2064
 21
53.7062
 31
0.0
  0
LINE
  8
0
 62
     0
 10
54.2064
 20
53.7062
 30
0.0
 11
54.2064
 21
50.6056
 31
0.0
  0
LINE
  8
0
 62
     0
 10
54.2064
 20
50.6056
 30
0.0
 11
55.0072
 21
50.6056
 31
0.0
  0
LINE
  8
0
 62
     0
 10
55.0072
 20
50.6056
 30
0.0
 11
55.0072
 21
44.807
 31
0.0
  0
LINE
  8
0
 62
     0
 10
55.0072
 20
44.807
 30
0.0
 11
54.2064
 21
44.807
 31
0.0
  0
LINE
  8
0
 62
     0
 10
54.2064
 20
44.807
 30
0.0
 11
54.2064
 21
41.7064
 31
0.0
  0
LINE
  8
0
 62
     0
 10
54.2064
 20
41.7064
 30
0.0
 11
55.0072
 21
41.7064
 31
0.0
  0
LINE
  8
0
 62
     0
 10
55.0072
 20
41.7064
 30
0.0
 11
55.0072
 21
40.706
 31
0.0
  0
LINE
  8
0
 62
     0
 10
55.0072
 20
40.706
 30
0.0
 11
69.0065
 21
40.706
 31
0.0
  0
LINE
  8
0
 62
     0
 10
69.0065
 20
40.706
 30
0.0
 11
69.0065
 21
41.7064
 31
0.0
  0
LINE
  8
0
 62
     0
 10
69.0065
 20
41.7064
 30
0.0
 11
69.8073
 21
41.7064
 31
0.0
  0
LINE
  8
0
 62
     0
 10
69.8073
 20
41.7064
 30
0.0
 11
69.8073
 21
44.807
 31
0.0
  0
LINE
  8
0
 62
     0
 10
69.8073
 20
44.807
 30
0.0
 11
69.0065
 21
44.807
 31
0.0
  0
LINE
  8
0
 62
     0
 10
69.0065
 20
44.807
 30
0.0
 11
69.0065
 21
50.6056
 31
0.0
  0
LINE
  8
0
 62
     0
 10
69.0065
 20
50.6056
 30
0.0
 11
69.8073
 21
50.6056
 31
0.0
  0
LINE
  8
0
 62
     0
 10
69.8073
 20
50.6056
 30
0.0
 11
69.8073
 21
53.7062
 31
0.0
  0
LINE
  8
0
 62
     0
 10
69.8073
 20
53.7062
 30
0.0
 11
69.0065
 21
53.7062
 31
0.0
  0
LINE
  8
0
 62
     0
 10
69.0065
 20
53.7062
 30
0.0
 11
69.0065
 21
54.7067
 31
0.0
  0
LINE
  8
0
 62
     0
 10
69.0065
 20
54.7067
 30
0.0
 11
55.0072
 21
54.7067
 31
0.0
  0
LINE
  8
0
 62
     0
 10
74.0572
 20
54.7067
 30
0.0
 11
74.0572
 21
53.7062
 31
0.0
  0
LINE
  8
0
 62
     0
 10
74.0572
 20
53.7062
 30
0.0
 11
73.2564
 21
53.7062
 31
0.0
  0
LINE
  8
0
 62
     0
 10
73.2564
 20
53.7062
 30
0.0
 11
73.2564
 21
50.6056
 31
0.0
  0
LINE
  8
0
 62
     0
 10
73.2564
 20
50.6056
 30
0.0
 11
74.0572
 21
50.6056
 31
0.0
  0
LINE
  8
0
 62
     0
 10
74.0572
 20
50.6056
 30
0.0
 11
74.0572
 21
44.807
 31
0.0
  0
LINE
  8
0
 62
     0
 10
74.0572
 20
44.807
 30
0.0
 11
73.2564
 21
44.807
 31
0.0
  0
LINE
  8
0
 62
     0
 10
73.2564
 20
44.807
 30
0.0
 11
73.2564
 21
41.7064
 31
0.0
  0
LINE
  8
0
 62
     0
 10
73.2564
 20
41.7064
 30
0.0
 11
74.0572
 21
41.7064
 31
0.0
  0
LINE
  8
0
 62
     0
 10
74.0572
 20
41.7064
 30
0.0
 11
74.0572
 21
40.706
 31
0.0
  0
LINE
  8
0
 62
     0
 10
74.0572
 20
40.706
 30
0.0
 11
88.0565
 21
40.706
 31
0.0
  0
LINE
  8
0
 62
     0
 10
88.0565
 20
40.706
 30
0.0
 11
88.0565
 21
41.7064
 31
0.0
  0
LINE
  8
0
 62
     0
 10
88.0565
 20
41.7064
 30
0.0
 11
88.8573
 21
41.7064
 31
0.0
  0
LINE
  8
0
 62
     0
 10
88.8573
 20
41.7064
 30
0.0
 11
88.8573
 21
44.807
 31
0.0
  0
LINE
  8
0
 62
     0
 10
88.8573
 20
44.807
 30
0.0
 11
88.0565
 21
44.807
 31
0.0
  0
LINE
  8
0
 62
     0
 10
88.0565
 20
44.807
 30
0.0
 11
88.0565
 21
50.6056
 31
0.0
  0
LINE
  8
0
 62
     0
 10
88.0565
 20
50.6056
 30
0.0
 11
88.8573
 21
50.6056
 31
0.0
  0
LINE
  8
0
 62
     0
 10
88.8573
 20
50.6056
 30
0.0
 11
88.8573
 21
53.7062
 31
0.0
  0
LINE
  8
0
 62
     0
 10
88.8573
 20
53.7062
 30
0.0
 11
88.0565
 21
53.7062
 31
0.0
  0
LINE
  8
0
 62
     0
 10
88.0565
 20
53.7062
 30
0.0
 11
88.0565
 21
54.7067
 31
0.0
  0
LINE
  8
0
 62
     0
 10
88.0565
 20
54.7067
 30
0.0
 11
74.0572
 21
54.7067
 31
0.0
  0
LINE
  8
0
 62
     0
 10
93.1072
 20
54.7067
 30
0.0
 11
93.1072
 21
53.7062
 31
0.0
  0
LINE
  8
0
 62
     0
 10
93.1072
 20
53.7062
 30
0.0
 11
92.3064
 21
53.7062
 31
0.0
  0
LINE
  8
0
 62
     0
 10
92.3064
 20
53.7062
 30
0.0
 11
92.3064
 21
50.6056
 31
0.0
  0
LINE
  8
0
 62
     0
 10
92.3064
 20
50.6056
 30
0.0
 11
93.1072
 21
50.6056
 31
0.0
  0
LINE
  8
0
 62
     0
 10
93.1072
 20
50.6056
 30
0.0
 11
93.1072
 21
44.807
 31
0.0
  0
LINE
  8
0
 62
     0
 10
93.1072
 20
44.807
 30
0.0
 11
92.3064
 21
44.807
 31
0.0
  0
LINE
  8
0
 62
     0
 10
92.3064
 20
44.807
 30
0.0
 11
92.3064
 21
41.7064
 31
0.0
  0
LINE
  8
0
 62
     0
 10
92.3064
 20
41.7064
 30
0.0
 11
93.1072
 21
41.7064
 31
0.0
  0
LINE
  8
0
 62
     0
 10
93.1072
 20
41.7064
 30
0.0
 11
93.1072
 21
40.706
 31
0.0
  0
LINE
  8
0
 62
     0
 10
93.1072
 20
40.706
 30
0.0
 11
107.107
 21
40.706
 31
0.0
  0
LINE
  8
0
 62
     0
 10
107.107
 20
40.706
 30
0.0
 11
107.107
 21
41.7064
 31
0.0
  0
LINE
  8
0
 62
     0
 10
107.107
 20
41.7064
 30
0.0
 11
107.907
 21
41.7064
 31
0.0
  0
LINE
  8
0
 62
     0
 10
107.907
 20
41.7064
 30
0.0
 11
107.907
 21
44.807
 31
0.0
  0
LINE
  8
0
 62
     0
 10
107.907
 20
44.807
 30
0.0
 11
107.107
 21
44.807
 31
0.0
  0
LINE
  8
0
 62
     0
 10
107.107
 20
44.807
 30
0.0
 11
107.107
 21
50.6056
 31
0.0
  0
LINE
  8
0
 62
     0
 10
107.107
 20
50.6056
 30
0.0
 11
107.907
 21
50.6056
 31
0.0
  0
LINE
  8
0
 62
     0
 10
107.907
 20
50.6056
 30
0.0
 11
107.907
 21
53.7062
 31
0.0
  0
LINE
  8
0
 62
     0
 10
107.907
 20
53.7062
 30
0.0
 11
107.107
 21
53.7062
 31
0.0
  0
LINE
  8
0
 62
     0
 10
107.107
 20
53.7062
 30
0.0
 11
107.107
 21
54.7067
 31
0.0
  0
LINE
  8
0
 62
     0
 10
107.107
 20
54.7067
 30
0.0
 11
93.1072
 21
54.7067
 31
0.0
  0
LINE
  8
0
 62
     0
 10
112.157
 20
54.7067
 30
0.0
 11
112.157
 21
53.7062
 31
0.0
  0
LINE
  8
0
 62
     0
 10
112.157
 20
53.7062
 30
0.0
 11
111.356
 21
53.7062
 31
0.0
  0
LINE
  8
0
 62
     0
 10
111.356
 20
53.7062
 30
0.0
 11
111.356
 21
50.6056
 31
0.0
  0
LINE
  8
0
 62
     0
 10
111.356
 20
50.6056
 30
0.0
 11
112.157
 21
50.6056
 31
0.0
  0
LINE
  8
0
 62
     0
 10
112.157
 20
50.6056
 30
0.0
 11
112.157
 21
44.807
 31
0.0
  0
LINE
  8
0
 62
     0
 10
112.157
 20
44.807
 30
0.0
 11
111.356
 21
44.807
 31
0.0
  0
LINE
  8
0
 62
     0
 10
111.356
 20
44.807
 30
0.0
 11
111.356
 21
41.7064
 31
0.0
  0
LINE
  8
0
 62
     0
 10
111.356
 20
41.7064
 30
0.0
 11
112.157
 21
41.7064
 31
0.0
  0
LINE
  8
0
 62
     0
 10
112.157
 20
41.7064
 30
0.0
 11
112.157
 21
40.706
 31
0.0
  0
LINE
  8
0
 62
     0
 10
112.157
 20
40.706
 30
0.0
 11
126.157
 21
40.706
 31
0.0
  0
LINE
  8
0
 62
     0
 10
126.157
 20
40.706
 30
0.0
 11
126.157
 21
41.7064
 31
0.0
  0
LINE
  8
0
 62
     0
 10
126.157
 20
41.7064
 30
0.0
 11
126.957
 21
41.7064
 31
0.0
  0
LINE
  8
0
 62
     0
 10
126.957
 20
41.7064
 30
0.0
 11
126.957
 21
44.807
 31
0.0
  0
LINE
  8
0
 62
     0
 10
126.957
 20
44.807
 30
0.0
 11
126.157
 21
44.807
 31
0.0
  0
LINE
  8
0
 62
     0
 10
126.157
 20
44.807
 30
0.0
 11
126.157
 21
50.6056
 31
0.0
  0
LINE
  8
0
 62
     0
 10
126.157
 20
50.6056
 30
0.0
 11
126.957
 21
50.6056
 31
0.0
  0
LINE
  8
0
 62
     0
 10
126.957
 20
50.6056
 30
0.0
 11
126.957
 21
53.7062
 31
0.0
  0
LINE
  8
0
 62
     0
 10
126.957
 20
53.7062
 30
0.0
 11
126.157
 21
53.7062
 31
0.0
  0
LINE
  8
0
 62
     0
 10
126.157
 20
53.7062
 30
0.0
 11
126.157
 21
54.7067
 31
0.0
  0
LINE
  8
0
 62
     0
 10
126.157
 20
54.7067
 30
0.0
 11
112.157
 21
54.7067
 31
0.0
  0
LINE
  8
0
 62
     0
 10
131.207
 20
54.7067
 30
0.0
 11
131.207
 21
53.7062
 31
0.0
  0
LINE
  8
0
 62
     0
 10
131.207
 20
53.7062
 30
0.0
 11
130.406
 21
53.7062
 31
0.0
  0
LINE
  8
0
 62
     0
 10
130.406
 20
53.7062
 30
0.0
 11
130.406
 21
50.6056
 31
0.0
  0
LINE
  8
0
 62
     0
 10
130.406
 20
50.6056
 30
0.0
 11
131.207
 21
50.6056
 31
0.0
  0
LINE
  8
0
 62
     0
 10
131.207
 20
50.6056
 30
0.0
 11
131.207
 21
44.807
 31
0.0
  0
LINE
  8
0
 62
     0
 10
131.207
 20
44.807
 30
0.0
 11
130.406
 21
44.807
 31
0.0
  0
LINE
  8
0
 62
     0
 10
130.406
 20
44.807
 30
0.0
 11
130.406
 21
41.7064
 31
0.0
  0
LINE
  8
0
 62
     0
 10
130.406
 20
41.7064
 30
0.0
 11
131.207
 21
41.7064
 31
0.0
  0
LINE
  8
0
 62
     0
 10
131.207
 20
41.7064
 30
0.0
 11
131.207
 21
40.706
 31
0.0
  0
LINE
  8
0
 62
     0
 10
131.207
 20
40.706
 30
0.0
 11
145.207
 21
40.706
 31
0.0
  0
LINE
  8
0
 62
     0
 10
145.207
 20
40.706
 30
0.0
 11
145.207
 21
41.7064
 31
0.0
  0
LINE
  8
0
 62
     0
 10
145.207
 20
41.7064
 30
0.0
 11
146.007
 21
41.7064
 31
0.0
  0
LINE
  8
0
 62
     0
 10
146.007
 20
41.7064
 30
0.0
 11
146.007
 21
44.807
 31
0.0
  0
LINE
  8
0
 62
     0
 10
146.007
 20
44.807
 30
0.0
 11
145.207
 21
44.807
 31
0.0
  0
LINE
  8
0
 62
     0
 10
145.207
 20
44.807
 30
0.0
 11
145.207
 21
50.6056
 31
0.0
  0
LINE
  8
0
 62
     0
 10
145.207
 20
50.6056
 30
0.0
 11
146.007
 21
50.6056
 31
0.0
  0
LINE
  8
0
 62
     0
 10
146.007
 20
50.6056
 30
0.0
 11
146.007
 21
53.7062
 31
0.0
  0
LINE
  8
0
 62
     0
 10
146.007
 20
53.7062
 30
0.0
 11
145.207
 21
53.7062
 31
0.0
  0
LINE
  8
0
 62
     0
 10
145.207
 20
53.7062
 30
0.0
 11
145.207
 21
54.7067
 31
0.0
  0
LINE
  8
0
 62
     0
 10
145.207
 20
54.7067
 30
0.0
 11
131.207
 21
54.7067
 31
0.0
  0
LINE
  8
0
 62
     0
 10
150.257
 20
54.7067
 30
0.0
 11
150.257
 21
53.7062
 31
0.0
  0
LINE
  8
0
 62
     0
 10
150.257
 20
53.7062
 30
0.0
 11
149.456
 21
53.7062
 31
0.0
  0
LINE
  8
0
 62
     0
 10
149.456
 20
53.7062
 30
0.0
 11
149.456
 21
50.6056
 31
0.0
  0
LINE
  8
0
 62
     0
 10
149.456
 20
50.6056
 30
0.0
 11
150.257
 21
50.6056
 31
0.0
  0
LINE
  8
0
 62
     0
 10
150.257
 20
50.6056
 30
0.0
 11
150.257
 21
44.807
 31
0.0
  0
LINE
  8
0
 62
     0
 10
150.257
 20
44.807
 30
0.0
 11
149.456
 21
44.807
 31
0.0
  0
LINE
  8
0
 62
     0
 10
149.456
 20
44.807
 30
0.0
 11
149.456
 21
41.7064
 31
0.0
  0
LINE
  8
0
 62
     0
 10
149.456
 20
41.7064
 30
0.0
 11
150.257
 21
41.7064
 31
0.0
  0
LINE
  8
0
 62
     0
 10
150.257
 20
41.7064
 30
0.0
 11
150.257
 21
40.706
 31
0.0
  0
LINE
  8
0
 62
     0
 10
150.257
 20
40.706
 30
0.0
 11
164.257
 21
40.706
 31
0.0
  0
LINE
  8
0
 62
     0
 10
164.257
 20
40.706
 30
0.0
 11
164.257
 21
41.7064
 31
0.0
  0
LINE
  8
0
 62
     0
 10
164.257
 20
41.7064
 30
0.0
 11
165.057
 21
41.7064
 31
0.0
  0
LINE
  8
0
 62
     0
 10
165.057
 20
41.7064
 30
0.0
 11
165.057
 21
44.807
 31
0.0
  0
LINE
  8
0
 62
     0
 10
165.057
 20
44.807
 30
0.0
 11
164.257
 21
44.807
 31
0.0
  0
LINE
  8
0
 62
     0
 10
164.257
 20
44.807
 30
0.0
 11
164.257
 21
50.6056
 31
0.0
  0
LINE
  8
0
 62
     0
 10
164.257
 20
50.6056
 30
0.0
 11
165.057
 21
50.6056
 31
0.0
  0
LINE
  8
0
 62
     0
 10
165.057
 20
50.6056
 30
0.0
 11
165.057
 21
53.7062
 31
0.0
  0
LINE
  8
0
 62
     0
 10
165.057
 20
53.7062
 30
0.0
 11
164.257
 21
53.7062
 31
0.0
  0
LINE
  8
0
 62
     0
 10
164.257
 20
53.7062
 30
0.0
 11
164.257
 21
54.7067
 31
0.0
  0
LINE
  8
0
 62
     0
 10
164.257
 20
54.7067
 30
0.0
 11
150.257
 21
54.7067
 31
0.0
  0
LINE
  8
0
 62
     0
 10
169.307
 20
54.7067
 30
0.0
 11
169.307
 21
53.7062
 31
0.0
  0
LINE
  8
0
 62
     0
 10
169.307
 20
53.7062
 30
0.0
 11
168.506
 21
53.7062
 31
0.0
  0
LINE
  8
0
 62
     0
 10
168.506
 20
53.7062
 30
0.0
 11
168.506
 21
50.6056
 31
0.0
  0
LINE
  8
0
 62
     0
 10
168.506
 20
50.6056
 30
0.0
 11
169.307
 21
50.6056
 31
0.0
  0
LINE
  8
0
 62
     0
 10
169.307
 20
50.6056
 30
0.0
 11
169.307
 21
44.807
 31
0.0
  0
LINE
  8
0
 62
     0
 10
169.307
 20
44.807
 30
0.0
 11
168.506
 21
44.807
 31
0.0
  0
LINE
  8
0
 62
     0
 10
168.506
 20
44.807
 30
0.0
 11
168.506
 21
41.7064
 31
0.0
  0
LINE
  8
0
 62
     0
 10
168.506
 20
41.7064
 30
0.0
 11
169.307
 21
41.7064
 31
0.0
  0
LINE
  8
0
 62
     0
 10
169.307
 20
41.7064
 30
0.0
 11
169.307
 21
40.706
 31
0.0
  0
LINE
  8
0
 62
     0
 10
169.307
 20
40.706
 30
0.0
 11
183.307
 21
40.706
 31
0.0
  0
LINE
  8
0
 62
     0
 10
183.307
 20
40.706
 30
0.0
 11
183.307
 21
41.7064
 31
0.0
  0
LINE
  8
0
 62
     0
 10
183.307
 20
41.7064
 30
0.0
 11
184.107
 21
41.7064
 31
0.0
  0
LINE
  8
0
 62
     0
 10
184.107
 20
41.7064
 30
0.0
 11
184.107
 21
44.807
 31
0.0
  0
LINE
  8
0
 62
     0
 10
184.107
 20
44.807
 30
0.0
 11
183.307
 21
44.807
 31
0.0
  0
LINE
  8
0
 62
     0
 10
183.307
 20
44.807
 30
0.0
 11
183.307
 21
50.6056
 31
0.0
  0
LINE
  8
0
 62
     0
 10
183.307
 20
50.6056
 30
0.0
 11
184.107
 21
50.6056
 31
0.0
  0
LINE
  8
0
 62
     0
 10
184.107
 20
50.6056
 30
0.0
 11
184.107
 21
53.7062
 31
0.0
  0
LINE
  8
0
 62
     0
 10
184.107
 20
53.7062
 30
0.0
 11
183.307
 21
53.7062
 31
0.0
  0
LINE
  8
0
 62
     0
 10
183.307
 20
53.7062
 30
0.0
 11
183.307
 21
54.7067
 31
0.0
  0
LINE
  8
0
 62
     0
 10
183.307
 20
54.7067
 30
0.0
 11
169.307
 21
54.7067
 31
0.0
  0
LINE
  8
0
 62
     0
 10
188.357
 20
54.7067
 30
0.0
 11
188.357
 21
53.7062
 31
0.0
  0
LINE
  8
0
 62
     0
 10
188.357
 20
53.7062
 30
0.0
 11
187.556
 21
53.7062
 31
0.0
  0
LINE
  8
0
 62
     0
 10
187.556
 20
53.7062
 30
0.0
 11
187.556
 21
50.6056
 31
0.0
  0
LINE
  8
0
 62
     0
 10
187.556
 20
50.6056
 30
0.0
 11
188.357
 21
50.6056
 31
0.0
  0
LINE
  8
0
 62
     0
 10
188.357
 20
50.6056
 30
0.0
 11
188.357
 21
44.807
 31
0.0
  0
LINE
  8
0
 62
     0
 10
188.357
 20
44.807
 30
0.0
 11
187.556
 21
44.807
 31
0.0
  0
LINE
  8
0
 62
     0
 10
187.556
 20
44.807
 30
0.0
 11
187.556
 21
41.7064
 31
0.0
  0
LINE
  8
0
 62
     0
 10
187.556
 20
41.7064
 30
0.0
 11
188.357
 21
41.7064
 31
0.0
  0
LINE
  8
0
 62
     0
 10
188.357
 20
41.7064
 30
0.0
 11
188.357
 21
40.706
 31
0.0
  0
LINE
  8
0
 62
     0
 10
188.357
 20
40.706
 30
0.0
 11
202.357
 21
40.706
 31
0.0
  0
LINE
  8
0
 62
     0
 10
202.357
 20
40.706
 30
0.0
 11
202.357
 21
41.7064
 31
0.0
  0
LINE
  8
0
 62
     0
 10
202.357
 20
41.7064
 30
0.0
 11
203.157
 21
41.7064
 31
0.0
  0
LINE
  8
0
 62
     0
 10
203.157
 20
41.7064
 30
0.0
 11
203.157
 21
44.807
 31
0.0
  0
LINE
  8
0
 62
     0
 10
203.157
 20
44.807
 30
0.0
 11
202.357
 21
44.807
 31
0.0
  0
LINE
  8
0
 62
     0
 10
202.357
 20
44.807
 30
0.0
 11
202.357
 21
50.6056
 31
0.0
  0
LINE
  8
0
 62
     0
 10
202.357
 20
50.6056
 30
0.0
 11
203.157
 21
50.6056
 31
0.0
  0
LINE
  8
0
 62
     0
 10
203.157
 20
50.6056
 30
0.0
 11
203.157
 21
53.7062
 31
0.0
  0
LINE
  8
0
 62
     0
 10
203.157
 20
53.7062
 30
0.0
 11
202.357
 21
53.7062
 31
0.0
  0
LINE
  8
0
 62
     0
 10
202.357
 20
53.7062
 30
0.0
 11
202.357
 21
54.7067
 31
0.0
  0
LINE
  8
0
 62
     0
 10
202.357
 20
54.7067
 30
0.0
 11
188.357
 21
54.7067
 31
0.0
  0
LINE
  8
0
 62
     0
 10
207.407
 20
54.7067
 30
0.0
 11
207.407
 21
53.7062
 31
0.0
  0
LINE
  8
0
 62
     0
 10
207.407
 20
53.7062
 30
0.0
 11
206.606
 21
53.7062
 31
0.0
  0
LINE
  8
0
 62
     0
 10
206.606
 20
53.7062
 30
0.0
 11
206.606
 21
50.6056
 31
0.0
  0
LINE
  8
0
 62
     0
 10
206.606
 20
50.6056
 30
0.0
 11
207.407
 21
50.6056
 31
0.0
  0
LINE
  8
0
 62
     0
 10
207.407
 20
50.6056
 30
0.0
 11
207.407
 21
44.807
 31
0.0
  0
LINE
  8
0
 62
     0
 10
207.407
 20
44.807
 30
0.0
 11
206.606
 21
44.807
 31
0.0
  0
LINE
  8
0
 62
     0
 10
206.606
 20
44.807
 30
0.0
 11
206.606
 21
41.7064
 31
0.0
  0
LINE
  8
0
 62
     0
 10
206.606
 20
41.7064
 30
0.0
 11
207.407
 21
41.7064
 31
0.0
  0
LINE
  8
0
 62
     0
 10
207.407
 20
41.7064
 30
0.0
 11
207.407
 21
40.706
 31
0.0
  0
LINE
  8
0
 62
     0
 10
207.407
 20
40.706
 30
0.0
 11
221.407
 21
40.706
 31
0.0
  0
LINE
  8
0
 62
     0
 10
221.407
 20
40.706
 30
0.0
 11
221.407
 21
41.7064
 31
0.0
  0
LINE
  8
0
 62
     0
 10
221.407
 20
41.7064
 30
0.0
 11
222.207
 21
41.7064
 31
0.0
  0
LINE
  8
0
 62
     0
 10
222.207
 20
41.7064
 30
0.0
 11
222.207
 21
44.807
 31
0.0
  0
LINE
  8
0
 62
     0
 10
222.207
 20
44.807
 30
0.0
 11
221.407
 21
44.807
 31
0.0
  0
LINE
  8
0
 62
     0
 10
221.407
 20
44.807
 30
0.0
 11
221.407
 21
50.6056
 31
0.0
  0
LINE
  8
0
 62
     0
 10
221.407
 20
50.6056
 30
0.0
 11
222.207
 21
50.6056
 31
0.0
  0
LINE
  8
0
 62
     0
 10
222.207
 20
50.6056
 30
0.0
 11
222.207
 21
53.7062
 31
0.0
  0
LINE
  8
0
 62
     0
 10
222.207
 20
53.7062
 30
0.0
 11
221.407
 21
53.7062
 31
0.0
  0
LINE
  8
0
 62
     0
 10
221.407
 20
53.7062
 30
0.0
 11
221.407
 21
54.7067
 31
0.0
  0
LINE
  8
0
 62
     0
 10
221.407
 20
54.7067
 30
0.0
 11
207.407
 21
54.7067
 31
0.0
  0
LINE
  8
0
 62
     0
 10
226.457
 20
54.7067
 30
0.0
 11
226.457
 21
53.7062
 31
0.0
  0
LINE
  8
0
 62
     0
 10
226.457
 20
53.7062
 30
0.0
 11
225.656
 21
53.7062
 31
0.0
  0
LINE
  8
0
 62
     0
 10
225.656
 20
53.7062
 30
0.0
 11
225.656
 21
50.6056
 31
0.0
  0
LINE
  8
0
 62
     0
 10
225.656
 20
50.6056
 30
0.0
 11
226.457
 21
50.6056
 31
0.0
  0
LINE
  8
0
 62
     0
 10
226.457
 20
50.6056
 30
0.0
 11
226.457
 21
44.807
 31
0.0
  0
LINE
  8
0
 62
     0
 10
226.457
 20
44.807
 30
0.0
 11
225.656
 21
44.807
 31
0.0
  0
LINE
  8
0
 62
     0
 10
225.656
 20
44.807
 30
0.0
 11
225.656
 21
41.7064
 31
0.0
  0
LINE
  8
0
 62
     0
 10
225.656
 20
41.7064
 30
0.0
 11
226.457
 21
41.7064
 31
0.0
  0
LINE
  8
0
 62
     0
 10
226.457
 20
41.7064
 30
0.0
 11
226.457
 21
40.706
 31
0.0
  0
LINE
  8
0
 62
     0
 10
226.457
 20
40.706
 30
0.0
 11
240.457
 21
40.706
 31
0.0
  0
LINE
  8
0
 62
     0
 10
240.457
 20
40.706
 30
0.0
 11
240.457
 21
41.7064
 31
0.0
  0
LINE
  8
0
 62
     0
 10
240.457
 20
41.7064
 30
0.0
 11
241.257
 21
41.7064
 31
0.0
  0
LINE
  8
0
 62
     0
 10
241.257
 20
41.7064
 30
0.0
 11
241.257
 21
44.807
 31
0.0
  0
LINE
  8
0
 62
     0
 10
241.257
 20
44.807
 30
0.0
 11
240.457
 21
44.807
 31
0.0
  0
LINE
  8
0
 62
     0
 10
240.457
 20
44.807
 30
0.0
 11
240.457
 21
50.6056
 31
0.0
  0
LINE
  8
0
 62
     0
 10
240.457
 20
50.6056
 30
0.0
 11
241.257
 21
50.6056
 31
0.0
  0
LINE
  8
0
 62
     0
 10
241.257
 20
50.6056
 30
0.0
 11
241.257
 21
53.7062
 31
0.0
  0
LINE
  8
0
 62
     0
 10
241.257
 20
53.7062
 30
0.0
 11
240.457
 21
53.7062
 31
0.0
  0
LINE
  8
0
 62
     0
 10
240.457
 20
53.7062
 30
0.0
 11
240.457
 21
54.7067
 31
0.0
  0
LINE
  8
0
 62
     0
 10
240.457
 20
54.7067
 30
0.0
 11
226.457
 21
54.7067
 31
0.0
  0
LINE
  8
0
 62
     0
 10
257.413
 20
54.7067
 30
0.0
 11
257.413
 21
53.7062
 31
0.0
  0
LINE
  8
0
 62
     0
 10
257.413
 20
53.7062
 30
0.0
 11
256.611
 21
53.7062
 31
0.0
  0
LINE
  8
0
 62
     0
 10
256.611
 20
53.7062
 30
0.0
 11
256.611
 21
50.6056
 31
0.0
  0
LINE
  8
0
 62
     0
 10
256.611
 20
50.6056
 30
0.0
 11
257.413
 21
50.6056
 31
0.0
  0
LINE
  8
0
 62
     0
 10
257.413
 20
50.6056
 30
0.0
 11
257.413
 21
44.807
 31
0.0
  0
LINE
  8
0
 62
     0
 10
257.413
 20
44.807
 30
0.0
 11
256.611
 21
44.807
 31
0.0
  0
LINE
  8
0
 62
     0
 10
256.611
 20
44.807
 30
0.0
 11
256.611
 21
41.7064
 31
0.0
  0
LINE
  8
0
 62
     0
 10
256.611
 20
41.7064
 30
0.0
 11
257.413
 21
41.7064
 31
0.0
  0
LINE
  8
0
 62
     0
 10
257.413
 20
41.7064
 30
0.0
 11
257.413
 21
40.706
 31
0.0
  0
LINE
  8
0
 62
     0
 10
257.413
 20
40.706
 30
0.0
 11
271.413
 21
40.706
 31
0.0
  0
LINE
  8
0
 62
     0
 10
271.413
 20
40.706
 30
0.0
 11
271.413
 21
41.7064
 31
0.0
  0
LINE
  8
0
 62
     0
 10
271.413
 20
41.7064
 30
0.0
 11
272.212
 21
41.7064
 31
0.0
  0
LINE
  8
0
 62
     0
 10
272.212
 20
41.7064
 30
0.0
 11
272.212
 21
44.807
 31
0.0
  0
LINE
  8
0
 62
     0
 10
272.212
 20
44.807
 30
0.0
 11
271.413
 21
44.807
 31
0.0
  0
LINE
  8
0
 62
     0
 10
271.413
 20
44.807
 30
0.0
 11
271.413
 21
50.6056
 31
0.0
  0
LINE
  8
0
 62
     0
 10
271.413
 20
50.6056
 30
0.0
 11
272.212
 21
50.6056
 31
0.0
  0
LINE
  8
0
 62
     0
 10
272.212
 20
50.6056
 30
0.0
 11
272.212
 21
53.7062
 31
0.0
  0
LINE
  8
0
 62
     0
 10
272.212
 20
53.7062
 30
0.0
 11
271.413
 21
53.7062
 31
0.0
  0
LINE
  8
0
 62
     0
 10
271.413
 20
53.7062
 30
0.0
 11
271.413
 21
54.7067
 31
0.0
  0
LINE
  8
0
 62
     0
 10
271.413
 20
54.7067
 30
0.0
 11
257.413
 21
54.7067
 31
0.0
  0
LINE
  8
0
 62
     0
 10
7.38216
 20
73.7567
 30
0.0
 11
7.38216
 21
72.7562
 31
0.0
  0
LINE
  8
0
 62
     0
 10
7.38216
 20
72.7562
 30
0.0
 11
6.58153
 21
72.7562
 31
0.0
  0
LINE
  8
0
 62
     0
 10
6.58153
 20
72.7562
 30
0.0
 11
6.58153
 21
69.6556
 31
0.0
  0
LINE
  8
0
 62
     0
 10
6.58153
 20
69.6556
 30
0.0
 11
7.38216
 21
69.6556
 31
0.0
  0
LINE
  8
0
 62
     0
 10
7.38216
 20
69.6556
 30
0.0
 11
7.38216
 21
63.857
 31
0.0
  0
LINE
  8
0
 62
     0
 10
7.38216
 20
63.857
 30
0.0
 11
6.58153
 21
63.857
 31
0.0
  0
LINE
  8
0
 62
     0
 10
6.58153
 20
63.857
 30
0.0
 11
6.58153
 21
60.7564
 31
0.0
  0
LINE
  8
0
 62
     0
 10
6.58153
 20
60.7564
 30
0.0
 11
7.38216
 21
60.7564
 31
0.0
  0
LINE
  8
0
 62
     0
 10
7.38216
 20
60.7564
 30
0.0
 11
7.38216
 21
59.756
 31
0.0
  0
LINE
  8
0
 62
     0
 10
7.38216
 20
59.756
 30
0.0
 11
21.3817
 21
59.756
 31
0.0
  0
LINE
  8
0
 62
     0
 10
21.3817
 20
59.756
 30
0.0
 11
21.3817
 21
60.7564
 31
0.0
  0
LINE
  8
0
 62
     0
 10
21.3817
 20
60.7564
 30
0.0
 11
22.1823
 21
60.7564
 31
0.0
  0
LINE
  8
0
 62
     0
 10
22.1823
 20
60.7564
 30
0.0
 11
22.1823
 21
63.857
 31
0.0
  0
LINE
  8
0
 62
     0
 10
22.1823
 20
63.857
 30
0.0
 11
21.3817
 21
63.857
 31
0.0
  0
LINE
  8
0
 62
     0
 10
21.3817
 20
63.857
 30
0.0
 11
21.3817
 21
69.6556
 31
0.0
  0
LINE
  8
0
 62
     0
 10
21.3817
 20
69.6556
 30
0.0
 11
22.1823
 21
69.6556
 31
0.0
  0
LINE
  8
0
 62
     0
 10
22.1823
 20
69.6556
 30
0.0
 11
22.1823
 21
72.7562
 31
0.0
  0
LINE
  8
0
 62
     0
 10
22.1823
 20
72.7562
 30
0.0
 11
21.3817
 21
72.7562
 31
0.0
  0
LINE
  8
0
 62
     0
 10
21.3817
 20
72.7562
 30
0.0
 11
21.3817
 21
73.7567
 31
0.0
  0
LINE
  8
0
 62
     0
 10
21.3817
 20
73.7567
 30
0.0
 11
7.38216
 21
73.7567
 31
0.0
  0
LINE
  8
0
 62
     0
 10
31.1947
 20
73.7567
 30
0.0
 11
31.1947
 21
72.7562
 31
0.0
  0
LINE
  8
0
 62
     0
 10
31.1947
 20
72.7562
 30
0.0
 11
30.3954
 21
72.7562
 31
0.0
  0
LINE
  8
0
 62
     0
 10
30.3954
 20
72.7562
 30
0.0
 11
30.3954
 21
69.6556
 31
0.0
  0
LINE
  8
0
 62
     0
 10
30.3954
 20
69.6556
 30
0.0
 11
31.1947
 21
69.6556
 31
0.0
  0
LINE
  8
0
 62
     0
 10
31.1947
 20
69.6556
 30
0.0
 11
31.1947
 21
63.857
 31
0.0
  0
LINE
  8
0
 62
     0
 10
31.1947
 20
63.857
 30
0.0
 11
30.3954
 21
63.857
 31
0.0
  0
LINE
  8
0
 62
     0
 10
30.3954
 20
63.857
 30
0.0
 11
30.3954
 21
60.7564
 31
0.0
  0
LINE
  8
0
 62
     0
 10
30.3954
 20
60.7564
 30
0.0
 11
31.1947
 21
60.7564
 31
0.0
  0
LINE
  8
0
 62
     0
 10
31.1947
 20
60.7564
 30
0.0
 11
31.1947
 21
59.756
 31
0.0
  0
LINE
  8
0
 62
     0
 10
31.1947
 20
59.756
 30
0.0
 11
45.194
 21
59.756
 31
0.0
  0
LINE
  8
0
 62
     0
 10
45.194
 20
59.756
 30
0.0
 11
45.194
 21
60.7564
 31
0.0
  0
LINE
  8
0
 62
     0
 10
45.194
 20
60.7564
 30
0.0
 11
45.9948
 21
60.7564
 31
0.0
  0
LINE
  8
0
 62
     0
 10
45.9948
 20
60.7564
 30
0.0
 11
45.9948
 21
63.857
 31
0.0
  0
LINE
  8
0
 62
     0
 10
45.9948
 20
63.857
 30
0.0
 11
45.194
 21
63.857
 31
0.0
  0
LINE
  8
0
 62
     0
 10
45.194
 20
63.857
 30
0.0
 11
45.194
 21
69.6556
 31
0.0
  0
LINE
  8
0
 62
     0
 10
45.194
 20
69.6556
 30
0.0
 11
45.9948
 21
69.6556
 31
0.0
  0
LINE
  8
0
 62
     0
 10
45.9948
 20
69.6556
 30
0.0
 11
45.9948
 21
72.7562
 31
0.0
  0
LINE
  8
0
 62
     0
 10
45.9948
 20
72.7562
 30
0.0
 11
45.194
 21
72.7562
 31
0.0
  0
LINE
  8
0
 62
     0
 10
45.194
 20
72.7562
 30
0.0
 11
45.194
 21
73.7567
 31
0.0
  0
LINE
  8
0
 62
     0
 10
45.194
 20
73.7567
 30
0.0
 11
31.1947
 21
73.7567
 31
0.0
  0
LINE
  8
0
 62
     0
 10
50.2447
 20
73.7567
 30
0.0
 11
50.2447
 21
72.7562
 31
0.0
  0
LINE
  8
0
 62
     0
 10
50.2447
 20
72.7562
 30
0.0
 11
49.4453
 21
72.7562
 31
0.0
  0
LINE
  8
0
 62
     0
 10
49.4453
 20
72.7562
 30
0.0
 11
49.4453
 21
69.6556
 31
0.0
  0
LINE
  8
0
 62
     0
 10
49.4453
 20
69.6556
 30
0.0
 11
50.2447
 21
69.6556
 31
0.0
  0
LINE
  8
0
 62
     0
 10
50.2447
 20
69.6556
 30
0.0
 11
50.2447
 21
63.857
 31
0.0
  0
LINE
  8
0
 62
     0
 10
50.2447
 20
63.857
 30
0.0
 11
49.4453
 21
63.857
 31
0.0
  0
LINE
  8
0
 62
     0
 10
49.4453
 20
63.857
 30
0.0
 11
49.4453
 21
60.7564
 31
0.0
  0
LINE
  8
0
 62
     0
 10
49.4453
 20
60.7564
 30
0.0
 11
50.2447
 21
60.7564
 31
0.0
  0
LINE
  8
0
 62
     0
 10
50.2447
 20
60.7564
 30
0.0
 11
50.2447
 21
59.756
 31
0.0
  0
LINE
  8
0
 62
     0
 10
50.2447
 20
59.756
 30
0.0
 11
64.244
 21
59.756
 31
0.0
  0
LINE
  8
0
 62
     0
 10
64.244
 20
59.756
 30
0.0
 11
64.244
 21
60.7564
 31
0.0
  0
LINE
  8
0
 62
     0
 10
64.244
 20
60.7564
 30
0.0
 11
65.0448
 21
60.7564
 31
0.0
  0
LINE
  8
0
 62
     0
 10
65.0448
 20
60.7564
 30
0.0
 11
65.0448
 21
63.857
 31
0.0
  0
LINE
  8
0
 62
     0
 10
65.0448
 20
63.857
 30
0.0
 11
64.244
 21
63.857
 31
0.0
  0
LINE
  8
0
 62
     0
 10
64.244
 20
63.857
 30
0.0
 11
64.244
 21
69.6556
 31
0.0
  0
LINE
  8
0
 62
     0
 10
64.244
 20
69.6556
 30
0.0
 11
65.0448
 21
69.6556
 31
0.0
  0
LINE
  8
0
 62
     0
 10
65.0448
 20
69.6556
 30
0.0
 11
65.0448
 21
72.7562
 31
0.0
  0
LINE
  8
0
 62
     0
 10
65.0448
 20
72.7562
 30
0.0
 11
64.244
 21
72.7562
 31
0.0
  0
LINE
  8
0
 62
     0
 10
64.244
 20
72.7562
 30
0.0
 11
64.244
 21
73.7567
 31
0.0
  0
LINE
  8
0
 62
     0
 10
64.244
 20
73.7567
 30
0.0
 11
50.2447
 21
73.7567
 31
0.0
  0
LINE
  8
0
 62
     0
 10
69.2947
 20
73.7567
 30
0.0
 11
69.2947
 21
72.7562
 31
0.0
  0
LINE
  8
0
 62
     0
 10
69.2947
 20
72.7562
 30
0.0
 11
68.4953
 21
72.7562
 31
0.0
  0
LINE
  8
0
 62
     0
 10
68.4953
 20
72.7562
 30
0.0
 11
68.4953
 21
69.6556
 31
0.0
  0
LINE
  8
0
 62
     0
 10
68.4953
 20
69.6556
 30
0.0
 11
69.2947
 21
69.6556
 31
0.0
  0
LINE
  8
0
 62
     0
 10
69.2947
 20
69.6556
 30
0.0
 11
69.2947
 21
63.857
 31
0.0
  0
LINE
  8
0
 62
     0
 10
69.2947
 20
63.857
 30
0.0
 11
68.4953
 21
63.857
 31
0.0
  0
LINE
  8
0
 62
     0
 10
68.4953
 20
63.857
 30
0.0
 11
68.4953
 21
60.7564
 31
0.0
  0
LINE
  8
0
 62
     0
 10
68.4953
 20
60.7564
 30
0.0
 11
69.2947
 21
60.7564
 31
0.0
  0
LINE
  8
0
 62
     0
 10
69.2947
 20
60.7564
 30
0.0
 11
69.2947
 21
59.756
 31
0.0
  0
LINE
  8
0
 62
     0
 10
69.2947
 20
59.756
 30
0.0
 11
83.294
 21
59.756
 31
0.0
  0
LINE
  8
0
 62
     0
 10
83.294
 20
59.756
 30
0.0
 11
83.294
 21
60.7564
 31
0.0
  0
LINE
  8
0
 62
     0
 10
83.294
 20
60.7564
 30
0.0
 11
84.0948
 21
60.7564
 31
0.0
  0
LINE
  8
0
 62
     0
 10
84.0948
 20
60.7564
 30
0.0
 11
84.0948
 21
63.857
 31
0.0
  0
LINE
  8
0
 62
     0
 10
84.0948
 20
63.857
 30
0.0
 11
83.294
 21
63.857
 31
0.0
  0
LINE
  8
0
 62
     0
 10
83.294
 20
63.857
 30
0.0
 11
83.294
 21
69.6556
 31
0.0
  0
LINE
  8
0
 62
     0
 10
83.294
 20
69.6556
 30
0.0
 11
84.0948
 21
69.6556
 31
0.0
  0
LINE
  8
0
 62
     0
 10
84.0948
 20
69.6556
 30
0.0
 11
84.0948
 21
72.7562
 31
0.0
  0
LINE
  8
0
 62
     0
 10
84.0948
 20
72.7562
 30
0.0
 11
83.294
 21
72.7562
 31
0.0
  0
LINE
  8
0
 62
     0
 10
83.294
 20
72.7562
 30
0.0
 11
83.294
 21
73.7567
 31
0.0
  0
LINE
  8
0
 62
     0
 10
83.294
 20
73.7567
 30
0.0
 11
69.2947
 21
73.7567
 31
0.0
  0
LINE
  8
0
 62
     0
 10
88.3447
 20
73.7567
 30
0.0
 11
88.3447
 21
72.7562
 31
0.0
  0
LINE
  8
0
 62
     0
 10
88.3447
 20
72.7562
 30
0.0
 11
87.5453
 21
72.7562
 31
0.0
  0
LINE
  8
0
 62
     0
 10
87.5453
 20
72.7562
 30
0.0
 11
87.5453
 21
69.6556
 31
0.0
  0
LINE
  8
0
 62
     0
 10
87.5453
 20
69.6556
 30
0.0
 11
88.3447
 21
69.6556
 31
0.0
  0
LINE
  8
0
 62
     0
 10
88.3447
 20
69.6556
 30
0.0
 11
88.3447
 21
63.857
 31
0.0
  0
LINE
  8
0
 62
     0
 10
88.3447
 20
63.857
 30
0.0
 11
87.5453
 21
63.857
 31
0.0
  0
LINE
  8
0
 62
     0
 10
87.5453
 20
63.857
 30
0.0
 11
87.5453
 21
60.7564
 31
0.0
  0
LINE
  8
0
 62
     0
 10
87.5453
 20
60.7564
 30
0.0
 11
88.3447
 21
60.7564
 31
0.0
  0
LINE
  8
0
 62
     0
 10
88.3447
 20
60.7564
 30
0.0
 11
88.3447
 21
59.756
 31
0.0
  0
LINE
  8
0
 62
     0
 10
88.3447
 20
59.756
 30
0.0
 11
102.344
 21
59.756
 31
0.0
  0
LINE
  8
0
 62
     0
 10
102.344
 20
59.756
 30
0.0
 11
102.344
 21
60.7564
 31
0.0
  0
LINE
  8
0
 62
     0
 10
102.344
 20
60.7564
 30
0.0
 11
103.145
 21
60.7564
 31
0.0
  0
LINE
  8
0
 62
     0
 10
103.145
 20
60.7564
 30
0.0
 11
103.145
 21
63.857
 31
0.0
  0
LINE
  8
0
 62
     0
 10
103.145
 20
63.857
 30
0.0
 11
102.344
 21
63.857
 31
0.0
  0
LINE
  8
0
 62
     0
 10
102.344
 20
63.857
 30
0.0
 11
102.344
 21
69.6556
 31
0.0
  0
LINE
  8
0
 62
     0
 10
102.344
 20
69.6556
 30
0.0
 11
103.145
 21
69.6556
 31
0.0
  0
LINE
  8
0
 62
     0
 10
103.145
 20
69.6556
 30
0.0
 11
103.145
 21
72.7562
 31
0.0
  0
LINE
  8
0
 62
     0
 10
103.145
 20
72.7562
 30
0.0
 11
102.344
 21
72.7562
 31
0.0
  0
LINE
  8
0
 62
     0
 10
102.344
 20
72.7562
 30
0.0
 11
102.344
 21
73.7567
 31
0.0
  0
LINE
  8
0
 62
     0
 10
102.344
 20
73.7567
 30
0.0
 11
88.3447
 21
73.7567
 31
0.0
  0
LINE
  8
0
 62
     0
 10
107.395
 20
73.7567
 30
0.0
 11
107.395
 21
72.7562
 31
0.0
  0
LINE
  8
0
 62
     0
 10
107.395
 20
72.7562
 30
0.0
 11
106.595
 21
72.7562
 31
0.0
  0
LINE
  8
0
 62
     0
 10
106.595
 20
72.7562
 30
0.0
 11
106.595
 21
69.6556
 31
0.0
  0
LINE
  8
0
 62
     0
 10
106.595
 20
69.6556
 30
0.0
 11
107.395
 21
69.6556
 31
0.0
  0
LINE
  8
0
 62
     0
 10
107.395
 20
69.6556
 30
0.0
 11
107.395
 21
63.857
 31
0.0
  0
LINE
  8
0
 62
     0
 10
107.395
 20
63.857
 30
0.0
 11
106.595
 21
63.857
 31
0.0
  0
LINE
  8
0
 62
     0
 10
106.595
 20
63.857
 30
0.0
 11
106.595
 21
60.7564
 31
0.0
  0
LINE
  8
0
 62
     0
 10
106.595
 20
60.7564
 30
0.0
 11
107.395
 21
60.7564
 31
0.0
  0
LINE
  8
0
 62
     0
 10
107.395
 20
60.7564
 30
0.0
 11
107.395
 21
59.756
 31
0.0
  0
LINE
  8
0
 62
     0
 10
107.395
 20
59.756
 30
0.0
 11
121.394
 21
59.756
 31
0.0
  0
LINE
  8
0
 62
     0
 10
121.394
 20
59.756
 30
0.0
 11
121.394
 21
60.7564
 31
0.0
  0
LINE
  8
0
 62
     0
 10
121.394
 20
60.7564
 30
0.0
 11
122.195
 21
60.7564
 31
0.0
  0
LINE
  8
0
 62
     0
 10
122.195
 20
60.7564
 30
0.0
 11
122.195
 21
63.857
 31
0.0
  0
LINE
  8
0
 62
     0
 10
122.195
 20
63.857
 30
0.0
 11
121.394
 21
63.857
 31
0.0
  0
LINE
  8
0
 62
     0
 10
121.394
 20
63.857
 30
0.0
 11
121.394
 21
69.6556
 31
0.0
  0
LINE
  8
0
 62
     0
 10
121.394
 20
69.6556
 30
0.0
 11
122.195
 21
69.6556
 31
0.0
  0
LINE
  8
0
 62
     0
 10
122.195
 20
69.6556
 30
0.0
 11
122.195
 21
72.7562
 31
0.0
  0
LINE
  8
0
 62
     0
 10
122.195
 20
72.7562
 30
0.0
 11
121.394
 21
72.7562
 31
0.0
  0
LINE
  8
0
 62
     0
 10
121.394
 20
72.7562
 30
0.0
 11
121.394
 21
73.7567
 31
0.0
  0
LINE
  8
0
 62
     0
 10
121.394
 20
73.7567
 30
0.0
 11
107.395
 21
73.7567
 31
0.0
  0
LINE
  8
0
 62
     0
 10
126.445
 20
73.7567
 30
0.0
 11
126.445
 21
72.7562
 31
0.0
  0
LINE
  8
0
 62
     0
 10
126.445
 20
72.7562
 30
0.0
 11
125.644
 21
72.7562
 31
0.0
  0
LINE
  8
0
 62
     0
 10
125.644
 20
72.7562
 30
0.0
 11
125.644
 21
69.6556
 31
0.0
  0
LINE
  8
0
 62
     0
 10
125.644
 20
69.6556
 30
0.0
 11
126.445
 21
69.6556
 31
0.0
  0
LINE
  8
0
 62
     0
 10
126.445
 20
69.6556
 30
0.0
 11
126.445
 21
63.857
 31
0.0
  0
LINE
  8
0
 62
     0
 10
126.445
 20
63.857
 30
0.0
 11
125.644
 21
63.857
 31
0.0
  0
LINE
  8
0
 62
     0
 10
125.644
 20
63.857
 30
0.0
 11
125.644
 21
60.7564
 31
0.0
  0
LINE
  8
0
 62
     0
 10
125.644
 20
60.7564
 30
0.0
 11
126.445
 21
60.7564
 31
0.0
  0
LINE
  8
0
 62
     0
 10
126.445
 20
60.7564
 30
0.0
 11
126.445
 21
59.756
 31
0.0
  0
LINE
  8
0
 62
     0
 10
126.445
 20
59.756
 30
0.0
 11
140.444
 21
59.756
 31
0.0
  0
LINE
  8
0
 62
     0
 10
140.444
 20
59.756
 30
0.0
 11
140.444
 21
60.7564
 31
0.0
  0
LINE
  8
0
 62
     0
 10
140.444
 20
60.7564
 30
0.0
 11
141.245
 21
60.7564
 31
0.0
  0
LINE
  8
0
 62
     0
 10
141.245
 20
60.7564
 30
0.0
 11
141.245
 21
63.857
 31
0.0
  0
LINE
  8
0
 62
     0
 10
141.245
 20
63.857
 30
0.0
 11
140.444
 21
63.857
 31
0.0
  0
LINE
  8
0
 62
     0
 10
140.444
 20
63.857
 30
0.0
 11
140.444
 21
69.6556
 31
0.0
  0
LINE
  8
0
 62
     0
 10
140.444
 20
69.6556
 30
0.0
 11
141.245
 21
69.6556
 31
0.0
  0
LINE
  8
0
 62
     0
 10
141.245
 20
69.6556
 30
0.0
 11
141.245
 21
72.7562
 31
0.0
  0
LINE
  8
0
 62
     0
 10
141.245
 20
72.7562
 30
0.0
 11
140.444
 21
72.7562
 31
0.0
  0
LINE
  8
0
 62
     0
 10
140.444
 20
72.7562
 30
0.0
 11
140.444
 21
73.7567
 31
0.0
  0
LINE
  8
0
 62
     0
 10
140.444
 20
73.7567
 30
0.0
 11
126.445
 21
73.7567
 31
0.0
  0
LINE
  8
0
 62
     0
 10
145.495
 20
73.7567
 30
0.0
 11
145.495
 21
72.7562
 31
0.0
  0
LINE
  8
0
 62
     0
 10
145.495
 20
72.7562
 30
0.0
 11
144.695
 21
72.7562
 31
0.0
  0
LINE
  8
0
 62
     0
 10
144.695
 20
72.7562
 30
0.0
 11
144.695
 21
69.6556
 31
0.0
  0
LINE
  8
0
 62
     0
 10
144.695
 20
69.6556
 30
0.0
 11
145.495
 21
69.6556
 31
0.0
  0
LINE
  8
0
 62
     0
 10
145.495
 20
69.6556
 30
0.0
 11
145.495
 21
63.857
 31
0.0
  0
LINE
  8
0
 62
     0
 10
145.495
 20
63.857
 30
0.0
 11
144.695
 21
63.857
 31
0.0
  0
LINE
  8
0
 62
     0
 10
144.695
 20
63.857
 30
0.0
 11
144.695
 21
60.7564
 31
0.0
  0
LINE
  8
0
 62
     0
 10
144.695
 20
60.7564
 30
0.0
 11
145.495
 21
60.7564
 31
0.0
  0
LINE
  8
0
 62
     0
 10
145.495
 20
60.7564
 30
0.0
 11
145.495
 21
59.756
 31
0.0
  0
LINE
  8
0
 62
     0
 10
145.495
 20
59.756
 30
0.0
 11
159.494
 21
59.756
 31
0.0
  0
LINE
  8
0
 62
     0
 10
159.494
 20
59.756
 30
0.0
 11
159.494
 21
60.7564
 31
0.0
  0
LINE
  8
0
 62
     0
 10
159.494
 20
60.7564
 30
0.0
 11
160.295
 21
60.7564
 31
0.0
  0
LINE
  8
0
 62
     0
 10
160.295
 20
60.7564
 30
0.0
 11
160.295
 21
63.857
 31
0.0
  0
LINE
  8
0
 62
     0
 10
160.295
 20
63.857
 30
0.0
 11
159.494
 21
63.857
 31
0.0
  0
LINE
  8
0
 62
     0
 10
159.494
 20
63.857
 30
0.0
 11
159.494
 21
69.6556
 31
0.0
  0
LINE
  8
0
 62
     0
 10
159.494
 20
69.6556
 30
0.0
 11
160.295
 21
69.6556
 31
0.0
  0
LINE
  8
0
 62
     0
 10
160.295
 20
69.6556
 30
0.0
 11
160.295
 21
72.7562
 31
0.0
  0
LINE
  8
0
 62
     0
 10
160.295
 20
72.7562
 30
0.0
 11
159.494
 21
72.7562
 31
0.0
  0
LINE
  8
0
 62
     0
 10
159.494
 20
72.7562
 30
0.0
 11
159.494
 21
73.7567
 31
0.0
  0
LINE
  8
0
 62
     0
 10
159.494
 20
73.7567
 30
0.0
 11
145.495
 21
73.7567
 31
0.0
  0
LINE
  8
0
 62
     0
 10
164.545
 20
73.7567
 30
0.0
 11
164.545
 21
72.7562
 31
0.0
  0
LINE
  8
0
 62
     0
 10
164.545
 20
72.7562
 30
0.0
 11
163.745
 21
72.7562
 31
0.0
  0
LINE
  8
0
 62
     0
 10
163.745
 20
72.7562
 30
0.0
 11
163.745
 21
69.6556
 31
0.0
  0
LINE
  8
0
 62
     0
 10
163.745
 20
69.6556
 30
0.0
 11
164.545
 21
69.6556
 31
0.0
  0
LINE
  8
0
 62
     0
 10
164.545
 20
69.6556
 30
0.0
 11
164.545
 21
63.857
 31
0.0
  0
LINE
  8
0
 62
     0
 10
164.545
 20
63.857
 30
0.0
 11
163.745
 21
63.857
 31
0.0
  0
LINE
  8
0
 62
     0
 10
163.745
 20
63.857
 30
0.0
 11
163.745
 21
60.7564
 31
0.0
  0
LINE
  8
0
 62
     0
 10
163.745
 20
60.7564
 30
0.0
 11
164.545
 21
60.7564
 31
0.0
  0
LINE
  8
0
 62
     0
 10
164.545
 20
60.7564
 30
0.0
 11
164.545
 21
59.756
 31
0.0
  0
LINE
  8
0
 62
     0
 10
164.545
 20
59.756
 30
0.0
 11
178.544
 21
59.756
 31
0.0
  0
LINE
  8
0
 62
     0
 10
178.544
 20
59.756
 30
0.0
 11
178.544
 21
60.7564
 31
0.0
  0
LINE
  8
0
 62
     0
 10
178.544
 20
60.7564
 30
0.0
 11
179.345
 21
60.7564
 31
0.0
  0
LINE
  8
0
 62
     0
 10
179.345
 20
60.7564
 30
0.0
 11
179.345
 21
63.857
 31
0.0
  0
LINE
  8
0
 62
     0
 10
179.345
 20
63.857
 30
0.0
 11
178.544
 21
63.857
 31
0.0
  0
LINE
  8
0
 62
     0
 10
178.544
 20
63.857
 30
0.0
 11
178.544
 21
69.6556
 31
0.0
  0
LINE
  8
0
 62
     0
 10
178.544
 20
69.6556
 30
0.0
 11
179.345
 21
69.6556
 31
0.0
  0
LINE
  8
0
 62
     0
 10
179.345
 20
69.6556
 30
0.0
 11
179.345
 21
72.7562
 31
0.0
  0
LINE
  8
0
 62
     0
 10
179.345
 20
72.7562
 30
0.0
 11
178.544
 21
72.7562
 31
0.0
  0
LINE
  8
0
 62
     0
 10
178.544
 20
72.7562
 30
0.0
 11
178.544
 21
73.7567
 31
0.0
  0
LINE
  8
0
 62
     0
 10
178.544
 20
73.7567
 30
0.0
 11
164.545
 21
73.7567
 31
0.0
  0
LINE
  8
0
 62
     0
 10
183.595
 20
73.7567
 30
0.0
 11
183.595
 21
72.7562
 31
0.0
  0
LINE
  8
0
 62
     0
 10
183.595
 20
72.7562
 30
0.0
 11
182.795
 21
72.7562
 31
0.0
  0
LINE
  8
0
 62
     0
 10
182.795
 20
72.7562
 30
0.0
 11
182.795
 21
69.6556
 31
0.0
  0
LINE
  8
0
 62
     0
 10
182.795
 20
69.6556
 30
0.0
 11
183.595
 21
69.6556
 31
0.0
  0
LINE
  8
0
 62
     0
 10
183.595
 20
69.6556
 30
0.0
 11
183.595
 21
63.857
 31
0.0
  0
LINE
  8
0
 62
     0
 10
183.595
 20
63.857
 30
0.0
 11
182.795
 21
63.857
 31
0.0
  0
LINE
  8
0
 62
     0
 10
182.795
 20
63.857
 30
0.0
 11
182.795
 21
60.7564
 31
0.0
  0
LINE
  8
0
 62
     0
 10
182.795
 20
60.7564
 30
0.0
 11
183.595
 21
60.7564
 31
0.0
  0
LINE
  8
0
 62
     0
 10
183.595
 20
60.7564
 30
0.0
 11
183.595
 21
59.756
 31
0.0
  0
LINE
  8
0
 62
     0
 10
183.595
 20
59.756
 30
0.0
 11
197.594
 21
59.756
 31
0.0
  0
LINE
  8
0
 62
     0
 10
197.594
 20
59.756
 30
0.0
 11
197.594
 21
60.7564
 31
0.0
  0
LINE
  8
0
 62
     0
 10
197.594
 20
60.7564
 30
0.0
 11
198.395
 21
60.7564
 31
0.0
  0
LINE
  8
0
 62
     0
 10
198.395
 20
60.7564
 30
0.0
 11
198.395
 21
63.857
 31
0.0
  0
LINE
  8
0
 62
     0
 10
198.395
 20
63.857
 30
0.0
 11
197.594
 21
63.857
 31
0.0
  0
LINE
  8
0
 62
     0
 10
197.594
 20
63.857
 30
0.0
 11
197.594
 21
69.6556
 31
0.0
  0
LINE
  8
0
 62
     0
 10
197.594
 20
69.6556
 30
0.0
 11
198.395
 21
69.6556
 31
0.0
  0
LINE
  8
0
 62
     0
 10
198.395
 20
69.6556
 30
0.0
 11
198.395
 21
72.7562
 31
0.0
  0
LINE
  8
0
 62
     0
 10
198.395
 20
72.7562
 30
0.0
 11
197.594
 21
72.7562
 31
0.0
  0
LINE
  8
0
 62
     0
 10
197.594
 20
72.7562
 30
0.0
 11
197.594
 21
73.7567
 31
0.0
  0
LINE
  8
0
 62
     0
 10
197.594
 20
73.7567
 30
0.0
 11
183.595
 21
73.7567
 31
0.0
  0
LINE
  8
0
 62
     0
 10
202.645
 20
73.7567
 30
0.0
 11
202.645
 21
72.7562
 31
0.0
  0
LINE
  8
0
 62
     0
 10
202.645
 20
72.7562
 30
0.0
 11
201.845
 21
72.7562
 31
0.0
  0
LINE
  8
0
 62
     0
 10
201.845
 20
72.7562
 30
0.0
 11
201.845
 21
69.6556
 31
0.0
  0
LINE
  8
0
 62
     0
 10
201.845
 20
69.6556
 30
0.0
 11
202.645
 21
69.6556
 31
0.0
  0
LINE
  8
0
 62
     0
 10
202.645
 20
69.6556
 30
0.0
 11
202.645
 21
63.857
 31
0.0
  0
LINE
  8
0
 62
     0
 10
202.645
 20
63.857
 30
0.0
 11
201.845
 21
63.857
 31
0.0
  0
LINE
  8
0
 62
     0
 10
201.845
 20
63.857
 30
0.0
 11
201.845
 21
60.7564
 31
0.0
  0
LINE
  8
0
 62
     0
 10
201.845
 20
60.7564
 30
0.0
 11
202.645
 21
60.7564
 31
0.0
  0
LINE
  8
0
 62
     0
 10
202.645
 20
60.7564
 30
0.0
 11
202.645
 21
59.756
 31
0.0
  0
LINE
  8
0
 62
     0
 10
202.645
 20
59.756
 30
0.0
 11
216.644
 21
59.756
 31
0.0
  0
LINE
  8
0
 62
     0
 10
216.644
 20
59.756
 30
0.0
 11
216.644
 21
60.7564
 31
0.0
  0
LINE
  8
0
 62
     0
 10
216.644
 20
60.7564
 30
0.0
 11
217.445
 21
60.7564
 31
0.0
  0
LINE
  8
0
 62
     0
 10
217.445
 20
60.7564
 30
0.0
 11
217.445
 21
63.857
 31
0.0
  0
LINE
  8
0
 62
     0
 10
217.445
 20
63.857
 30
0.0
 11
216.644
 21
63.857
 31
0.0
  0
LINE
  8
0
 62
     0
 10
216.644
 20
63.857
 30
0.0
 11
216.644
 21
69.6556
 31
0.0
  0
LINE
  8
0
 62
     0
 10
216.644
 20
69.6556
 30
0.0
 11
217.445
 21
69.6556
 31
0.0
  0
LINE
  8
0
 62
     0
 10
217.445
 20
69.6556
 30
0.0
 11
217.445
 21
72.7562
 31
0.0
  0
LINE
  8
0
 62
     0
 10
217.445
 20
72.7562
 30
0.0
 11
216.644
 21
72.7562
 31
0.0
  0
LINE
  8
0
 62
     0
 10
216.644
 20
72.7562
 30
0.0
 11
216.644
 21
73.7567
 31
0.0
  0
LINE
  8
0
 62
     0
 10
216.644
 20
73.7567
 30
0.0
 11
202.645
 21
73.7567
 31
0.0
  0
LINE
  8
0
 62
     0
 10
221.695
 20
73.7567
 30
0.0
 11
221.695
 21
72.7562
 31
0.0
  0
LINE
  8
0
 62
     0
 10
221.695
 20
72.7562
 30
0.0
 11
220.895
 21
72.7562
 31
0.0
  0
LINE
  8
0
 62
     0
 10
220.895
 20
72.7562
 30
0.0
 11
220.895
 21
69.6556
 31
0.0
  0
LINE
  8
0
 62
     0
 10
220.895
 20
69.6556
 30
0.0
 11
221.695
 21
69.6556
 31
0.0
  0
LINE
  8
0
 62
     0
 10
221.695
 20
69.6556
 30
0.0
 11
221.695
 21
63.857
 31
0.0
  0
LINE
  8
0
 62
     0
 10
221.695
 20
63.857
 30
0.0
 11
220.895
 21
63.857
 31
0.0
  0
LINE
  8
0
 62
     0
 10
220.895
 20
63.857
 30
0.0
 11
220.895
 21
60.7564
 31
0.0
  0
LINE
  8
0
 62
     0
 10
220.895
 20
60.7564
 30
0.0
 11
221.695
 21
60.7564
 31
0.0
  0
LINE
  8
0
 62
     0
 10
221.695
 20
60.7564
 30
0.0
 11
221.695
 21
59.756
 31
0.0
  0
LINE
  8
0
 62
     0
 10
221.695
 20
59.756
 30
0.0
 11
235.694
 21
59.756
 31
0.0
  0
LINE
  8
0
 62
     0
 10
235.694
 20
59.756
 30
0.0
 11
235.694
 21
60.7564
 31
0.0
  0
LINE
  8
0
 62
     0
 10
235.694
 20
60.7564
 30
0.0
 11
236.495
 21
60.7564
 31
0.0
  0
LINE
  8
0
 62
     0
 10
236.495
 20
60.7564
 30
0.0
 11
236.495
 21
63.857
 31
0.0
  0
LINE
  8
0
 62
     0
 10
236.495
 20
63.857
 30
0.0
 11
235.694
 21
63.857
 31
0.0
  0
LINE
  8
0
 62
     0
 10
235.694
 20
63.857
 30
0.0
 11
235.694
 21
69.6556
 31
0.0
  0
LINE
  8
0
 62
     0
 10
235.694
 20
69.6556
 30
0.0
 11
236.495
 21
69.6556
 31
0.0
  0
LINE
  8
0
 62
     0
 10
236.495
 20
69.6556
 30
0.0
 11
236.495
 21
72.7562
 31
0.0
  0
LINE
  8
0
 62
     0
 10
236.495
 20
72.7562
 30
0.0
 11
235.694
 21
72.7562
 31
0.0
  0
LINE
  8
0
 62
     0
 10
235.694
 20
72.7562
 30
0.0
 11
235.694
 21
73.7567
 31
0.0
  0
LINE
  8
0
 62
     0
 10
235.694
 20
73.7567
 30
0.0
 11
221.695
 21
73.7567
 31
0.0
  0
LINE
  8
0
 62
     0
 10
240.745
 20
73.7567
 30
0.0
 11
240.745
 21
72.7562
 31
0.0
  0
LINE
  8
0
 62
     0
 10
240.745
 20
72.7562
 30
0.0
 11
239.945
 21
72.7562
 31
0.0
  0
LINE
  8
0
 62
     0
 10
239.945
 20
72.7562
 30
0.0
 11
239.945
 21
69.6556
 31
0.0
  0
LINE
  8
0
 62
     0
 10
239.945
 20
69.6556
 30
0.0
 11
240.745
 21
69.6556
 31
0.0
  0
LINE
  8
0
 62
     0
 10
240.745
 20
69.6556
 30
0.0
 11
240.745
 21
63.857
 31
0.0
  0
LINE
  8
0
 62
     0
 10
240.745
 20
63.857
 30
0.0
 11
239.945
 21
63.857
 31
0.0
  0
LINE
  8
0
 62
     0
 10
239.945
 20
63.857
 30
0.0
 11
239.945
 21
60.7564
 31
0.0
  0
LINE
  8
0
 62
     0
 10
239.945
 20
60.7564
 30
0.0
 11
240.745
 21
60.7564
 31
0.0
  0
LINE
  8
0
 62
     0
 10
240.745
 20
60.7564
 30
0.0
 11
240.745
 21
59.756
 31
0.0
  0
LINE
  8
0
 62
     0
 10
240.745
 20
59.756
 30
0.0
 11
254.744
 21
59.756
 31
0.0
  0
LINE
  8
0
 62
     0
 10
254.744
 20
59.756
 30
0.0
 11
254.744
 21
60.7564
 31
0.0
  0
LINE
  8
0
 62
     0
 10
254.744
 20
60.7564
 30
0.0
 11
255.545
 21
60.7564
 31
0.0
  0
LINE
  8
0
 62
     0
 10
255.545
 20
60.7564
 30
0.0
 11
255.545
 21
63.857
 31
0.0
  0
LINE
  8
0
 62
     0
 10
255.545
 20
63.857
 30
0.0
 11
254.744
 21
63.857
 31
0.0
  0
LINE
  8
0
 62
     0
 10
254.744
 20
63.857
 30
0.0
 11
254.744
 21
69.6556
 31
0.0
  0
LINE
  8
0
 62
     0
 10
254.744
 20
69.6556
 30
0.0
 11
255.545
 21
69.6556
 31
0.0
  0
LINE
  8
0
 62
     0
 10
255.545
 20
69.6556
 30
0.0
 11
255.545
 21
72.7562
 31
0.0
  0
LINE
  8
0
 62
     0
 10
255.545
 20
72.7562
 30
0.0
 11
254.744
 21
72.7562
 31
0.0
  0
LINE
  8
0
 62
     0
 10
254.744
 20
72.7562
 30
0.0
 11
254.744
 21
73.7567
 31
0.0
  0
LINE
  8
0
 62
     0
 10
254.744
 20
73.7567
 30
0.0
 11
240.745
 21
73.7567
 31
0.0
  0
LINE
  8
0
 62
     0
 10
264.557
 20
73.7567
 30
0.0
 11
264.557
 21
72.7562
 31
0.0
  0
LINE
  8
0
 62
     0
 10
264.557
 20
72.7562
 30
0.0
 11
263.756
 21
72.7562
 31
0.0
  0
LINE
  8
0
 62
     0
 10
263.756
 20
72.7562
 30
0.0
 11
263.756
 21
69.6556
 31
0.0
  0
LINE
  8
0
 62
     0
 10
263.756
 20
69.6556
 30
0.0
 11
264.557
 21
69.6556
 31
0.0
  0
LINE
  8
0
 62
     0
 10
264.557
 20
69.6556
 30
0.0
 11
264.557
 21
63.857
 31
0.0
  0
LINE
  8
0
 62
     0
 10
264.557
 20
63.857
 30
0.0
 11
263.756
 21
63.857
 31
0.0
  0
LINE
  8
0
 62
     0
 10
263.756
 20
63.857
 30
0.0
 11
263.756
 21
60.7564
 31
0.0
  0
LINE
  8
0
 62
     0
 10
263.756
 20
60.7564
 30
0.0
 11
264.557
 21
60.7564
 31
0.0
  0
LINE
  8
0
 62
     0
 10
264.557
 20
60.7564
 30
0.0
 11
264.557
 21
59.756
 31
0.0
  0
LINE
  8
0
 62
     0
 10
264.557
 20
59.756
 30
0.0
 11
278.557
 21
59.756
 31
0.0
  0
LINE
  8
0
 62
     0
 10
278.557
 20
59.756
 30
0.0
 11
278.557
 21
60.7564
 31
0.0
  0
LINE
  8
0
 62
     0
 10
278.557
 20
60.7564
 30
0.0
 11
279.357
 21
60.7564
 31
0.0
  0
LINE
  8
0
 62
     0
 10
279.357
 20
60.7564
 30
0.0
 11
279.357
 21
63.857
 31
0.0
  0
LINE
  8
0
 62
     0
 10
279.357
 20
63.857
 30
0.0
 11
278.557
 21
63.857
 31
0.0
  0
LINE
  8
0
 62
     0
 10
278.557
 20
63.857
 30
0.0
 11
278.557
 21
69.6556
 31
0.0
  0
LINE
  8
0
 62
     0
 10
278.557
 20
69.6556
 30
0.0
 11
279.357
 21
69.6556
 31
0.0
  0
LINE
  8
0
 62
     0
 10
279.357
 20
69.6556
 30
0.0
 11
279.357
 21
72.7562
 31
0.0
  0
LINE
  8
0
 62
     0
 10
279.357
 20
72.7562
 30
0.0
 11
278.557
 21
72.7562
 31
0.0
  0
LINE
  8
0
 62
     0
 10
278.557
 20
72.7562
 30
0.0
 11
278.557
 21
73.7567
 31
0.0
  0
LINE
  8
0
 62
     0
 10
278.557
 20
73.7567
 30
0.0
 11
264.557
 21
73.7567
 31
0.0
  0
LINE
  8
0
 62
     0
 10
253.243
 20
92.257
 30
0.0
 11
256.545
 21
92.257
 31
0.0
  0
LINE
  8
0
 62
     0
 10
256.545
 20
92.257
 30
0.0
 11
256.545
 21
78.0563
 31
0.0
  0
LINE
  8
0
 62
     0
 10
256.545
 20
78.0563
 30
0.0
 11
253.243
 21
78.0563
 31
0.0
  0
LINE
  8
0
 62
     0
 10
253.243
 20
78.0563
 30
0.0
 11
253.243
 21
92.257
 31
0.0
  0
LINE
  8
0
 62
     0
 10
277.045
 20
92.257
 30
0.0
 11
280.345
 21
92.257
 31
0.0
  0
LINE
  8
0
 62
     0
 10
280.345
 20
92.257
 30
0.0
 11
280.345
 21
78.0563
 31
0.0
  0
LINE
  8
0
 62
     0
 10
280.345
 20
78.0563
 30
0.0
 11
277.045
 21
78.0563
 31
0.0
  0
LINE
  8
0
 62
     0
 10
277.045
 20
78.0563
 30
0.0
 11
277.045
 21
92.257
 31
0.0
  0
LINE
  8
0
 62
     0
 10
2.61965
 20
92.8067
 30
0.0
 11
2.61965
 21
91.8062
 31
0.0
  0
LINE
  8
0
 62
     0
 10
2.61965
 20
91.8062
 30
0.0
 11
1.82039
 21
91.8062
 31
0.0
  0
LINE
  8
0
 62
     0
 10
1.82039
 20
91.8062
 30
0.0
 11
1.82039
 21
88.7056
 31
0.0
  0
LINE
  8
0
 62
     0
 10
1.82039
 20
88.7056
 30
0.0
 11
2.61965
 21
88.7056
 31
0.0
  0
LINE
  8
0
 62
     0
 10
2.61965
 20
88.7056
 30
0.0
 11
2.61965
 21
82.907
 31
0.0
  0
LINE
  8
0
 62
     0
 10
2.61965
 20
82.907
 30
0.0
 11
1.82039
 21
82.907
 31
0.0
  0
LINE
  8
0
 62
     0
 10
1.82039
 20
82.907
 30
0.0
 11
1.82039
 21
79.8065
 31
0.0
  0
LINE
  8
0
 62
     0
 10
1.82039
 20
79.8065
 30
0.0
 11
2.61965
 21
79.8065
 31
0.0
  0
LINE
  8
0
 62
     0
 10
2.61965
 20
79.8065
 30
0.0
 11
2.61965
 21
78.806
 31
0.0
  0
LINE
  8
0
 62
     0
 10
2.61965
 20
78.806
 30
0.0
 11
16.6192
 21
78.806
 31
0.0
  0
LINE
  8
0
 62
     0
 10
16.6192
 20
78.806
 30
0.0
 11
16.6192
 21
79.8065
 31
0.0
  0
LINE
  8
0
 62
     0
 10
16.6192
 20
79.8065
 30
0.0
 11
17.4198
 21
79.8065
 31
0.0
  0
LINE
  8
0
 62
     0
 10
17.4198
 20
79.8065
 30
0.0
 11
17.4198
 21
82.907
 31
0.0
  0
LINE
  8
0
 62
     0
 10
17.4198
 20
82.907
 30
0.0
 11
16.6192
 21
82.907
 31
0.0
  0
LINE
  8
0
 62
     0
 10
16.6192
 20
82.907
 30
0.0
 11
16.6192
 21
88.7056
 31
0.0
  0
LINE
  8
0
 62
     0
 10
16.6192
 20
88.7056
 30
0.0
 11
17.4198
 21
88.7056
 31
0.0
  0
LINE
  8
0
 62
     0
 10
17.4198
 20
88.7056
 30
0.0
 11
17.4198
 21
91.8062
 31
0.0
  0
LINE
  8
0
 62
     0
 10
17.4198
 20
91.8062
 30
0.0
 11
16.6192
 21
91.8062
 31
0.0
  0
LINE
  8
0
 62
     0
 10
16.6192
 20
91.8062
 30
0.0
 11
16.6192
 21
92.8067
 31
0.0
  0
LINE
  8
0
 62
     0
 10
16.6192
 20
92.8067
 30
0.0
 11
2.61965
 21
92.8067
 31
0.0
  0
LINE
  8
0
 62
     0
 10
21.6697
 20
92.8067
 30
0.0
 11
21.6697
 21
91.8062
 31
0.0
  0
LINE
  8
0
 62
     0
 10
21.6697
 20
91.8062
 30
0.0
 11
20.8704
 21
91.8062
 31
0.0
  0
LINE
  8
0
 62
     0
 10
20.8704
 20
91.8062
 30
0.0
 11
20.8704
 21
88.7056
 31
0.0
  0
LINE
  8
0
 62
     0
 10
20.8704
 20
88.7056
 30
0.0
 11
21.6697
 21
88.7056
 31
0.0
  0
LINE
  8
0
 62
     0
 10
21.6697
 20
88.7056
 30
0.0
 11
21.6697
 21
82.907
 31
0.0
  0
LINE
  8
0
 62
     0
 10
21.6697
 20
82.907
 30
0.0
 11
20.8704
 21
82.907
 31
0.0
  0
LINE
  8
0
 62
     0
 10
20.8704
 20
82.907
 30
0.0
 11
20.8704
 21
79.8065
 31
0.0
  0
LINE
  8
0
 62
     0
 10
20.8704
 20
79.8065
 30
0.0
 11
21.6697
 21
79.8065
 31
0.0
  0
LINE
  8
0
 62
     0
 10
21.6697
 20
79.8065
 30
0.0
 11
21.6697
 21
78.806
 31
0.0
  0
LINE
  8
0
 62
     0
 10
21.6697
 20
78.806
 30
0.0
 11
35.669
 21
78.806
 31
0.0
  0
LINE
  8
0
 62
     0
 10
35.669
 20
78.806
 30
0.0
 11
35.669
 21
79.8065
 31
0.0
  0
LINE
  8
0
 62
     0
 10
35.669
 20
79.8065
 30
0.0
 11
36.4698
 21
79.8065
 31
0.0
  0
LINE
  8
0
 62
     0
 10
36.4698
 20
79.8065
 30
0.0
 11
36.4698
 21
82.907
 31
0.0
  0
LINE
  8
0
 62
     0
 10
36.4698
 20
82.907
 30
0.0
 11
35.669
 21
82.907
 31
0.0
  0
LINE
  8
0
 62
     0
 10
35.669
 20
82.907
 30
0.0
 11
35.669
 21
88.7056
 31
0.0
  0
LINE
  8
0
 62
     0
 10
35.669
 20
88.7056
 30
0.0
 11
36.4698
 21
88.7056
 31
0.0
  0
LINE
  8
0
 62
     0
 10
36.4698
 20
88.7056
 30
0.0
 11
36.4698
 21
91.8062
 31
0.0
  0
LINE
  8
0
 62
     0
 10
36.4698
 20
91.8062
 30
0.0
 11
35.669
 21
91.8062
 31
0.0
  0
LINE
  8
0
 62
     0
 10
35.669
 20
91.8062
 30
0.0
 11
35.669
 21
92.8067
 31
0.0
  0
LINE
  8
0
 62
     0
 10
35.669
 20
92.8067
 30
0.0
 11
21.6697
 21
92.8067
 31
0.0
  0
LINE
  8
0
 62
     0
 10
40.7197
 20
92.8067
 30
0.0
 11
40.7197
 21
91.8062
 31
0.0
  0
LINE
  8
0
 62
     0
 10
40.7197
 20
91.8062
 30
0.0
 11
39.9203
 21
91.8062
 31
0.0
  0
LINE
  8
0
 62
     0
 10
39.9203
 20
91.8062
 30
0.0
 11
39.9203
 21
88.7056
 31
0.0
  0
LINE
  8
0
 62
     0
 10
39.9203
 20
88.7056
 30
0.0
 11
40.7197
 21
88.7056
 31
0.0
  0
LINE
  8
0
 62
     0
 10
40.7197
 20
88.7056
 30
0.0
 11
40.7197
 21
82.907
 31
0.0
  0
LINE
  8
0
 62
     0
 10
40.7197
 20
82.907
 30
0.0
 11
39.9203
 21
82.907
 31
0.0
  0
LINE
  8
0
 62
     0
 10
39.9203
 20
82.907
 30
0.0
 11
39.9203
 21
79.8065
 31
0.0
  0
LINE
  8
0
 62
     0
 10
39.9203
 20
79.8065
 30
0.0
 11
40.7197
 21
79.8065
 31
0.0
  0
LINE
  8
0
 62
     0
 10
40.7197
 20
79.8065
 30
0.0
 11
40.7197
 21
78.806
 31
0.0
  0
LINE
  8
0
 62
     0
 10
40.7197
 20
78.806
 30
0.0
 11
54.719
 21
78.806
 31
0.0
  0
LINE
  8
0
 62
     0
 10
54.719
 20
78.806
 30
0.0
 11
54.719
 21
79.8065
 31
0.0
  0
LINE
  8
0
 62
     0
 10
54.719
 20
79.8065
 30
0.0
 11
55.5198
 21
79.8065
 31
0.0
  0
LINE
  8
0
 62
     0
 10
55.5198
 20
79.8065
 30
0.0
 11
55.5198
 21
82.907
 31
0.0
  0
LINE
  8
0
 62
     0
 10
55.5198
 20
82.907
 30
0.0
 11
54.719
 21
82.907
 31
0.0
  0
LINE
  8
0
 62
     0
 10
54.719
 20
82.907
 30
0.0
 11
54.719
 21
88.7056
 31
0.0
  0
LINE
  8
0
 62
     0
 10
54.719
 20
88.7056
 30
0.0
 11
55.5198
 21
88.7056
 31
0.0
  0
LINE
  8
0
 62
     0
 10
55.5198
 20
88.7056
 30
0.0
 11
55.5198
 21
91.8062
 31
0.0
  0
LINE
  8
0
 62
     0
 10
55.5198
 20
91.8062
 30
0.0
 11
54.719
 21
91.8062
 31
0.0
  0
LINE
  8
0
 62
     0
 10
54.719
 20
91.8062
 30
0.0
 11
54.719
 21
92.8067
 31
0.0
  0
LINE
  8
0
 62
     0
 10
54.719
 20
92.8067
 30
0.0
 11
40.7197
 21
92.8067
 31
0.0
  0
LINE
  8
0
 62
     0
 10
59.7697
 20
92.8067
 30
0.0
 11
59.7697
 21
91.8062
 31
0.0
  0
LINE
  8
0
 62
     0
 10
59.7697
 20
91.8062
 30
0.0
 11
58.9703
 21
91.8062
 31
0.0
  0
LINE
  8
0
 62
     0
 10
58.9703
 20
91.8062
 30
0.0
 11
58.9703
 21
88.7056
 31
0.0
  0
LINE
  8
0
 62
     0
 10
58.9703
 20
88.7056
 30
0.0
 11
59.7697
 21
88.7056
 31
0.0
  0
LINE
  8
0
 62
     0
 10
59.7697
 20
88.7056
 30
0.0
 11
59.7697
 21
82.907
 31
0.0
  0
LINE
  8
0
 62
     0
 10
59.7697
 20
82.907
 30
0.0
 11
58.9703
 21
82.907
 31
0.0
  0
LINE
  8
0
 62
     0
 10
58.9703
 20
82.907
 30
0.0
 11
58.9703
 21
79.8065
 31
0.0
  0
LINE
  8
0
 62
     0
 10
58.9703
 20
79.8065
 30
0.0
 11
59.7697
 21
79.8065
 31
0.0
  0
LINE
  8
0
 62
     0
 10
59.7697
 20
79.8065
 30
0.0
 11
59.7697
 21
78.806
 31
0.0
  0
LINE
  8
0
 62
     0
 10
59.7697
 20
78.806
 30
0.0
 11
73.769
 21
78.806
 31
0.0
  0
LINE
  8
0
 62
     0
 10
73.769
 20
78.806
 30
0.0
 11
73.769
 21
79.8065
 31
0.0
  0
LINE
  8
0
 62
     0
 10
73.769
 20
79.8065
 30
0.0
 11
74.5698
 21
79.8065
 31
0.0
  0
LINE
  8
0
 62
     0
 10
74.5698
 20
79.8065
 30
0.0
 11
74.5698
 21
82.907
 31
0.0
  0
LINE
  8
0
 62
     0
 10
74.5698
 20
82.907
 30
0.0
 11
73.769
 21
82.907
 31
0.0
  0
LINE
  8
0
 62
     0
 10
73.769
 20
82.907
 30
0.0
 11
73.769
 21
88.7056
 31
0.0
  0
LINE
  8
0
 62
     0
 10
73.769
 20
88.7056
 30
0.0
 11
74.5698
 21
88.7056
 31
0.0
  0
LINE
  8
0
 62
     0
 10
74.5698
 20
88.7056
 30
0.0
 11
74.5698
 21
91.8062
 31
0.0
  0
LINE
  8
0
 62
     0
 10
74.5698
 20
91.8062
 30
0.0
 11
73.769
 21
91.8062
 31
0.0
  0
LINE
  8
0
 62
     0
 10
73.769
 20
91.8062
 30
0.0
 11
73.769
 21
92.8067
 31
0.0
  0
LINE
  8
0
 62
     0
 10
73.769
 20
92.8067
 30
0.0
 11
59.7697
 21
92.8067
 31
0.0
  0
LINE
  8
0
 62
     0
 10
78.8197
 20
92.8067
 30
0.0
 11
78.8197
 21
91.8062
 31
0.0
  0
LINE
  8
0
 62
     0
 10
78.8197
 20
91.8062
 30
0.0
 11
78.0203
 21
91.8062
 31
0.0
  0
LINE
  8
0
 62
     0
 10
78.0203
 20
91.8062
 30
0.0
 11
78.0203
 21
88.7056
 31
0.0
  0
LINE
  8
0
 62
     0
 10
78.0203
 20
88.7056
 30
0.0
 11
78.8197
 21
88.7056
 31
0.0
  0
LINE
  8
0
 62
     0
 10
78.8197
 20
88.7056
 30
0.0
 11
78.8197
 21
82.907
 31
0.0
  0
LINE
  8
0
 62
     0
 10
78.8197
 20
82.907
 30
0.0
 11
78.0203
 21
82.907
 31
0.0
  0
LINE
  8
0
 62
     0
 10
78.0203
 20
82.907
 30
0.0
 11
78.0203
 21
79.8065
 31
0.0
  0
LINE
  8
0
 62
     0
 10
78.0203
 20
79.8065
 30
0.0
 11
78.8197
 21
79.8065
 31
0.0
  0
LINE
  8
0
 62
     0
 10
78.8197
 20
79.8065
 30
0.0
 11
78.8197
 21
78.806
 31
0.0
  0
LINE
  8
0
 62
     0
 10
78.8197
 20
78.806
 30
0.0
 11
92.819
 21
78.806
 31
0.0
  0
LINE
  8
0
 62
     0
 10
92.819
 20
78.806
 30
0.0
 11
92.819
 21
79.8065
 31
0.0
  0
LINE
  8
0
 62
     0
 10
92.819
 20
79.8065
 30
0.0
 11
93.6184
 21
79.8065
 31
0.0
  0
LINE
  8
0
 62
     0
 10
93.6184
 20
79.8065
 30
0.0
 11
93.6184
 21
82.907
 31
0.0
  0
LINE
  8
0
 62
     0
 10
93.6184
 20
82.907
 30
0.0
 11
92.819
 21
82.907
 31
0.0
  0
LINE
  8
0
 62
     0
 10
92.819
 20
82.907
 30
0.0
 11
92.819
 21
88.7056
 31
0.0
  0
LINE
  8
0
 62
     0
 10
92.819
 20
88.7056
 30
0.0
 11
93.6184
 21
88.7056
 31
0.0
  0
LINE
  8
0
 62
     0
 10
93.6184
 20
88.7056
 30
0.0
 11
93.6184
 21
91.8062
 31
0.0
  0
LINE
  8
0
 62
     0
 10
93.6184
 20
91.8062
 30
0.0
 11
92.819
 21
91.8062
 31
0.0
  0
LINE
  8
0
 62
     0
 10
92.819
 20
91.8062
 30
0.0
 11
92.819
 21
92.8067
 31
0.0
  0
LINE
  8
0
 62
     0
 10
92.819
 20
92.8067
 30
0.0
 11
78.8197
 21
92.8067
 31
0.0
  0
LINE
  8
0
 62
     0
 10
97.8683
 20
92.8067
 30
0.0
 11
97.8683
 21
91.8062
 31
0.0
  0
LINE
  8
0
 62
     0
 10
97.8683
 20
91.8062
 30
0.0
 11
97.0703
 21
91.8062
 31
0.0
  0
LINE
  8
0
 62
     0
 10
97.0703
 20
91.8062
 30
0.0
 11
97.0703
 21
88.7056
 31
0.0
  0
LINE
  8
0
 62
     0
 10
97.0703
 20
88.7056
 30
0.0
 11
97.8683
 21
88.7056
 31
0.0
  0
LINE
  8
0
 62
     0
 10
97.8683
 20
88.7056
 30
0.0
 11
97.8683
 21
82.907
 31
0.0
  0
LINE
  8
0
 62
     0
 10
97.8683
 20
82.907
 30
0.0
 11
97.0703
 21
82.907
 31
0.0
  0
LINE
  8
0
 62
     0
 10
97.0703
 20
82.907
 30
0.0
 11
97.0703
 21
79.8065
 31
0.0
  0
LINE
  8
0
 62
     0
 10
97.0703
 20
79.8065
 30
0.0
 11
97.8683
 21
79.8065
 31
0.0
  0
LINE
  8
0
 62
     0
 10
97.8683
 20
79.8065
 30
0.0
 11
97.8683
 21
78.806
 31
0.0
  0
LINE
  8
0
 62
     0
 10
97.8683
 20
78.806
 30
0.0
 11
111.869
 21
78.806
 31
0.0
  0
LINE
  8
0
 62
     0
 10
111.869
 20
78.806
 30
0.0
 11
111.869
 21
79.8065
 31
0.0
  0
LINE
  8
0
 62
     0
 10
111.869
 20
79.8065
 30
0.0
 11
112.668
 21
79.8065
 31
0.0
  0
LINE
  8
0
 62
     0
 10
112.668
 20
79.8065
 30
0.0
 11
112.668
 21
82.907
 31
0.0
  0
LINE
  8
0
 62
     0
 10
112.668
 20
82.907
 30
0.0
 11
111.869
 21
82.907
 31
0.0
  0
LINE
  8
0
 62
     0
 10
111.869
 20
82.907
 30
0.0
 11
111.869
 21
88.7056
 31
0.0
  0
LINE
  8
0
 62
     0
 10
111.869
 20
88.7056
 30
0.0
 11
112.668
 21
88.7056
 31
0.0
  0
LINE
  8
0
 62
     0
 10
112.668
 20
88.7056
 30
0.0
 11
112.668
 21
91.8062
 31
0.0
  0
LINE
  8
0
 62
     0
 10
112.668
 20
91.8062
 30
0.0
 11
111.869
 21
91.8062
 31
0.0
  0
LINE
  8
0
 62
     0
 10
111.869
 20
91.8062
 30
0.0
 11
111.869
 21
92.8067
 31
0.0
  0
LINE
  8
0
 62
     0
 10
111.869
 20
92.8067
 30
0.0
 11
97.8683
 21
92.8067
 31
0.0
  0
LINE
  8
0
 62
     0
 10
116.918
 20
92.8067
 30
0.0
 11
116.918
 21
91.8062
 31
0.0
  0
LINE
  8
0
 62
     0
 10
116.918
 20
91.8062
 30
0.0
 11
116.119
 21
91.8062
 31
0.0
  0
LINE
  8
0
 62
     0
 10
116.119
 20
91.8062
 30
0.0
 11
116.119
 21
88.7056
 31
0.0
  0
LINE
  8
0
 62
     0
 10
116.119
 20
88.7056
 30
0.0
 11
116.918
 21
88.7056
 31
0.0
  0
LINE
  8
0
 62
     0
 10
116.918
 20
88.7056
 30
0.0
 11
116.918
 21
82.907
 31
0.0
  0
LINE
  8
0
 62
     0
 10
116.918
 20
82.907
 30
0.0
 11
116.119
 21
82.907
 31
0.0
  0
LINE
  8
0
 62
     0
 10
116.119
 20
82.907
 30
0.0
 11
116.119
 21
79.8065
 31
0.0
  0
LINE
  8
0
 62
     0
 10
116.119
 20
79.8065
 30
0.0
 11
116.918
 21
79.8065
 31
0.0
  0
LINE
  8
0
 62
     0
 10
116.918
 20
79.8065
 30
0.0
 11
116.918
 21
78.806
 31
0.0
  0
LINE
  8
0
 62
     0
 10
116.918
 20
78.806
 30
0.0
 11
130.919
 21
78.806
 31
0.0
  0
LINE
  8
0
 62
     0
 10
130.919
 20
78.806
 30
0.0
 11
130.919
 21
79.8065
 31
0.0
  0
LINE
  8
0
 62
     0
 10
130.919
 20
79.8065
 30
0.0
 11
131.72
 21
79.8065
 31
0.0
  0
LINE
  8
0
 62
     0
 10
131.72
 20
79.8065
 30
0.0
 11
131.72
 21
82.907
 31
0.0
  0
LINE
  8
0
 62
     0
 10
131.72
 20
82.907
 30
0.0
 11
130.919
 21
82.907
 31
0.0
  0
LINE
  8
0
 62
     0
 10
130.919
 20
82.907
 30
0.0
 11
130.919
 21
88.7056
 31
0.0
  0
LINE
  8
0
 62
     0
 10
130.919
 20
88.7056
 30
0.0
 11
131.72
 21
88.7056
 31
0.0
  0
LINE
  8
0
 62
     0
 10
131.72
 20
88.7056
 30
0.0
 11
131.72
 21
91.8062
 31
0.0
  0
LINE
  8
0
 62
     0
 10
131.72
 20
91.8062
 30
0.0
 11
130.919
 21
91.8062
 31
0.0
  0
LINE
  8
0
 62
     0
 10
130.919
 20
91.8062
 30
0.0
 11
130.919
 21
92.8067
 31
0.0
  0
LINE
  8
0
 62
     0
 10
130.919
 20
92.8067
 30
0.0
 11
116.918
 21
92.8067
 31
0.0
  0
LINE
  8
0
 62
     0
 10
135.97
 20
92.8067
 30
0.0
 11
135.97
 21
91.8062
 31
0.0
  0
LINE
  8
0
 62
     0
 10
135.97
 20
91.8062
 30
0.0
 11
135.17
 21
91.8062
 31
0.0
  0
LINE
  8
0
 62
     0
 10
135.17
 20
91.8062
 30
0.0
 11
135.17
 21
88.7056
 31
0.0
  0
LINE
  8
0
 62
     0
 10
135.17
 20
88.7056
 30
0.0
 11
135.97
 21
88.7056
 31
0.0
  0
LINE
  8
0
 62
     0
 10
135.97
 20
88.7056
 30
0.0
 11
135.97
 21
82.907
 31
0.0
  0
LINE
  8
0
 62
     0
 10
135.97
 20
82.907
 30
0.0
 11
135.17
 21
82.907
 31
0.0
  0
LINE
  8
0
 62
     0
 10
135.17
 20
82.907
 30
0.0
 11
135.17
 21
79.8065
 31
0.0
  0
LINE
  8
0
 62
     0
 10
135.17
 20
79.8065
 30
0.0
 11
135.97
 21
79.8065
 31
0.0
  0
LINE
  8
0
 62
     0
 10
135.97
 20
79.8065
 30
0.0
 11
135.97
 21
78.806
 31
0.0
  0
LINE
  8
0
 62
     0
 10
135.97
 20
78.806
 30
0.0
 11
149.969
 21
78.806
 31
0.0
  0
LINE
  8
0
 62
     0
 10
149.969
 20
78.806
 30
0.0
 11
149.969
 21
79.8065
 31
0.0
  0
LINE
  8
0
 62
     0
 10
149.969
 20
79.8065
 30
0.0
 11
150.77
 21
79.8065
 31
0.0
  0
LINE
  8
0
 62
     0
 10
150.77
 20
79.8065
 30
0.0
 11
150.77
 21
82.907
 31
0.0
  0
LINE
  8
0
 62
     0
 10
150.77
 20
82.907
 30
0.0
 11
149.969
 21
82.907
 31
0.0
  0
LINE
  8
0
 62
     0
 10
149.969
 20
82.907
 30
0.0
 11
149.969
 21
88.7056
 31
0.0
  0
LINE
  8
0
 62
     0
 10
149.969
 20
88.7056
 30
0.0
 11
150.77
 21
88.7056
 31
0.0
  0
LINE
  8
0
 62
     0
 10
150.77
 20
88.7056
 30
0.0
 11
150.77
 21
91.8062
 31
0.0
  0
LINE
  8
0
 62
     0
 10
150.77
 20
91.8062
 30
0.0
 11
149.969
 21
91.8062
 31
0.0
  0
LINE
  8
0
 62
     0
 10
149.969
 20
91.8062
 30
0.0
 11
149.969
 21
92.8067
 31
0.0
  0
LINE
  8
0
 62
     0
 10
149.969
 20
92.8067
 30
0.0
 11
135.97
 21
92.8067
 31
0.0
  0
LINE
  8
0
 62
     0
 10
155.02
 20
92.8067
 30
0.0
 11
155.02
 21
91.8062
 31
0.0
  0
LINE
  8
0
 62
     0
 10
155.02
 20
91.8062
 30
0.0
 11
154.22
 21
91.8062
 31
0.0
  0
LINE
  8
0
 62
     0
 10
154.22
 20
91.8062
 30
0.0
 11
154.22
 21
88.7056
 31
0.0
  0
LINE
  8
0
 62
     0
 10
154.22
 20
88.7056
 30
0.0
 11
155.02
 21
88.7056
 31
0.0
  0
LINE
  8
0
 62
     0
 10
155.02
 20
88.7056
 30
0.0
 11
155.02
 21
82.907
 31
0.0
  0
LINE
  8
0
 62
     0
 10
155.02
 20
82.907
 30
0.0
 11
154.22
 21
82.907
 31
0.0
  0
LINE
  8
0
 62
     0
 10
154.22
 20
82.907
 30
0.0
 11
154.22
 21
79.8065
 31
0.0
  0
LINE
  8
0
 62
     0
 10
154.22
 20
79.8065
 30
0.0
 11
155.02
 21
79.8065
 31
0.0
  0
LINE
  8
0
 62
     0
 10
155.02
 20
79.8065
 30
0.0
 11
155.02
 21
78.806
 31
0.0
  0
LINE
  8
0
 62
     0
 10
155.02
 20
78.806
 30
0.0
 11
169.019
 21
78.806
 31
0.0
  0
LINE
  8
0
 62
     0
 10
169.019
 20
78.806
 30
0.0
 11
169.019
 21
79.8065
 31
0.0
  0
LINE
  8
0
 62
     0
 10
169.019
 20
79.8065
 30
0.0
 11
169.82
 21
79.8065
 31
0.0
  0
LINE
  8
0
 62
     0
 10
169.82
 20
79.8065
 30
0.0
 11
169.82
 21
82.907
 31
0.0
  0
LINE
  8
0
 62
     0
 10
169.82
 20
82.907
 30
0.0
 11
169.019
 21
82.907
 31
0.0
  0
LINE
  8
0
 62
     0
 10
169.019
 20
82.907
 30
0.0
 11
169.019
 21
88.7056
 31
0.0
  0
LINE
  8
0
 62
     0
 10
169.019
 20
88.7056
 30
0.0
 11
169.82
 21
88.7056
 31
0.0
  0
LINE
  8
0
 62
     0
 10
169.82
 20
88.7056
 30
0.0
 11
169.82
 21
91.8062
 31
0.0
  0
LINE
  8
0
 62
     0
 10
169.82
 20
91.8062
 30
0.0
 11
169.019
 21
91.8062
 31
0.0
  0
LINE
  8
0
 62
     0
 10
169.019
 20
91.8062
 30
0.0
 11
169.019
 21
92.8067
 31
0.0
  0
LINE
  8
0
 62
     0
 10
169.019
 20
92.8067
 30
0.0
 11
155.02
 21
92.8067
 31
0.0
  0
LINE
  8
0
 62
     0
 10
174.07
 20
92.8067
 30
0.0
 11
174.07
 21
91.8062
 31
0.0
  0
LINE
  8
0
 62
     0
 10
174.07
 20
91.8062
 30
0.0
 11
173.27
 21
91.8062
 31
0.0
  0
LINE
  8
0
 62
     0
 10
173.27
 20
91.8062
 30
0.0
 11
173.27
 21
88.7056
 31
0.0
  0
LINE
  8
0
 62
     0
 10
173.27
 20
88.7056
 30
0.0
 11
174.07
 21
88.7056
 31
0.0
  0
LINE
  8
0
 62
     0
 10
174.07
 20
88.7056
 30
0.0
 11
174.07
 21
82.907
 31
0.0
  0
LINE
  8
0
 62
     0
 10
174.07
 20
82.907
 30
0.0
 11
173.27
 21
82.907
 31
0.0
  0
LINE
  8
0
 62
     0
 10
173.27
 20
82.907
 30
0.0
 11
173.27
 21
79.8065
 31
0.0
  0
LINE
  8
0
 62
     0
 10
173.27
 20
79.8065
 30
0.0
 11
174.07
 21
79.8065
 31
0.0
  0
LINE
  8
0
 62
     0
 10
174.07
 20
79.8065
 30
0.0
 11
174.07
 21
78.806
 31
0.0
  0
LINE
  8
0
 62
     0
 10
174.07
 20
78.806
 30
0.0
 11
188.069
 21
78.806
 31
0.0
  0
LINE
  8
0
 62
     0
 10
188.069
 20
78.806
 30
0.0
 11
188.069
 21
79.8065
 31
0.0
  0
LINE
  8
0
 62
     0
 10
188.069
 20
79.8065
 30
0.0
 11
188.87
 21
79.8065
 31
0.0
  0
LINE
  8
0
 62
     0
 10
188.87
 20
79.8065
 30
0.0
 11
188.87
 21
82.907
 31
0.0
  0
LINE
  8
0
 62
     0
 10
188.87
 20
82.907
 30
0.0
 11
188.069
 21
82.907
 31
0.0
  0
LINE
  8
0
 62
     0
 10
188.069
 20
82.907
 30
0.0
 11
188.069
 21
88.7056
 31
0.0
  0
LINE
  8
0
 62
     0
 10
188.069
 20
88.7056
 30
0.0
 11
188.87
 21
88.7056
 31
0.0
  0
LINE
  8
0
 62
     0
 10
188.87
 20
88.7056
 30
0.0
 11
188.87
 21
91.8062
 31
0.0
  0
LINE
  8
0
 62
     0
 10
188.87
 20
91.8062
 30
0.0
 11
188.069
 21
91.8062
 31
0.0
  0
LINE
  8
0
 62
     0
 10
188.069
 20
91.8062
 30
0.0
 11
188.069
 21
92.8067
 31
0.0
  0
LINE
  8
0
 62
     0
 10
188.069
 20
92.8067
 30
0.0
 11
174.07
 21
92.8067
 31
0.0
  0
LINE
  8
0
 62
     0
 10
193.12
 20
92.8067
 30
0.0
 11
193.12
 21
91.8062
 31
0.0
  0
LINE
  8
0
 62
     0
 10
193.12
 20
91.8062
 30
0.0
 11
192.32
 21
91.8062
 31
0.0
  0
LINE
  8
0
 62
     0
 10
192.32
 20
91.8062
 30
0.0
 11
192.32
 21
88.7056
 31
0.0
  0
LINE
  8
0
 62
     0
 10
192.32
 20
88.7056
 30
0.0
 11
193.12
 21
88.7056
 31
0.0
  0
LINE
  8
0
 62
     0
 10
193.12
 20
88.7056
 30
0.0
 11
193.12
 21
82.907
 31
0.0
  0
LINE
  8
0
 62
     0
 10
193.12
 20
82.907
 30
0.0
 11
192.32
 21
82.907
 31
0.0
  0
LINE
  8
0
 62
     0
 10
192.32
 20
82.907
 30
0.0
 11
192.32
 21
79.8065
 31
0.0
  0
LINE
  8
0
 62
     0
 10
192.32
 20
79.8065
 30
0.0
 11
193.12
 21
79.8065
 31
0.0
  0
LINE
  8
0
 62
     0
 10
193.12
 20
79.8065
 30
0.0
 11
193.12
 21
78.806
 31
0.0
  0
LINE
  8
0
 62
     0
 10
193.12
 20
78.806
 30
0.0
 11
207.119
 21
78.806
 31
0.0
  0
LINE
  8
0
 62
     0
 10
207.119
 20
78.806
 30
0.0
 11
207.119
 21
79.8065
 31
0.0
  0
LINE
  8
0
 62
     0
 10
207.119
 20
79.8065
 30
0.0
 11
207.92
 21
79.8065
 31
0.0
  0
LINE
  8
0
 62
     0
 10
207.92
 20
79.8065
 30
0.0
 11
207.92
 21
82.907
 31
0.0
  0
LINE
  8
0
 62
     0
 10
207.92
 20
82.907
 30
0.0
 11
207.119
 21
82.907
 31
0.0
  0
LINE
  8
0
 62
     0
 10
207.119
 20
82.907
 30
0.0
 11
207.119
 21
88.7056
 31
0.0
  0
LINE
  8
0
 62
     0
 10
207.119
 20
88.7056
 30
0.0
 11
207.92
 21
88.7056
 31
0.0
  0
LINE
  8
0
 62
     0
 10
207.92
 20
88.7056
 30
0.0
 11
207.92
 21
91.8062
 31
0.0
  0
LINE
  8
0
 62
     0
 10
207.92
 20
91.8062
 30
0.0
 11
207.119
 21
91.8062
 31
0.0
  0
LINE
  8
0
 62
     0
 10
207.119
 20
91.8062
 30
0.0
 11
207.119
 21
92.8067
 31
0.0
  0
LINE
  8
0
 62
     0
 10
207.119
 20
92.8067
 30
0.0
 11
193.12
 21
92.8067
 31
0.0
  0
LINE
  8
0
 62
     0
 10
212.17
 20
92.8067
 30
0.0
 11
212.17
 21
91.8062
 31
0.0
  0
LINE
  8
0
 62
     0
 10
212.17
 20
91.8062
 30
0.0
 11
211.37
 21
91.8062
 31
0.0
  0
LINE
  8
0
 62
     0
 10
211.37
 20
91.8062
 30
0.0
 11
211.37
 21
88.7056
 31
0.0
  0
LINE
  8
0
 62
     0
 10
211.37
 20
88.7056
 30
0.0
 11
212.17
 21
88.7056
 31
0.0
  0
LINE
  8
0
 62
     0
 10
212.17
 20
88.7056
 30
0.0
 11
212.17
 21
82.907
 31
0.0
  0
LINE
  8
0
 62
     0
 10
212.17
 20
82.907
 30
0.0
 11
211.37
 21
82.907
 31
0.0
  0
LINE
  8
0
 62
     0
 10
211.37
 20
82.907
 30
0.0
 11
211.37
 21
79.8065
 31
0.0
  0
LINE
  8
0
 62
     0
 10
211.37
 20
79.8065
 30
0.0
 11
212.17
 21
79.8065
 31
0.0
  0
LINE
  8
0
 62
     0
 10
212.17
 20
79.8065
 30
0.0
 11
212.17
 21
78.806
 31
0.0
  0
LINE
  8
0
 62
     0
 10
212.17
 20
78.806
 30
0.0
 11
226.169
 21
78.806
 31
0.0
  0
LINE
  8
0
 62
     0
 10
226.169
 20
78.806
 30
0.0
 11
226.169
 21
79.8065
 31
0.0
  0
LINE
  8
0
 62
     0
 10
226.169
 20
79.8065
 30
0.0
 11
226.97
 21
79.8065
 31
0.0
  0
LINE
  8
0
 62
     0
 10
226.97
 20
79.8065
 30
0.0
 11
226.97
 21
82.907
 31
0.0
  0
LINE
  8
0
 62
     0
 10
226.97
 20
82.907
 30
0.0
 11
226.169
 21
82.907
 31
0.0
  0
LINE
  8
0
 62
     0
 10
226.169
 20
82.907
 30
0.0
 11
226.169
 21
88.7056
 31
0.0
  0
LINE
  8
0
 62
     0
 10
226.169
 20
88.7056
 30
0.0
 11
226.97
 21
88.7056
 31
0.0
  0
LINE
  8
0
 62
     0
 10
226.97
 20
88.7056
 30
0.0
 11
226.97
 21
91.8062
 31
0.0
  0
LINE
  8
0
 62
     0
 10
226.97
 20
91.8062
 30
0.0
 11
226.169
 21
91.8062
 31
0.0
  0
LINE
  8
0
 62
     0
 10
226.169
 20
91.8062
 30
0.0
 11
226.169
 21
92.8067
 31
0.0
  0
LINE
  8
0
 62
     0
 10
226.169
 20
92.8067
 30
0.0
 11
212.17
 21
92.8067
 31
0.0
  0
LINE
  8
0
 62
     0
 10
231.22
 20
92.8067
 30
0.0
 11
231.22
 21
91.8062
 31
0.0
  0
LINE
  8
0
 62
     0
 10
231.22
 20
91.8062
 30
0.0
 11
230.42
 21
91.8062
 31
0.0
  0
LINE
  8
0
 62
     0
 10
230.42
 20
91.8062
 30
0.0
 11
230.42
 21
88.7056
 31
0.0
  0
LINE
  8
0
 62
     0
 10
230.42
 20
88.7056
 30
0.0
 11
231.22
 21
88.7056
 31
0.0
  0
LINE
  8
0
 62
     0
 10
231.22
 20
88.7056
 30
0.0
 11
231.22
 21
82.907
 31
0.0
  0
LINE
  8
0
 62
     0
 10
231.22
 20
82.907
 30
0.0
 11
230.42
 21
82.907
 31
0.0
  0
LINE
  8
0
 62
     0
 10
230.42
 20
82.907
 30
0.0
 11
230.42
 21
79.8065
 31
0.0
  0
LINE
  8
0
 62
     0
 10
230.42
 20
79.8065
 30
0.0
 11
231.22
 21
79.8065
 31
0.0
  0
LINE
  8
0
 62
     0
 10
231.22
 20
79.8065
 30
0.0
 11
231.22
 21
78.806
 31
0.0
  0
LINE
  8
0
 62
     0
 10
231.22
 20
78.806
 30
0.0
 11
245.219
 21
78.806
 31
0.0
  0
LINE
  8
0
 62
     0
 10
245.219
 20
78.806
 30
0.0
 11
245.219
 21
79.8065
 31
0.0
  0
LINE
  8
0
 62
     0
 10
245.219
 20
79.8065
 30
0.0
 11
246.02
 21
79.8065
 31
0.0
  0
LINE
  8
0
 62
     0
 10
246.02
 20
79.8065
 30
0.0
 11
246.02
 21
82.907
 31
0.0
  0
LINE
  8
0
 62
     0
 10
246.02
 20
82.907
 30
0.0
 11
245.219
 21
82.907
 31
0.0
  0
LINE
  8
0
 62
     0
 10
245.219
 20
82.907
 30
0.0
 11
245.219
 21
88.7056
 31
0.0
  0
LINE
  8
0
 62
     0
 10
245.219
 20
88.7056
 30
0.0
 11
246.02
 21
88.7056
 31
0.0
  0
LINE
  8
0
 62
     0
 10
246.02
 20
88.7056
 30
0.0
 11
246.02
 21
91.8062
 31
0.0
  0
LINE
  8
0
 62
     0
 10
246.02
 20
91.8062
 30
0.0
 11
245.219
 21
91.8062
 31
0.0
  0
LINE
  8
0
 62
     0
 10
245.219
 20
91.8062
 30
0.0
 11
245.219
 21
92.8067
 31
0.0
  0
LINE
  8
0
 62
     0
 10
245.219
 20
92.8067
 30
0.0
 11
231.22
 21
92.8067
 31
0.0
  0
LINE
  8
0
 62
     0
 10
259.795
 20
92.8067
 30
0.0
 11
259.795
 21
91.8062
 31
0.0
  0
LINE
  8
0
 62
     0
 10
259.795
 20
91.8062
 30
0.0
 11
258.995
 21
91.8062
 31
0.0
  0
LINE
  8
0
 62
     0
 10
258.995
 20
91.8062
 30
0.0
 11
258.995
 21
88.7056
 31
0.0
  0
LINE
  8
0
 62
     0
 10
258.995
 20
88.7056
 30
0.0
 11
259.795
 21
88.7056
 31
0.0
  0
LINE
  8
0
 62
     0
 10
259.795
 20
88.7056
 30
0.0
 11
259.795
 21
82.907
 31
0.0
  0
LINE
  8
0
 62
     0
 10
259.795
 20
82.907
 30
0.0
 11
258.995
 21
82.907
 31
0.0
  0
LINE
  8
0
 62
     0
 10
258.995
 20
82.907
 30
0.0
 11
258.995
 21
79.8065
 31
0.0
  0
LINE
  8
0
 62
     0
 10
258.995
 20
79.8065
 30
0.0
 11
259.795
 21
79.8065
 31
0.0
  0
LINE
  8
0
 62
     0
 10
259.795
 20
79.8065
 30
0.0
 11
259.795
 21
78.806
 31
0.0
  0
LINE
  8
0
 62
     0
 10
259.795
 20
78.806
 30
0.0
 11
273.794
 21
78.806
 31
0.0
  0
LINE
  8
0
 62
     0
 10
273.794
 20
78.806
 30
0.0
 11
273.794
 21
79.8065
 31
0.0
  0
LINE
  8
0
 62
     0
 10
273.794
 20
79.8065
 30
0.0
 11
274.595
 21
79.8065
 31
0.0
  0
LINE
  8
0
 62
     0
 10
274.595
 20
79.8065
 30
0.0
 11
274.595
 21
82.907
 31
0.0
  0
LINE
  8
0
 62
     0
 10
274.595
 20
82.907
 30
0.0
 11
273.794
 21
82.907
 31
0.0
  0
LINE
  8
0
 62
     0
 10
273.794
 20
82.907
 30
0.0
 11
273.794
 21
88.7056
 31
0.0
  0
LINE
  8
0
 62
     0
 10
273.794
 20
88.7056
 30
0.0
 11
274.595
 21
88.7056
 31
0.0
  0
LINE
  8
0
 62
     0
 10
274.595
 20
88.7056
 30
0.0
 11
274.595
 21
91.8062
 31
0.0
  0
LINE
  8
0
 62
     0
 10
274.595
 20
91.8062
 30
0.0
 11
273.794
 21
91.8062
 31
0.0
  0
LINE
  8
0
 62
     0
 10
273.794
 20
91.8062
 30
0.0
 11
273.794
 21
92.8067
 31
0.0
  0
LINE
  8
0
 62
     0
 10
273.794
 20
92.8067
 30
0.0
 11
259.795
 21
92.8067
 31
0.0
  0
ENDSEC
  0
EOF
