999
dxfrw 0.5.10
0
SECTION
2
HEADER
9
$ACADVER
1
AC1021
9
$HANDSEED
5
20000
9
$DWGCODEPAGE
3
ANSI_1252
9
$INSBASE
10
0
20
0
30
0
9
$EXTMIN
10
0
20
-446.666666667
30
0
9
$EXTMAX
10
2790
20
198
30
0
9
$LIMMIN
10
0
20
0
9
$LIMMAX
10
420
20
297
9
$ORTHOMODE
70
0
9
$LTSCALE
40
1
9
$TEXTSTYLE
7
STANDARD
9
$CLAYER
8
0
9
$DIMASZ
40
2.5
9
$DIMLFAC
40
1
9
$DIMSCALE
40
1
9
$DIMEXO
40
0.625
9
$DIMEXE
40
1.25
9
$DIMTXT
40
2.5
9
$DIMTSZ
40
0
9
$DIMAUNIT
70
0
9
$DIMADEC
70
0
9
$DIMLUNIT
70
2
9
$DIMSTYLE
2
STANDARD
9
$DIMGAP
40
0.625
9
$DIMTIH
70
0
9
$LUNITS
70
2
9
$LUPREC
70
4
9
$AUNITS
70
0
9
$AUPREC
70
2
9
$SPLINESEGS
70
8
9
$GRIDMODE
70
1
9
$SNAPSTYLE
70
0
9
$PINSBASE
10
-922.764876799
20
208.929309575
30
0
9
$PLIMMIN
10
0
20
0
9
$PLIMMAX
10
210
20
297
9
$INSUNITS
70
4
9
$PSVPSCALE
40
1
0
ENDSEC
0
SECTION
2
CLASSES
0
ENDSEC
0
SECTION
2
TABLES
0
TABLE
2
VPORT
5
8
330
0
100
AcDbSymbolTable
70
1
0
VPORT
5
31
330
2
100
AcDbSymbolTableRecord
100
AcDbViewportTableRecord
2
*ACTIVE
70
0
10
0
20
0
11
1
21
1
12
344.941622102
22
96.1655431313
13
0
23
0
14
10
24
10
15
10
25
10
16
0
26
0
36
1
17
0
27
0
37
0
40
511.887394184
41
1.83313885648
42
50
43
0
44
0
50
0
51
0
71
0
72
100
73
1
74
3
75
0
76
1
77
0
78
0
281
0
65
1
110
0
120
0
130
0
111
1
121
0
131
0
112
0
122
1
132
0
79
0
146
0
348
10020
60
7
61
5
292
1
282
1
141
0
142
0
63
250
421
3358443
0
ENDTAB
0
TABLE
2
LTYPE
5
5
330
0
100
AcDbSymbolTable
70
4
0
LTYPE
5
14
330
5
100
AcDbSymbolTableRecord
100
AcDbLinetypeTableRecord
2
ByBlock
70
0
3

72
65
73
0
40
0
0
LTYPE
5
15
330
5
100
AcDbSymbolTableRecord
100
AcDbLinetypeTableRecord
2
ByLayer
70
0
3

72
65
73
0
40
0
0
LTYPE
5
16
330
5
100
AcDbSymbolTableRecord
100
AcDbLinetypeTableRecord
2
Continuous
70
0
3
Solid line
72
65
73
0
40
0
0
LTYPE
5
32
330
5
100
AcDbSymbolTableRecord
100
AcDbLinetypeTableRecord
2
DOT
70
0
3
Dot . . . . . . . . . . . . . . . . . . . . . .
72
65
73
2
40
6.35
49
0
74
0
49
-6.35
74
0
0
LTYPE
5
33
330
5
100
AcDbSymbolTableRecord
100
AcDbLinetypeTableRecord
2
DOT2
70
0
3
Dot (.5x) .....................................
72
65
73
2
40
3.175
49
0
74
0
49
-3.175
74
0
0
LTYPE
5
34
330
5
100
AcDbSymbolTableRecord
100
AcDbLinetypeTableRecord
2
DOTX2
70
0
3
Dot (2x) .  .  .  .  .  .  .  .  .  .  .  .  .
72
65
73
2
40
12.7
49
0
74
0
49
-12.7
74
0
0
LTYPE
5
35
330
5
100
AcDbSymbolTableRecord
100
AcDbLinetypeTableRecord
2
DASHED
70
0
3
Dot . . . . . . . . . . . . . . . . . . . . . .
72
65
73
2
40
19.05
49
12.7
74
0
49
-6.35
74
0
0
LTYPE
5
36
330
5
100
AcDbSymbolTableRecord
100
AcDbLinetypeTableRecord
2
DASHED2
70
0
3
Dashed (.5x) _ _ _ _ _ _ _ _ _ _ _ _ _ _ _ _ _
72
65
73
2
40
9.525
49
6.35
74
0
49
-3.175
74
0
0
LTYPE
5
37
330
5
100
AcDbSymbolTableRecord
100
AcDbLinetypeTableRecord
2
DASHEDX2
70
0
3
Dashed (2x) ____  ____  ____  ____  ____  ___
72
65
73
2
40
38.1
49
25.4
74
0
49
-12.7
74
0
0
LTYPE
5
38
330
5
100
AcDbSymbolTableRecord
100
AcDbLinetypeTableRecord
2
DASHDOT
70
0
3
Dash dot __ . __ . __ . __ . __ . __ . __ . __
72
65
73
4
40
25.4
49
12.7
74
0
49
-6.35
74
0
49
0
74
0
49
-6.35
74
0
0
LTYPE
5
39
330
5
100
AcDbSymbolTableRecord
100
AcDbLinetypeTableRecord
2
DASHDOT2
70
0
3
Dash dot (.5x) _._._._._._._._._._._._._._._.
72
65
73
4
40
12.7
49
6.35
74
0
49
-3.175
74
0
49
0
74
0
49
-3.175
74
0
0
LTYPE
5
3A
330
5
100
AcDbSymbolTableRecord
100
AcDbLinetypeTableRecord
2
DASHDOTX2
70
0
3
Dash dot (2x) ____  .  ____  .  ____  .  ___
72
65
73
4
40
50.8
49
25.4
74
0
49
-12.7
74
0
49
0
74
0
49
-12.7
74
0
0
LTYPE
5
3B
330
5
100
AcDbSymbolTableRecord
100
AcDbLinetypeTableRecord
2
DIVIDE
70
0
3
Divide ____ . . ____ . . ____ . . ____ . . ____
72
65
73
6
40
31.75
49
12.7
74
0
49
-6.35
74
0
49
0
74
0
49
-6.35
74
0
49
0
74
0
49
-6.35
74
0
0
LTYPE
5
3C
330
5
100
AcDbSymbolTableRecord
100
AcDbLinetypeTableRecord
2
DIVIDE2
70
0
3
Divide (.5x) __..__..__..__..__..__..__..__.._
72
65
73
6
40
15.875
49
6.35
74
0
49
-3.175
74
0
49
0
74
0
49
-3.175
74
0
49
0
74
0
49
-3.175
74
0
0
LTYPE
5
3D
330
5
100
AcDbSymbolTableRecord
100
AcDbLinetypeTableRecord
2
DIVIDEX2
70
0
3
Divide (2x) ________  .  .  ________  .  .  _
72
65
73
6
40
63.5
49
25.4
74
0
49
-12.7
74
0
49
0
74
0
49
-12.7
74
0
49
0
74
0
49
-12.7
74
0
0
LTYPE
5
3E
330
5
100
AcDbSymbolTableRecord
100
AcDbLinetypeTableRecord
2
BORDER
70
0
3
Border __ __ . __ __ . __ __ . __ __ . __ __ .
72
65
73
6
40
44.45
49
12.7
74
0
49
-6.35
74
0
49
12.7
74
0
49
-6.35
74
0
49
0
74
0
49
-6.35
74
0
0
LTYPE
5
3F
330
5
100
AcDbSymbolTableRecord
100
AcDbLinetypeTableRecord
2
BORDER2
70
0
3
Border (.5x) __.__.__.__.__.__.__.__.__.__.__.
72
65
73
6
40
22.225
49
6.35
74
0
49
-3.175
74
0
49
6.35
74
0
49
-3.175
74
0
49
0
74
0
49
-3.175
74
0
0
LTYPE
5
40
330
5
100
AcDbSymbolTableRecord
100
AcDbLinetypeTableRecord
2
BORDERX2
70
0
3
Border (2x) ____  ____  .  ____  ____  .  ___
72
65
73
6
40
88.9
49
25.4
74
0
49
-12.7
74
0
49
25.4
74
0
49
-12.7
74
0
49
0
74
0
49
-12.7
74
0
0
LTYPE
5
41
330
5
100
AcDbSymbolTableRecord
100
AcDbLinetypeTableRecord
2
CENTER
70
0
3
Center ____ _ ____ _ ____ _ ____ _ ____ _ ____
72
65
73
4
40
50.8
49
31.75
74
0
49
-6.35
74
0
49
6.35
74
0
49
-6.35
74
0
0
LTYPE
5
42
330
5
100
AcDbSymbolTableRecord
100
AcDbLinetypeTableRecord
2
CENTER2
70
0
3
Center (.5x) ___ _ ___ _ ___ _ ___ _ ___ _ ___
72
65
73
4
40
28.575
49
19.05
74
0
49
-3.175
74
0
49
3.175
74
0
49
-3.175
74
0
0
LTYPE
5
43
330
5
100
AcDbSymbolTableRecord
100
AcDbLinetypeTableRecord
2
CENTERX2
70
0
3
Center (2x) ________  __  ________  __  _____
72
65
73
4
40
101.6
49
63.5
74
0
49
-12.7
74
0
49
12.7
74
0
49
-12.7
74
0
0
ENDTAB
0
TABLE
2
LAYER
5
2
330
0
100
AcDbSymbolTable
70
1
0
LAYER
5
10
330
2
100
AcDbSymbolTableRecord
100
AcDbLayerTableRecord
2
0
70
0
62
7
6
CONTINUOUS
370
0
390
F
0
LAYER
5
44
330
2
100
AcDbSymbolTableRecord
100
AcDbLayerTableRecord
2
GRAVEREN
70
0
62
1
6
CONTINUOUS
370
0
390
F
0
LAYER
5
45
330
2
100
AcDbSymbolTableRecord
100
AcDbLayerTableRecord
2
help
70
0
62
8
6
DASHED
290
0
370
0
390
F
0
LAYER
5
46
330
2
100
AcDbSymbolTableRecord
100
AcDbLayerTableRecord
2
niet exact
70
0
62
2
6
CONTINUOUS
370
0
390
F
0
LAYER
5
47
330
2
100
AcDbSymbolTableRecord
100
AcDbLayerTableRecord
2
annotations
70
0
62
253
420
10526884
6
CONTINUOUS
370
0
390
F
0
LAYER
5
48
330
2
100
AcDbSymbolTableRecord
100
AcDbLayerTableRecord
2
Old stuff
70
0
62
253
420
10526884
6
CONTINUOUS
370
0
390
F
0
ENDTAB
0
TABLE
2
STYLE
5
3
330
0
100
AcDbSymbolTable
70
3
0
STYLE
5
49
330
2
100
AcDbSymbolTableRecord
100
AcDbTextStyleTableRecord
2
Standard
70
0
40
0
41
1
50
0
71
0
42
1
3
txt
4

0
ENDTAB
0
TABLE
2
VIEW
5
6
330
0
100
AcDbSymbolTable
70
0
0
ENDTAB
0
TABLE
2
UCS
5
7
330
0
100
AcDbSymbolTable
70
0
0
ENDTAB
0
TABLE
2
APPID
5
9
330
0
100
AcDbSymbolTable
70
1
0
APPID
5
12
330
9
100
AcDbSymbolTableRecord
100
AcDbRegAppTableRecord
2
ACAD
70
0
0
ENDTAB
0
TABLE
2
DIMSTYLE
5
A
330
0
100
AcDbSymbolTable
70
1
100
AcDbDimStyleTable
71
1
0
DIMSTYLE
105
4A
330
A
100
AcDbSymbolTableRecord
100
AcDbDimStyleTableRecord
2
Standard
70
0
40
1
41
2.5
42
0.625
43
0.38
44
1.25
45
0
46
0
47
0
48
0
140
2.5
141
0.09
142
0
143
25.4
144
1
145
0
146
1
147
0.625
148
0
71
0
72
0
73
0
74
1
75
0
76
0
77
0
78
0
79
0
170
0
171
2
172
0
173
0
174
0
175
0
176
0
177
0
178
0
179
0
271
4
272
4
273
2
274
2
275
0
276
0
277
2
278
46
279
0
280
0
281
0
282
0
283
1
284
0
285
0
286
0
288
0
289
3
340
Standard
341

371
-2
372
-2
0
ENDTAB
0
TABLE
2
BLOCK_RECORD
5
1
330
0
100
AcDbSymbolTable
70
2
0
BLOCK_RECORD
5
1F
330
1
100
AcDbSymbolTableRecord
100
AcDbBlockTableRecord
2
*Model_Space
70
0
280
1
281
0
0
BLOCK_RECORD
5
1E
330
1
100
AcDbSymbolTableRecord
100
AcDbBlockTableRecord
2
*Paper_Space
70
0
280
1
281
0
0
BLOCK_RECORD
5
4B
330
1
100
AcDbSymbolTableRecord
100
AcDbBlockTableRecord
2
promicro
70
0
280
1
281
0
0
BLOCK_RECORD
5
4E
330
1
100
AcDbSymbolTableRecord
100
AcDbBlockTableRecord
2
pizero
70
0
280
1
281
0
0
BLOCK_RECORD
5
51
330
1
100
AcDbSymbolTableRecord
100
AcDbBlockTableRecord
2
promicro2
70
0
280
1
281
0
0
BLOCK_RECORD
5
54
330
1
100
AcDbSymbolTableRecord
100
AcDbBlockTableRecord
2
pi0w
70
0
280
1
281
0
0
BLOCK_RECORD
5
57
330
1
100
AcDbSymbolTableRecord
100
AcDbBlockTableRecord
2
18650
70
0
280
1
281
0
0
BLOCK_RECORD
5
5A
330
1
100
AcDbSymbolTableRecord
100
AcDbBlockTableRecord
2
plate-0
70
0
280
1
281
0
0
BLOCK_RECORD
5
5D
330
1
100
AcDbSymbolTableRecord
100
AcDbBlockTableRecord
2
toplayer-0
70
0
280
1
281
0
0
BLOCK_RECORD
5
60
330
1
100
AcDbSymbolTableRecord
100
AcDbBlockTableRecord
2
openlayer-0
70
0
280
1
281
0
0
BLOCK_RECORD
5
63
330
1
100
AcDbSymbolTableRecord
100
AcDbBlockTableRecord
2
closedlayer-0
70
0
280
1
281
0
0
BLOCK_RECORD
5
66
330
1
100
AcDbSymbolTableRecord
100
AcDbBlockTableRecord
2
bottomlayer-0
70
0
280
1
281
0
0
ENDTAB
0
ENDSEC
0
SECTION
2
BLOCKS
0
BLOCK
5
20
330
1F
100
AcDbEntity
8
0
100
AcDbBlockBegin
2
*Model_Space
70
0
10
0
20
0
30
0
3
*Model_Space
1

0
ENDBLK
5
21
330
1F
100
AcDbEntity
8
0
100
AcDbBlockEnd
0
BLOCK
5
1C
330
1B
100
AcDbEntity
8
0
100
AcDbBlockBegin
2
*Paper_Space
70
0
10
0
20
0
30
0
3
*Paper_Space
1

0
ENDBLK
5
1D
330
1F
100
AcDbEntity
8
0
100
AcDbBlockEnd
0
BLOCK
5
4C
330
4B
100
AcDbEntity
8
0
100
AcDbBlockBegin
2
promicro
70
0
10
0
20
0
3
promicro
1

0
ENDBLK
5
4D
330
4B
100
AcDbEntity
8
0
100
AcDbBlockEnd
0
BLOCK
5
4F
330
4E
100
AcDbEntity
8
0
100
AcDbBlockBegin
2
pizero
70
0
10
0
20
0
3
pizero
1

0
ENDBLK
5
50
330
4E
100
AcDbEntity
8
0
100
AcDbBlockEnd
0
BLOCK
5
52
330
51
100
AcDbEntity
8
0
100
AcDbBlockBegin
2
promicro2
70
0
10
0
20
0
3
promicro2
1

0
IMAGE
5
6B
100
AcDbEntity
8
0
6
ByLayer
62
256
370
-1
100
AcDbRasterImage
10
-16.36992
20
-12.72864
30
0
11
0.0543478261
21
0
31
0
12
3.3278445637e-18
22
0.0543478261
32
0
13
719
23
368
340
69
70
1
280
0
281
50
282
50
283
0
360
6A
0
LINE
5
6C
100
AcDbEntity
8
0
6
ByLayer
62
256
370
-1
100
AcDbLine
10
18.63008
20
-12.72864
11
18.63008
21
7.27136
0
LINE
5
6D
100
AcDbEntity
8
0
6
ByLayer
62
256
370
-1
100
AcDbLine
10
18.63008
20
7.27136
11
-16.36992
21
7.27136
0
LINE
5
6E
100
AcDbEntity
8
0
6
ByLayer
62
256
370
-1
100
AcDbLine
10
-16.36992
20
7.27136
11
-16.36992
21
-12.72864
0
LINE
5
6F
100
AcDbEntity
8
0
6
ByLayer
62
256
370
-1
100
AcDbLine
10
-16.36992
20
-12.72864
11
18.63008
21
-12.72864
0
LINE
5
70
100
AcDbEntity
8
0
6
ByLayer
62
256
370
-1
100
AcDbLine
10
18.63008
20
7.27136
11
20.63008
21
7.27136
0
LINE
5
71
100
AcDbEntity
8
0
6
ByLayer
62
256
370
-1
100
AcDbLine
10
20.63008
20
7.27136
11
20.63008
21
-12.72864
0
LINE
5
72
100
AcDbEntity
8
0
6
ByLayer
62
256
370
-1
100
AcDbLine
10
20.63008
20
-12.72864
11
18.63008
21
-12.72864
0
ENDBLK
5
53
330
51
100
AcDbEntity
8
0
100
AcDbBlockEnd
0
BLOCK
5
55
330
54
100
AcDbEntity
8
0
100
AcDbBlockBegin
2
pi0w
70
0
10
0
20
0
3
pi0w
1

0
IMAGE
5
75
100
AcDbEntity
8
0
6
ByLayer
62
256
370
-1
100
AcDbRasterImage
10
29.7117735795
20
13.5332892714
30
0
11
-0.084032
21
1.02909519826e-17
31
0
12
-1.54364279739e-17
22
-0.084032
32
0
13
774
23
354
340
73
70
1
280
0
281
50
282
50
283
0
360
74
0
LINE
5
76
100
AcDbEntity
8
0
6
ByLayer
62
256
370
-1
100
AcDbLine
10
-35.3296
20
13.5296
11
29.6704
21
13.5296
0
LINE
5
77
100
AcDbEntity
8
0
6
ByLayer
62
256
370
-1
100
AcDbLine
10
-35.3296
20
13.5296
11
-35.3296
21
-16.4704
0
LINE
5
78
100
AcDbEntity
8
0
6
ByLayer
62
256
370
-1
100
AcDbLine
10
-35.3296
20
-16.4704
11
29.6704
21
-16.4704
0
LINE
5
79
100
AcDbEntity
8
0
6
ByLayer
62
256
370
-1
100
AcDbLine
10
29.6704
20
-16.4704
11
29.6704
21
13.5296
0
ENDBLK
5
56
330
54
100
AcDbEntity
8
0
100
AcDbBlockEnd
0
BLOCK
5
58
330
57
100
AcDbEntity
8
0
100
AcDbBlockBegin
2
18650
70
0
10
0
20
0
3
18650
1

0
IMAGE
5
7C
100
AcDbEntity
8
0
6
ByLayer
62
256
370
-1
100
AcDbRasterImage
10
24.558604125
20
-11.49251396
30
0
11
8.47832399645e-18
21
0.1384615385
31
0
12
-0.1384615385
22
1.69566479929e-17
32
0
13
130
23
450
340
7A
70
1
280
0
281
50
282
50
283
0
360
7B
0
LINE
5
7D
100
AcDbEntity
8
0
6
ByLayer
62
256
370
-1
100
AcDbLine
10
-55.46875
20
-11.515625
11
-55.46875
21
6.484375
0
LINE
5
7E
100
AcDbEntity
8
0
6
ByLayer
62
256
370
-1
100
AcDbLine
10
-55.46875
20
6.484375
11
24.53125
21
6.484375
0
LINE
5
7F
100
AcDbEntity
8
0
6
ByLayer
62
256
370
-1
100
AcDbLine
10
24.53125
20
6.484375
11
24.53125
21
-11.515625
0
LINE
5
80
100
AcDbEntity
8
0
6
ByLayer
62
256
370
-1
100
AcDbLine
10
24.53125
20
-11.515625
11
-55.46875
21
-11.515625
0
ENDBLK
5
59
330
57
100
AcDbEntity
8
0
100
AcDbBlockEnd
0
BLOCK
5
5B
330
5A
100
AcDbEntity
8
0
100
AcDbBlockBegin
2
plate-0
70
0
10
0
20
0
3
plate-0
1

0
LINE
5
81
100
AcDbEntity
8
0
6
ByLayer
62
0
370
-1
100
AcDbLine
10
0.0937066
20
111.344
11
301.844
21
111.344
0
LINE
5
82
100
AcDbEntity
8
0
6
ByLayer
62
0
370
-1
100
AcDbLine
10
301.844
20
111.344
11
301.844
21
0.0937066
0
LINE
5
83
100
AcDbEntity
8
0
6
ByLayer
62
0
370
-1
100
AcDbLine
10
301.844
20
0.0937066
11
0.0937066
21
0.0937066
0
LINE
5
84
100
AcDbEntity
8
0
6
ByLayer
62
0
370
-1
100
AcDbLine
10
0.0937066
20
0.0937066
11
0.0937066
21
111.344
0
LINE
5
85
100
AcDbEntity
8
0
6
ByLayer
62
0
370
-1
100
AcDbLine
10
298.881
20
4.01973
11
298.462
21
3.80753
0
LINE
5
86
100
AcDbEntity
8
0
6
ByLayer
62
0
370
-1
100
AcDbLine
10
298.462
20
3.80753
11
298.13
21
3.47541
0
LINE
5
87
100
AcDbEntity
8
0
6
ByLayer
62
0
370
-1
100
AcDbLine
10
298.13
20
3.47541
11
297.918
21
3.05649
0
LINE
5
88
100
AcDbEntity
8
0
6
ByLayer
62
0
370
-1
100
AcDbLine
10
297.918
20
3.05649
11
297.845
21
2.59347
0
LINE
5
89
100
AcDbEntity
8
0
6
ByLayer
62
0
370
-1
100
AcDbLine
10
297.845
20
2.59347
11
297.918
21
2.13045
0
LINE
5
8A
100
AcDbEntity
8
0
6
ByLayer
62
0
370
-1
100
AcDbLine
10
297.918
20
2.13045
11
298.13
21
1.71152
0
LINE
5
8B
100
AcDbEntity
8
0
6
ByLayer
62
0
370
-1
100
AcDbLine
10
298.13
20
1.71152
11
298.462
21
1.37942
0
LINE
5
8C
100
AcDbEntity
8
0
6
ByLayer
62
0
370
-1
100
AcDbLine
10
298.462
20
1.37942
11
298.881
21
1.1672
0
LINE
5
8D
100
AcDbEntity
8
0
6
ByLayer
62
0
370
-1
100
AcDbLine
10
298.881
20
1.1672
11
299.344
21
1.09416
0
LINE
5
8E
100
AcDbEntity
8
0
6
ByLayer
62
0
370
-1
100
AcDbLine
10
299.344
20
1.09416
11
299.807
21
1.1672
0
LINE
5
8F
100
AcDbEntity
8
0
6
ByLayer
62
0
370
-1
100
AcDbLine
10
299.807
20
1.1672
11
300.226
21
1.37942
0
LINE
5
90
100
AcDbEntity
8
0
6
ByLayer
62
0
370
-1
100
AcDbLine
10
300.226
20
1.37942
11
300.559
21
1.71152
0
LINE
5
91
100
AcDbEntity
8
0
6
ByLayer
62
0
370
-1
100
AcDbLine
10
300.559
20
1.71152
11
300.771
21
2.13045
0
LINE
5
92
100
AcDbEntity
8
0
6
ByLayer
62
0
370
-1
100
AcDbLine
10
300.771
20
2.13045
11
300.845
21
2.59347
0
LINE
5
93
100
AcDbEntity
8
0
6
ByLayer
62
0
370
-1
100
AcDbLine
10
300.845
20
2.59347
11
300.771
21
3.05649
0
LINE
5
94
100
AcDbEntity
8
0
6
ByLayer
62
0
370
-1
100
AcDbLine
10
300.771
20
3.05649
11
300.559
21
3.47541
0
LINE
5
95
100
AcDbEntity
8
0
6
ByLayer
62
0
370
-1
100
AcDbLine
10
300.559
20
3.47541
11
300.226
21
3.80753
0
LINE
5
96
100
AcDbEntity
8
0
6
ByLayer
62
0
370
-1
100
AcDbLine
10
300.226
20
3.80753
11
299.807
21
4.01973
0
LINE
5
97
100
AcDbEntity
8
0
6
ByLayer
62
0
370
-1
100
AcDbLine
10
299.807
20
4.01973
11
299.344
21
4.09416
0
LINE
5
98
100
AcDbEntity
8
0
6
ByLayer
62
0
370
-1
100
AcDbLine
10
299.344
20
4.09416
11
298.881
21
4.01973
0
LINE
5
99
100
AcDbEntity
8
0
6
ByLayer
62
0
370
-1
100
AcDbLine
10
2.12907
20
4.01973
11
1.71152
21
3.80753
0
LINE
5
9A
100
AcDbEntity
8
0
6
ByLayer
62
0
370
-1
100
AcDbLine
10
1.71152
20
3.80753
11
1.37942
21
3.47541
0
LINE
5
9B
100
AcDbEntity
8
0
6
ByLayer
62
0
370
-1
100
AcDbLine
10
1.37942
20
3.47541
11
1.1672
21
3.05649
0
LINE
5
9C
100
AcDbEntity
8
0
6
ByLayer
62
0
370
-1
100
AcDbLine
10
1.1672
20
3.05649
11
1.09279
21
2.59347
0
LINE
5
9D
100
AcDbEntity
8
0
6
ByLayer
62
0
370
-1
100
AcDbLine
10
1.09279
20
2.59347
11
1.1672
21
2.13045
0
LINE
5
9E
100
AcDbEntity
8
0
6
ByLayer
62
0
370
-1
100
AcDbLine
10
1.1672
20
2.13045
11
1.37942
21
1.71152
0
LINE
5
9F
100
AcDbEntity
8
0
6
ByLayer
62
0
370
-1
100
AcDbLine
10
1.37942
20
1.71152
11
1.71152
21
1.37942
0
LINE
5
A0
100
AcDbEntity
8
0
6
ByLayer
62
0
370
-1
100
AcDbLine
10
1.71152
20
1.37942
11
2.12907
21
1.1672
0
LINE
5
A1
100
AcDbEntity
8
0
6
ByLayer
62
0
370
-1
100
AcDbLine
10
2.12907
20
1.1672
11
2.59347
21
1.09416
0
LINE
5
A2
100
AcDbEntity
8
0
6
ByLayer
62
0
370
-1
100
AcDbLine
10
2.59347
20
1.09416
11
3.05649
21
1.1672
0
LINE
5
A3
100
AcDbEntity
8
0
6
ByLayer
62
0
370
-1
100
AcDbLine
10
3.05649
20
1.1672
11
3.47541
21
1.37942
0
LINE
5
A4
100
AcDbEntity
8
0
6
ByLayer
62
0
370
-1
100
AcDbLine
10
3.47541
20
1.37942
11
3.80615
21
1.71152
0
LINE
5
A5
100
AcDbEntity
8
0
6
ByLayer
62
0
370
-1
100
AcDbLine
10
3.80615
20
1.71152
11
4.01973
21
2.13045
0
LINE
5
A6
100
AcDbEntity
8
0
6
ByLayer
62
0
370
-1
100
AcDbLine
10
4.01973
20
2.13045
11
4.09416
21
2.59347
0
LINE
5
A7
100
AcDbEntity
8
0
6
ByLayer
62
0
370
-1
100
AcDbLine
10
4.09416
20
2.59347
11
4.01973
21
3.05649
0
LINE
5
A8
100
AcDbEntity
8
0
6
ByLayer
62
0
370
-1
100
AcDbLine
10
4.01973
20
3.05649
11
3.80615
21
3.47541
0
LINE
5
A9
100
AcDbEntity
8
0
6
ByLayer
62
0
370
-1
100
AcDbLine
10
3.80615
20
3.47541
11
3.47541
21
3.80753
0
LINE
5
AA
100
AcDbEntity
8
0
6
ByLayer
62
0
370
-1
100
AcDbLine
10
3.47541
20
3.80753
11
3.05649
21
4.01973
0
LINE
5
AB
100
AcDbEntity
8
0
6
ByLayer
62
0
370
-1
100
AcDbLine
10
3.05649
20
4.01973
11
2.59347
21
4.09416
0
LINE
5
AC
100
AcDbEntity
8
0
6
ByLayer
62
0
370
-1
100
AcDbLine
10
2.59347
20
4.09416
11
2.12907
21
4.01973
0
LINE
5
AD
100
AcDbEntity
8
0
6
ByLayer
62
0
370
-1
100
AcDbLine
10
132.062
20
24.6187
11
132.062
21
19.9195
0
LINE
5
AE
100
AcDbEntity
8
0
6
ByLayer
62
0
370
-1
100
AcDbLine
10
132.062
20
19.9195
11
92.4373
21
19.9195
0
LINE
5
AF
100
AcDbEntity
8
0
6
ByLayer
62
0
370
-1
100
AcDbLine
10
92.4373
20
19.9195
11
92.4373
21
23.1497
0
LINE
5
B0
100
AcDbEntity
8
0
6
ByLayer
62
0
370
-1
100
AcDbLine
10
92.4373
20
23.1497
11
90.7122
21
23.1497
0
LINE
5
B1
100
AcDbEntity
8
0
6
ByLayer
62
0
370
-1
100
AcDbLine
10
90.7122
20
23.1497
11
90.7122
21
24.0702
0
LINE
5
B2
100
AcDbEntity
8
0
6
ByLayer
62
0
370
-1
100
AcDbLine
10
90.7122
20
24.0702
11
87.4116
21
24.0702
0
LINE
5
B3
100
AcDbEntity
8
0
6
ByLayer
62
0
370
-1
100
AcDbLine
10
87.4116
20
24.0702
11
87.4116
21
23.1497
0
LINE
5
B4
100
AcDbEntity
8
0
6
ByLayer
62
0
370
-1
100
AcDbLine
10
87.4116
20
23.1497
11
85.6865
21
23.1497
0
LINE
5
B5
100
AcDbEntity
8
0
6
ByLayer
62
0
370
-1
100
AcDbLine
10
85.6865
20
23.1497
11
85.6865
21
19.9195
0
LINE
5
B6
100
AcDbEntity
8
0
6
ByLayer
62
0
370
-1
100
AcDbLine
10
85.6865
20
19.9195
11
84.8625
21
19.9195
0
LINE
5
B7
100
AcDbEntity
8
0
6
ByLayer
62
0
370
-1
100
AcDbLine
10
84.8625
20
19.9195
11
84.8625
21
17.1194
0
LINE
5
B8
100
AcDbEntity
8
0
6
ByLayer
62
0
370
-1
100
AcDbLine
10
84.8625
20
17.1194
11
85.6865
21
17.1194
0
LINE
5
B9
100
AcDbEntity
8
0
6
ByLayer
62
0
370
-1
100
AcDbLine
10
85.6865
20
17.1194
11
85.6865
21
10.8507
0
LINE
5
BA
100
AcDbEntity
8
0
6
ByLayer
62
0
370
-1
100
AcDbLine
10
85.6865
20
10.8507
11
87.4116
21
10.8507
0
LINE
5
BB
100
AcDbEntity
8
0
6
ByLayer
62
0
370
-1
100
AcDbLine
10
87.4116
20
10.8507
11
87.4116
21
9.86952
0
LINE
5
BC
100
AcDbEntity
8
0
6
ByLayer
62
0
370
-1
100
AcDbLine
10
87.4116
20
9.86952
11
90.7122
21
9.86952
0
LINE
5
BD
100
AcDbEntity
8
0
6
ByLayer
62
0
370
-1
100
AcDbLine
10
90.7122
20
9.86952
11
90.7122
21
10.8507
0
LINE
5
BE
100
AcDbEntity
8
0
6
ByLayer
62
0
370
-1
100
AcDbLine
10
90.7122
20
10.8507
11
92.4373
21
10.8507
0
LINE
5
BF
100
AcDbEntity
8
0
6
ByLayer
62
0
370
-1
100
AcDbLine
10
92.4373
20
10.8507
11
92.4373
21
15.3197
0
LINE
5
C0
100
AcDbEntity
8
0
6
ByLayer
62
0
370
-1
100
AcDbLine
10
92.4373
20
15.3197
11
132.062
21
15.3197
0
LINE
5
C1
100
AcDbEntity
8
0
6
ByLayer
62
0
370
-1
100
AcDbLine
10
132.062
20
15.3197
11
132.062
21
10.6192
0
LINE
5
C2
100
AcDbEntity
8
0
6
ByLayer
62
0
370
-1
100
AcDbLine
10
132.062
20
10.6192
11
146.062
21
10.6192
0
LINE
5
C3
100
AcDbEntity
8
0
6
ByLayer
62
0
370
-1
100
AcDbLine
10
146.062
20
10.6192
11
146.062
21
15.3197
0
LINE
5
C4
100
AcDbEntity
8
0
6
ByLayer
62
0
370
-1
100
AcDbLine
10
146.062
20
15.3197
11
185.686
21
15.3197
0
LINE
5
C5
100
AcDbEntity
8
0
6
ByLayer
62
0
370
-1
100
AcDbLine
10
185.686
20
15.3197
11
185.686
21
10.8507
0
LINE
5
C6
100
AcDbEntity
8
0
6
ByLayer
62
0
370
-1
100
AcDbLine
10
185.686
20
10.8507
11
187.412
21
10.8507
0
LINE
5
C7
100
AcDbEntity
8
0
6
ByLayer
62
0
370
-1
100
AcDbLine
10
187.412
20
10.8507
11
187.412
21
9.86952
0
LINE
5
C8
100
AcDbEntity
8
0
6
ByLayer
62
0
370
-1
100
AcDbLine
10
187.412
20
9.86952
11
190.712
21
9.86952
0
LINE
5
C9
100
AcDbEntity
8
0
6
ByLayer
62
0
370
-1
100
AcDbLine
10
190.712
20
9.86952
11
190.712
21
10.8507
0
LINE
5
CA
100
AcDbEntity
8
0
6
ByLayer
62
0
370
-1
100
AcDbLine
10
190.712
20
10.8507
11
192.436
21
10.8507
0
LINE
5
CB
100
AcDbEntity
8
0
6
ByLayer
62
0
370
-1
100
AcDbLine
10
192.436
20
10.8507
11
192.436
21
17.1194
0
LINE
5
CC
100
AcDbEntity
8
0
6
ByLayer
62
0
370
-1
100
AcDbLine
10
192.436
20
17.1194
11
193.262
21
17.1194
0
LINE
5
CD
100
AcDbEntity
8
0
6
ByLayer
62
0
370
-1
100
AcDbLine
10
193.262
20
17.1194
11
193.262
21
19.9195
0
LINE
5
CE
100
AcDbEntity
8
0
6
ByLayer
62
0
370
-1
100
AcDbLine
10
193.262
20
19.9195
11
192.436
21
19.9195
0
LINE
5
CF
100
AcDbEntity
8
0
6
ByLayer
62
0
370
-1
100
AcDbLine
10
192.436
20
19.9195
11
192.436
21
23.1497
0
LINE
5
D0
100
AcDbEntity
8
0
6
ByLayer
62
0
370
-1
100
AcDbLine
10
192.436
20
23.1497
11
190.712
21
23.1497
0
LINE
5
D1
100
AcDbEntity
8
0
6
ByLayer
62
0
370
-1
100
AcDbLine
10
190.712
20
23.1497
11
190.712
21
24.0702
0
LINE
5
D2
100
AcDbEntity
8
0
6
ByLayer
62
0
370
-1
100
AcDbLine
10
190.712
20
24.0702
11
187.412
21
24.0702
0
LINE
5
D3
100
AcDbEntity
8
0
6
ByLayer
62
0
370
-1
100
AcDbLine
10
187.412
20
24.0702
11
187.412
21
23.1497
0
LINE
5
D4
100
AcDbEntity
8
0
6
ByLayer
62
0
370
-1
100
AcDbLine
10
187.412
20
23.1497
11
185.686
21
23.1497
0
LINE
5
D5
100
AcDbEntity
8
0
6
ByLayer
62
0
370
-1
100
AcDbLine
10
185.686
20
23.1497
11
185.686
21
19.9195
0
LINE
5
D6
100
AcDbEntity
8
0
6
ByLayer
62
0
370
-1
100
AcDbLine
10
185.686
20
19.9195
11
146.062
21
19.9195
0
LINE
5
D7
100
AcDbEntity
8
0
6
ByLayer
62
0
370
-1
100
AcDbLine
10
146.062
20
19.9195
11
146.062
21
24.6187
0
LINE
5
D8
100
AcDbEntity
8
0
6
ByLayer
62
0
370
-1
100
AcDbLine
10
146.062
20
24.6187
11
132.062
21
24.6187
0
LINE
5
D9
100
AcDbEntity
8
0
6
ByLayer
62
0
370
-1
100
AcDbLine
10
13.0004
20
24.6187
11
26.9999
21
24.6187
0
LINE
5
DA
100
AcDbEntity
8
0
6
ByLayer
62
0
370
-1
100
AcDbLine
10
26.9999
20
24.6187
11
26.9999
21
10.6192
0
LINE
5
DB
100
AcDbEntity
8
0
6
ByLayer
62
0
370
-1
100
AcDbLine
10
26.9999
20
10.6192
11
13.0004
21
10.6192
0
LINE
5
DC
100
AcDbEntity
8
0
6
ByLayer
62
0
370
-1
100
AcDbLine
10
13.0004
20
10.6192
11
13.0004
21
24.6187
0
LINE
5
DD
100
AcDbEntity
8
0
6
ByLayer
62
0
370
-1
100
AcDbLine
10
36.8117
20
24.6187
11
50.8123
21
24.6187
0
LINE
5
DE
100
AcDbEntity
8
0
6
ByLayer
62
0
370
-1
100
AcDbLine
10
50.8123
20
24.6187
11
50.8123
21
10.6192
0
LINE
5
DF
100
AcDbEntity
8
0
6
ByLayer
62
0
370
-1
100
AcDbLine
10
50.8123
20
10.6192
11
36.8117
21
10.6192
0
LINE
5
E0
100
AcDbEntity
8
0
6
ByLayer
62
0
370
-1
100
AcDbLine
10
36.8117
20
10.6192
11
36.8117
21
24.6187
0
LINE
5
E1
100
AcDbEntity
8
0
6
ByLayer
62
0
370
-1
100
AcDbLine
10
60.6256
20
24.6187
11
74.6248
21
24.6187
0
LINE
5
E2
100
AcDbEntity
8
0
6
ByLayer
62
0
370
-1
100
AcDbLine
10
74.6248
20
24.6187
11
74.6248
21
10.6192
0
LINE
5
E3
100
AcDbEntity
8
0
6
ByLayer
62
0
370
-1
100
AcDbLine
10
74.6248
20
10.6192
11
60.6256
21
10.6192
0
LINE
5
E4
100
AcDbEntity
8
0
6
ByLayer
62
0
370
-1
100
AcDbLine
10
60.6256
20
10.6192
11
60.6256
21
24.6187
0
LINE
5
E5
100
AcDbEntity
8
0
6
ByLayer
62
0
370
-1
100
AcDbLine
10
203.501
20
24.6187
11
217.5
21
24.6187
0
LINE
5
E6
100
AcDbEntity
8
0
6
ByLayer
62
0
370
-1
100
AcDbLine
10
217.5
20
24.6187
11
217.5
21
10.6192
0
LINE
5
E7
100
AcDbEntity
8
0
6
ByLayer
62
0
370
-1
100
AcDbLine
10
217.5
20
10.6192
11
203.501
21
10.6192
0
LINE
5
E8
100
AcDbEntity
8
0
6
ByLayer
62
0
370
-1
100
AcDbLine
10
203.501
20
10.6192
11
203.501
21
24.6187
0
LINE
5
E9
100
AcDbEntity
8
0
6
ByLayer
62
0
370
-1
100
AcDbLine
10
227.312
20
24.6187
11
241.312
21
24.6187
0
LINE
5
EA
100
AcDbEntity
8
0
6
ByLayer
62
0
370
-1
100
AcDbLine
10
241.312
20
24.6187
11
241.312
21
10.6192
0
LINE
5
EB
100
AcDbEntity
8
0
6
ByLayer
62
0
370
-1
100
AcDbLine
10
241.312
20
10.6192
11
227.312
21
10.6192
0
LINE
5
EC
100
AcDbEntity
8
0
6
ByLayer
62
0
370
-1
100
AcDbLine
10
227.312
20
10.6192
11
227.312
21
24.6187
0
LINE
5
ED
100
AcDbEntity
8
0
6
ByLayer
62
0
370
-1
100
AcDbLine
10
251.126
20
24.6187
11
265.125
21
24.6187
0
LINE
5
EE
100
AcDbEntity
8
0
6
ByLayer
62
0
370
-1
100
AcDbLine
10
265.125
20
24.6187
11
265.125
21
10.6192
0
LINE
5
EF
100
AcDbEntity
8
0
6
ByLayer
62
0
370
-1
100
AcDbLine
10
265.125
20
10.6192
11
251.126
21
10.6192
0
LINE
5
F0
100
AcDbEntity
8
0
6
ByLayer
62
0
370
-1
100
AcDbLine
10
251.126
20
10.6192
11
251.126
21
24.6187
0
LINE
5
F1
100
AcDbEntity
8
0
6
ByLayer
62
0
370
-1
100
AcDbLine
10
274.937
20
24.6187
11
288.937
21
24.6187
0
LINE
5
F2
100
AcDbEntity
8
0
6
ByLayer
62
0
370
-1
100
AcDbLine
10
288.937
20
24.6187
11
288.937
21
10.6192
0
LINE
5
F3
100
AcDbEntity
8
0
6
ByLayer
62
0
370
-1
100
AcDbLine
10
288.937
20
10.6192
11
274.937
21
10.6192
0
LINE
5
F4
100
AcDbEntity
8
0
6
ByLayer
62
0
370
-1
100
AcDbLine
10
274.937
20
10.6192
11
274.937
21
24.6187
0
LINE
5
F5
100
AcDbEntity
8
0
6
ByLayer
62
0
370
-1
100
AcDbLine
10
22.5254
20
43.6686
11
22.5254
21
38.9696
0
LINE
5
F6
100
AcDbEntity
8
0
6
ByLayer
62
0
370
-1
100
AcDbLine
10
22.5254
20
38.9696
11
20.9999
21
38.9696
0
LINE
5
F7
100
AcDbEntity
8
0
6
ByLayer
62
0
370
-1
100
AcDbLine
10
20.9999
20
38.9696
11
20.9999
21
42.1996
0
LINE
5
F8
100
AcDbEntity
8
0
6
ByLayer
62
0
370
-1
100
AcDbLine
10
20.9999
20
42.1996
11
19.2746
21
42.1996
0
LINE
5
F9
100
AcDbEntity
8
0
6
ByLayer
62
0
370
-1
100
AcDbLine
10
19.2746
20
42.1996
11
19.2746
21
43.119
0
LINE
5
FA
100
AcDbEntity
8
0
6
ByLayer
62
0
370
-1
100
AcDbLine
10
19.2746
20
43.119
11
15.9742
21
43.119
0
LINE
5
FB
100
AcDbEntity
8
0
6
ByLayer
62
0
370
-1
100
AcDbLine
10
15.9742
20
43.119
11
15.9742
21
42.1996
0
LINE
5
FC
100
AcDbEntity
8
0
6
ByLayer
62
0
370
-1
100
AcDbLine
10
15.9742
20
42.1996
11
14.2503
21
42.1996
0
LINE
5
FD
100
AcDbEntity
8
0
6
ByLayer
62
0
370
-1
100
AcDbLine
10
14.2503
20
42.1996
11
14.2503
21
38.9696
0
LINE
5
FE
100
AcDbEntity
8
0
6
ByLayer
62
0
370
-1
100
AcDbLine
10
14.2503
20
38.9696
11
13.4249
21
38.9696
0
LINE
5
FF
100
AcDbEntity
8
0
6
ByLayer
62
0
370
-1
100
AcDbLine
10
13.4249
20
38.9696
11
13.4249
21
36.1692
0
LINE
5
100
100
AcDbEntity
8
0
6
ByLayer
62
0
370
-1
100
AcDbLine
10
13.4249
20
36.1692
11
14.2503
21
36.1692
0
LINE
5
101
100
AcDbEntity
8
0
6
ByLayer
62
0
370
-1
100
AcDbLine
10
14.2503
20
36.1692
11
14.2503
21
29.8993
0
LINE
5
102
100
AcDbEntity
8
0
6
ByLayer
62
0
370
-1
100
AcDbLine
10
14.2503
20
29.8993
11
15.9742
21
29.8993
0
LINE
5
103
100
AcDbEntity
8
0
6
ByLayer
62
0
370
-1
100
AcDbLine
10
15.9742
20
29.8993
11
15.9742
21
28.9195
0
LINE
5
104
100
AcDbEntity
8
0
6
ByLayer
62
0
370
-1
100
AcDbLine
10
15.9742
20
28.9195
11
19.2746
21
28.9195
0
LINE
5
105
100
AcDbEntity
8
0
6
ByLayer
62
0
370
-1
100
AcDbLine
10
19.2746
20
28.9195
11
19.2746
21
29.8993
0
LINE
5
106
100
AcDbEntity
8
0
6
ByLayer
62
0
370
-1
100
AcDbLine
10
19.2746
20
29.8993
11
20.9999
21
29.8993
0
LINE
5
107
100
AcDbEntity
8
0
6
ByLayer
62
0
370
-1
100
AcDbLine
10
20.9999
20
29.8993
11
20.9999
21
34.3697
0
LINE
5
108
100
AcDbEntity
8
0
6
ByLayer
62
0
370
-1
100
AcDbLine
10
20.9999
20
34.3697
11
22.5254
21
34.3697
0
LINE
5
109
100
AcDbEntity
8
0
6
ByLayer
62
0
370
-1
100
AcDbLine
10
22.5254
20
34.3697
11
22.5254
21
29.6692
0
LINE
5
10A
100
AcDbEntity
8
0
6
ByLayer
62
0
370
-1
100
AcDbLine
10
22.5254
20
29.6692
11
36.5248
21
29.6692
0
LINE
5
10B
100
AcDbEntity
8
0
6
ByLayer
62
0
370
-1
100
AcDbLine
10
36.5248
20
29.6692
11
36.5248
21
34.3697
0
LINE
5
10C
100
AcDbEntity
8
0
6
ByLayer
62
0
370
-1
100
AcDbLine
10
36.5248
20
34.3697
11
38.0503
21
34.3697
0
LINE
5
10D
100
AcDbEntity
8
0
6
ByLayer
62
0
370
-1
100
AcDbLine
10
38.0503
20
34.3697
11
38.0503
21
29.8993
0
LINE
5
10E
100
AcDbEntity
8
0
6
ByLayer
62
0
370
-1
100
AcDbLine
10
38.0503
20
29.8993
11
39.7743
21
29.8993
0
LINE
5
10F
100
AcDbEntity
8
0
6
ByLayer
62
0
370
-1
100
AcDbLine
10
39.7743
20
29.8993
11
39.7743
21
28.9195
0
LINE
5
110
100
AcDbEntity
8
0
6
ByLayer
62
0
370
-1
100
AcDbLine
10
39.7743
20
28.9195
11
43.0749
21
28.9195
0
LINE
5
111
100
AcDbEntity
8
0
6
ByLayer
62
0
370
-1
100
AcDbLine
10
43.0749
20
28.9195
11
43.0749
21
29.8993
0
LINE
5
112
100
AcDbEntity
8
0
6
ByLayer
62
0
370
-1
100
AcDbLine
10
43.0749
20
29.8993
11
44.8
21
29.8993
0
LINE
5
113
100
AcDbEntity
8
0
6
ByLayer
62
0
370
-1
100
AcDbLine
10
44.8
20
29.8993
11
44.8
21
36.1692
0
LINE
5
114
100
AcDbEntity
8
0
6
ByLayer
62
0
370
-1
100
AcDbLine
10
44.8
20
36.1692
11
45.624
21
36.1692
0
LINE
5
115
100
AcDbEntity
8
0
6
ByLayer
62
0
370
-1
100
AcDbLine
10
45.624
20
36.1692
11
45.624
21
38.9696
0
LINE
5
116
100
AcDbEntity
8
0
6
ByLayer
62
0
370
-1
100
AcDbLine
10
45.624
20
38.9696
11
44.8
21
38.9696
0
LINE
5
117
100
AcDbEntity
8
0
6
ByLayer
62
0
370
-1
100
AcDbLine
10
44.8
20
38.9696
11
44.8
21
42.1996
0
LINE
5
118
100
AcDbEntity
8
0
6
ByLayer
62
0
370
-1
100
AcDbLine
10
44.8
20
42.1996
11
43.0749
21
42.1996
0
LINE
5
119
100
AcDbEntity
8
0
6
ByLayer
62
0
370
-1
100
AcDbLine
10
43.0749
20
42.1996
11
43.0749
21
43.119
0
LINE
5
11A
100
AcDbEntity
8
0
6
ByLayer
62
0
370
-1
100
AcDbLine
10
43.0749
20
43.119
11
39.7743
21
43.119
0
LINE
5
11B
100
AcDbEntity
8
0
6
ByLayer
62
0
370
-1
100
AcDbLine
10
39.7743
20
43.119
11
39.7743
21
42.1996
0
LINE
5
11C
100
AcDbEntity
8
0
6
ByLayer
62
0
370
-1
100
AcDbLine
10
39.7743
20
42.1996
11
38.0503
21
42.1996
0
LINE
5
11D
100
AcDbEntity
8
0
6
ByLayer
62
0
370
-1
100
AcDbLine
10
38.0503
20
42.1996
11
38.0503
21
38.9696
0
LINE
5
11E
100
AcDbEntity
8
0
6
ByLayer
62
0
370
-1
100
AcDbLine
10
38.0503
20
38.9696
11
36.5248
21
38.9696
0
LINE
5
11F
100
AcDbEntity
8
0
6
ByLayer
62
0
370
-1
100
AcDbLine
10
36.5248
20
38.9696
11
36.5248
21
43.6686
0
LINE
5
120
100
AcDbEntity
8
0
6
ByLayer
62
0
370
-1
100
AcDbLine
10
36.5248
20
43.6686
11
22.5254
21
43.6686
0
LINE
5
121
100
AcDbEntity
8
0
6
ByLayer
62
0
370
-1
100
AcDbLine
10
260.651
20
43.6686
11
260.651
21
38.9696
0
LINE
5
122
100
AcDbEntity
8
0
6
ByLayer
62
0
370
-1
100
AcDbLine
10
260.651
20
38.9696
11
259.125
21
38.9696
0
LINE
5
123
100
AcDbEntity
8
0
6
ByLayer
62
0
370
-1
100
AcDbLine
10
259.125
20
38.9696
11
259.125
21
42.1996
0
LINE
5
124
100
AcDbEntity
8
0
6
ByLayer
62
0
370
-1
100
AcDbLine
10
259.125
20
42.1996
11
257.4
21
42.1996
0
LINE
5
125
100
AcDbEntity
8
0
6
ByLayer
62
0
370
-1
100
AcDbLine
10
257.4
20
42.1996
11
257.4
21
43.119
0
LINE
5
126
100
AcDbEntity
8
0
6
ByLayer
62
0
370
-1
100
AcDbLine
10
257.4
20
43.119
11
254.099
21
43.119
0
LINE
5
127
100
AcDbEntity
8
0
6
ByLayer
62
0
370
-1
100
AcDbLine
10
254.099
20
43.119
11
254.099
21
42.1996
0
LINE
5
128
100
AcDbEntity
8
0
6
ByLayer
62
0
370
-1
100
AcDbLine
10
254.099
20
42.1996
11
252.375
21
42.1996
0
LINE
5
129
100
AcDbEntity
8
0
6
ByLayer
62
0
370
-1
100
AcDbLine
10
252.375
20
42.1996
11
252.375
21
38.9696
0
LINE
5
12A
100
AcDbEntity
8
0
6
ByLayer
62
0
370
-1
100
AcDbLine
10
252.375
20
38.9696
11
251.55
21
38.9696
0
LINE
5
12B
100
AcDbEntity
8
0
6
ByLayer
62
0
370
-1
100
AcDbLine
10
251.55
20
38.9696
11
251.55
21
36.1692
0
LINE
5
12C
100
AcDbEntity
8
0
6
ByLayer
62
0
370
-1
100
AcDbLine
10
251.55
20
36.1692
11
252.375
21
36.1692
0
LINE
5
12D
100
AcDbEntity
8
0
6
ByLayer
62
0
370
-1
100
AcDbLine
10
252.375
20
36.1692
11
252.375
21
29.8993
0
LINE
5
12E
100
AcDbEntity
8
0
6
ByLayer
62
0
370
-1
100
AcDbLine
10
252.375
20
29.8993
11
254.099
21
29.8993
0
LINE
5
12F
100
AcDbEntity
8
0
6
ByLayer
62
0
370
-1
100
AcDbLine
10
254.099
20
29.8993
11
254.099
21
28.9195
0
LINE
5
130
100
AcDbEntity
8
0
6
ByLayer
62
0
370
-1
100
AcDbLine
10
254.099
20
28.9195
11
257.4
21
28.9195
0
LINE
5
131
100
AcDbEntity
8
0
6
ByLayer
62
0
370
-1
100
AcDbLine
10
257.4
20
28.9195
11
257.4
21
29.8993
0
LINE
5
132
100
AcDbEntity
8
0
6
ByLayer
62
0
370
-1
100
AcDbLine
10
257.4
20
29.8993
11
259.125
21
29.8993
0
LINE
5
133
100
AcDbEntity
8
0
6
ByLayer
62
0
370
-1
100
AcDbLine
10
259.125
20
29.8993
11
259.125
21
34.3697
0
LINE
5
134
100
AcDbEntity
8
0
6
ByLayer
62
0
370
-1
100
AcDbLine
10
259.125
20
34.3697
11
260.651
21
34.3697
0
LINE
5
135
100
AcDbEntity
8
0
6
ByLayer
62
0
370
-1
100
AcDbLine
10
260.651
20
34.3697
11
260.651
21
29.6692
0
LINE
5
136
100
AcDbEntity
8
0
6
ByLayer
62
0
370
-1
100
AcDbLine
10
260.651
20
29.6692
11
274.65
21
29.6692
0
LINE
5
137
100
AcDbEntity
8
0
6
ByLayer
62
0
370
-1
100
AcDbLine
10
274.65
20
29.6692
11
274.65
21
34.3697
0
LINE
5
138
100
AcDbEntity
8
0
6
ByLayer
62
0
370
-1
100
AcDbLine
10
274.65
20
34.3697
11
276.175
21
34.3697
0
LINE
5
139
100
AcDbEntity
8
0
6
ByLayer
62
0
370
-1
100
AcDbLine
10
276.175
20
34.3697
11
276.175
21
29.8993
0
LINE
5
13A
100
AcDbEntity
8
0
6
ByLayer
62
0
370
-1
100
AcDbLine
10
276.175
20
29.8993
11
277.899
21
29.8993
0
LINE
5
13B
100
AcDbEntity
8
0
6
ByLayer
62
0
370
-1
100
AcDbLine
10
277.899
20
29.8993
11
277.899
21
28.9195
0
LINE
5
13C
100
AcDbEntity
8
0
6
ByLayer
62
0
370
-1
100
AcDbLine
10
277.899
20
28.9195
11
281.2
21
28.9195
0
LINE
5
13D
100
AcDbEntity
8
0
6
ByLayer
62
0
370
-1
100
AcDbLine
10
281.2
20
28.9195
11
281.2
21
29.8993
0
LINE
5
13E
100
AcDbEntity
8
0
6
ByLayer
62
0
370
-1
100
AcDbLine
10
281.2
20
29.8993
11
282.925
21
29.8993
0
LINE
5
13F
100
AcDbEntity
8
0
6
ByLayer
62
0
370
-1
100
AcDbLine
10
282.925
20
29.8993
11
282.925
21
36.1692
0
LINE
5
140
100
AcDbEntity
8
0
6
ByLayer
62
0
370
-1
100
AcDbLine
10
282.925
20
36.1692
11
283.749
21
36.1692
0
LINE
5
141
100
AcDbEntity
8
0
6
ByLayer
62
0
370
-1
100
AcDbLine
10
283.749
20
36.1692
11
283.749
21
38.9696
0
LINE
5
142
100
AcDbEntity
8
0
6
ByLayer
62
0
370
-1
100
AcDbLine
10
283.749
20
38.9696
11
282.925
21
38.9696
0
LINE
5
143
100
AcDbEntity
8
0
6
ByLayer
62
0
370
-1
100
AcDbLine
10
282.925
20
38.9696
11
282.925
21
42.1996
0
LINE
5
144
100
AcDbEntity
8
0
6
ByLayer
62
0
370
-1
100
AcDbLine
10
282.925
20
42.1996
11
281.2
21
42.1996
0
LINE
5
145
100
AcDbEntity
8
0
6
ByLayer
62
0
370
-1
100
AcDbLine
10
281.2
20
42.1996
11
281.2
21
43.119
0
LINE
5
146
100
AcDbEntity
8
0
6
ByLayer
62
0
370
-1
100
AcDbLine
10
281.2
20
43.119
11
277.899
21
43.119
0
LINE
5
147
100
AcDbEntity
8
0
6
ByLayer
62
0
370
-1
100
AcDbLine
10
277.899
20
43.119
11
277.899
21
42.1996
0
LINE
5
148
100
AcDbEntity
8
0
6
ByLayer
62
0
370
-1
100
AcDbLine
10
277.899
20
42.1996
11
276.175
21
42.1996
0
LINE
5
149
100
AcDbEntity
8
0
6
ByLayer
62
0
370
-1
100
AcDbLine
10
276.175
20
42.1996
11
276.175
21
38.9696
0
LINE
5
14A
100
AcDbEntity
8
0
6
ByLayer
62
0
370
-1
100
AcDbLine
10
276.175
20
38.9696
11
274.65
21
38.9696
0
LINE
5
14B
100
AcDbEntity
8
0
6
ByLayer
62
0
370
-1
100
AcDbLine
10
274.65
20
38.9696
11
274.65
21
43.6686
0
LINE
5
14C
100
AcDbEntity
8
0
6
ByLayer
62
0
370
-1
100
AcDbLine
10
274.65
20
43.6686
11
260.651
21
43.6686
0
LINE
5
14D
100
AcDbEntity
8
0
6
ByLayer
62
0
370
-1
100
AcDbLine
10
53.4804
20
43.6686
11
67.4811
21
43.6686
0
LINE
5
14E
100
AcDbEntity
8
0
6
ByLayer
62
0
370
-1
100
AcDbLine
10
67.4811
20
43.6686
11
67.4811
21
29.6692
0
LINE
5
14F
100
AcDbEntity
8
0
6
ByLayer
62
0
370
-1
100
AcDbLine
10
67.4811
20
29.6692
11
53.4804
21
29.6692
0
LINE
5
150
100
AcDbEntity
8
0
6
ByLayer
62
0
370
-1
100
AcDbLine
10
53.4804
20
29.6692
11
53.4804
21
43.6686
0
LINE
5
151
100
AcDbEntity
8
0
6
ByLayer
62
0
370
-1
100
AcDbLine
10
72.5304
20
43.6686
11
86.5311
21
43.6686
0
LINE
5
152
100
AcDbEntity
8
0
6
ByLayer
62
0
370
-1
100
AcDbLine
10
86.5311
20
43.6686
11
86.5311
21
29.6692
0
LINE
5
153
100
AcDbEntity
8
0
6
ByLayer
62
0
370
-1
100
AcDbLine
10
86.5311
20
29.6692
11
72.5304
21
29.6692
0
LINE
5
154
100
AcDbEntity
8
0
6
ByLayer
62
0
370
-1
100
AcDbLine
10
72.5304
20
29.6692
11
72.5304
21
43.6686
0
LINE
5
155
100
AcDbEntity
8
0
6
ByLayer
62
0
370
-1
100
AcDbLine
10
91.5804
20
43.6686
11
105.581
21
43.6686
0
LINE
5
156
100
AcDbEntity
8
0
6
ByLayer
62
0
370
-1
100
AcDbLine
10
105.581
20
43.6686
11
105.581
21
29.6692
0
LINE
5
157
100
AcDbEntity
8
0
6
ByLayer
62
0
370
-1
100
AcDbLine
10
105.581
20
29.6692
11
91.5804
21
29.6692
0
LINE
5
158
100
AcDbEntity
8
0
6
ByLayer
62
0
370
-1
100
AcDbLine
10
91.5804
20
29.6692
11
91.5804
21
43.6686
0
LINE
5
159
100
AcDbEntity
8
0
6
ByLayer
62
0
370
-1
100
AcDbLine
10
110.63
20
43.6686
11
124.631
21
43.6686
0
LINE
5
15A
100
AcDbEntity
8
0
6
ByLayer
62
0
370
-1
100
AcDbLine
10
124.631
20
43.6686
11
124.631
21
29.6692
0
LINE
5
15B
100
AcDbEntity
8
0
6
ByLayer
62
0
370
-1
100
AcDbLine
10
124.631
20
29.6692
11
110.63
21
29.6692
0
LINE
5
15C
100
AcDbEntity
8
0
6
ByLayer
62
0
370
-1
100
AcDbLine
10
110.63
20
29.6692
11
110.63
21
43.6686
0
LINE
5
15D
100
AcDbEntity
8
0
6
ByLayer
62
0
370
-1
100
AcDbLine
10
129.68
20
43.6686
11
143.681
21
43.6686
0
LINE
5
15E
100
AcDbEntity
8
0
6
ByLayer
62
0
370
-1
100
AcDbLine
10
143.681
20
43.6686
11
143.681
21
29.6692
0
LINE
5
15F
100
AcDbEntity
8
0
6
ByLayer
62
0
370
-1
100
AcDbLine
10
143.681
20
29.6692
11
129.68
21
29.6692
0
LINE
5
160
100
AcDbEntity
8
0
6
ByLayer
62
0
370
-1
100
AcDbLine
10
129.68
20
29.6692
11
129.68
21
43.6686
0
LINE
5
161
100
AcDbEntity
8
0
6
ByLayer
62
0
370
-1
100
AcDbLine
10
148.73
20
43.6686
11
162.731
21
43.6686
0
LINE
5
162
100
AcDbEntity
8
0
6
ByLayer
62
0
370
-1
100
AcDbLine
10
162.731
20
43.6686
11
162.731
21
29.6692
0
LINE
5
163
100
AcDbEntity
8
0
6
ByLayer
62
0
370
-1
100
AcDbLine
10
162.731
20
29.6692
11
148.73
21
29.6692
0
LINE
5
164
100
AcDbEntity
8
0
6
ByLayer
62
0
370
-1
100
AcDbLine
10
148.73
20
29.6692
11
148.73
21
43.6686
0
LINE
5
165
100
AcDbEntity
8
0
6
ByLayer
62
0
370
-1
100
AcDbLine
10
167.78
20
43.6686
11
181.781
21
43.6686
0
LINE
5
166
100
AcDbEntity
8
0
6
ByLayer
62
0
370
-1
100
AcDbLine
10
181.781
20
43.6686
11
181.781
21
29.6692
0
LINE
5
167
100
AcDbEntity
8
0
6
ByLayer
62
0
370
-1
100
AcDbLine
10
181.781
20
29.6692
11
167.78
21
29.6692
0
LINE
5
168
100
AcDbEntity
8
0
6
ByLayer
62
0
370
-1
100
AcDbLine
10
167.78
20
29.6692
11
167.78
21
43.6686
0
LINE
5
169
100
AcDbEntity
8
0
6
ByLayer
62
0
370
-1
100
AcDbLine
10
186.83
20
43.6686
11
200.831
21
43.6686
0
LINE
5
16A
100
AcDbEntity
8
0
6
ByLayer
62
0
370
-1
100
AcDbLine
10
200.831
20
43.6686
11
200.831
21
29.6692
0
LINE
5
16B
100
AcDbEntity
8
0
6
ByLayer
62
0
370
-1
100
AcDbLine
10
200.831
20
29.6692
11
186.83
21
29.6692
0
LINE
5
16C
100
AcDbEntity
8
0
6
ByLayer
62
0
370
-1
100
AcDbLine
10
186.83
20
29.6692
11
186.83
21
43.6686
0
LINE
5
16D
100
AcDbEntity
8
0
6
ByLayer
62
0
370
-1
100
AcDbLine
10
205.88
20
43.6686
11
219.881
21
43.6686
0
LINE
5
16E
100
AcDbEntity
8
0
6
ByLayer
62
0
370
-1
100
AcDbLine
10
219.881
20
43.6686
11
219.881
21
29.6692
0
LINE
5
16F
100
AcDbEntity
8
0
6
ByLayer
62
0
370
-1
100
AcDbLine
10
219.881
20
29.6692
11
205.88
21
29.6692
0
LINE
5
170
100
AcDbEntity
8
0
6
ByLayer
62
0
370
-1
100
AcDbLine
10
205.88
20
29.6692
11
205.88
21
43.6686
0
LINE
5
171
100
AcDbEntity
8
0
6
ByLayer
62
0
370
-1
100
AcDbLine
10
224.93
20
43.6686
11
238.931
21
43.6686
0
LINE
5
172
100
AcDbEntity
8
0
6
ByLayer
62
0
370
-1
100
AcDbLine
10
238.931
20
43.6686
11
238.931
21
29.6692
0
LINE
5
173
100
AcDbEntity
8
0
6
ByLayer
62
0
370
-1
100
AcDbLine
10
238.931
20
29.6692
11
224.93
21
29.6692
0
LINE
5
174
100
AcDbEntity
8
0
6
ByLayer
62
0
370
-1
100
AcDbLine
10
224.93
20
29.6692
11
224.93
21
43.6686
0
LINE
5
175
100
AcDbEntity
8
0
6
ByLayer
62
0
370
-1
100
AcDbLine
10
265.412
20
62.7186
11
265.412
21
58.0196
0
LINE
5
176
100
AcDbEntity
8
0
6
ByLayer
62
0
370
-1
100
AcDbLine
10
265.412
20
58.0196
11
263.887
21
58.0196
0
LINE
5
177
100
AcDbEntity
8
0
6
ByLayer
62
0
370
-1
100
AcDbLine
10
263.887
20
58.0196
11
263.887
21
61.2496
0
LINE
5
178
100
AcDbEntity
8
0
6
ByLayer
62
0
370
-1
100
AcDbLine
10
263.887
20
61.2496
11
262.162
21
61.2496
0
LINE
5
179
100
AcDbEntity
8
0
6
ByLayer
62
0
370
-1
100
AcDbLine
10
262.162
20
61.2496
11
262.162
21
62.169
0
LINE
5
17A
100
AcDbEntity
8
0
6
ByLayer
62
0
370
-1
100
AcDbLine
10
262.162
20
62.169
11
258.862
21
62.169
0
LINE
5
17B
100
AcDbEntity
8
0
6
ByLayer
62
0
370
-1
100
AcDbLine
10
258.862
20
62.169
11
258.862
21
61.2496
0
LINE
5
17C
100
AcDbEntity
8
0
6
ByLayer
62
0
370
-1
100
AcDbLine
10
258.862
20
61.2496
11
257.137
21
61.2496
0
LINE
5
17D
100
AcDbEntity
8
0
6
ByLayer
62
0
370
-1
100
AcDbLine
10
257.137
20
61.2496
11
257.137
21
58.0196
0
LINE
5
17E
100
AcDbEntity
8
0
6
ByLayer
62
0
370
-1
100
AcDbLine
10
257.137
20
58.0196
11
256.312
21
58.0196
0
LINE
5
17F
100
AcDbEntity
8
0
6
ByLayer
62
0
370
-1
100
AcDbLine
10
256.312
20
58.0196
11
256.312
21
55.2192
0
LINE
5
180
100
AcDbEntity
8
0
6
ByLayer
62
0
370
-1
100
AcDbLine
10
256.312
20
55.2192
11
257.137
21
55.2192
0
LINE
5
181
100
AcDbEntity
8
0
6
ByLayer
62
0
370
-1
100
AcDbLine
10
257.137
20
55.2192
11
257.137
21
48.9493
0
LINE
5
182
100
AcDbEntity
8
0
6
ByLayer
62
0
370
-1
100
AcDbLine
10
257.137
20
48.9493
11
258.862
21
48.9493
0
LINE
5
183
100
AcDbEntity
8
0
6
ByLayer
62
0
370
-1
100
AcDbLine
10
258.862
20
48.9493
11
258.862
21
47.9697
0
LINE
5
184
100
AcDbEntity
8
0
6
ByLayer
62
0
370
-1
100
AcDbLine
10
258.862
20
47.9697
11
262.162
21
47.9697
0
LINE
5
185
100
AcDbEntity
8
0
6
ByLayer
62
0
370
-1
100
AcDbLine
10
262.162
20
47.9697
11
262.162
21
48.9493
0
LINE
5
186
100
AcDbEntity
8
0
6
ByLayer
62
0
370
-1
100
AcDbLine
10
262.162
20
48.9493
11
263.887
21
48.9493
0
LINE
5
187
100
AcDbEntity
8
0
6
ByLayer
62
0
370
-1
100
AcDbLine
10
263.887
20
48.9493
11
263.887
21
53.4197
0
LINE
5
188
100
AcDbEntity
8
0
6
ByLayer
62
0
370
-1
100
AcDbLine
10
263.887
20
53.4197
11
265.412
21
53.4197
0
LINE
5
189
100
AcDbEntity
8
0
6
ByLayer
62
0
370
-1
100
AcDbLine
10
265.412
20
53.4197
11
265.412
21
48.7193
0
LINE
5
18A
100
AcDbEntity
8
0
6
ByLayer
62
0
370
-1
100
AcDbLine
10
265.412
20
48.7193
11
279.412
21
48.7193
0
LINE
5
18B
100
AcDbEntity
8
0
6
ByLayer
62
0
370
-1
100
AcDbLine
10
279.412
20
48.7193
11
279.412
21
53.4197
0
LINE
5
18C
100
AcDbEntity
8
0
6
ByLayer
62
0
370
-1
100
AcDbLine
10
279.412
20
53.4197
11
280.936
21
53.4197
0
LINE
5
18D
100
AcDbEntity
8
0
6
ByLayer
62
0
370
-1
100
AcDbLine
10
280.936
20
53.4197
11
280.936
21
48.9493
0
LINE
5
18E
100
AcDbEntity
8
0
6
ByLayer
62
0
370
-1
100
AcDbLine
10
280.936
20
48.9493
11
282.662
21
48.9493
0
LINE
5
18F
100
AcDbEntity
8
0
6
ByLayer
62
0
370
-1
100
AcDbLine
10
282.662
20
48.9493
11
282.662
21
47.9697
0
LINE
5
190
100
AcDbEntity
8
0
6
ByLayer
62
0
370
-1
100
AcDbLine
10
282.662
20
47.9697
11
285.962
21
47.9697
0
LINE
5
191
100
AcDbEntity
8
0
6
ByLayer
62
0
370
-1
100
AcDbLine
10
285.962
20
47.9697
11
285.962
21
48.9493
0
LINE
5
192
100
AcDbEntity
8
0
6
ByLayer
62
0
370
-1
100
AcDbLine
10
285.962
20
48.9493
11
287.686
21
48.9493
0
LINE
5
193
100
AcDbEntity
8
0
6
ByLayer
62
0
370
-1
100
AcDbLine
10
287.686
20
48.9493
11
287.686
21
55.2192
0
LINE
5
194
100
AcDbEntity
8
0
6
ByLayer
62
0
370
-1
100
AcDbLine
10
287.686
20
55.2192
11
288.512
21
55.2192
0
LINE
5
195
100
AcDbEntity
8
0
6
ByLayer
62
0
370
-1
100
AcDbLine
10
288.512
20
55.2192
11
288.512
21
58.0196
0
LINE
5
196
100
AcDbEntity
8
0
6
ByLayer
62
0
370
-1
100
AcDbLine
10
288.512
20
58.0196
11
287.686
21
58.0196
0
LINE
5
197
100
AcDbEntity
8
0
6
ByLayer
62
0
370
-1
100
AcDbLine
10
287.686
20
58.0196
11
287.686
21
61.2496
0
LINE
5
198
100
AcDbEntity
8
0
6
ByLayer
62
0
370
-1
100
AcDbLine
10
287.686
20
61.2496
11
285.962
21
61.2496
0
LINE
5
199
100
AcDbEntity
8
0
6
ByLayer
62
0
370
-1
100
AcDbLine
10
285.962
20
61.2496
11
285.962
21
62.169
0
LINE
5
19A
100
AcDbEntity
8
0
6
ByLayer
62
0
370
-1
100
AcDbLine
10
285.962
20
62.169
11
282.662
21
62.169
0
LINE
5
19B
100
AcDbEntity
8
0
6
ByLayer
62
0
370
-1
100
AcDbLine
10
282.662
20
62.169
11
282.662
21
61.2496
0
LINE
5
19C
100
AcDbEntity
8
0
6
ByLayer
62
0
370
-1
100
AcDbLine
10
282.662
20
61.2496
11
280.936
21
61.2496
0
LINE
5
19D
100
AcDbEntity
8
0
6
ByLayer
62
0
370
-1
100
AcDbLine
10
280.936
20
61.2496
11
280.936
21
58.0196
0
LINE
5
19E
100
AcDbEntity
8
0
6
ByLayer
62
0
370
-1
100
AcDbLine
10
280.936
20
58.0196
11
279.412
21
58.0196
0
LINE
5
19F
100
AcDbEntity
8
0
6
ByLayer
62
0
370
-1
100
AcDbLine
10
279.412
20
58.0196
11
279.412
21
62.7186
0
LINE
5
1A0
100
AcDbEntity
8
0
6
ByLayer
62
0
370
-1
100
AcDbLine
10
279.412
20
62.7186
11
265.412
21
62.7186
0
LINE
5
1A1
100
AcDbEntity
8
0
6
ByLayer
62
0
370
-1
100
AcDbLine
10
17.7615
20
62.7186
11
31.7624
21
62.7186
0
LINE
5
1A2
100
AcDbEntity
8
0
6
ByLayer
62
0
370
-1
100
AcDbLine
10
31.7624
20
62.7186
11
31.7624
21
48.7193
0
LINE
5
1A3
100
AcDbEntity
8
0
6
ByLayer
62
0
370
-1
100
AcDbLine
10
31.7624
20
48.7193
11
17.7615
21
48.7193
0
LINE
5
1A4
100
AcDbEntity
8
0
6
ByLayer
62
0
370
-1
100
AcDbLine
10
17.7615
20
48.7193
11
17.7615
21
62.7186
0
LINE
5
1A5
100
AcDbEntity
8
0
6
ByLayer
62
0
370
-1
100
AcDbLine
10
43.9554
20
62.7186
11
57.9561
21
62.7186
0
LINE
5
1A6
100
AcDbEntity
8
0
6
ByLayer
62
0
370
-1
100
AcDbLine
10
57.9561
20
62.7186
11
57.9561
21
48.7193
0
LINE
5
1A7
100
AcDbEntity
8
0
6
ByLayer
62
0
370
-1
100
AcDbLine
10
57.9561
20
48.7193
11
43.9554
21
48.7193
0
LINE
5
1A8
100
AcDbEntity
8
0
6
ByLayer
62
0
370
-1
100
AcDbLine
10
43.9554
20
48.7193
11
43.9554
21
62.7186
0
LINE
5
1A9
100
AcDbEntity
8
0
6
ByLayer
62
0
370
-1
100
AcDbLine
10
63.0054
20
62.7186
11
77.0061
21
62.7186
0
LINE
5
1AA
100
AcDbEntity
8
0
6
ByLayer
62
0
370
-1
100
AcDbLine
10
77.0061
20
62.7186
11
77.0061
21
48.7193
0
LINE
5
1AB
100
AcDbEntity
8
0
6
ByLayer
62
0
370
-1
100
AcDbLine
10
77.0061
20
48.7193
11
63.0054
21
48.7193
0
LINE
5
1AC
100
AcDbEntity
8
0
6
ByLayer
62
0
370
-1
100
AcDbLine
10
63.0054
20
48.7193
11
63.0054
21
62.7186
0
LINE
5
1AD
100
AcDbEntity
8
0
6
ByLayer
62
0
370
-1
100
AcDbLine
10
82.0554
20
62.7186
11
96.0561
21
62.7186
0
LINE
5
1AE
100
AcDbEntity
8
0
6
ByLayer
62
0
370
-1
100
AcDbLine
10
96.0561
20
62.7186
11
96.0561
21
48.7193
0
LINE
5
1AF
100
AcDbEntity
8
0
6
ByLayer
62
0
370
-1
100
AcDbLine
10
96.0561
20
48.7193
11
82.0554
21
48.7193
0
LINE
5
1B0
100
AcDbEntity
8
0
6
ByLayer
62
0
370
-1
100
AcDbLine
10
82.0554
20
48.7193
11
82.0554
21
62.7186
0
LINE
5
1B1
100
AcDbEntity
8
0
6
ByLayer
62
0
370
-1
100
AcDbLine
10
101.105
20
62.7186
11
115.106
21
62.7186
0
LINE
5
1B2
100
AcDbEntity
8
0
6
ByLayer
62
0
370
-1
100
AcDbLine
10
115.106
20
62.7186
11
115.106
21
48.7193
0
LINE
5
1B3
100
AcDbEntity
8
0
6
ByLayer
62
0
370
-1
100
AcDbLine
10
115.106
20
48.7193
11
101.105
21
48.7193
0
LINE
5
1B4
100
AcDbEntity
8
0
6
ByLayer
62
0
370
-1
100
AcDbLine
10
101.105
20
48.7193
11
101.105
21
62.7186
0
LINE
5
1B5
100
AcDbEntity
8
0
6
ByLayer
62
0
370
-1
100
AcDbLine
10
120.155
20
62.7186
11
134.156
21
62.7186
0
LINE
5
1B6
100
AcDbEntity
8
0
6
ByLayer
62
0
370
-1
100
AcDbLine
10
134.156
20
62.7186
11
134.156
21
48.7193
0
LINE
5
1B7
100
AcDbEntity
8
0
6
ByLayer
62
0
370
-1
100
AcDbLine
10
134.156
20
48.7193
11
120.155
21
48.7193
0
LINE
5
1B8
100
AcDbEntity
8
0
6
ByLayer
62
0
370
-1
100
AcDbLine
10
120.155
20
48.7193
11
120.155
21
62.7186
0
LINE
5
1B9
100
AcDbEntity
8
0
6
ByLayer
62
0
370
-1
100
AcDbLine
10
139.205
20
62.7186
11
153.206
21
62.7186
0
LINE
5
1BA
100
AcDbEntity
8
0
6
ByLayer
62
0
370
-1
100
AcDbLine
10
153.206
20
62.7186
11
153.206
21
48.7193
0
LINE
5
1BB
100
AcDbEntity
8
0
6
ByLayer
62
0
370
-1
100
AcDbLine
10
153.206
20
48.7193
11
139.205
21
48.7193
0
LINE
5
1BC
100
AcDbEntity
8
0
6
ByLayer
62
0
370
-1
100
AcDbLine
10
139.205
20
48.7193
11
139.205
21
62.7186
0
LINE
5
1BD
100
AcDbEntity
8
0
6
ByLayer
62
0
370
-1
100
AcDbLine
10
158.255
20
62.7186
11
172.256
21
62.7186
0
LINE
5
1BE
100
AcDbEntity
8
0
6
ByLayer
62
0
370
-1
100
AcDbLine
10
172.256
20
62.7186
11
172.256
21
48.7193
0
LINE
5
1BF
100
AcDbEntity
8
0
6
ByLayer
62
0
370
-1
100
AcDbLine
10
172.256
20
48.7193
11
158.255
21
48.7193
0
LINE
5
1C0
100
AcDbEntity
8
0
6
ByLayer
62
0
370
-1
100
AcDbLine
10
158.255
20
48.7193
11
158.255
21
62.7186
0
LINE
5
1C1
100
AcDbEntity
8
0
6
ByLayer
62
0
370
-1
100
AcDbLine
10
177.305
20
62.7186
11
191.306
21
62.7186
0
LINE
5
1C2
100
AcDbEntity
8
0
6
ByLayer
62
0
370
-1
100
AcDbLine
10
191.306
20
62.7186
11
191.306
21
48.7193
0
LINE
5
1C3
100
AcDbEntity
8
0
6
ByLayer
62
0
370
-1
100
AcDbLine
10
191.306
20
48.7193
11
177.305
21
48.7193
0
LINE
5
1C4
100
AcDbEntity
8
0
6
ByLayer
62
0
370
-1
100
AcDbLine
10
177.305
20
48.7193
11
177.305
21
62.7186
0
LINE
5
1C5
100
AcDbEntity
8
0
6
ByLayer
62
0
370
-1
100
AcDbLine
10
196.355
20
62.7186
11
210.356
21
62.7186
0
LINE
5
1C6
100
AcDbEntity
8
0
6
ByLayer
62
0
370
-1
100
AcDbLine
10
210.356
20
62.7186
11
210.356
21
48.7193
0
LINE
5
1C7
100
AcDbEntity
8
0
6
ByLayer
62
0
370
-1
100
AcDbLine
10
210.356
20
48.7193
11
196.355
21
48.7193
0
LINE
5
1C8
100
AcDbEntity
8
0
6
ByLayer
62
0
370
-1
100
AcDbLine
10
196.355
20
48.7193
11
196.355
21
62.7186
0
LINE
5
1C9
100
AcDbEntity
8
0
6
ByLayer
62
0
370
-1
100
AcDbLine
10
215.405
20
62.7186
11
229.406
21
62.7186
0
LINE
5
1CA
100
AcDbEntity
8
0
6
ByLayer
62
0
370
-1
100
AcDbLine
10
229.406
20
62.7186
11
229.406
21
48.7193
0
LINE
5
1CB
100
AcDbEntity
8
0
6
ByLayer
62
0
370
-1
100
AcDbLine
10
229.406
20
48.7193
11
215.405
21
48.7193
0
LINE
5
1CC
100
AcDbEntity
8
0
6
ByLayer
62
0
370
-1
100
AcDbLine
10
215.405
20
48.7193
11
215.405
21
62.7186
0
LINE
5
1CD
100
AcDbEntity
8
0
6
ByLayer
62
0
370
-1
100
AcDbLine
10
234.455
20
62.7186
11
248.456
21
62.7186
0
LINE
5
1CE
100
AcDbEntity
8
0
6
ByLayer
62
0
370
-1
100
AcDbLine
10
248.456
20
62.7186
11
248.456
21
48.7193
0
LINE
5
1CF
100
AcDbEntity
8
0
6
ByLayer
62
0
370
-1
100
AcDbLine
10
248.456
20
48.7193
11
234.455
21
48.7193
0
LINE
5
1D0
100
AcDbEntity
8
0
6
ByLayer
62
0
370
-1
100
AcDbLine
10
234.455
20
48.7193
11
234.455
21
62.7186
0
LINE
5
1D1
100
AcDbEntity
8
0
6
ByLayer
62
0
370
-1
100
AcDbLine
10
15.3803
20
81.7686
11
29.3812
21
81.7686
0
LINE
5
1D2
100
AcDbEntity
8
0
6
ByLayer
62
0
370
-1
100
AcDbLine
10
29.3812
20
81.7686
11
29.3812
21
67.7693
0
LINE
5
1D3
100
AcDbEntity
8
0
6
ByLayer
62
0
370
-1
100
AcDbLine
10
29.3812
20
67.7693
11
15.3803
21
67.7693
0
LINE
5
1D4
100
AcDbEntity
8
0
6
ByLayer
62
0
370
-1
100
AcDbLine
10
15.3803
20
67.7693
11
15.3803
21
81.7686
0
LINE
5
1D5
100
AcDbEntity
8
0
6
ByLayer
62
0
370
-1
100
AcDbLine
10
39.1943
20
81.7686
11
53.1936
21
81.7686
0
LINE
5
1D6
100
AcDbEntity
8
0
6
ByLayer
62
0
370
-1
100
AcDbLine
10
53.1936
20
81.7686
11
53.1936
21
67.7693
0
LINE
5
1D7
100
AcDbEntity
8
0
6
ByLayer
62
0
370
-1
100
AcDbLine
10
53.1936
20
67.7693
11
39.1943
21
67.7693
0
LINE
5
1D8
100
AcDbEntity
8
0
6
ByLayer
62
0
370
-1
100
AcDbLine
10
39.1943
20
67.7693
11
39.1943
21
81.7686
0
LINE
5
1D9
100
AcDbEntity
8
0
6
ByLayer
62
0
370
-1
100
AcDbLine
10
58.2443
20
81.7686
11
72.2436
21
81.7686
0
LINE
5
1DA
100
AcDbEntity
8
0
6
ByLayer
62
0
370
-1
100
AcDbLine
10
72.2436
20
81.7686
11
72.2436
21
67.7693
0
LINE
5
1DB
100
AcDbEntity
8
0
6
ByLayer
62
0
370
-1
100
AcDbLine
10
72.2436
20
67.7693
11
58.2443
21
67.7693
0
LINE
5
1DC
100
AcDbEntity
8
0
6
ByLayer
62
0
370
-1
100
AcDbLine
10
58.2443
20
67.7693
11
58.2443
21
81.7686
0
LINE
5
1DD
100
AcDbEntity
8
0
6
ByLayer
62
0
370
-1
100
AcDbLine
10
77.2943
20
81.7686
11
91.2936
21
81.7686
0
LINE
5
1DE
100
AcDbEntity
8
0
6
ByLayer
62
0
370
-1
100
AcDbLine
10
91.2936
20
81.7686
11
91.2936
21
67.7693
0
LINE
5
1DF
100
AcDbEntity
8
0
6
ByLayer
62
0
370
-1
100
AcDbLine
10
91.2936
20
67.7693
11
77.2943
21
67.7693
0
LINE
5
1E0
100
AcDbEntity
8
0
6
ByLayer
62
0
370
-1
100
AcDbLine
10
77.2943
20
67.7693
11
77.2943
21
81.7686
0
LINE
5
1E1
100
AcDbEntity
8
0
6
ByLayer
62
0
370
-1
100
AcDbLine
10
96.3443
20
81.7686
11
110.344
21
81.7686
0
LINE
5
1E2
100
AcDbEntity
8
0
6
ByLayer
62
0
370
-1
100
AcDbLine
10
110.344
20
81.7686
11
110.344
21
67.7693
0
LINE
5
1E3
100
AcDbEntity
8
0
6
ByLayer
62
0
370
-1
100
AcDbLine
10
110.344
20
67.7693
11
96.3443
21
67.7693
0
LINE
5
1E4
100
AcDbEntity
8
0
6
ByLayer
62
0
370
-1
100
AcDbLine
10
96.3443
20
67.7693
11
96.3443
21
81.7686
0
LINE
5
1E5
100
AcDbEntity
8
0
6
ByLayer
62
0
370
-1
100
AcDbLine
10
115.394
20
81.7686
11
129.394
21
81.7686
0
LINE
5
1E6
100
AcDbEntity
8
0
6
ByLayer
62
0
370
-1
100
AcDbLine
10
129.394
20
81.7686
11
129.394
21
67.7693
0
LINE
5
1E7
100
AcDbEntity
8
0
6
ByLayer
62
0
370
-1
100
AcDbLine
10
129.394
20
67.7693
11
115.394
21
67.7693
0
LINE
5
1E8
100
AcDbEntity
8
0
6
ByLayer
62
0
370
-1
100
AcDbLine
10
115.394
20
67.7693
11
115.394
21
81.7686
0
LINE
5
1E9
100
AcDbEntity
8
0
6
ByLayer
62
0
370
-1
100
AcDbLine
10
134.444
20
81.7686
11
148.444
21
81.7686
0
LINE
5
1EA
100
AcDbEntity
8
0
6
ByLayer
62
0
370
-1
100
AcDbLine
10
148.444
20
81.7686
11
148.444
21
67.7693
0
LINE
5
1EB
100
AcDbEntity
8
0
6
ByLayer
62
0
370
-1
100
AcDbLine
10
148.444
20
67.7693
11
134.444
21
67.7693
0
LINE
5
1EC
100
AcDbEntity
8
0
6
ByLayer
62
0
370
-1
100
AcDbLine
10
134.444
20
67.7693
11
134.444
21
81.7686
0
LINE
5
1ED
100
AcDbEntity
8
0
6
ByLayer
62
0
370
-1
100
AcDbLine
10
153.494
20
81.7686
11
167.494
21
81.7686
0
LINE
5
1EE
100
AcDbEntity
8
0
6
ByLayer
62
0
370
-1
100
AcDbLine
10
167.494
20
81.7686
11
167.494
21
67.7693
0
LINE
5
1EF
100
AcDbEntity
8
0
6
ByLayer
62
0
370
-1
100
AcDbLine
10
167.494
20
67.7693
11
153.494
21
67.7693
0
LINE
5
1F0
100
AcDbEntity
8
0
6
ByLayer
62
0
370
-1
100
AcDbLine
10
153.494
20
67.7693
11
153.494
21
81.7686
0
LINE
5
1F1
100
AcDbEntity
8
0
6
ByLayer
62
0
370
-1
100
AcDbLine
10
172.544
20
81.7686
11
186.544
21
81.7686
0
LINE
5
1F2
100
AcDbEntity
8
0
6
ByLayer
62
0
370
-1
100
AcDbLine
10
186.544
20
81.7686
11
186.544
21
67.7693
0
LINE
5
1F3
100
AcDbEntity
8
0
6
ByLayer
62
0
370
-1
100
AcDbLine
10
186.544
20
67.7693
11
172.544
21
67.7693
0
LINE
5
1F4
100
AcDbEntity
8
0
6
ByLayer
62
0
370
-1
100
AcDbLine
10
172.544
20
67.7693
11
172.544
21
81.7686
0
LINE
5
1F5
100
AcDbEntity
8
0
6
ByLayer
62
0
370
-1
100
AcDbLine
10
191.594
20
81.7686
11
205.594
21
81.7686
0
LINE
5
1F6
100
AcDbEntity
8
0
6
ByLayer
62
0
370
-1
100
AcDbLine
10
205.594
20
81.7686
11
205.594
21
67.7693
0
LINE
5
1F7
100
AcDbEntity
8
0
6
ByLayer
62
0
370
-1
100
AcDbLine
10
205.594
20
67.7693
11
191.594
21
67.7693
0
LINE
5
1F8
100
AcDbEntity
8
0
6
ByLayer
62
0
370
-1
100
AcDbLine
10
191.594
20
67.7693
11
191.594
21
81.7686
0
LINE
5
1F9
100
AcDbEntity
8
0
6
ByLayer
62
0
370
-1
100
AcDbLine
10
210.644
20
81.7686
11
224.644
21
81.7686
0
LINE
5
1FA
100
AcDbEntity
8
0
6
ByLayer
62
0
370
-1
100
AcDbLine
10
224.644
20
81.7686
11
224.644
21
67.7693
0
LINE
5
1FB
100
AcDbEntity
8
0
6
ByLayer
62
0
370
-1
100
AcDbLine
10
224.644
20
67.7693
11
210.644
21
67.7693
0
LINE
5
1FC
100
AcDbEntity
8
0
6
ByLayer
62
0
370
-1
100
AcDbLine
10
210.644
20
67.7693
11
210.644
21
81.7686
0
LINE
5
1FD
100
AcDbEntity
8
0
6
ByLayer
62
0
370
-1
100
AcDbLine
10
229.694
20
81.7686
11
243.694
21
81.7686
0
LINE
5
1FE
100
AcDbEntity
8
0
6
ByLayer
62
0
370
-1
100
AcDbLine
10
243.694
20
81.7686
11
243.694
21
67.7693
0
LINE
5
1FF
100
AcDbEntity
8
0
6
ByLayer
62
0
370
-1
100
AcDbLine
10
243.694
20
67.7693
11
229.694
21
67.7693
0
LINE
5
200
100
AcDbEntity
8
0
6
ByLayer
62
0
370
-1
100
AcDbLine
10
229.694
20
67.7693
11
229.694
21
81.7686
0
LINE
5
201
100
AcDbEntity
8
0
6
ByLayer
62
0
370
-1
100
AcDbLine
10
248.744
20
81.7686
11
262.744
21
81.7686
0
LINE
5
202
100
AcDbEntity
8
0
6
ByLayer
62
0
370
-1
100
AcDbLine
10
262.744
20
81.7686
11
262.744
21
67.7693
0
LINE
5
203
100
AcDbEntity
8
0
6
ByLayer
62
0
370
-1
100
AcDbLine
10
262.744
20
67.7693
11
248.744
21
67.7693
0
LINE
5
204
100
AcDbEntity
8
0
6
ByLayer
62
0
370
-1
100
AcDbLine
10
248.744
20
67.7693
11
248.744
21
81.7686
0
LINE
5
205
100
AcDbEntity
8
0
6
ByLayer
62
0
370
-1
100
AcDbLine
10
272.555
20
81.7686
11
286.556
21
81.7686
0
LINE
5
206
100
AcDbEntity
8
0
6
ByLayer
62
0
370
-1
100
AcDbLine
10
286.556
20
81.7686
11
286.556
21
67.7693
0
LINE
5
207
100
AcDbEntity
8
0
6
ByLayer
62
0
370
-1
100
AcDbLine
10
286.556
20
67.7693
11
272.555
21
67.7693
0
LINE
5
208
100
AcDbEntity
8
0
6
ByLayer
62
0
370
-1
100
AcDbLine
10
272.555
20
67.7693
11
272.555
21
81.7686
0
LINE
5
209
100
AcDbEntity
8
0
6
ByLayer
62
0
370
-1
100
AcDbLine
10
267.794
20
100.82
11
267.794
21
96.1196
0
LINE
5
20A
100
AcDbEntity
8
0
6
ByLayer
62
0
370
-1
100
AcDbLine
10
267.794
20
96.1196
11
266.269
21
96.1196
0
LINE
5
20B
100
AcDbEntity
8
0
6
ByLayer
62
0
370
-1
100
AcDbLine
10
266.269
20
96.1196
11
266.269
21
99.3496
0
LINE
5
20C
100
AcDbEntity
8
0
6
ByLayer
62
0
370
-1
100
AcDbLine
10
266.269
20
99.3496
11
264.543
21
99.3496
0
LINE
5
20D
100
AcDbEntity
8
0
6
ByLayer
62
0
370
-1
100
AcDbLine
10
264.543
20
99.3496
11
264.543
21
100.269
0
LINE
5
20E
100
AcDbEntity
8
0
6
ByLayer
62
0
370
-1
100
AcDbLine
10
264.543
20
100.269
11
261.244
21
100.269
0
LINE
5
20F
100
AcDbEntity
8
0
6
ByLayer
62
0
370
-1
100
AcDbLine
10
261.244
20
100.269
11
261.244
21
99.3496
0
LINE
5
210
100
AcDbEntity
8
0
6
ByLayer
62
0
370
-1
100
AcDbLine
10
261.244
20
99.3496
11
259.519
21
99.3496
0
LINE
5
211
100
AcDbEntity
8
0
6
ByLayer
62
0
370
-1
100
AcDbLine
10
259.519
20
99.3496
11
259.519
21
96.1196
0
LINE
5
212
100
AcDbEntity
8
0
6
ByLayer
62
0
370
-1
100
AcDbLine
10
259.519
20
96.1196
11
258.694
21
96.1196
0
LINE
5
213
100
AcDbEntity
8
0
6
ByLayer
62
0
370
-1
100
AcDbLine
10
258.694
20
96.1196
11
258.694
21
93.3193
0
LINE
5
214
100
AcDbEntity
8
0
6
ByLayer
62
0
370
-1
100
AcDbLine
10
258.694
20
93.3193
11
259.519
21
93.3193
0
LINE
5
215
100
AcDbEntity
8
0
6
ByLayer
62
0
370
-1
100
AcDbLine
10
259.519
20
93.3193
11
259.519
21
87.0507
0
LINE
5
216
100
AcDbEntity
8
0
6
ByLayer
62
0
370
-1
100
AcDbLine
10
259.519
20
87.0507
11
261.244
21
87.0507
0
LINE
5
217
100
AcDbEntity
8
0
6
ByLayer
62
0
370
-1
100
AcDbLine
10
261.244
20
87.0507
11
261.244
21
86.0697
0
LINE
5
218
100
AcDbEntity
8
0
6
ByLayer
62
0
370
-1
100
AcDbLine
10
261.244
20
86.0697
11
264.543
21
86.0697
0
LINE
5
219
100
AcDbEntity
8
0
6
ByLayer
62
0
370
-1
100
AcDbLine
10
264.543
20
86.0697
11
264.543
21
87.0507
0
LINE
5
21A
100
AcDbEntity
8
0
6
ByLayer
62
0
370
-1
100
AcDbLine
10
264.543
20
87.0507
11
266.269
21
87.0507
0
LINE
5
21B
100
AcDbEntity
8
0
6
ByLayer
62
0
370
-1
100
AcDbLine
10
266.269
20
87.0507
11
266.269
21
91.5197
0
LINE
5
21C
100
AcDbEntity
8
0
6
ByLayer
62
0
370
-1
100
AcDbLine
10
266.269
20
91.5197
11
267.794
21
91.5197
0
LINE
5
21D
100
AcDbEntity
8
0
6
ByLayer
62
0
370
-1
100
AcDbLine
10
267.794
20
91.5197
11
267.794
21
86.8193
0
LINE
5
21E
100
AcDbEntity
8
0
6
ByLayer
62
0
370
-1
100
AcDbLine
10
267.794
20
86.8193
11
281.794
21
86.8193
0
LINE
5
21F
100
AcDbEntity
8
0
6
ByLayer
62
0
370
-1
100
AcDbLine
10
281.794
20
86.8193
11
281.794
21
91.5197
0
LINE
5
220
100
AcDbEntity
8
0
6
ByLayer
62
0
370
-1
100
AcDbLine
10
281.794
20
91.5197
11
283.319
21
91.5197
0
LINE
5
221
100
AcDbEntity
8
0
6
ByLayer
62
0
370
-1
100
AcDbLine
10
283.319
20
91.5197
11
283.319
21
87.0507
0
LINE
5
222
100
AcDbEntity
8
0
6
ByLayer
62
0
370
-1
100
AcDbLine
10
283.319
20
87.0507
11
285.043
21
87.0507
0
LINE
5
223
100
AcDbEntity
8
0
6
ByLayer
62
0
370
-1
100
AcDbLine
10
285.043
20
87.0507
11
285.043
21
86.0697
0
LINE
5
224
100
AcDbEntity
8
0
6
ByLayer
62
0
370
-1
100
AcDbLine
10
285.043
20
86.0697
11
288.344
21
86.0697
0
LINE
5
225
100
AcDbEntity
8
0
6
ByLayer
62
0
370
-1
100
AcDbLine
10
288.344
20
86.0697
11
288.344
21
87.0507
0
LINE
5
226
100
AcDbEntity
8
0
6
ByLayer
62
0
370
-1
100
AcDbLine
10
288.344
20
87.0507
11
290.069
21
87.0507
0
LINE
5
227
100
AcDbEntity
8
0
6
ByLayer
62
0
370
-1
100
AcDbLine
10
290.069
20
87.0507
11
290.069
21
93.3193
0
LINE
5
228
100
AcDbEntity
8
0
6
ByLayer
62
0
370
-1
100
AcDbLine
10
290.069
20
93.3193
11
290.894
21
93.3193
0
LINE
5
229
100
AcDbEntity
8
0
6
ByLayer
62
0
370
-1
100
AcDbLine
10
290.894
20
93.3193
11
290.894
21
96.1196
0
LINE
5
22A
100
AcDbEntity
8
0
6
ByLayer
62
0
370
-1
100
AcDbLine
10
290.894
20
96.1196
11
290.069
21
96.1196
0
LINE
5
22B
100
AcDbEntity
8
0
6
ByLayer
62
0
370
-1
100
AcDbLine
10
290.069
20
96.1196
11
290.069
21
99.3496
0
LINE
5
22C
100
AcDbEntity
8
0
6
ByLayer
62
0
370
-1
100
AcDbLine
10
290.069
20
99.3496
11
288.344
21
99.3496
0
LINE
5
22D
100
AcDbEntity
8
0
6
ByLayer
62
0
370
-1
100
AcDbLine
10
288.344
20
99.3496
11
288.344
21
100.269
0
LINE
5
22E
100
AcDbEntity
8
0
6
ByLayer
62
0
370
-1
100
AcDbLine
10
288.344
20
100.269
11
285.043
21
100.269
0
LINE
5
22F
100
AcDbEntity
8
0
6
ByLayer
62
0
370
-1
100
AcDbLine
10
285.043
20
100.269
11
285.043
21
99.3496
0
LINE
5
230
100
AcDbEntity
8
0
6
ByLayer
62
0
370
-1
100
AcDbLine
10
285.043
20
99.3496
11
283.319
21
99.3496
0
LINE
5
231
100
AcDbEntity
8
0
6
ByLayer
62
0
370
-1
100
AcDbLine
10
283.319
20
99.3496
11
283.319
21
96.1196
0
LINE
5
232
100
AcDbEntity
8
0
6
ByLayer
62
0
370
-1
100
AcDbLine
10
283.319
20
96.1196
11
281.794
21
96.1196
0
LINE
5
233
100
AcDbEntity
8
0
6
ByLayer
62
0
370
-1
100
AcDbLine
10
281.794
20
96.1196
11
281.794
21
100.82
0
LINE
5
234
100
AcDbEntity
8
0
6
ByLayer
62
0
370
-1
100
AcDbLine
10
281.794
20
100.82
11
267.794
21
100.82
0
LINE
5
235
100
AcDbEntity
8
0
6
ByLayer
62
0
370
-1
100
AcDbLine
10
10.6178
20
100.82
11
24.6187
21
100.82
0
LINE
5
236
100
AcDbEntity
8
0
6
ByLayer
62
0
370
-1
100
AcDbLine
10
24.6187
20
100.82
11
24.6187
21
86.8193
0
LINE
5
237
100
AcDbEntity
8
0
6
ByLayer
62
0
370
-1
100
AcDbLine
10
24.6187
20
86.8193
11
10.6178
21
86.8193
0
LINE
5
238
100
AcDbEntity
8
0
6
ByLayer
62
0
370
-1
100
AcDbLine
10
10.6178
20
86.8193
11
10.6178
21
100.82
0
LINE
5
239
100
AcDbEntity
8
0
6
ByLayer
62
0
370
-1
100
AcDbLine
10
29.6692
20
100.82
11
43.6686
21
100.82
0
LINE
5
23A
100
AcDbEntity
8
0
6
ByLayer
62
0
370
-1
100
AcDbLine
10
43.6686
20
100.82
11
43.6686
21
86.8193
0
LINE
5
23B
100
AcDbEntity
8
0
6
ByLayer
62
0
370
-1
100
AcDbLine
10
43.6686
20
86.8193
11
29.6692
21
86.8193
0
LINE
5
23C
100
AcDbEntity
8
0
6
ByLayer
62
0
370
-1
100
AcDbLine
10
29.6692
20
86.8193
11
29.6692
21
100.82
0
LINE
5
23D
100
AcDbEntity
8
0
6
ByLayer
62
0
370
-1
100
AcDbLine
10
48.7193
20
100.82
11
62.7186
21
100.82
0
LINE
5
23E
100
AcDbEntity
8
0
6
ByLayer
62
0
370
-1
100
AcDbLine
10
62.7186
20
100.82
11
62.7186
21
86.8193
0
LINE
5
23F
100
AcDbEntity
8
0
6
ByLayer
62
0
370
-1
100
AcDbLine
10
62.7186
20
86.8193
11
48.7193
21
86.8193
0
LINE
5
240
100
AcDbEntity
8
0
6
ByLayer
62
0
370
-1
100
AcDbLine
10
48.7193
20
86.8193
11
48.7193
21
100.82
0
LINE
5
241
100
AcDbEntity
8
0
6
ByLayer
62
0
370
-1
100
AcDbLine
10
67.7693
20
100.82
11
81.7686
21
100.82
0
LINE
5
242
100
AcDbEntity
8
0
6
ByLayer
62
0
370
-1
100
AcDbLine
10
81.7686
20
100.82
11
81.7686
21
86.8193
0
LINE
5
243
100
AcDbEntity
8
0
6
ByLayer
62
0
370
-1
100
AcDbLine
10
81.7686
20
86.8193
11
67.7693
21
86.8193
0
LINE
5
244
100
AcDbEntity
8
0
6
ByLayer
62
0
370
-1
100
AcDbLine
10
67.7693
20
86.8193
11
67.7693
21
100.82
0
LINE
5
245
100
AcDbEntity
8
0
6
ByLayer
62
0
370
-1
100
AcDbLine
10
86.8193
20
100.82
11
100.819
21
100.82
0
LINE
5
246
100
AcDbEntity
8
0
6
ByLayer
62
0
370
-1
100
AcDbLine
10
100.819
20
100.82
11
100.819
21
86.8193
0
LINE
5
247
100
AcDbEntity
8
0
6
ByLayer
62
0
370
-1
100
AcDbLine
10
100.819
20
86.8193
11
86.8193
21
86.8193
0
LINE
5
248
100
AcDbEntity
8
0
6
ByLayer
62
0
370
-1
100
AcDbLine
10
86.8193
20
86.8193
11
86.8193
21
100.82
0
LINE
5
249
100
AcDbEntity
8
0
6
ByLayer
62
0
370
-1
100
AcDbLine
10
105.868
20
100.82
11
119.867
21
100.82
0
LINE
5
24A
100
AcDbEntity
8
0
6
ByLayer
62
0
370
-1
100
AcDbLine
10
119.867
20
100.82
11
119.867
21
86.8193
0
LINE
5
24B
100
AcDbEntity
8
0
6
ByLayer
62
0
370
-1
100
AcDbLine
10
119.867
20
86.8193
11
105.868
21
86.8193
0
LINE
5
24C
100
AcDbEntity
8
0
6
ByLayer
62
0
370
-1
100
AcDbLine
10
105.868
20
86.8193
11
105.868
21
100.82
0
LINE
5
24D
100
AcDbEntity
8
0
6
ByLayer
62
0
370
-1
100
AcDbLine
10
124.918
20
100.82
11
138.919
21
100.82
0
LINE
5
24E
100
AcDbEntity
8
0
6
ByLayer
62
0
370
-1
100
AcDbLine
10
138.919
20
100.82
11
138.919
21
86.8193
0
LINE
5
24F
100
AcDbEntity
8
0
6
ByLayer
62
0
370
-1
100
AcDbLine
10
138.919
20
86.8193
11
124.918
21
86.8193
0
LINE
5
250
100
AcDbEntity
8
0
6
ByLayer
62
0
370
-1
100
AcDbLine
10
124.918
20
86.8193
11
124.918
21
100.82
0
LINE
5
251
100
AcDbEntity
8
0
6
ByLayer
62
0
370
-1
100
AcDbLine
10
143.969
20
100.82
11
157.969
21
100.82
0
LINE
5
252
100
AcDbEntity
8
0
6
ByLayer
62
0
370
-1
100
AcDbLine
10
157.969
20
100.82
11
157.969
21
86.8193
0
LINE
5
253
100
AcDbEntity
8
0
6
ByLayer
62
0
370
-1
100
AcDbLine
10
157.969
20
86.8193
11
143.969
21
86.8193
0
LINE
5
254
100
AcDbEntity
8
0
6
ByLayer
62
0
370
-1
100
AcDbLine
10
143.969
20
86.8193
11
143.969
21
100.82
0
LINE
5
255
100
AcDbEntity
8
0
6
ByLayer
62
0
370
-1
100
AcDbLine
10
163.019
20
100.82
11
177.019
21
100.82
0
LINE
5
256
100
AcDbEntity
8
0
6
ByLayer
62
0
370
-1
100
AcDbLine
10
177.019
20
100.82
11
177.019
21
86.8193
0
LINE
5
257
100
AcDbEntity
8
0
6
ByLayer
62
0
370
-1
100
AcDbLine
10
177.019
20
86.8193
11
163.019
21
86.8193
0
LINE
5
258
100
AcDbEntity
8
0
6
ByLayer
62
0
370
-1
100
AcDbLine
10
163.019
20
86.8193
11
163.019
21
100.82
0
LINE
5
259
100
AcDbEntity
8
0
6
ByLayer
62
0
370
-1
100
AcDbLine
10
182.069
20
100.82
11
196.069
21
100.82
0
LINE
5
25A
100
AcDbEntity
8
0
6
ByLayer
62
0
370
-1
100
AcDbLine
10
196.069
20
100.82
11
196.069
21
86.8193
0
LINE
5
25B
100
AcDbEntity
8
0
6
ByLayer
62
0
370
-1
100
AcDbLine
10
196.069
20
86.8193
11
182.069
21
86.8193
0
LINE
5
25C
100
AcDbEntity
8
0
6
ByLayer
62
0
370
-1
100
AcDbLine
10
182.069
20
86.8193
11
182.069
21
100.82
0
LINE
5
25D
100
AcDbEntity
8
0
6
ByLayer
62
0
370
-1
100
AcDbLine
10
201.119
20
100.82
11
215.119
21
100.82
0
LINE
5
25E
100
AcDbEntity
8
0
6
ByLayer
62
0
370
-1
100
AcDbLine
10
215.119
20
100.82
11
215.119
21
86.8193
0
LINE
5
25F
100
AcDbEntity
8
0
6
ByLayer
62
0
370
-1
100
AcDbLine
10
215.119
20
86.8193
11
201.119
21
86.8193
0
LINE
5
260
100
AcDbEntity
8
0
6
ByLayer
62
0
370
-1
100
AcDbLine
10
201.119
20
86.8193
11
201.119
21
100.82
0
LINE
5
261
100
AcDbEntity
8
0
6
ByLayer
62
0
370
-1
100
AcDbLine
10
220.169
20
100.82
11
234.169
21
100.82
0
LINE
5
262
100
AcDbEntity
8
0
6
ByLayer
62
0
370
-1
100
AcDbLine
10
234.169
20
100.82
11
234.169
21
86.8193
0
LINE
5
263
100
AcDbEntity
8
0
6
ByLayer
62
0
370
-1
100
AcDbLine
10
234.169
20
86.8193
11
220.169
21
86.8193
0
LINE
5
264
100
AcDbEntity
8
0
6
ByLayer
62
0
370
-1
100
AcDbLine
10
220.169
20
86.8193
11
220.169
21
100.82
0
LINE
5
265
100
AcDbEntity
8
0
6
ByLayer
62
0
370
-1
100
AcDbLine
10
239.219
20
100.82
11
253.219
21
100.82
0
LINE
5
266
100
AcDbEntity
8
0
6
ByLayer
62
0
370
-1
100
AcDbLine
10
253.219
20
100.82
11
253.219
21
86.8193
0
LINE
5
267
100
AcDbEntity
8
0
6
ByLayer
62
0
370
-1
100
AcDbLine
10
253.219
20
86.8193
11
239.219
21
86.8193
0
LINE
5
268
100
AcDbEntity
8
0
6
ByLayer
62
0
370
-1
100
AcDbLine
10
239.219
20
86.8193
11
239.219
21
100.82
0
LINE
5
269
100
AcDbEntity
8
0
6
ByLayer
62
0
370
-1
100
AcDbLine
10
298.881
20
110.271
11
298.462
21
110.059
0
LINE
5
26A
100
AcDbEntity
8
0
6
ByLayer
62
0
370
-1
100
AcDbLine
10
298.462
20
110.059
11
298.13
21
109.726
0
LINE
5
26B
100
AcDbEntity
8
0
6
ByLayer
62
0
370
-1
100
AcDbLine
10
298.13
20
109.726
11
297.918
21
109.309
0
LINE
5
26C
100
AcDbEntity
8
0
6
ByLayer
62
0
370
-1
100
AcDbLine
10
297.918
20
109.309
11
297.845
21
108.844
0
LINE
5
26D
100
AcDbEntity
8
0
6
ByLayer
62
0
370
-1
100
AcDbLine
10
297.845
20
108.844
11
297.918
21
108.381
0
LINE
5
26E
100
AcDbEntity
8
0
6
ByLayer
62
0
370
-1
100
AcDbLine
10
297.918
20
108.381
11
298.13
21
107.962
0
LINE
5
26F
100
AcDbEntity
8
0
6
ByLayer
62
0
370
-1
100
AcDbLine
10
298.13
20
107.962
11
298.462
21
107.632
0
LINE
5
270
100
AcDbEntity
8
0
6
ByLayer
62
0
370
-1
100
AcDbLine
10
298.462
20
107.632
11
298.881
21
107.418
0
LINE
5
271
100
AcDbEntity
8
0
6
ByLayer
62
0
370
-1
100
AcDbLine
10
298.881
20
107.418
11
299.344
21
107.344
0
LINE
5
272
100
AcDbEntity
8
0
6
ByLayer
62
0
370
-1
100
AcDbLine
10
299.344
20
107.344
11
299.807
21
107.418
0
LINE
5
273
100
AcDbEntity
8
0
6
ByLayer
62
0
370
-1
100
AcDbLine
10
299.807
20
107.418
11
300.226
21
107.632
0
LINE
5
274
100
AcDbEntity
8
0
6
ByLayer
62
0
370
-1
100
AcDbLine
10
300.226
20
107.632
11
300.559
21
107.962
0
LINE
5
275
100
AcDbEntity
8
0
6
ByLayer
62
0
370
-1
100
AcDbLine
10
300.559
20
107.962
11
300.771
21
108.381
0
LINE
5
276
100
AcDbEntity
8
0
6
ByLayer
62
0
370
-1
100
AcDbLine
10
300.771
20
108.381
11
300.845
21
108.844
0
LINE
5
277
100
AcDbEntity
8
0
6
ByLayer
62
0
370
-1
100
AcDbLine
10
300.845
20
108.844
11
300.771
21
109.309
0
LINE
5
278
100
AcDbEntity
8
0
6
ByLayer
62
0
370
-1
100
AcDbLine
10
300.771
20
109.309
11
300.559
21
109.726
0
LINE
5
279
100
AcDbEntity
8
0
6
ByLayer
62
0
370
-1
100
AcDbLine
10
300.559
20
109.726
11
300.226
21
110.059
0
LINE
5
27A
100
AcDbEntity
8
0
6
ByLayer
62
0
370
-1
100
AcDbLine
10
300.226
20
110.059
11
299.807
21
110.271
0
LINE
5
27B
100
AcDbEntity
8
0
6
ByLayer
62
0
370
-1
100
AcDbLine
10
299.807
20
110.271
11
299.344
21
110.344
0
LINE
5
27C
100
AcDbEntity
8
0
6
ByLayer
62
0
370
-1
100
AcDbLine
10
299.344
20
110.344
11
298.881
21
110.271
0
LINE
5
27D
100
AcDbEntity
8
0
6
ByLayer
62
0
370
-1
100
AcDbLine
10
2.12907
20
110.271
11
1.71152
21
110.059
0
LINE
5
27E
100
AcDbEntity
8
0
6
ByLayer
62
0
370
-1
100
AcDbLine
10
1.71152
20
110.059
11
1.37942
21
109.726
0
LINE
5
27F
100
AcDbEntity
8
0
6
ByLayer
62
0
370
-1
100
AcDbLine
10
1.37942
20
109.726
11
1.1672
21
109.309
0
LINE
5
280
100
AcDbEntity
8
0
6
ByLayer
62
0
370
-1
100
AcDbLine
10
1.1672
20
109.309
11
1.09279
21
108.844
0
LINE
5
281
100
AcDbEntity
8
0
6
ByLayer
62
0
370
-1
100
AcDbLine
10
1.09279
20
108.844
11
1.1672
21
108.381
0
LINE
5
282
100
AcDbEntity
8
0
6
ByLayer
62
0
370
-1
100
AcDbLine
10
1.1672
20
108.381
11
1.37942
21
107.962
0
LINE
5
283
100
AcDbEntity
8
0
6
ByLayer
62
0
370
-1
100
AcDbLine
10
1.37942
20
107.962
11
1.71152
21
107.632
0
LINE
5
284
100
AcDbEntity
8
0
6
ByLayer
62
0
370
-1
100
AcDbLine
10
1.71152
20
107.632
11
2.12907
21
107.418
0
LINE
5
285
100
AcDbEntity
8
0
6
ByLayer
62
0
370
-1
100
AcDbLine
10
2.12907
20
107.418
11
2.59347
21
107.344
0
LINE
5
286
100
AcDbEntity
8
0
6
ByLayer
62
0
370
-1
100
AcDbLine
10
2.59347
20
107.344
11
3.05649
21
107.418
0
LINE
5
287
100
AcDbEntity
8
0
6
ByLayer
62
0
370
-1
100
AcDbLine
10
3.05649
20
107.418
11
3.47541
21
107.632
0
LINE
5
288
100
AcDbEntity
8
0
6
ByLayer
62
0
370
-1
100
AcDbLine
10
3.47541
20
107.632
11
3.80615
21
107.962
0
LINE
5
289
100
AcDbEntity
8
0
6
ByLayer
62
0
370
-1
100
AcDbLine
10
3.80615
20
107.962
11
4.01973
21
108.381
0
LINE
5
28A
100
AcDbEntity
8
0
6
ByLayer
62
0
370
-1
100
AcDbLine
10
4.01973
20
108.381
11
4.09416
21
108.844
0
LINE
5
28B
100
AcDbEntity
8
0
6
ByLayer
62
0
370
-1
100
AcDbLine
10
4.09416
20
108.844
11
4.01973
21
109.309
0
LINE
5
28C
100
AcDbEntity
8
0
6
ByLayer
62
0
370
-1
100
AcDbLine
10
4.01973
20
109.309
11
3.80615
21
109.726
0
LINE
5
28D
100
AcDbEntity
8
0
6
ByLayer
62
0
370
-1
100
AcDbLine
10
3.80615
20
109.726
11
3.47541
21
110.059
0
LINE
5
28E
100
AcDbEntity
8
0
6
ByLayer
62
0
370
-1
100
AcDbLine
10
3.47541
20
110.059
11
3.05649
21
110.271
0
LINE
5
28F
100
AcDbEntity
8
0
6
ByLayer
62
0
370
-1
100
AcDbLine
10
3.05649
20
110.271
11
2.59347
21
110.344
0
LINE
5
290
100
AcDbEntity
8
0
6
ByLayer
62
0
370
-1
100
AcDbLine
10
2.59347
20
110.344
11
2.12907
21
110.271
0
ENDBLK
5
5C
330
5A
100
AcDbEntity
8
0
100
AcDbBlockEnd
0
BLOCK
5
5E
330
5D
100
AcDbEntity
8
0
100
AcDbBlockBegin
2
toplayer-0
70
0
10
0
20
0
3
toplayer-0
1

0
LINE
5
291
100
AcDbEntity
8
0
6
ByLayer
62
0
370
-1
100
AcDbLine
10
0.0937066
20
111.344
11
301.844
21
111.344
0
LINE
5
292
100
AcDbEntity
8
0
6
ByLayer
62
0
370
-1
100
AcDbLine
10
301.844
20
111.344
11
301.844
21
0.0937066
0
LINE
5
293
100
AcDbEntity
8
0
6
ByLayer
62
0
370
-1
100
AcDbLine
10
301.844
20
0.0937066
11
0.0937066
21
0.0937066
0
LINE
5
294
100
AcDbEntity
8
0
6
ByLayer
62
0
370
-1
100
AcDbLine
10
0.0937066
20
0.0937066
11
0.0937066
21
111.344
0
LINE
5
295
100
AcDbEntity
8
0
6
ByLayer
62
0
370
-1
100
AcDbLine
10
298.881
20
4.01973
11
298.462
21
3.80753
0
LINE
5
296
100
AcDbEntity
8
0
6
ByLayer
62
0
370
-1
100
AcDbLine
10
298.462
20
3.80753
11
298.13
21
3.47541
0
LINE
5
297
100
AcDbEntity
8
0
6
ByLayer
62
0
370
-1
100
AcDbLine
10
298.13
20
3.47541
11
297.918
21
3.05649
0
LINE
5
298
100
AcDbEntity
8
0
6
ByLayer
62
0
370
-1
100
AcDbLine
10
297.918
20
3.05649
11
297.845
21
2.59347
0
LINE
5
299
100
AcDbEntity
8
0
6
ByLayer
62
0
370
-1
100
AcDbLine
10
297.845
20
2.59347
11
297.918
21
2.13045
0
LINE
5
29A
100
AcDbEntity
8
0
6
ByLayer
62
0
370
-1
100
AcDbLine
10
297.918
20
2.13045
11
298.13
21
1.71152
0
LINE
5
29B
100
AcDbEntity
8
0
6
ByLayer
62
0
370
-1
100
AcDbLine
10
298.13
20
1.71152
11
298.462
21
1.37942
0
LINE
5
29C
100
AcDbEntity
8
0
6
ByLayer
62
0
370
-1
100
AcDbLine
10
298.462
20
1.37942
11
298.881
21
1.1672
0
LINE
5
29D
100
AcDbEntity
8
0
6
ByLayer
62
0
370
-1
100
AcDbLine
10
298.881
20
1.1672
11
299.344
21
1.09416
0
LINE
5
29E
100
AcDbEntity
8
0
6
ByLayer
62
0
370
-1
100
AcDbLine
10
299.344
20
1.09416
11
299.807
21
1.1672
0
LINE
5
29F
100
AcDbEntity
8
0
6
ByLayer
62
0
370
-1
100
AcDbLine
10
299.807
20
1.1672
11
300.226
21
1.37942
0
LINE
5
2A0
100
AcDbEntity
8
0
6
ByLayer
62
0
370
-1
100
AcDbLine
10
300.226
20
1.37942
11
300.559
21
1.71152
0
LINE
5
2A1
100
AcDbEntity
8
0
6
ByLayer
62
0
370
-1
100
AcDbLine
10
300.559
20
1.71152
11
300.771
21
2.13045
0
LINE
5
2A2
100
AcDbEntity
8
0
6
ByLayer
62
0
370
-1
100
AcDbLine
10
300.771
20
2.13045
11
300.845
21
2.59347
0
LINE
5
2A3
100
AcDbEntity
8
0
6
ByLayer
62
0
370
-1
100
AcDbLine
10
300.845
20
2.59347
11
300.771
21
3.05649
0
LINE
5
2A4
100
AcDbEntity
8
0
6
ByLayer
62
0
370
-1
100
AcDbLine
10
300.771
20
3.05649
11
300.559
21
3.47541
0
LINE
5
2A5
100
AcDbEntity
8
0
6
ByLayer
62
0
370
-1
100
AcDbLine
10
300.559
20
3.47541
11
300.226
21
3.80753
0
LINE
5
2A6
100
AcDbEntity
8
0
6
ByLayer
62
0
370
-1
100
AcDbLine
10
300.226
20
3.80753
11
299.807
21
4.01973
0
LINE
5
2A7
100
AcDbEntity
8
0
6
ByLayer
62
0
370
-1
100
AcDbLine
10
299.807
20
4.01973
11
299.344
21
4.09416
0
LINE
5
2A8
100
AcDbEntity
8
0
6
ByLayer
62
0
370
-1
100
AcDbLine
10
299.344
20
4.09416
11
298.881
21
4.01973
0
LINE
5
2A9
100
AcDbEntity
8
0
6
ByLayer
62
0
370
-1
100
AcDbLine
10
2.12907
20
4.01973
11
1.71152
21
3.80753
0
LINE
5
2AA
100
AcDbEntity
8
0
6
ByLayer
62
0
370
-1
100
AcDbLine
10
1.71152
20
3.80753
11
1.37942
21
3.47541
0
LINE
5
2AB
100
AcDbEntity
8
0
6
ByLayer
62
0
370
-1
100
AcDbLine
10
1.37942
20
3.47541
11
1.1672
21
3.05649
0
LINE
5
2AC
100
AcDbEntity
8
0
6
ByLayer
62
0
370
-1
100
AcDbLine
10
1.1672
20
3.05649
11
1.09279
21
2.59347
0
LINE
5
2AD
100
AcDbEntity
8
0
6
ByLayer
62
0
370
-1
100
AcDbLine
10
1.09279
20
2.59347
11
1.1672
21
2.13045
0
LINE
5
2AE
100
AcDbEntity
8
0
6
ByLayer
62
0
370
-1
100
AcDbLine
10
1.1672
20
2.13045
11
1.37942
21
1.71152
0
LINE
5
2AF
100
AcDbEntity
8
0
6
ByLayer
62
0
370
-1
100
AcDbLine
10
1.37942
20
1.71152
11
1.71152
21
1.37942
0
LINE
5
2B0
100
AcDbEntity
8
0
6
ByLayer
62
0
370
-1
100
AcDbLine
10
1.71152
20
1.37942
11
2.12907
21
1.1672
0
LINE
5
2B1
100
AcDbEntity
8
0
6
ByLayer
62
0
370
-1
100
AcDbLine
10
2.12907
20
1.1672
11
2.59347
21
1.09416
0
LINE
5
2B2
100
AcDbEntity
8
0
6
ByLayer
62
0
370
-1
100
AcDbLine
10
2.59347
20
1.09416
11
3.05649
21
1.1672
0
LINE
5
2B3
100
AcDbEntity
8
0
6
ByLayer
62
0
370
-1
100
AcDbLine
10
3.05649
20
1.1672
11
3.47541
21
1.37942
0
LINE
5
2B4
100
AcDbEntity
8
0
6
ByLayer
62
0
370
-1
100
AcDbLine
10
3.47541
20
1.37942
11
3.80615
21
1.71152
0
LINE
5
2B5
100
AcDbEntity
8
0
6
ByLayer
62
0
370
-1
100
AcDbLine
10
3.80615
20
1.71152
11
4.01973
21
2.13045
0
LINE
5
2B6
100
AcDbEntity
8
0
6
ByLayer
62
0
370
-1
100
AcDbLine
10
4.01973
20
2.13045
11
4.09416
21
2.59347
0
LINE
5
2B7
100
AcDbEntity
8
0
6
ByLayer
62
0
370
-1
100
AcDbLine
10
4.09416
20
2.59347
11
4.01973
21
3.05649
0
LINE
5
2B8
100
AcDbEntity
8
0
6
ByLayer
62
0
370
-1
100
AcDbLine
10
4.01973
20
3.05649
11
3.80615
21
3.47541
0
LINE
5
2B9
100
AcDbEntity
8
0
6
ByLayer
62
0
370
-1
100
AcDbLine
10
3.80615
20
3.47541
11
3.47541
21
3.80753
0
LINE
5
2BA
100
AcDbEntity
8
0
6
ByLayer
62
0
370
-1
100
AcDbLine
10
3.47541
20
3.80753
11
3.05649
21
4.01973
0
LINE
5
2BB
100
AcDbEntity
8
0
6
ByLayer
62
0
370
-1
100
AcDbLine
10
3.05649
20
4.01973
11
2.59347
21
4.09416
0
LINE
5
2BC
100
AcDbEntity
8
0
6
ByLayer
62
0
370
-1
100
AcDbLine
10
2.59347
20
4.09416
11
2.12907
21
4.01973
0
LINE
5
2BD
100
AcDbEntity
8
0
6
ByLayer
62
0
370
-1
100
AcDbLine
10
8.09184
20
103.346
11
8.09184
21
84.2931
0
LINE
5
2BE
100
AcDbEntity
8
0
6
ByLayer
62
0
370
-1
100
AcDbLine
10
8.09184
20
84.2931
11
8.09322
21
84.2931
0
LINE
5
2BF
100
AcDbEntity
8
0
6
ByLayer
62
0
370
-1
100
AcDbLine
10
8.09322
20
84.2931
11
8.09322
21
65.2445
0
LINE
5
2C0
100
AcDbEntity
8
0
6
ByLayer
62
0
370
-1
100
AcDbLine
10
8.09322
20
65.2445
11
8.09184
21
65.2445
0
LINE
5
2C1
100
AcDbEntity
8
0
6
ByLayer
62
0
370
-1
100
AcDbLine
10
8.09184
20
65.2445
11
8.09184
21
46.1931
0
LINE
5
2C2
100
AcDbEntity
8
0
6
ByLayer
62
0
370
-1
100
AcDbLine
10
8.09184
20
46.1931
11
8.09322
21
46.1931
0
LINE
5
2C3
100
AcDbEntity
8
0
6
ByLayer
62
0
370
-1
100
AcDbLine
10
8.09322
20
46.1931
11
8.09322
21
8.09459
0
LINE
5
2C4
100
AcDbEntity
8
0
6
ByLayer
62
0
370
-1
100
AcDbLine
10
8.09322
20
8.09459
11
293.844
21
8.09459
0
LINE
5
2C5
100
AcDbEntity
8
0
6
ByLayer
62
0
370
-1
100
AcDbLine
10
293.844
20
8.09459
11
293.844
21
103.346
0
LINE
5
2C6
100
AcDbEntity
8
0
6
ByLayer
62
0
370
-1
100
AcDbLine
10
293.844
20
103.346
11
8.09184
21
103.346
0
LINE
5
2C7
100
AcDbEntity
8
0
6
ByLayer
62
0
370
-1
100
AcDbLine
10
298.881
20
110.271
11
298.462
21
110.059
0
LINE
5
2C8
100
AcDbEntity
8
0
6
ByLayer
62
0
370
-1
100
AcDbLine
10
298.462
20
110.059
11
298.13
21
109.726
0
LINE
5
2C9
100
AcDbEntity
8
0
6
ByLayer
62
0
370
-1
100
AcDbLine
10
298.13
20
109.726
11
297.918
21
109.309
0
LINE
5
2CA
100
AcDbEntity
8
0
6
ByLayer
62
0
370
-1
100
AcDbLine
10
297.918
20
109.309
11
297.845
21
108.844
0
LINE
5
2CB
100
AcDbEntity
8
0
6
ByLayer
62
0
370
-1
100
AcDbLine
10
297.845
20
108.844
11
297.918
21
108.381
0
LINE
5
2CC
100
AcDbEntity
8
0
6
ByLayer
62
0
370
-1
100
AcDbLine
10
297.918
20
108.381
11
298.13
21
107.962
0
LINE
5
2CD
100
AcDbEntity
8
0
6
ByLayer
62
0
370
-1
100
AcDbLine
10
298.13
20
107.962
11
298.462
21
107.632
0
LINE
5
2CE
100
AcDbEntity
8
0
6
ByLayer
62
0
370
-1
100
AcDbLine
10
298.462
20
107.632
11
298.881
21
107.418
0
LINE
5
2CF
100
AcDbEntity
8
0
6
ByLayer
62
0
370
-1
100
AcDbLine
10
298.881
20
107.418
11
299.344
21
107.344
0
LINE
5
2D0
100
AcDbEntity
8
0
6
ByLayer
62
0
370
-1
100
AcDbLine
10
299.344
20
107.344
11
299.807
21
107.418
0
LINE
5
2D1
100
AcDbEntity
8
0
6
ByLayer
62
0
370
-1
100
AcDbLine
10
299.807
20
107.418
11
300.226
21
107.632
0
LINE
5
2D2
100
AcDbEntity
8
0
6
ByLayer
62
0
370
-1
100
AcDbLine
10
300.226
20
107.632
11
300.559
21
107.962
0
LINE
5
2D3
100
AcDbEntity
8
0
6
ByLayer
62
0
370
-1
100
AcDbLine
10
300.559
20
107.962
11
300.771
21
108.381
0
LINE
5
2D4
100
AcDbEntity
8
0
6
ByLayer
62
0
370
-1
100
AcDbLine
10
300.771
20
108.381
11
300.845
21
108.844
0
LINE
5
2D5
100
AcDbEntity
8
0
6
ByLayer
62
0
370
-1
100
AcDbLine
10
300.845
20
108.844
11
300.771
21
109.309
0
LINE
5
2D6
100
AcDbEntity
8
0
6
ByLayer
62
0
370
-1
100
AcDbLine
10
300.771
20
109.309
11
300.559
21
109.726
0
LINE
5
2D7
100
AcDbEntity
8
0
6
ByLayer
62
0
370
-1
100
AcDbLine
10
300.559
20
109.726
11
300.226
21
110.059
0
LINE
5
2D8
100
AcDbEntity
8
0
6
ByLayer
62
0
370
-1
100
AcDbLine
10
300.226
20
110.059
11
299.807
21
110.271
0
LINE
5
2D9
100
AcDbEntity
8
0
6
ByLayer
62
0
370
-1
100
AcDbLine
10
299.807
20
110.271
11
299.344
21
110.344
0
LINE
5
2DA
100
AcDbEntity
8
0
6
ByLayer
62
0
370
-1
100
AcDbLine
10
299.344
20
110.344
11
298.881
21
110.271
0
LINE
5
2DB
100
AcDbEntity
8
0
6
ByLayer
62
0
370
-1
100
AcDbLine
10
2.12907
20
110.271
11
1.71152
21
110.059
0
LINE
5
2DC
100
AcDbEntity
8
0
6
ByLayer
62
0
370
-1
100
AcDbLine
10
1.71152
20
110.059
11
1.37942
21
109.726
0
LINE
5
2DD
100
AcDbEntity
8
0
6
ByLayer
62
0
370
-1
100
AcDbLine
10
1.37942
20
109.726
11
1.1672
21
109.309
0
LINE
5
2DE
100
AcDbEntity
8
0
6
ByLayer
62
0
370
-1
100
AcDbLine
10
1.1672
20
109.309
11
1.09279
21
108.844
0
LINE
5
2DF
100
AcDbEntity
8
0
6
ByLayer
62
0
370
-1
100
AcDbLine
10
1.09279
20
108.844
11
1.1672
21
108.381
0
LINE
5
2E0
100
AcDbEntity
8
0
6
ByLayer
62
0
370
-1
100
AcDbLine
10
1.1672
20
108.381
11
1.37942
21
107.962
0
LINE
5
2E1
100
AcDbEntity
8
0
6
ByLayer
62
0
370
-1
100
AcDbLine
10
1.37942
20
107.962
11
1.71152
21
107.632
0
LINE
5
2E2
100
AcDbEntity
8
0
6
ByLayer
62
0
370
-1
100
AcDbLine
10
1.71152
20
107.632
11
2.12907
21
107.418
0
LINE
5
2E3
100
AcDbEntity
8
0
6
ByLayer
62
0
370
-1
100
AcDbLine
10
2.12907
20
107.418
11
2.59347
21
107.344
0
LINE
5
2E4
100
AcDbEntity
8
0
6
ByLayer
62
0
370
-1
100
AcDbLine
10
2.59347
20
107.344
11
3.05649
21
107.418
0
LINE
5
2E5
100
AcDbEntity
8
0
6
ByLayer
62
0
370
-1
100
AcDbLine
10
3.05649
20
107.418
11
3.47541
21
107.632
0
LINE
5
2E6
100
AcDbEntity
8
0
6
ByLayer
62
0
370
-1
100
AcDbLine
10
3.47541
20
107.632
11
3.80615
21
107.962
0
LINE
5
2E7
100
AcDbEntity
8
0
6
ByLayer
62
0
370
-1
100
AcDbLine
10
3.80615
20
107.962
11
4.01973
21
108.381
0
LINE
5
2E8
100
AcDbEntity
8
0
6
ByLayer
62
0
370
-1
100
AcDbLine
10
4.01973
20
108.381
11
4.09416
21
108.844
0
LINE
5
2E9
100
AcDbEntity
8
0
6
ByLayer
62
0
370
-1
100
AcDbLine
10
4.09416
20
108.844
11
4.01973
21
109.309
0
LINE
5
2EA
100
AcDbEntity
8
0
6
ByLayer
62
0
370
-1
100
AcDbLine
10
4.01973
20
109.309
11
3.80615
21
109.726
0
LINE
5
2EB
100
AcDbEntity
8
0
6
ByLayer
62
0
370
-1
100
AcDbLine
10
3.80615
20
109.726
11
3.47541
21
110.059
0
LINE
5
2EC
100
AcDbEntity
8
0
6
ByLayer
62
0
370
-1
100
AcDbLine
10
3.47541
20
110.059
11
3.05649
21
110.271
0
LINE
5
2ED
100
AcDbEntity
8
0
6
ByLayer
62
0
370
-1
100
AcDbLine
10
3.05649
20
110.271
11
2.59347
21
110.344
0
LINE
5
2EE
100
AcDbEntity
8
0
6
ByLayer
62
0
370
-1
100
AcDbLine
10
2.59347
20
110.344
11
2.12907
21
110.271
0
ENDBLK
5
5F
330
5D
100
AcDbEntity
8
0
100
AcDbBlockEnd
0
BLOCK
5
61
330
60
100
AcDbEntity
8
0
100
AcDbBlockBegin
2
openlayer-0
70
0
10
0
20
0
3
openlayer-0
1

0
LINE
5
2EF
100
AcDbEntity
8
0
6
ByLayer
62
0
370
-1
100
AcDbLine
10
301.844
20
0.0937066
11
0.0937066
21
0.0937066
0
LINE
5
2F0
100
AcDbEntity
8
0
6
ByLayer
62
0
370
-1
100
AcDbLine
10
0.0937066
20
0.0937066
11
0.0937066
21
111.344
0
LINE
5
2F1
100
AcDbEntity
8
0
6
ByLayer
62
0
370
-1
100
AcDbLine
10
0.0937066
20
111.344
11
145.969
21
111.344
0
LINE
5
2F2
100
AcDbEntity
8
0
6
ByLayer
62
0
370
-1
100
AcDbLine
10
145.969
20
111.344
11
145.969
21
106.345
0
LINE
5
2F3
100
AcDbEntity
8
0
6
ByLayer
62
0
370
-1
100
AcDbLine
10
145.969
20
106.345
11
5.09323
21
106.345
0
LINE
5
2F4
100
AcDbEntity
8
0
6
ByLayer
62
0
370
-1
100
AcDbLine
10
5.09323
20
106.345
11
5.09323
21
5.0946
0
LINE
5
2F5
100
AcDbEntity
8
0
6
ByLayer
62
0
370
-1
100
AcDbLine
10
5.09323
20
5.0946
11
296.845
21
5.0946
0
LINE
5
2F6
100
AcDbEntity
8
0
6
ByLayer
62
0
370
-1
100
AcDbLine
10
296.845
20
5.0946
11
296.845
21
106.345
0
LINE
5
2F7
100
AcDbEntity
8
0
6
ByLayer
62
0
370
-1
100
AcDbLine
10
296.845
20
106.345
11
155.969
21
106.345
0
LINE
5
2F8
100
AcDbEntity
8
0
6
ByLayer
62
0
370
-1
100
AcDbLine
10
155.969
20
106.345
11
155.969
21
111.344
0
LINE
5
2F9
100
AcDbEntity
8
0
6
ByLayer
62
0
370
-1
100
AcDbLine
10
155.969
20
111.344
11
301.844
21
111.344
0
LINE
5
2FA
100
AcDbEntity
8
0
6
ByLayer
62
0
370
-1
100
AcDbLine
10
301.844
20
111.344
11
301.844
21
0.0937066
0
LINE
5
2FB
100
AcDbEntity
8
0
6
ByLayer
62
0
370
-1
100
AcDbLine
10
298.881
20
4.01973
11
298.462
21
3.80753
0
LINE
5
2FC
100
AcDbEntity
8
0
6
ByLayer
62
0
370
-1
100
AcDbLine
10
298.462
20
3.80753
11
298.13
21
3.47541
0
LINE
5
2FD
100
AcDbEntity
8
0
6
ByLayer
62
0
370
-1
100
AcDbLine
10
298.13
20
3.47541
11
297.918
21
3.05649
0
LINE
5
2FE
100
AcDbEntity
8
0
6
ByLayer
62
0
370
-1
100
AcDbLine
10
297.918
20
3.05649
11
297.845
21
2.59347
0
LINE
5
2FF
100
AcDbEntity
8
0
6
ByLayer
62
0
370
-1
100
AcDbLine
10
297.845
20
2.59347
11
297.918
21
2.13045
0
LINE
5
300
100
AcDbEntity
8
0
6
ByLayer
62
0
370
-1
100
AcDbLine
10
297.918
20
2.13045
11
298.13
21
1.71152
0
LINE
5
301
100
AcDbEntity
8
0
6
ByLayer
62
0
370
-1
100
AcDbLine
10
298.13
20
1.71152
11
298.462
21
1.37942
0
LINE
5
302
100
AcDbEntity
8
0
6
ByLayer
62
0
370
-1
100
AcDbLine
10
298.462
20
1.37942
11
298.881
21
1.1672
0
LINE
5
303
100
AcDbEntity
8
0
6
ByLayer
62
0
370
-1
100
AcDbLine
10
298.881
20
1.1672
11
299.344
21
1.09416
0
LINE
5
304
100
AcDbEntity
8
0
6
ByLayer
62
0
370
-1
100
AcDbLine
10
299.344
20
1.09416
11
299.807
21
1.1672
0
LINE
5
305
100
AcDbEntity
8
0
6
ByLayer
62
0
370
-1
100
AcDbLine
10
299.807
20
1.1672
11
300.226
21
1.37942
0
LINE
5
306
100
AcDbEntity
8
0
6
ByLayer
62
0
370
-1
100
AcDbLine
10
300.226
20
1.37942
11
300.559
21
1.71152
0
LINE
5
307
100
AcDbEntity
8
0
6
ByLayer
62
0
370
-1
100
AcDbLine
10
300.559
20
1.71152
11
300.771
21
2.13045
0
LINE
5
308
100
AcDbEntity
8
0
6
ByLayer
62
0
370
-1
100
AcDbLine
10
300.771
20
2.13045
11
300.845
21
2.59347
0
LINE
5
309
100
AcDbEntity
8
0
6
ByLayer
62
0
370
-1
100
AcDbLine
10
300.845
20
2.59347
11
300.771
21
3.05649
0
LINE
5
30A
100
AcDbEntity
8
0
6
ByLayer
62
0
370
-1
100
AcDbLine
10
300.771
20
3.05649
11
300.559
21
3.47541
0
LINE
5
30B
100
AcDbEntity
8
0
6
ByLayer
62
0
370
-1
100
AcDbLine
10
300.559
20
3.47541
11
300.226
21
3.80753
0
LINE
5
30C
100
AcDbEntity
8
0
6
ByLayer
62
0
370
-1
100
AcDbLine
10
300.226
20
3.80753
11
299.807
21
4.01973
0
LINE
5
30D
100
AcDbEntity
8
0
6
ByLayer
62
0
370
-1
100
AcDbLine
10
299.807
20
4.01973
11
299.344
21
4.09416
0
LINE
5
30E
100
AcDbEntity
8
0
6
ByLayer
62
0
370
-1
100
AcDbLine
10
299.344
20
4.09416
11
298.881
21
4.01973
0
LINE
5
30F
100
AcDbEntity
8
0
6
ByLayer
62
0
370
-1
100
AcDbLine
10
2.12907
20
4.01973
11
1.71152
21
3.80753
0
LINE
5
310
100
AcDbEntity
8
0
6
ByLayer
62
0
370
-1
100
AcDbLine
10
1.71152
20
3.80753
11
1.37942
21
3.47541
0
LINE
5
311
100
AcDbEntity
8
0
6
ByLayer
62
0
370
-1
100
AcDbLine
10
1.37942
20
3.47541
11
1.1672
21
3.05649
0
LINE
5
312
100
AcDbEntity
8
0
6
ByLayer
62
0
370
-1
100
AcDbLine
10
1.1672
20
3.05649
11
1.09279
21
2.59347
0
LINE
5
313
100
AcDbEntity
8
0
6
ByLayer
62
0
370
-1
100
AcDbLine
10
1.09279
20
2.59347
11
1.1672
21
2.13045
0
LINE
5
314
100
AcDbEntity
8
0
6
ByLayer
62
0
370
-1
100
AcDbLine
10
1.1672
20
2.13045
11
1.37942
21
1.71152
0
LINE
5
315
100
AcDbEntity
8
0
6
ByLayer
62
0
370
-1
100
AcDbLine
10
1.37942
20
1.71152
11
1.71152
21
1.37942
0
LINE
5
316
100
AcDbEntity
8
0
6
ByLayer
62
0
370
-1
100
AcDbLine
10
1.71152
20
1.37942
11
2.12907
21
1.1672
0
LINE
5
317
100
AcDbEntity
8
0
6
ByLayer
62
0
370
-1
100
AcDbLine
10
2.12907
20
1.1672
11
2.59347
21
1.09416
0
LINE
5
318
100
AcDbEntity
8
0
6
ByLayer
62
0
370
-1
100
AcDbLine
10
2.59347
20
1.09416
11
3.05649
21
1.1672
0
LINE
5
319
100
AcDbEntity
8
0
6
ByLayer
62
0
370
-1
100
AcDbLine
10
3.05649
20
1.1672
11
3.47541
21
1.37942
0
LINE
5
31A
100
AcDbEntity
8
0
6
ByLayer
62
0
370
-1
100
AcDbLine
10
3.47541
20
1.37942
11
3.80615
21
1.71152
0
LINE
5
31B
100
AcDbEntity
8
0
6
ByLayer
62
0
370
-1
100
AcDbLine
10
3.80615
20
1.71152
11
4.01973
21
2.13045
0
LINE
5
31C
100
AcDbEntity
8
0
6
ByLayer
62
0
370
-1
100
AcDbLine
10
4.01973
20
2.13045
11
4.09416
21
2.59347
0
LINE
5
31D
100
AcDbEntity
8
0
6
ByLayer
62
0
370
-1
100
AcDbLine
10
4.09416
20
2.59347
11
4.01973
21
3.05649
0
LINE
5
31E
100
AcDbEntity
8
0
6
ByLayer
62
0
370
-1
100
AcDbLine
10
4.01973
20
3.05649
11
3.80615
21
3.47541
0
LINE
5
31F
100
AcDbEntity
8
0
6
ByLayer
62
0
370
-1
100
AcDbLine
10
3.80615
20
3.47541
11
3.47541
21
3.80753
0
LINE
5
320
100
AcDbEntity
8
0
6
ByLayer
62
0
370
-1
100
AcDbLine
10
3.47541
20
3.80753
11
3.05649
21
4.01973
0
LINE
5
321
100
AcDbEntity
8
0
6
ByLayer
62
0
370
-1
100
AcDbLine
10
3.05649
20
4.01973
11
2.59347
21
4.09416
0
LINE
5
322
100
AcDbEntity
8
0
6
ByLayer
62
0
370
-1
100
AcDbLine
10
2.59347
20
4.09416
11
2.12907
21
4.01973
0
LINE
5
323
100
AcDbEntity
8
0
6
ByLayer
62
0
370
-1
100
AcDbLine
10
298.881
20
110.271
11
298.462
21
110.059
0
LINE
5
324
100
AcDbEntity
8
0
6
ByLayer
62
0
370
-1
100
AcDbLine
10
298.462
20
110.059
11
298.13
21
109.726
0
LINE
5
325
100
AcDbEntity
8
0
6
ByLayer
62
0
370
-1
100
AcDbLine
10
298.13
20
109.726
11
297.918
21
109.309
0
LINE
5
326
100
AcDbEntity
8
0
6
ByLayer
62
0
370
-1
100
AcDbLine
10
297.918
20
109.309
11
297.845
21
108.844
0
LINE
5
327
100
AcDbEntity
8
0
6
ByLayer
62
0
370
-1
100
AcDbLine
10
297.845
20
108.844
11
297.918
21
108.381
0
LINE
5
328
100
AcDbEntity
8
0
6
ByLayer
62
0
370
-1
100
AcDbLine
10
297.918
20
108.381
11
298.13
21
107.962
0
LINE
5
329
100
AcDbEntity
8
0
6
ByLayer
62
0
370
-1
100
AcDbLine
10
298.13
20
107.962
11
298.462
21
107.632
0
LINE
5
32A
100
AcDbEntity
8
0
6
ByLayer
62
0
370
-1
100
AcDbLine
10
298.462
20
107.632
11
298.881
21
107.418
0
LINE
5
32B
100
AcDbEntity
8
0
6
ByLayer
62
0
370
-1
100
AcDbLine
10
298.881
20
107.418
11
299.344
21
107.344
0
LINE
5
32C
100
AcDbEntity
8
0
6
ByLayer
62
0
370
-1
100
AcDbLine
10
299.344
20
107.344
11
299.807
21
107.418
0
LINE
5
32D
100
AcDbEntity
8
0
6
ByLayer
62
0
370
-1
100
AcDbLine
10
299.807
20
107.418
11
300.226
21
107.632
0
LINE
5
32E
100
AcDbEntity
8
0
6
ByLayer
62
0
370
-1
100
AcDbLine
10
300.226
20
107.632
11
300.559
21
107.962
0
LINE
5
32F
100
AcDbEntity
8
0
6
ByLayer
62
0
370
-1
100
AcDbLine
10
300.559
20
107.962
11
300.771
21
108.381
0
LINE
5
330
100
AcDbEntity
8
0
6
ByLayer
62
0
370
-1
100
AcDbLine
10
300.771
20
108.381
11
300.845
21
108.844
0
LINE
5
331
100
AcDbEntity
8
0
6
ByLayer
62
0
370
-1
100
AcDbLine
10
300.845
20
108.844
11
300.771
21
109.309
0
LINE
5
332
100
AcDbEntity
8
0
6
ByLayer
62
0
370
-1
100
AcDbLine
10
300.771
20
109.309
11
300.559
21
109.726
0
LINE
5
333
100
AcDbEntity
8
0
6
ByLayer
62
0
370
-1
100
AcDbLine
10
300.559
20
109.726
11
300.226
21
110.059
0
LINE
5
334
100
AcDbEntity
8
0
6
ByLayer
62
0
370
-1
100
AcDbLine
10
300.226
20
110.059
11
299.807
21
110.271
0
LINE
5
335
100
AcDbEntity
8
0
6
ByLayer
62
0
370
-1
100
AcDbLine
10
299.807
20
110.271
11
299.344
21
110.344
0
LINE
5
336
100
AcDbEntity
8
0
6
ByLayer
62
0
370
-1
100
AcDbLine
10
299.344
20
110.344
11
298.881
21
110.271
0
LINE
5
337
100
AcDbEntity
8
0
6
ByLayer
62
0
370
-1
100
AcDbLine
10
2.12907
20
110.271
11
1.71152
21
110.059
0
LINE
5
338
100
AcDbEntity
8
0
6
ByLayer
62
0
370
-1
100
AcDbLine
10
1.71152
20
110.059
11
1.37942
21
109.726
0
LINE
5
339
100
AcDbEntity
8
0
6
ByLayer
62
0
370
-1
100
AcDbLine
10
1.37942
20
109.726
11
1.1672
21
109.309
0
LINE
5
33A
100
AcDbEntity
8
0
6
ByLayer
62
0
370
-1
100
AcDbLine
10
1.1672
20
109.309
11
1.09279
21
108.844
0
LINE
5
33B
100
AcDbEntity
8
0
6
ByLayer
62
0
370
-1
100
AcDbLine
10
1.09279
20
108.844
11
1.1672
21
108.381
0
LINE
5
33C
100
AcDbEntity
8
0
6
ByLayer
62
0
370
-1
100
AcDbLine
10
1.1672
20
108.381
11
1.37942
21
107.962
0
LINE
5
33D
100
AcDbEntity
8
0
6
ByLayer
62
0
370
-1
100
AcDbLine
10
1.37942
20
107.962
11
1.71152
21
107.632
0
LINE
5
33E
100
AcDbEntity
8
0
6
ByLayer
62
0
370
-1
100
AcDbLine
10
1.71152
20
107.632
11
2.12907
21
107.418
0
LINE
5
33F
100
AcDbEntity
8
0
6
ByLayer
62
0
370
-1
100
AcDbLine
10
2.12907
20
107.418
11
2.59347
21
107.344
0
LINE
5
340
100
AcDbEntity
8
0
6
ByLayer
62
0
370
-1
100
AcDbLine
10
2.59347
20
107.344
11
3.05649
21
107.418
0
LINE
5
341
100
AcDbEntity
8
0
6
ByLayer
62
0
370
-1
100
AcDbLine
10
3.05649
20
107.418
11
3.47541
21
107.632
0
LINE
5
342
100
AcDbEntity
8
0
6
ByLayer
62
0
370
-1
100
AcDbLine
10
3.47541
20
107.632
11
3.80615
21
107.962
0
LINE
5
343
100
AcDbEntity
8
0
6
ByLayer
62
0
370
-1
100
AcDbLine
10
3.80615
20
107.962
11
4.01973
21
108.381
0
LINE
5
344
100
AcDbEntity
8
0
6
ByLayer
62
0
370
-1
100
AcDbLine
10
4.01973
20
108.381
11
4.09416
21
108.844
0
LINE
5
345
100
AcDbEntity
8
0
6
ByLayer
62
0
370
-1
100
AcDbLine
10
4.09416
20
108.844
11
4.01973
21
109.309
0
LINE
5
346
100
AcDbEntity
8
0
6
ByLayer
62
0
370
-1
100
AcDbLine
10
4.01973
20
109.309
11
3.80615
21
109.726
0
LINE
5
347
100
AcDbEntity
8
0
6
ByLayer
62
0
370
-1
100
AcDbLine
10
3.80615
20
109.726
11
3.47541
21
110.059
0
LINE
5
348
100
AcDbEntity
8
0
6
ByLayer
62
0
370
-1
100
AcDbLine
10
3.47541
20
110.059
11
3.05649
21
110.271
0
LINE
5
349
100
AcDbEntity
8
0
6
ByLayer
62
0
370
-1
100
AcDbLine
10
3.05649
20
110.271
11
2.59347
21
110.344
0
LINE
5
34A
100
AcDbEntity
8
0
6
ByLayer
62
0
370
-1
100
AcDbLine
10
2.59347
20
110.344
11
2.12907
21
110.271
0
ENDBLK
5
62
330
60
100
AcDbEntity
8
0
100
AcDbBlockEnd
0
BLOCK
5
64
330
63
100
AcDbEntity
8
0
100
AcDbBlockBegin
2
closedlayer-0
70
0
10
0
20
0
3
closedlayer-0
1

0
LINE
5
34B
100
AcDbEntity
8
0
6
ByLayer
62
0
370
-1
100
AcDbLine
10
0.0937066
20
111.344
11
301.844
21
111.344
0
LINE
5
34C
100
AcDbEntity
8
0
6
ByLayer
62
0
370
-1
100
AcDbLine
10
301.844
20
111.344
11
301.844
21
0.0937066
0
LINE
5
34D
100
AcDbEntity
8
0
6
ByLayer
62
0
370
-1
100
AcDbLine
10
301.844
20
0.0937066
11
0.0937066
21
0.0937066
0
LINE
5
34E
100
AcDbEntity
8
0
6
ByLayer
62
0
370
-1
100
AcDbLine
10
0.0937066
20
0.0937066
11
0.0937066
21
111.344
0
LINE
5
34F
100
AcDbEntity
8
0
6
ByLayer
62
0
370
-1
100
AcDbLine
10
298.881
20
4.01973
11
298.462
21
3.80753
0
LINE
5
350
100
AcDbEntity
8
0
6
ByLayer
62
0
370
-1
100
AcDbLine
10
298.462
20
3.80753
11
298.13
21
3.47541
0
LINE
5
351
100
AcDbEntity
8
0
6
ByLayer
62
0
370
-1
100
AcDbLine
10
298.13
20
3.47541
11
297.918
21
3.05649
0
LINE
5
352
100
AcDbEntity
8
0
6
ByLayer
62
0
370
-1
100
AcDbLine
10
297.918
20
3.05649
11
297.845
21
2.59347
0
LINE
5
353
100
AcDbEntity
8
0
6
ByLayer
62
0
370
-1
100
AcDbLine
10
297.845
20
2.59347
11
297.918
21
2.13045
0
LINE
5
354
100
AcDbEntity
8
0
6
ByLayer
62
0
370
-1
100
AcDbLine
10
297.918
20
2.13045
11
298.13
21
1.71152
0
LINE
5
355
100
AcDbEntity
8
0
6
ByLayer
62
0
370
-1
100
AcDbLine
10
298.13
20
1.71152
11
298.462
21
1.37942
0
LINE
5
356
100
AcDbEntity
8
0
6
ByLayer
62
0
370
-1
100
AcDbLine
10
298.462
20
1.37942
11
298.881
21
1.1672
0
LINE
5
357
100
AcDbEntity
8
0
6
ByLayer
62
0
370
-1
100
AcDbLine
10
298.881
20
1.1672
11
299.344
21
1.09416
0
LINE
5
358
100
AcDbEntity
8
0
6
ByLayer
62
0
370
-1
100
AcDbLine
10
299.344
20
1.09416
11
299.807
21
1.1672
0
LINE
5
359
100
AcDbEntity
8
0
6
ByLayer
62
0
370
-1
100
AcDbLine
10
299.807
20
1.1672
11
300.226
21
1.37942
0
LINE
5
35A
100
AcDbEntity
8
0
6
ByLayer
62
0
370
-1
100
AcDbLine
10
300.226
20
1.37942
11
300.559
21
1.71152
0
LINE
5
35B
100
AcDbEntity
8
0
6
ByLayer
62
0
370
-1
100
AcDbLine
10
300.559
20
1.71152
11
300.771
21
2.13045
0
LINE
5
35C
100
AcDbEntity
8
0
6
ByLayer
62
0
370
-1
100
AcDbLine
10
300.771
20
2.13045
11
300.845
21
2.59347
0
LINE
5
35D
100
AcDbEntity
8
0
6
ByLayer
62
0
370
-1
100
AcDbLine
10
300.845
20
2.59347
11
300.771
21
3.05649
0
LINE
5
35E
100
AcDbEntity
8
0
6
ByLayer
62
0
370
-1
100
AcDbLine
10
300.771
20
3.05649
11
300.559
21
3.47541
0
LINE
5
35F
100
AcDbEntity
8
0
6
ByLayer
62
0
370
-1
100
AcDbLine
10
300.559
20
3.47541
11
300.226
21
3.80753
0
LINE
5
360
100
AcDbEntity
8
0
6
ByLayer
62
0
370
-1
100
AcDbLine
10
300.226
20
3.80753
11
299.807
21
4.01973
0
LINE
5
361
100
AcDbEntity
8
0
6
ByLayer
62
0
370
-1
100
AcDbLine
10
299.807
20
4.01973
11
299.344
21
4.09416
0
LINE
5
362
100
AcDbEntity
8
0
6
ByLayer
62
0
370
-1
100
AcDbLine
10
299.344
20
4.09416
11
298.881
21
4.01973
0
LINE
5
363
100
AcDbEntity
8
0
6
ByLayer
62
0
370
-1
100
AcDbLine
10
2.12907
20
4.01973
11
1.71152
21
3.80753
0
LINE
5
364
100
AcDbEntity
8
0
6
ByLayer
62
0
370
-1
100
AcDbLine
10
1.71152
20
3.80753
11
1.37942
21
3.47541
0
LINE
5
365
100
AcDbEntity
8
0
6
ByLayer
62
0
370
-1
100
AcDbLine
10
1.37942
20
3.47541
11
1.1672
21
3.05649
0
LINE
5
366
100
AcDbEntity
8
0
6
ByLayer
62
0
370
-1
100
AcDbLine
10
1.1672
20
3.05649
11
1.09279
21
2.59347
0
LINE
5
367
100
AcDbEntity
8
0
6
ByLayer
62
0
370
-1
100
AcDbLine
10
1.09279
20
2.59347
11
1.1672
21
2.13045
0
LINE
5
368
100
AcDbEntity
8
0
6
ByLayer
62
0
370
-1
100
AcDbLine
10
1.1672
20
2.13045
11
1.37942
21
1.71152
0
LINE
5
369
100
AcDbEntity
8
0
6
ByLayer
62
0
370
-1
100
AcDbLine
10
1.37942
20
1.71152
11
1.71152
21
1.37942
0
LINE
5
36A
100
AcDbEntity
8
0
6
ByLayer
62
0
370
-1
100
AcDbLine
10
1.71152
20
1.37942
11
2.12907
21
1.1672
0
LINE
5
36B
100
AcDbEntity
8
0
6
ByLayer
62
0
370
-1
100
AcDbLine
10
2.12907
20
1.1672
11
2.59347
21
1.09416
0
LINE
5
36C
100
AcDbEntity
8
0
6
ByLayer
62
0
370
-1
100
AcDbLine
10
2.59347
20
1.09416
11
3.05649
21
1.1672
0
LINE
5
36D
100
AcDbEntity
8
0
6
ByLayer
62
0
370
-1
100
AcDbLine
10
3.05649
20
1.1672
11
3.47541
21
1.37942
0
LINE
5
36E
100
AcDbEntity
8
0
6
ByLayer
62
0
370
-1
100
AcDbLine
10
3.47541
20
1.37942
11
3.80615
21
1.71152
0
LINE
5
36F
100
AcDbEntity
8
0
6
ByLayer
62
0
370
-1
100
AcDbLine
10
3.80615
20
1.71152
11
4.01973
21
2.13045
0
LINE
5
370
100
AcDbEntity
8
0
6
ByLayer
62
0
370
-1
100
AcDbLine
10
4.01973
20
2.13045
11
4.09416
21
2.59347
0
LINE
5
371
100
AcDbEntity
8
0
6
ByLayer
62
0
370
-1
100
AcDbLine
10
4.09416
20
2.59347
11
4.01973
21
3.05649
0
LINE
5
372
100
AcDbEntity
8
0
6
ByLayer
62
0
370
-1
100
AcDbLine
10
4.01973
20
3.05649
11
3.80615
21
3.47541
0
LINE
5
373
100
AcDbEntity
8
0
6
ByLayer
62
0
370
-1
100
AcDbLine
10
3.80615
20
3.47541
11
3.47541
21
3.80753
0
LINE
5
374
100
AcDbEntity
8
0
6
ByLayer
62
0
370
-1
100
AcDbLine
10
3.47541
20
3.80753
11
3.05649
21
4.01973
0
LINE
5
375
100
AcDbEntity
8
0
6
ByLayer
62
0
370
-1
100
AcDbLine
10
3.05649
20
4.01973
11
2.59347
21
4.09416
0
LINE
5
376
100
AcDbEntity
8
0
6
ByLayer
62
0
370
-1
100
AcDbLine
10
2.59347
20
4.09416
11
2.12907
21
4.01973
0
LINE
5
377
100
AcDbEntity
8
0
6
ByLayer
62
0
370
-1
100
AcDbLine
10
5.09323
20
106.345
11
296.845
21
106.345
0
LINE
5
378
100
AcDbEntity
8
0
6
ByLayer
62
0
370
-1
100
AcDbLine
10
296.845
20
106.345
11
296.845
21
5.0946
0
LINE
5
379
100
AcDbEntity
8
0
6
ByLayer
62
0
370
-1
100
AcDbLine
10
296.845
20
5.0946
11
5.09323
21
5.0946
0
LINE
5
37A
100
AcDbEntity
8
0
6
ByLayer
62
0
370
-1
100
AcDbLine
10
5.09323
20
5.0946
11
5.09323
21
106.345
0
LINE
5
37B
100
AcDbEntity
8
0
6
ByLayer
62
0
370
-1
100
AcDbLine
10
298.881
20
110.271
11
298.462
21
110.059
0
LINE
5
37C
100
AcDbEntity
8
0
6
ByLayer
62
0
370
-1
100
AcDbLine
10
298.462
20
110.059
11
298.13
21
109.726
0
LINE
5
37D
100
AcDbEntity
8
0
6
ByLayer
62
0
370
-1
100
AcDbLine
10
298.13
20
109.726
11
297.918
21
109.309
0
LINE
5
37E
100
AcDbEntity
8
0
6
ByLayer
62
0
370
-1
100
AcDbLine
10
297.918
20
109.309
11
297.845
21
108.844
0
LINE
5
37F
100
AcDbEntity
8
0
6
ByLayer
62
0
370
-1
100
AcDbLine
10
297.845
20
108.844
11
297.918
21
108.381
0
LINE
5
380
100
AcDbEntity
8
0
6
ByLayer
62
0
370
-1
100
AcDbLine
10
297.918
20
108.381
11
298.13
21
107.962
0
LINE
5
381
100
AcDbEntity
8
0
6
ByLayer
62
0
370
-1
100
AcDbLine
10
298.13
20
107.962
11
298.462
21
107.632
0
LINE
5
382
100
AcDbEntity
8
0
6
ByLayer
62
0
370
-1
100
AcDbLine
10
298.462
20
107.632
11
298.881
21
107.418
0
LINE
5
383
100
AcDbEntity
8
0
6
ByLayer
62
0
370
-1
100
AcDbLine
10
298.881
20
107.418
11
299.344
21
107.344
0
LINE
5
384
100
AcDbEntity
8
0
6
ByLayer
62
0
370
-1
100
AcDbLine
10
299.344
20
107.344
11
299.807
21
107.418
0
LINE
5
385
100
AcDbEntity
8
0
6
ByLayer
62
0
370
-1
100
AcDbLine
10
299.807
20
107.418
11
300.226
21
107.632
0
LINE
5
386
100
AcDbEntity
8
0
6
ByLayer
62
0
370
-1
100
AcDbLine
10
300.226
20
107.632
11
300.559
21
107.962
0
LINE
5
387
100
AcDbEntity
8
0
6
ByLayer
62
0
370
-1
100
AcDbLine
10
300.559
20
107.962
11
300.771
21
108.381
0
LINE
5
388
100
AcDbEntity
8
0
6
ByLayer
62
0
370
-1
100
AcDbLine
10
300.771
20
108.381
11
300.845
21
108.844
0
LINE
5
389
100
AcDbEntity
8
0
6
ByLayer
62
0
370
-1
100
AcDbLine
10
300.845
20
108.844
11
300.771
21
109.309
0
LINE
5
38A
100
AcDbEntity
8
0
6
ByLayer
62
0
370
-1
100
AcDbLine
10
300.771
20
109.309
11
300.559
21
109.726
0
LINE
5
38B
100
AcDbEntity
8
0
6
ByLayer
62
0
370
-1
100
AcDbLine
10
300.559
20
109.726
11
300.226
21
110.059
0
LINE
5
38C
100
AcDbEntity
8
0
6
ByLayer
62
0
370
-1
100
AcDbLine
10
300.226
20
110.059
11
299.807
21
110.271
0
LINE
5
38D
100
AcDbEntity
8
0
6
ByLayer
62
0
370
-1
100
AcDbLine
10
299.807
20
110.271
11
299.344
21
110.344
0
LINE
5
38E
100
AcDbEntity
8
0
6
ByLayer
62
0
370
-1
100
AcDbLine
10
299.344
20
110.344
11
298.881
21
110.271
0
LINE
5
38F
100
AcDbEntity
8
0
6
ByLayer
62
0
370
-1
100
AcDbLine
10
2.12907
20
110.271
11
1.71152
21
110.059
0
LINE
5
390
100
AcDbEntity
8
0
6
ByLayer
62
0
370
-1
100
AcDbLine
10
1.71152
20
110.059
11
1.37942
21
109.726
0
LINE
5
391
100
AcDbEntity
8
0
6
ByLayer
62
0
370
-1
100
AcDbLine
10
1.37942
20
109.726
11
1.1672
21
109.309
0
LINE
5
392
100
AcDbEntity
8
0
6
ByLayer
62
0
370
-1
100
AcDbLine
10
1.1672
20
109.309
11
1.09279
21
108.844
0
LINE
5
393
100
AcDbEntity
8
0
6
ByLayer
62
0
370
-1
100
AcDbLine
10
1.09279
20
108.844
11
1.1672
21
108.381
0
LINE
5
394
100
AcDbEntity
8
0
6
ByLayer
62
0
370
-1
100
AcDbLine
10
1.1672
20
108.381
11
1.37942
21
107.962
0
LINE
5
395
100
AcDbEntity
8
0
6
ByLayer
62
0
370
-1
100
AcDbLine
10
1.37942
20
107.962
11
1.71152
21
107.632
0
LINE
5
396
100
AcDbEntity
8
0
6
ByLayer
62
0
370
-1
100
AcDbLine
10
1.71152
20
107.632
11
2.12907
21
107.418
0
LINE
5
397
100
AcDbEntity
8
0
6
ByLayer
62
0
370
-1
100
AcDbLine
10
2.12907
20
107.418
11
2.59347
21
107.344
0
LINE
5
398
100
AcDbEntity
8
0
6
ByLayer
62
0
370
-1
100
AcDbLine
10
2.59347
20
107.344
11
3.05649
21
107.418
0
LINE
5
399
100
AcDbEntity
8
0
6
ByLayer
62
0
370
-1
100
AcDbLine
10
3.05649
20
107.418
11
3.47541
21
107.632
0
LINE
5
39A
100
AcDbEntity
8
0
6
ByLayer
62
0
370
-1
100
AcDbLine
10
3.47541
20
107.632
11
3.80615
21
107.962
0
LINE
5
39B
100
AcDbEntity
8
0
6
ByLayer
62
0
370
-1
100
AcDbLine
10
3.80615
20
107.962
11
4.01973
21
108.381
0
LINE
5
39C
100
AcDbEntity
8
0
6
ByLayer
62
0
370
-1
100
AcDbLine
10
4.01973
20
108.381
11
4.09416
21
108.844
0
LINE
5
39D
100
AcDbEntity
8
0
6
ByLayer
62
0
370
-1
100
AcDbLine
10
4.09416
20
108.844
11
4.01973
21
109.309
0
LINE
5
39E
100
AcDbEntity
8
0
6
ByLayer
62
0
370
-1
100
AcDbLine
10
4.01973
20
109.309
11
3.80615
21
109.726
0
LINE
5
39F
100
AcDbEntity
8
0
6
ByLayer
62
0
370
-1
100
AcDbLine
10
3.80615
20
109.726
11
3.47541
21
110.059
0
LINE
5
3A0
100
AcDbEntity
8
0
6
ByLayer
62
0
370
-1
100
AcDbLine
10
3.47541
20
110.059
11
3.05649
21
110.271
0
LINE
5
3A1
100
AcDbEntity
8
0
6
ByLayer
62
0
370
-1
100
AcDbLine
10
3.05649
20
110.271
11
2.59347
21
110.344
0
LINE
5
3A2
100
AcDbEntity
8
0
6
ByLayer
62
0
370
-1
100
AcDbLine
10
2.59347
20
110.344
11
2.12907
21
110.271
0
ENDBLK
5
65
330
63
100
AcDbEntity
8
0
100
AcDbBlockEnd
0
BLOCK
5
67
330
66
100
AcDbEntity
8
0
100
AcDbBlockBegin
2
bottomlayer-0
70
0
10
0
20
0
3
bottomlayer-0
1

0
LINE
5
3A3
100
AcDbEntity
8
0
6
ByLayer
62
0
370
-1
100
AcDbLine
10
0.0937066
20
111.344
11
301.844
21
111.344
0
LINE
5
3A4
100
AcDbEntity
8
0
6
ByLayer
62
0
370
-1
100
AcDbLine
10
301.844
20
111.344
11
301.844
21
0.0937066
0
LINE
5
3A5
100
AcDbEntity
8
0
6
ByLayer
62
0
370
-1
100
AcDbLine
10
301.844
20
0.0937066
11
0.0937066
21
0.0937066
0
LINE
5
3A6
100
AcDbEntity
8
0
6
ByLayer
62
0
370
-1
100
AcDbLine
10
0.0937066
20
0.0937066
11
0.0937066
21
111.344
0
LINE
5
3A7
100
AcDbEntity
8
0
6
ByLayer
62
0
370
-1
100
AcDbLine
10
298.881
20
4.01973
11
298.462
21
3.80753
0
LINE
5
3A8
100
AcDbEntity
8
0
6
ByLayer
62
0
370
-1
100
AcDbLine
10
298.462
20
3.80753
11
298.13
21
3.47541
0
LINE
5
3A9
100
AcDbEntity
8
0
6
ByLayer
62
0
370
-1
100
AcDbLine
10
298.13
20
3.47541
11
297.918
21
3.05649
0
LINE
5
3AA
100
AcDbEntity
8
0
6
ByLayer
62
0
370
-1
100
AcDbLine
10
297.918
20
3.05649
11
297.845
21
2.59347
0
LINE
5
3AB
100
AcDbEntity
8
0
6
ByLayer
62
0
370
-1
100
AcDbLine
10
297.845
20
2.59347
11
297.918
21
2.13045
0
LINE
5
3AC
100
AcDbEntity
8
0
6
ByLayer
62
0
370
-1
100
AcDbLine
10
297.918
20
2.13045
11
298.13
21
1.71152
0
LINE
5
3AD
100
AcDbEntity
8
0
6
ByLayer
62
0
370
-1
100
AcDbLine
10
298.13
20
1.71152
11
298.462
21
1.37942
0
LINE
5
3AE
100
AcDbEntity
8
0
6
ByLayer
62
0
370
-1
100
AcDbLine
10
298.462
20
1.37942
11
298.881
21
1.1672
0
LINE
5
3AF
100
AcDbEntity
8
0
6
ByLayer
62
0
370
-1
100
AcDbLine
10
298.881
20
1.1672
11
299.344
21
1.09416
0
LINE
5
3B0
100
AcDbEntity
8
0
6
ByLayer
62
0
370
-1
100
AcDbLine
10
299.344
20
1.09416
11
299.807
21
1.1672
0
LINE
5
3B1
100
AcDbEntity
8
0
6
ByLayer
62
0
370
-1
100
AcDbLine
10
299.807
20
1.1672
11
300.226
21
1.37942
0
LINE
5
3B2
100
AcDbEntity
8
0
6
ByLayer
62
0
370
-1
100
AcDbLine
10
300.226
20
1.37942
11
300.559
21
1.71152
0
LINE
5
3B3
100
AcDbEntity
8
0
6
ByLayer
62
0
370
-1
100
AcDbLine
10
300.559
20
1.71152
11
300.771
21
2.13045
0
LINE
5
3B4
100
AcDbEntity
8
0
6
ByLayer
62
0
370
-1
100
AcDbLine
10
300.771
20
2.13045
11
300.845
21
2.59347
0
LINE
5
3B5
100
AcDbEntity
8
0
6
ByLayer
62
0
370
-1
100
AcDbLine
10
300.845
20
2.59347
11
300.771
21
3.05649
0
LINE
5
3B6
100
AcDbEntity
8
0
6
ByLayer
62
0
370
-1
100
AcDbLine
10
300.771
20
3.05649
11
300.559
21
3.47541
0
LINE
5
3B7
100
AcDbEntity
8
0
6
ByLayer
62
0
370
-1
100
AcDbLine
10
300.559
20
3.47541
11
300.226
21
3.80753
0
LINE
5
3B8
100
AcDbEntity
8
0
6
ByLayer
62
0
370
-1
100
AcDbLine
10
300.226
20
3.80753
11
299.807
21
4.01973
0
LINE
5
3B9
100
AcDbEntity
8
0
6
ByLayer
62
0
370
-1
100
AcDbLine
10
299.807
20
4.01973
11
299.344
21
4.09416
0
LINE
5
3BA
100
AcDbEntity
8
0
6
ByLayer
62
0
370
-1
100
AcDbLine
10
299.344
20
4.09416
11
298.881
21
4.01973
0
LINE
5
3BB
100
AcDbEntity
8
0
6
ByLayer
62
0
370
-1
100
AcDbLine
10
2.12907
20
4.01973
11
1.71152
21
3.80753
0
LINE
5
3BC
100
AcDbEntity
8
0
6
ByLayer
62
0
370
-1
100
AcDbLine
10
1.71152
20
3.80753
11
1.37942
21
3.47541
0
LINE
5
3BD
100
AcDbEntity
8
0
6
ByLayer
62
0
370
-1
100
AcDbLine
10
1.37942
20
3.47541
11
1.1672
21
3.05649
0
LINE
5
3BE
100
AcDbEntity
8
0
6
ByLayer
62
0
370
-1
100
AcDbLine
10
1.1672
20
3.05649
11
1.09279
21
2.59347
0
LINE
5
3BF
100
AcDbEntity
8
0
6
ByLayer
62
0
370
-1
100
AcDbLine
10
1.09279
20
2.59347
11
1.1672
21
2.13045
0
LINE
5
3C0
100
AcDbEntity
8
0
6
ByLayer
62
0
370
-1
100
AcDbLine
10
1.1672
20
2.13045
11
1.37942
21
1.71152
0
LINE
5
3C1
100
AcDbEntity
8
0
6
ByLayer
62
0
370
-1
100
AcDbLine
10
1.37942
20
1.71152
11
1.71152
21
1.37942
0
LINE
5
3C2
100
AcDbEntity
8
0
6
ByLayer
62
0
370
-1
100
AcDbLine
10
1.71152
20
1.37942
11
2.12907
21
1.1672
0
LINE
5
3C3
100
AcDbEntity
8
0
6
ByLayer
62
0
370
-1
100
AcDbLine
10
2.12907
20
1.1672
11
2.59347
21
1.09416
0
LINE
5
3C4
100
AcDbEntity
8
0
6
ByLayer
62
0
370
-1
100
AcDbLine
10
2.59347
20
1.09416
11
3.05649
21
1.1672
0
LINE
5
3C5
100
AcDbEntity
8
0
6
ByLayer
62
0
370
-1
100
AcDbLine
10
3.05649
20
1.1672
11
3.47541
21
1.37942
0
LINE
5
3C6
100
AcDbEntity
8
0
6
ByLayer
62
0
370
-1
100
AcDbLine
10
3.47541
20
1.37942
11
3.80615
21
1.71152
0
LINE
5
3C7
100
AcDbEntity
8
0
6
ByLayer
62
0
370
-1
100
AcDbLine
10
3.80615
20
1.71152
11
4.01973
21
2.13045
0
LINE
5
3C8
100
AcDbEntity
8
0
6
ByLayer
62
0
370
-1
100
AcDbLine
10
4.01973
20
2.13045
11
4.09416
21
2.59347
0
LINE
5
3C9
100
AcDbEntity
8
0
6
ByLayer
62
0
370
-1
100
AcDbLine
10
4.09416
20
2.59347
11
4.01973
21
3.05649
0
LINE
5
3CA
100
AcDbEntity
8
0
6
ByLayer
62
0
370
-1
100
AcDbLine
10
4.01973
20
3.05649
11
3.80615
21
3.47541
0
LINE
5
3CB
100
AcDbEntity
8
0
6
ByLayer
62
0
370
-1
100
AcDbLine
10
3.80615
20
3.47541
11
3.47541
21
3.80753
0
LINE
5
3CC
100
AcDbEntity
8
0
6
ByLayer
62
0
370
-1
100
AcDbLine
10
3.47541
20
3.80753
11
3.05649
21
4.01973
0
LINE
5
3CD
100
AcDbEntity
8
0
6
ByLayer
62
0
370
-1
100
AcDbLine
10
3.05649
20
4.01973
11
2.59347
21
4.09416
0
LINE
5
3CE
100
AcDbEntity
8
0
6
ByLayer
62
0
370
-1
100
AcDbLine
10
2.59347
20
4.09416
11
2.12907
21
4.01973
0
LINE
5
3CF
100
AcDbEntity
8
0
6
ByLayer
62
0
370
-1
100
AcDbLine
10
298.881
20
110.271
11
298.462
21
110.059
0
LINE
5
3D0
100
AcDbEntity
8
0
6
ByLayer
62
0
370
-1
100
AcDbLine
10
298.462
20
110.059
11
298.13
21
109.726
0
LINE
5
3D1
100
AcDbEntity
8
0
6
ByLayer
62
0
370
-1
100
AcDbLine
10
298.13
20
109.726
11
297.918
21
109.309
0
LINE
5
3D2
100
AcDbEntity
8
0
6
ByLayer
62
0
370
-1
100
AcDbLine
10
297.918
20
109.309
11
297.845
21
108.844
0
LINE
5
3D3
100
AcDbEntity
8
0
6
ByLayer
62
0
370
-1
100
AcDbLine
10
297.845
20
108.844
11
297.918
21
108.381
0
LINE
5
3D4
100
AcDbEntity
8
0
6
ByLayer
62
0
370
-1
100
AcDbLine
10
297.918
20
108.381
11
298.13
21
107.962
0
LINE
5
3D5
100
AcDbEntity
8
0
6
ByLayer
62
0
370
-1
100
AcDbLine
10
298.13
20
107.962
11
298.462
21
107.632
0
LINE
5
3D6
100
AcDbEntity
8
0
6
ByLayer
62
0
370
-1
100
AcDbLine
10
298.462
20
107.632
11
298.881
21
107.418
0
LINE
5
3D7
100
AcDbEntity
8
0
6
ByLayer
62
0
370
-1
100
AcDbLine
10
298.881
20
107.418
11
299.344
21
107.344
0
LINE
5
3D8
100
AcDbEntity
8
0
6
ByLayer
62
0
370
-1
100
AcDbLine
10
299.344
20
107.344
11
299.807
21
107.418
0
LINE
5
3D9
100
AcDbEntity
8
0
6
ByLayer
62
0
370
-1
100
AcDbLine
10
299.807
20
107.418
11
300.226
21
107.632
0
LINE
5
3DA
100
AcDbEntity
8
0
6
ByLayer
62
0
370
-1
100
AcDbLine
10
300.226
20
107.632
11
300.559
21
107.962
0
LINE
5
3DB
100
AcDbEntity
8
0
6
ByLayer
62
0
370
-1
100
AcDbLine
10
300.559
20
107.962
11
300.771
21
108.381
0
LINE
5
3DC
100
AcDbEntity
8
0
6
ByLayer
62
0
370
-1
100
AcDbLine
10
300.771
20
108.381
11
300.845
21
108.844
0
LINE
5
3DD
100
AcDbEntity
8
0
6
ByLayer
62
0
370
-1
100
AcDbLine
10
300.845
20
108.844
11
300.771
21
109.309
0
LINE
5
3DE
100
AcDbEntity
8
0
6
ByLayer
62
0
370
-1
100
AcDbLine
10
300.771
20
109.309
11
300.559
21
109.726
0
LINE
5
3DF
100
AcDbEntity
8
0
6
ByLayer
62
0
370
-1
100
AcDbLine
10
300.559
20
109.726
11
300.226
21
110.059
0
LINE
5
3E0
100
AcDbEntity
8
0
6
ByLayer
62
0
370
-1
100
AcDbLine
10
300.226
20
110.059
11
299.807
21
110.271
0
LINE
5
3E1
100
AcDbEntity
8
0
6
ByLayer
62
0
370
-1
100
AcDbLine
10
299.807
20
110.271
11
299.344
21
110.344
0
LINE
5
3E2
100
AcDbEntity
8
0
6
ByLayer
62
0
370
-1
100
AcDbLine
10
299.344
20
110.344
11
298.881
21
110.271
0
LINE
5
3E3
100
AcDbEntity
8
0
6
ByLayer
62
0
370
-1
100
AcDbLine
10
2.12907
20
110.271
11
1.71152
21
110.059
0
LINE
5
3E4
100
AcDbEntity
8
0
6
ByLayer
62
0
370
-1
100
AcDbLine
10
1.71152
20
110.059
11
1.37942
21
109.726
0
LINE
5
3E5
100
AcDbEntity
8
0
6
ByLayer
62
0
370
-1
100
AcDbLine
10
1.37942
20
109.726
11
1.1672
21
109.309
0
LINE
5
3E6
100
AcDbEntity
8
0
6
ByLayer
62
0
370
-1
100
AcDbLine
10
1.1672
20
109.309
11
1.09279
21
108.844
0
LINE
5
3E7
100
AcDbEntity
8
0
6
ByLayer
62
0
370
-1
100
AcDbLine
10
1.09279
20
108.844
11
1.1672
21
108.381
0
LINE
5
3E8
100
AcDbEntity
8
0
6
ByLayer
62
0
370
-1
100
AcDbLine
10
1.1672
20
108.381
11
1.37942
21
107.962
0
LINE
5
3E9
100
AcDbEntity
8
0
6
ByLayer
62
0
370
-1
100
AcDbLine
10
1.37942
20
107.962
11
1.71152
21
107.632
0
LINE
5
3EA
100
AcDbEntity
8
0
6
ByLayer
62
0
370
-1
100
AcDbLine
10
1.71152
20
107.632
11
2.12907
21
107.418
0
LINE
5
3EB
100
AcDbEntity
8
0
6
ByLayer
62
0
370
-1
100
AcDbLine
10
2.12907
20
107.418
11
2.59347
21
107.344
0
LINE
5
3EC
100
AcDbEntity
8
0
6
ByLayer
62
0
370
-1
100
AcDbLine
10
2.59347
20
107.344
11
3.05649
21
107.418
0
LINE
5
3ED
100
AcDbEntity
8
0
6
ByLayer
62
0
370
-1
100
AcDbLine
10
3.05649
20
107.418
11
3.47541
21
107.632
0
LINE
5
3EE
100
AcDbEntity
8
0
6
ByLayer
62
0
370
-1
100
AcDbLine
10
3.47541
20
107.632
11
3.80615
21
107.962
0
LINE
5
3EF
100
AcDbEntity
8
0
6
ByLayer
62
0
370
-1
100
AcDbLine
10
3.80615
20
107.962
11
4.01973
21
108.381
0
LINE
5
3F0
100
AcDbEntity
8
0
6
ByLayer
62
0
370
-1
100
AcDbLine
10
4.01973
20
108.381
11
4.09416
21
108.844
0
LINE
5
3F1
100
AcDbEntity
8
0
6
ByLayer
62
0
370
-1
100
AcDbLine
10
4.09416
20
108.844
11
4.01973
21
109.309
0
LINE
5
3F2
100
AcDbEntity
8
0
6
ByLayer
62
0
370
-1
100
AcDbLine
10
4.01973
20
109.309
11
3.80615
21
109.726
0
LINE
5
3F3
100
AcDbEntity
8
0
6
ByLayer
62
0
370
-1
100
AcDbLine
10
3.80615
20
109.726
11
3.47541
21
110.059
0
LINE
5
3F4
100
AcDbEntity
8
0
6
ByLayer
62
0
370
-1
100
AcDbLine
10
3.47541
20
110.059
11
3.05649
21
110.271
0
LINE
5
3F5
100
AcDbEntity
8
0
6
ByLayer
62
0
370
-1
100
AcDbLine
10
3.05649
20
110.271
11
2.59347
21
110.344
0
LINE
5
3F6
100
AcDbEntity
8
0
6
ByLayer
62
0
370
-1
100
AcDbLine
10
2.59347
20
110.344
11
2.12907
21
110.271
0
ENDBLK
5
68
330
66
100
AcDbEntity
8
0
100
AcDbBlockEnd
0
ENDSEC
0
SECTION
2
ENTITIES
0
LINE
5
3F7
100
AcDbEntity
8
0
6
ByLayer
62
256
370
-1
100
AcDbLine
10
301.7505868
20
-132.5997066
11
301.7505868
21
-243.85
0
LINE
5
3F8
100
AcDbEntity
8
0
6
ByLayer
62
256
370
-1
100
AcDbLine
10
301.7505868
20
-243.85
11
0.000293400000032
21
-243.85
0
LINE
5
3F9
100
AcDbEntity
8
0
6
ByLayer
62
256
370
-1
100
AcDbLine
10
0.000293400000032
20
-243.85
11
0.000293400000032
21
-132.5997066
0
LINE
5
3FA
100
AcDbEntity
8
0
6
ByLayer
62
256
370
-1
100
AcDbLine
10
92.3438868
20
-220.7940066
11
90.6187868
21
-220.7940066
0
LINE
5
3FB
100
AcDbEntity
8
0
6
ByLayer
62
256
370
-1
100
AcDbLine
10
90.6187868
20
-220.7940066
11
90.6187868
21
-219.8735066
0
LINE
5
3FC
100
AcDbEntity
8
0
6
ByLayer
62
256
370
-1
100
AcDbLine
10
90.6187868
20
-219.8735066
11
87.3181868
21
-219.8735066
0
LINE
5
3FD
100
AcDbEntity
8
0
6
ByLayer
62
256
370
-1
100
AcDbLine
10
87.3181868
20
-219.8735066
11
87.3181868
21
-220.7940066
0
LINE
5
3FE
100
AcDbEntity
8
0
6
ByLayer
62
256
370
-1
100
AcDbLine
10
87.3181868
20
-220.7940066
11
85.5930868
21
-220.7940066
0
LINE
5
3FF
100
AcDbEntity
8
0
6
ByLayer
62
256
370
-1
100
AcDbLine
10
85.5930868
20
-220.7940066
11
85.5930868
21
-224.0242066
0
LINE
5
400
100
AcDbEntity
8
0
6
ByLayer
62
256
370
-1
100
AcDbLine
10
85.5930868
20
-224.0242066
11
84.7690868
21
-224.0242066
0
LINE
5
401
100
AcDbEntity
8
0
6
ByLayer
62
256
370
-1
100
AcDbLine
10
84.7690868
20
-224.0242066
11
84.7690868
21
-226.8243066
0
LINE
5
402
100
AcDbEntity
8
0
6
ByLayer
62
256
370
-1
100
AcDbLine
10
84.7690868
20
-226.8243066
11
85.5930868
21
-226.8243066
0
LINE
5
403
100
AcDbEntity
8
0
6
ByLayer
62
256
370
-1
100
AcDbLine
10
85.5930868
20
-226.8243066
11
85.5930868
21
-233.0930066
0
LINE
5
404
100
AcDbEntity
8
0
6
ByLayer
62
256
370
-1
100
AcDbLine
10
85.5930868
20
-233.0930066
11
87.3181868
21
-233.0930066
0
LINE
5
405
100
AcDbEntity
8
0
6
ByLayer
62
256
370
-1
100
AcDbLine
10
87.3181868
20
-233.0930066
11
87.3181868
21
-234.0741866
0
LINE
5
406
100
AcDbEntity
8
0
6
ByLayer
62
256
370
-1
100
AcDbLine
10
87.3181868
20
-234.0741866
11
90.6187868
21
-234.0741866
0
LINE
5
407
100
AcDbEntity
8
0
6
ByLayer
62
256
370
-1
100
AcDbLine
10
90.6187868
20
-234.0741866
11
90.6187868
21
-233.0930066
0
LINE
5
408
100
AcDbEntity
8
0
6
ByLayer
62
256
370
-1
100
AcDbLine
10
90.6187868
20
-233.0930066
11
92.3438868
21
-233.0930066
0
LINE
5
409
100
AcDbEntity
8
0
6
ByLayer
62
256
370
-1
100
AcDbLine
10
92.3438868
20
-233.0930066
11
92.3438868
21
-228.6240066
0
LINE
5
40A
100
AcDbEntity
8
0
6
ByLayer
62
256
370
-1
100
AcDbLine
10
92.3438868
20
-228.6240066
11
131.9685868
21
-228.6240066
0
LINE
5
40B
100
AcDbEntity
8
0
6
ByLayer
62
256
370
-1
100
AcDbLine
10
131.9685868
20
-228.6240066
11
131.9685868
21
-233.3245066
0
LINE
5
40C
100
AcDbEntity
8
0
6
ByLayer
62
256
370
-1
100
AcDbLine
10
131.9685868
20
-233.3245066
11
145.9685868
21
-233.3245066
0
LINE
5
40D
100
AcDbEntity
8
0
6
ByLayer
62
256
370
-1
100
AcDbLine
10
145.9685868
20
-233.3245066
11
145.9685868
21
-228.6240066
0
LINE
5
40E
100
AcDbEntity
8
0
6
ByLayer
62
256
370
-1
100
AcDbLine
10
145.9685868
20
-228.6240066
11
185.5925868
21
-228.6240066
0
LINE
5
40F
100
AcDbEntity
8
0
6
ByLayer
62
256
370
-1
100
AcDbLine
10
185.5925868
20
-228.6240066
11
185.5925868
21
-233.0930066
0
LINE
5
410
100
AcDbEntity
8
0
6
ByLayer
62
256
370
-1
100
AcDbLine
10
185.5925868
20
-233.0930066
11
187.3185868
21
-233.0930066
0
LINE
5
411
100
AcDbEntity
8
0
6
ByLayer
62
256
370
-1
100
AcDbLine
10
187.3185868
20
-233.0930066
11
187.3185868
21
-234.0741866
0
LINE
5
412
100
AcDbEntity
8
0
6
ByLayer
62
256
370
-1
100
AcDbLine
10
187.3185868
20
-234.0741866
11
190.6185868
21
-234.0741866
0
LINE
5
413
100
AcDbEntity
8
0
6
ByLayer
62
256
370
-1
100
AcDbLine
10
190.6185868
20
-234.0741866
11
190.6185868
21
-233.0930066
0
LINE
5
414
100
AcDbEntity
8
0
6
ByLayer
62
256
370
-1
100
AcDbLine
10
190.6185868
20
-233.0930066
11
192.3425868
21
-233.0930066
0
LINE
5
415
100
AcDbEntity
8
0
6
ByLayer
62
256
370
-1
100
AcDbLine
10
192.3425868
20
-233.0930066
11
192.3425868
21
-226.8243066
0
LINE
5
416
100
AcDbEntity
8
0
6
ByLayer
62
256
370
-1
100
AcDbLine
10
192.3425868
20
-226.8243066
11
193.1685868
21
-226.8243066
0
LINE
5
417
100
AcDbEntity
8
0
6
ByLayer
62
256
370
-1
100
AcDbLine
10
193.1685868
20
-226.8243066
11
193.1685868
21
-224.0242066
0
LINE
5
418
100
AcDbEntity
8
0
6
ByLayer
62
256
370
-1
100
AcDbLine
10
193.1685868
20
-224.0242066
11
192.3425868
21
-224.0242066
0
LINE
5
419
100
AcDbEntity
8
0
6
ByLayer
62
256
370
-1
100
AcDbLine
10
192.3425868
20
-224.0242066
11
192.3425868
21
-220.7940066
0
LINE
5
41A
100
AcDbEntity
8
0
6
ByLayer
62
256
370
-1
100
AcDbLine
10
192.3425868
20
-220.7940066
11
190.6185868
21
-220.7940066
0
LINE
5
41B
100
AcDbEntity
8
0
6
ByLayer
62
256
370
-1
100
AcDbLine
10
190.6185868
20
-220.7940066
11
190.6185868
21
-219.8735066
0
LINE
5
41C
100
AcDbEntity
8
0
6
ByLayer
62
256
370
-1
100
AcDbLine
10
190.6185868
20
-219.8735066
11
187.3185868
21
-219.8735066
0
LINE
5
41D
100
AcDbEntity
8
0
6
ByLayer
62
256
370
-1
100
AcDbLine
10
187.3185868
20
-219.8735066
11
187.3185868
21
-220.7940066
0
LINE
5
41E
100
AcDbEntity
8
0
6
ByLayer
62
256
370
-1
100
AcDbLine
10
187.3185868
20
-220.7940066
11
185.5925868
21
-220.7940066
0
LINE
5
41F
100
AcDbEntity
8
0
6
ByLayer
62
256
370
-1
100
AcDbLine
10
145.9685868
20
-219.3250066
11
131.9685868
21
-219.3250066
0
LINE
5
420
100
AcDbEntity
8
0
6
ByLayer
62
256
370
-1
100
AcDbLine
10
12.9069868
20
-219.3250066
11
26.9064868
21
-219.3250066
0
LINE
5
421
100
AcDbEntity
8
0
6
ByLayer
62
256
370
-1
100
AcDbLine
10
26.9064868
20
-219.3250066
11
26.9064868
21
-233.3245066
0
LINE
5
422
100
AcDbEntity
8
0
6
ByLayer
62
256
370
-1
100
AcDbLine
10
26.9064868
20
-233.3245066
11
12.9069868
21
-233.3245066
0
LINE
5
423
100
AcDbEntity
8
0
6
ByLayer
62
256
370
-1
100
AcDbLine
10
12.9069868
20
-233.3245066
11
12.9069868
21
-219.3250066
0
LINE
5
424
100
AcDbEntity
8
0
6
ByLayer
62
256
370
-1
100
AcDbLine
10
36.7182868
20
-219.3250066
11
50.7188868
21
-219.3250066
0
LINE
5
425
100
AcDbEntity
8
0
6
ByLayer
62
256
370
-1
100
AcDbLine
10
50.7188868
20
-219.3250066
11
50.7188868
21
-233.3245066
0
LINE
5
426
100
AcDbEntity
8
0
6
ByLayer
62
256
370
-1
100
AcDbLine
10
50.7188868
20
-233.3245066
11
36.7182868
21
-233.3245066
0
LINE
5
427
100
AcDbEntity
8
0
6
ByLayer
62
256
370
-1
100
AcDbLine
10
36.7182868
20
-233.3245066
11
36.7182868
21
-219.3250066
0
LINE
5
428
100
AcDbEntity
8
0
6
ByLayer
62
256
370
-1
100
AcDbLine
10
60.5321868
20
-219.3250066
11
74.5313868
21
-219.3250066
0
LINE
5
429
100
AcDbEntity
8
0
6
ByLayer
62
256
370
-1
100
AcDbLine
10
74.5313868
20
-219.3250066
11
74.5313868
21
-233.3245066
0
LINE
5
42A
100
AcDbEntity
8
0
6
ByLayer
62
256
370
-1
100
AcDbLine
10
74.5313868
20
-233.3245066
11
60.5321868
21
-233.3245066
0
LINE
5
42B
100
AcDbEntity
8
0
6
ByLayer
62
256
370
-1
100
AcDbLine
10
60.5321868
20
-233.3245066
11
60.5321868
21
-219.3250066
0
LINE
5
42C
100
AcDbEntity
8
0
6
ByLayer
62
256
370
-1
100
AcDbLine
10
203.4075868
20
-219.3250066
11
217.4065868
21
-219.3250066
0
LINE
5
42D
100
AcDbEntity
8
0
6
ByLayer
62
256
370
-1
100
AcDbLine
10
217.4065868
20
-219.3250066
11
217.4065868
21
-233.3245066
0
LINE
5
42E
100
AcDbEntity
8
0
6
ByLayer
62
256
370
-1
100
AcDbLine
10
217.4065868
20
-233.3245066
11
203.4075868
21
-233.3245066
0
LINE
5
42F
100
AcDbEntity
8
0
6
ByLayer
62
256
370
-1
100
AcDbLine
10
203.4075868
20
-233.3245066
11
203.4075868
21
-219.3250066
0
LINE
5
430
100
AcDbEntity
8
0
6
ByLayer
62
256
370
-1
100
AcDbLine
10
227.2185868
20
-219.3250066
11
241.2185868
21
-219.3250066
0
LINE
5
431
100
AcDbEntity
8
0
6
ByLayer
62
256
370
-1
100
AcDbLine
10
241.2185868
20
-219.3250066
11
241.2185868
21
-233.3245066
0
LINE
5
432
100
AcDbEntity
8
0
6
ByLayer
62
256
370
-1
100
AcDbLine
10
241.2185868
20
-233.3245066
11
227.2185868
21
-233.3245066
0
LINE
5
433
100
AcDbEntity
8
0
6
ByLayer
62
256
370
-1
100
AcDbLine
10
227.2185868
20
-233.3245066
11
227.2185868
21
-219.3250066
0
LINE
5
434
100
AcDbEntity
8
0
6
ByLayer
62
256
370
-1
100
AcDbLine
10
251.0325868
20
-219.3250066
11
265.0315868
21
-219.3250066
0
LINE
5
435
100
AcDbEntity
8
0
6
ByLayer
62
256
370
-1
100
AcDbLine
10
265.0315868
20
-219.3250066
11
265.0315868
21
-233.3245066
0
LINE
5
436
100
AcDbEntity
8
0
6
ByLayer
62
256
370
-1
100
AcDbLine
10
265.0315868
20
-233.3245066
11
251.0325868
21
-233.3245066
0
LINE
5
437
100
AcDbEntity
8
0
6
ByLayer
62
256
370
-1
100
AcDbLine
10
251.0325868
20
-233.3245066
11
251.0325868
21
-219.3250066
0
LINE
5
438
100
AcDbEntity
8
0
6
ByLayer
62
256
370
-1
100
AcDbLine
10
274.8435868
20
-219.3250066
11
288.8435868
21
-219.3250066
0
LINE
5
439
100
AcDbEntity
8
0
6
ByLayer
62
256
370
-1
100
AcDbLine
10
288.8435868
20
-219.3250066
11
288.8435868
21
-233.3245066
0
LINE
5
43A
100
AcDbEntity
8
0
6
ByLayer
62
256
370
-1
100
AcDbLine
10
288.8435868
20
-233.3245066
11
274.8435868
21
-233.3245066
0
LINE
5
43B
100
AcDbEntity
8
0
6
ByLayer
62
256
370
-1
100
AcDbLine
10
274.8435868
20
-233.3245066
11
274.8435868
21
-219.3250066
0
LINE
5
43C
100
AcDbEntity
8
0
6
ByLayer
62
256
370
-1
100
AcDbLine
10
22.4319868
20
-200.2751066
11
22.4319868
21
-204.9741066
0
LINE
5
43D
100
AcDbEntity
8
0
6
ByLayer
62
256
370
-1
100
AcDbLine
10
22.4319868
20
-204.9741066
11
20.9064868
21
-204.9741066
0
LINE
5
43E
100
AcDbEntity
8
0
6
ByLayer
62
256
370
-1
100
AcDbLine
10
20.9064868
20
-204.9741066
11
20.9064868
21
-201.7441066
0
LINE
5
43F
100
AcDbEntity
8
0
6
ByLayer
62
256
370
-1
100
AcDbLine
10
20.9064868
20
-201.7441066
11
19.1811868
21
-201.7441066
0
LINE
5
440
100
AcDbEntity
8
0
6
ByLayer
62
256
370
-1
100
AcDbLine
10
19.1811868
20
-201.7441066
11
19.1811868
21
-200.8247066
0
LINE
5
441
100
AcDbEntity
8
0
6
ByLayer
62
256
370
-1
100
AcDbLine
10
19.1811868
20
-200.8247066
11
15.8807868
21
-200.8247066
0
LINE
5
442
100
AcDbEntity
8
0
6
ByLayer
62
256
370
-1
100
AcDbLine
10
15.8807868
20
-200.8247066
11
15.8807868
21
-201.7441066
0
LINE
5
443
100
AcDbEntity
8
0
6
ByLayer
62
256
370
-1
100
AcDbLine
10
15.8807868
20
-201.7441066
11
14.1568868
21
-201.7441066
0
LINE
5
444
100
AcDbEntity
8
0
6
ByLayer
62
256
370
-1
100
AcDbLine
10
14.1568868
20
-201.7441066
11
14.1568868
21
-204.9741066
0
LINE
5
445
100
AcDbEntity
8
0
6
ByLayer
62
256
370
-1
100
AcDbLine
10
14.1568868
20
-204.9741066
11
13.3314868
21
-204.9741066
0
LINE
5
446
100
AcDbEntity
8
0
6
ByLayer
62
256
370
-1
100
AcDbLine
10
13.3314868
20
-204.9741066
11
13.3314868
21
-207.7745066
0
LINE
5
447
100
AcDbEntity
8
0
6
ByLayer
62
256
370
-1
100
AcDbLine
10
13.3314868
20
-207.7745066
11
14.1568868
21
-207.7745066
0
LINE
5
448
100
AcDbEntity
8
0
6
ByLayer
62
256
370
-1
100
AcDbLine
10
14.1568868
20
-207.7745066
11
14.1568868
21
-214.0444066
0
LINE
5
449
100
AcDbEntity
8
0
6
ByLayer
62
256
370
-1
100
AcDbLine
10
14.1568868
20
-214.0444066
11
15.8807868
21
-214.0444066
0
LINE
5
44A
100
AcDbEntity
8
0
6
ByLayer
62
256
370
-1
100
AcDbLine
10
15.8807868
20
-214.0444066
11
15.8807868
21
-215.0242066
0
LINE
5
44B
100
AcDbEntity
8
0
6
ByLayer
62
256
370
-1
100
AcDbLine
10
15.8807868
20
-215.0242066
11
19.1811868
21
-215.0242066
0
LINE
5
44C
100
AcDbEntity
8
0
6
ByLayer
62
256
370
-1
100
AcDbLine
10
19.1811868
20
-215.0242066
11
19.1811868
21
-214.0444066
0
LINE
5
44D
100
AcDbEntity
8
0
6
ByLayer
62
256
370
-1
100
AcDbLine
10
19.1811868
20
-214.0444066
11
20.9064868
21
-214.0444066
0
LINE
5
44E
100
AcDbEntity
8
0
6
ByLayer
62
256
370
-1
100
AcDbLine
10
20.9064868
20
-214.0444066
11
20.9064868
21
-209.5740066
0
LINE
5
44F
100
AcDbEntity
8
0
6
ByLayer
62
256
370
-1
100
AcDbLine
10
20.9064868
20
-209.5740066
11
22.4319868
21
-209.5740066
0
LINE
5
450
100
AcDbEntity
8
0
6
ByLayer
62
256
370
-1
100
AcDbLine
10
22.4319868
20
-209.5740066
11
22.4319868
21
-214.2745066
0
LINE
5
451
100
AcDbEntity
8
0
6
ByLayer
62
256
370
-1
100
AcDbLine
10
22.4319868
20
-214.2745066
11
36.4313868
21
-214.2745066
0
LINE
5
452
100
AcDbEntity
8
0
6
ByLayer
62
256
370
-1
100
AcDbLine
10
36.4313868
20
-214.2745066
11
36.4313868
21
-209.5740066
0
LINE
5
453
100
AcDbEntity
8
0
6
ByLayer
62
256
370
-1
100
AcDbLine
10
36.4313868
20
-209.5740066
11
37.9568868
21
-209.5740066
0
LINE
5
454
100
AcDbEntity
8
0
6
ByLayer
62
256
370
-1
100
AcDbLine
10
37.9568868
20
-209.5740066
11
37.9568868
21
-214.0444066
0
LINE
5
455
100
AcDbEntity
8
0
6
ByLayer
62
256
370
-1
100
AcDbLine
10
37.9568868
20
-214.0444066
11
39.6808868
21
-214.0444066
0
LINE
5
456
100
AcDbEntity
8
0
6
ByLayer
62
256
370
-1
100
AcDbLine
10
39.6808868
20
-214.0444066
11
39.6808868
21
-215.0242066
0
LINE
5
457
100
AcDbEntity
8
0
6
ByLayer
62
256
370
-1
100
AcDbLine
10
39.6808868
20
-215.0242066
11
42.9814868
21
-215.0242066
0
LINE
5
458
100
AcDbEntity
8
0
6
ByLayer
62
256
370
-1
100
AcDbLine
10
42.9814868
20
-215.0242066
11
42.9814868
21
-214.0444066
0
LINE
5
459
100
AcDbEntity
8
0
6
ByLayer
62
256
370
-1
100
AcDbLine
10
42.9814868
20
-214.0444066
11
44.7065868
21
-214.0444066
0
LINE
5
45A
100
AcDbEntity
8
0
6
ByLayer
62
256
370
-1
100
AcDbLine
10
44.7065868
20
-214.0444066
11
44.7065868
21
-207.7745066
0
LINE
5
45B
100
AcDbEntity
8
0
6
ByLayer
62
256
370
-1
100
AcDbLine
10
44.7065868
20
-207.7745066
11
45.5305868
21
-207.7745066
0
LINE
5
45C
100
AcDbEntity
8
0
6
ByLayer
62
256
370
-1
100
AcDbLine
10
45.5305868
20
-207.7745066
11
45.5305868
21
-204.9741066
0
LINE
5
45D
100
AcDbEntity
8
0
6
ByLayer
62
256
370
-1
100
AcDbLine
10
45.5305868
20
-204.9741066
11
44.7065868
21
-204.9741066
0
LINE
5
45E
100
AcDbEntity
8
0
6
ByLayer
62
256
370
-1
100
AcDbLine
10
44.7065868
20
-204.9741066
11
44.7065868
21
-201.7441066
0
LINE
5
45F
100
AcDbEntity
8
0
6
ByLayer
62
256
370
-1
100
AcDbLine
10
44.7065868
20
-201.7441066
11
42.9814868
21
-201.7441066
0
LINE
5
460
100
AcDbEntity
8
0
6
ByLayer
62
256
370
-1
100
AcDbLine
10
42.9814868
20
-201.7441066
11
42.9814868
21
-200.8247066
0
LINE
5
461
100
AcDbEntity
8
0
6
ByLayer
62
256
370
-1
100
AcDbLine
10
42.9814868
20
-200.8247066
11
39.6808868
21
-200.8247066
0
LINE
5
462
100
AcDbEntity
8
0
6
ByLayer
62
256
370
-1
100
AcDbLine
10
39.6808868
20
-200.8247066
11
39.6808868
21
-201.7441066
0
LINE
5
463
100
AcDbEntity
8
0
6
ByLayer
62
256
370
-1
100
AcDbLine
10
39.6808868
20
-201.7441066
11
37.9568868
21
-201.7441066
0
LINE
5
464
100
AcDbEntity
8
0
6
ByLayer
62
256
370
-1
100
AcDbLine
10
37.9568868
20
-201.7441066
11
37.9568868
21
-204.9741066
0
LINE
5
465
100
AcDbEntity
8
0
6
ByLayer
62
256
370
-1
100
AcDbLine
10
37.9568868
20
-204.9741066
11
36.4313868
21
-204.9741066
0
LINE
5
466
100
AcDbEntity
8
0
6
ByLayer
62
256
370
-1
100
AcDbLine
10
36.4313868
20
-204.9741066
11
36.4313868
21
-200.2751066
0
LINE
5
467
100
AcDbEntity
8
0
6
ByLayer
62
256
370
-1
100
AcDbLine
10
36.4313868
20
-200.2751066
11
22.4319868
21
-200.2751066
0
LINE
5
468
100
AcDbEntity
8
0
6
ByLayer
62
256
370
-1
100
AcDbLine
10
260.5575868
20
-200.2751066
11
260.5575868
21
-204.9741066
0
LINE
5
469
100
AcDbEntity
8
0
6
ByLayer
62
256
370
-1
100
AcDbLine
10
260.5575868
20
-204.9741066
11
259.0315868
21
-204.9741066
0
LINE
5
46A
100
AcDbEntity
8
0
6
ByLayer
62
256
370
-1
100
AcDbLine
10
259.0315868
20
-204.9741066
11
259.0315868
21
-201.7441066
0
LINE
5
46B
100
AcDbEntity
8
0
6
ByLayer
62
256
370
-1
100
AcDbLine
10
259.0315868
20
-201.7441066
11
257.3065868
21
-201.7441066
0
LINE
5
46C
100
AcDbEntity
8
0
6
ByLayer
62
256
370
-1
100
AcDbLine
10
257.3065868
20
-201.7441066
11
257.3065868
21
-200.8247066
0
LINE
5
46D
100
AcDbEntity
8
0
6
ByLayer
62
256
370
-1
100
AcDbLine
10
257.3065868
20
-200.8247066
11
254.0055868
21
-200.8247066
0
LINE
5
46E
100
AcDbEntity
8
0
6
ByLayer
62
256
370
-1
100
AcDbLine
10
254.0055868
20
-200.8247066
11
254.0055868
21
-201.7441066
0
LINE
5
46F
100
AcDbEntity
8
0
6
ByLayer
62
256
370
-1
100
AcDbLine
10
254.0055868
20
-201.7441066
11
252.2815868
21
-201.7441066
0
LINE
5
470
100
AcDbEntity
8
0
6
ByLayer
62
256
370
-1
100
AcDbLine
10
252.2815868
20
-201.7441066
11
252.2815868
21
-204.9741066
0
LINE
5
471
100
AcDbEntity
8
0
6
ByLayer
62
256
370
-1
100
AcDbLine
10
252.2815868
20
-204.9741066
11
251.4565868
21
-204.9741066
0
LINE
5
472
100
AcDbEntity
8
0
6
ByLayer
62
256
370
-1
100
AcDbLine
10
251.4565868
20
-204.9741066
11
251.4565868
21
-207.7745066
0
LINE
5
473
100
AcDbEntity
8
0
6
ByLayer
62
256
370
-1
100
AcDbLine
10
251.4565868
20
-207.7745066
11
252.2815868
21
-207.7745066
0
LINE
5
474
100
AcDbEntity
8
0
6
ByLayer
62
256
370
-1
100
AcDbLine
10
252.2815868
20
-207.7745066
11
252.2815868
21
-214.0444066
0
LINE
5
475
100
AcDbEntity
8
0
6
ByLayer
62
256
370
-1
100
AcDbLine
10
252.2815868
20
-214.0444066
11
254.0055868
21
-214.0444066
0
LINE
5
476
100
AcDbEntity
8
0
6
ByLayer
62
256
370
-1
100
AcDbLine
10
254.0055868
20
-214.0444066
11
254.0055868
21
-215.0242066
0
LINE
5
477
100
AcDbEntity
8
0
6
ByLayer
62
256
370
-1
100
AcDbLine
10
254.0055868
20
-215.0242066
11
257.3065868
21
-215.0242066
0
LINE
5
478
100
AcDbEntity
8
0
6
ByLayer
62
256
370
-1
100
AcDbLine
10
257.3065868
20
-215.0242066
11
257.3065868
21
-214.0444066
0
LINE
5
479
100
AcDbEntity
8
0
6
ByLayer
62
256
370
-1
100
AcDbLine
10
257.3065868
20
-214.0444066
11
259.0315868
21
-214.0444066
0
LINE
5
47A
100
AcDbEntity
8
0
6
ByLayer
62
256
370
-1
100
AcDbLine
10
259.0315868
20
-214.0444066
11
259.0315868
21
-209.5740066
0
LINE
5
47B
100
AcDbEntity
8
0
6
ByLayer
62
256
370
-1
100
AcDbLine
10
259.0315868
20
-209.5740066
11
260.5575868
21
-209.5740066
0
LINE
5
47C
100
AcDbEntity
8
0
6
ByLayer
62
256
370
-1
100
AcDbLine
10
260.5575868
20
-209.5740066
11
260.5575868
21
-214.2745066
0
LINE
5
47D
100
AcDbEntity
8
0
6
ByLayer
62
256
370
-1
100
AcDbLine
10
260.5575868
20
-214.2745066
11
274.5565868
21
-214.2745066
0
LINE
5
47E
100
AcDbEntity
8
0
6
ByLayer
62
256
370
-1
100
AcDbLine
10
274.5565868
20
-214.2745066
11
274.5565868
21
-209.5740066
0
LINE
5
47F
100
AcDbEntity
8
0
6
ByLayer
62
256
370
-1
100
AcDbLine
10
274.5565868
20
-209.5740066
11
276.0815868
21
-209.5740066
0
LINE
5
480
100
AcDbEntity
8
0
6
ByLayer
62
256
370
-1
100
AcDbLine
10
276.0815868
20
-209.5740066
11
276.0815868
21
-214.0444066
0
LINE
5
481
100
AcDbEntity
8
0
6
ByLayer
62
256
370
-1
100
AcDbLine
10
276.0815868
20
-214.0444066
11
277.8055868
21
-214.0444066
0
LINE
5
482
100
AcDbEntity
8
0
6
ByLayer
62
256
370
-1
100
AcDbLine
10
277.8055868
20
-214.0444066
11
277.8055868
21
-215.0242066
0
LINE
5
483
100
AcDbEntity
8
0
6
ByLayer
62
256
370
-1
100
AcDbLine
10
277.8055868
20
-215.0242066
11
281.1065868
21
-215.0242066
0
LINE
5
484
100
AcDbEntity
8
0
6
ByLayer
62
256
370
-1
100
AcDbLine
10
281.1065868
20
-215.0242066
11
281.1065868
21
-214.0444066
0
LINE
5
485
100
AcDbEntity
8
0
6
ByLayer
62
256
370
-1
100
AcDbLine
10
281.1065868
20
-214.0444066
11
282.8315868
21
-214.0444066
0
LINE
5
486
100
AcDbEntity
8
0
6
ByLayer
62
256
370
-1
100
AcDbLine
10
282.8315868
20
-214.0444066
11
282.8315868
21
-207.7745066
0
LINE
5
487
100
AcDbEntity
8
0
6
ByLayer
62
256
370
-1
100
AcDbLine
10
282.8315868
20
-207.7745066
11
283.6555868
21
-207.7745066
0
LINE
5
488
100
AcDbEntity
8
0
6
ByLayer
62
256
370
-1
100
AcDbLine
10
283.6555868
20
-207.7745066
11
283.6555868
21
-204.9741066
0
LINE
5
489
100
AcDbEntity
8
0
6
ByLayer
62
256
370
-1
100
AcDbLine
10
283.6555868
20
-204.9741066
11
282.8315868
21
-204.9741066
0
LINE
5
48A
100
AcDbEntity
8
0
6
ByLayer
62
256
370
-1
100
AcDbLine
10
282.8315868
20
-204.9741066
11
282.8315868
21
-201.7441066
0
LINE
5
48B
100
AcDbEntity
8
0
6
ByLayer
62
256
370
-1
100
AcDbLine
10
282.8315868
20
-201.7441066
11
281.1065868
21
-201.7441066
0
LINE
5
48C
100
AcDbEntity
8
0
6
ByLayer
62
256
370
-1
100
AcDbLine
10
281.1065868
20
-201.7441066
11
281.1065868
21
-200.8247066
0
LINE
5
48D
100
AcDbEntity
8
0
6
ByLayer
62
256
370
-1
100
AcDbLine
10
281.1065868
20
-200.8247066
11
277.8055868
21
-200.8247066
0
LINE
5
48E
100
AcDbEntity
8
0
6
ByLayer
62
256
370
-1
100
AcDbLine
10
277.8055868
20
-200.8247066
11
277.8055868
21
-201.7441066
0
LINE
5
48F
100
AcDbEntity
8
0
6
ByLayer
62
256
370
-1
100
AcDbLine
10
277.8055868
20
-201.7441066
11
276.0815868
21
-201.7441066
0
LINE
5
490
100
AcDbEntity
8
0
6
ByLayer
62
256
370
-1
100
AcDbLine
10
276.0815868
20
-201.7441066
11
276.0815868
21
-204.9741066
0
LINE
5
491
100
AcDbEntity
8
0
6
ByLayer
62
256
370
-1
100
AcDbLine
10
276.0815868
20
-204.9741066
11
274.5565868
21
-204.9741066
0
LINE
5
492
100
AcDbEntity
8
0
6
ByLayer
62
256
370
-1
100
AcDbLine
10
274.5565868
20
-204.9741066
11
274.5565868
21
-200.2751066
0
LINE
5
493
100
AcDbEntity
8
0
6
ByLayer
62
256
370
-1
100
AcDbLine
10
274.5565868
20
-200.2751066
11
260.5575868
21
-200.2751066
0
LINE
5
494
100
AcDbEntity
8
0
6
ByLayer
62
256
370
-1
100
AcDbLine
10
53.3869868
20
-200.2751066
11
67.3876868
21
-200.2751066
0
LINE
5
495
100
AcDbEntity
8
0
6
ByLayer
62
256
370
-1
100
AcDbLine
10
67.3876868
20
-200.2751066
11
67.3876868
21
-214.2745066
0
LINE
5
496
100
AcDbEntity
8
0
6
ByLayer
62
256
370
-1
100
AcDbLine
10
67.3876868
20
-214.2745066
11
53.3869868
21
-214.2745066
0
LINE
5
497
100
AcDbEntity
8
0
6
ByLayer
62
256
370
-1
100
AcDbLine
10
53.3869868
20
-214.2745066
11
53.3869868
21
-200.2751066
0
LINE
5
498
100
AcDbEntity
8
0
6
ByLayer
62
256
370
-1
100
AcDbLine
10
72.4369868
20
-200.2751066
11
86.4376868
21
-200.2751066
0
LINE
5
499
100
AcDbEntity
8
0
6
ByLayer
62
256
370
-1
100
AcDbLine
10
86.4376868
20
-200.2751066
11
86.4376868
21
-214.2745066
0
LINE
5
49A
100
AcDbEntity
8
0
6
ByLayer
62
256
370
-1
100
AcDbLine
10
86.4376868
20
-214.2745066
11
72.4369868
21
-214.2745066
0
LINE
5
49B
100
AcDbEntity
8
0
6
ByLayer
62
256
370
-1
100
AcDbLine
10
72.4369868
20
-214.2745066
11
72.4369868
21
-200.2751066
0
LINE
5
49C
100
AcDbEntity
8
0
6
ByLayer
62
256
370
-1
100
AcDbLine
10
91.4869868
20
-200.2751066
11
105.4875868
21
-200.2751066
0
LINE
5
49D
100
AcDbEntity
8
0
6
ByLayer
62
256
370
-1
100
AcDbLine
10
105.4875868
20
-200.2751066
11
105.4875868
21
-214.2745066
0
LINE
5
49E
100
AcDbEntity
8
0
6
ByLayer
62
256
370
-1
100
AcDbLine
10
105.4875868
20
-214.2745066
11
91.4869868
21
-214.2745066
0
LINE
5
49F
100
AcDbEntity
8
0
6
ByLayer
62
256
370
-1
100
AcDbLine
10
91.4869868
20
-214.2745066
11
91.4869868
21
-200.2751066
0
LINE
5
4A0
100
AcDbEntity
8
0
6
ByLayer
62
256
370
-1
100
AcDbLine
10
110.5365868
20
-200.2751066
11
124.5375868
21
-200.2751066
0
LINE
5
4A1
100
AcDbEntity
8
0
6
ByLayer
62
256
370
-1
100
AcDbLine
10
124.5375868
20
-200.2751066
11
124.5375868
21
-214.2745066
0
LINE
5
4A2
100
AcDbEntity
8
0
6
ByLayer
62
256
370
-1
100
AcDbLine
10
124.5375868
20
-214.2745066
11
110.5365868
21
-214.2745066
0
LINE
5
4A3
100
AcDbEntity
8
0
6
ByLayer
62
256
370
-1
100
AcDbLine
10
110.5365868
20
-214.2745066
11
110.5365868
21
-200.2751066
0
LINE
5
4A4
100
AcDbEntity
8
0
6
ByLayer
62
256
370
-1
100
AcDbLine
10
129.5865868
20
-200.2751066
11
143.5875868
21
-200.2751066
0
LINE
5
4A5
100
AcDbEntity
8
0
6
ByLayer
62
256
370
-1
100
AcDbLine
10
143.5875868
20
-200.2751066
11
143.5875868
21
-214.2745066
0
LINE
5
4A6
100
AcDbEntity
8
0
6
ByLayer
62
256
370
-1
100
AcDbLine
10
143.5875868
20
-214.2745066
11
129.5865868
21
-214.2745066
0
LINE
5
4A7
100
AcDbEntity
8
0
6
ByLayer
62
256
370
-1
100
AcDbLine
10
129.5865868
20
-214.2745066
11
129.5865868
21
-200.2751066
0
LINE
5
4A8
100
AcDbEntity
8
0
6
ByLayer
62
256
370
-1
100
AcDbLine
10
148.6365868
20
-200.2751066
11
162.6375868
21
-200.2751066
0
LINE
5
4A9
100
AcDbEntity
8
0
6
ByLayer
62
256
370
-1
100
AcDbLine
10
162.6375868
20
-200.2751066
11
162.6375868
21
-214.2745066
0
LINE
5
4AA
100
AcDbEntity
8
0
6
ByLayer
62
256
370
-1
100
AcDbLine
10
162.6375868
20
-214.2745066
11
148.6365868
21
-214.2745066
0
LINE
5
4AB
100
AcDbEntity
8
0
6
ByLayer
62
256
370
-1
100
AcDbLine
10
148.6365868
20
-214.2745066
11
148.6365868
21
-200.2751066
0
LINE
5
4AC
100
AcDbEntity
8
0
6
ByLayer
62
256
370
-1
100
AcDbLine
10
167.6865868
20
-200.2751066
11
181.6875868
21
-200.2751066
0
LINE
5
4AD
100
AcDbEntity
8
0
6
ByLayer
62
256
370
-1
100
AcDbLine
10
181.6875868
20
-200.2751066
11
181.6875868
21
-214.2745066
0
LINE
5
4AE
100
AcDbEntity
8
0
6
ByLayer
62
256
370
-1
100
AcDbLine
10
181.6875868
20
-214.2745066
11
167.6865868
21
-214.2745066
0
LINE
5
4AF
100
AcDbEntity
8
0
6
ByLayer
62
256
370
-1
100
AcDbLine
10
167.6865868
20
-214.2745066
11
167.6865868
21
-200.2751066
0
LINE
5
4B0
100
AcDbEntity
8
0
6
ByLayer
62
256
370
-1
100
AcDbLine
10
186.7365868
20
-200.2751066
11
200.7375868
21
-200.2751066
0
LINE
5
4B1
100
AcDbEntity
8
0
6
ByLayer
62
256
370
-1
100
AcDbLine
10
200.7375868
20
-200.2751066
11
200.7375868
21
-214.2745066
0
LINE
5
4B2
100
AcDbEntity
8
0
6
ByLayer
62
256
370
-1
100
AcDbLine
10
200.7375868
20
-214.2745066
11
186.7365868
21
-214.2745066
0
LINE
5
4B3
100
AcDbEntity
8
0
6
ByLayer
62
256
370
-1
100
AcDbLine
10
186.7365868
20
-214.2745066
11
186.7365868
21
-200.2751066
0
LINE
5
4B4
100
AcDbEntity
8
0
6
ByLayer
62
256
370
-1
100
AcDbLine
10
205.7865868
20
-200.2751066
11
219.7875868
21
-200.2751066
0
LINE
5
4B5
100
AcDbEntity
8
0
6
ByLayer
62
256
370
-1
100
AcDbLine
10
219.7875868
20
-200.2751066
11
219.7875868
21
-214.2745066
0
LINE
5
4B6
100
AcDbEntity
8
0
6
ByLayer
62
256
370
-1
100
AcDbLine
10
219.7875868
20
-214.2745066
11
205.7865868
21
-214.2745066
0
LINE
5
4B7
100
AcDbEntity
8
0
6
ByLayer
62
256
370
-1
100
AcDbLine
10
205.7865868
20
-214.2745066
11
205.7865868
21
-200.2751066
0
LINE
5
4B8
100
AcDbEntity
8
0
6
ByLayer
62
256
370
-1
100
AcDbLine
10
224.8365868
20
-200.2751066
11
238.8375868
21
-200.2751066
0
LINE
5
4B9
100
AcDbEntity
8
0
6
ByLayer
62
256
370
-1
100
AcDbLine
10
238.8375868
20
-200.2751066
11
238.8375868
21
-214.2745066
0
LINE
5
4BA
100
AcDbEntity
8
0
6
ByLayer
62
256
370
-1
100
AcDbLine
10
238.8375868
20
-214.2745066
11
224.8365868
21
-214.2745066
0
LINE
5
4BB
100
AcDbEntity
8
0
6
ByLayer
62
256
370
-1
100
AcDbLine
10
224.8365868
20
-214.2745066
11
224.8365868
21
-200.2751066
0
LINE
5
4BC
100
AcDbEntity
8
0
6
ByLayer
62
256
370
-1
100
AcDbLine
10
265.3185868
20
-181.2251066
11
265.3185868
21
-185.9241066
0
LINE
5
4BD
100
AcDbEntity
8
0
6
ByLayer
62
256
370
-1
100
AcDbLine
10
265.3185868
20
-185.9241066
11
263.7935868
21
-185.9241066
0
LINE
5
4BE
100
AcDbEntity
8
0
6
ByLayer
62
256
370
-1
100
AcDbLine
10
263.7935868
20
-185.9241066
11
263.7935868
21
-182.6941066
0
LINE
5
4BF
100
AcDbEntity
8
0
6
ByLayer
62
256
370
-1
100
AcDbLine
10
263.7935868
20
-182.6941066
11
262.0685868
21
-182.6941066
0
LINE
5
4C0
100
AcDbEntity
8
0
6
ByLayer
62
256
370
-1
100
AcDbLine
10
262.0685868
20
-182.6941066
11
262.0685868
21
-181.7747066
0
LINE
5
4C1
100
AcDbEntity
8
0
6
ByLayer
62
256
370
-1
100
AcDbLine
10
262.0685868
20
-181.7747066
11
258.7685868
21
-181.7747066
0
LINE
5
4C2
100
AcDbEntity
8
0
6
ByLayer
62
256
370
-1
100
AcDbLine
10
258.7685868
20
-181.7747066
11
258.7685868
21
-182.6941066
0
LINE
5
4C3
100
AcDbEntity
8
0
6
ByLayer
62
256
370
-1
100
AcDbLine
10
258.7685868
20
-182.6941066
11
257.0435868
21
-182.6941066
0
LINE
5
4C4
100
AcDbEntity
8
0
6
ByLayer
62
256
370
-1
100
AcDbLine
10
257.0435868
20
-182.6941066
11
257.0435868
21
-185.9241066
0
LINE
5
4C5
100
AcDbEntity
8
0
6
ByLayer
62
256
370
-1
100
AcDbLine
10
257.0435868
20
-185.9241066
11
256.2185868
21
-185.9241066
0
LINE
5
4C6
100
AcDbEntity
8
0
6
ByLayer
62
256
370
-1
100
AcDbLine
10
256.2185868
20
-185.9241066
11
256.2185868
21
-188.7245066
0
LINE
5
4C7
100
AcDbEntity
8
0
6
ByLayer
62
256
370
-1
100
AcDbLine
10
256.2185868
20
-188.7245066
11
257.0435868
21
-188.7245066
0
LINE
5
4C8
100
AcDbEntity
8
0
6
ByLayer
62
256
370
-1
100
AcDbLine
10
257.0435868
20
-188.7245066
11
257.0435868
21
-194.9944066
0
LINE
5
4C9
100
AcDbEntity
8
0
6
ByLayer
62
256
370
-1
100
AcDbLine
10
257.0435868
20
-194.9944066
11
258.7685868
21
-194.9944066
0
LINE
5
4CA
100
AcDbEntity
8
0
6
ByLayer
62
256
370
-1
100
AcDbLine
10
258.7685868
20
-194.9944066
11
258.7685868
21
-195.9740066
0
LINE
5
4CB
100
AcDbEntity
8
0
6
ByLayer
62
256
370
-1
100
AcDbLine
10
258.7685868
20
-195.9740066
11
262.0685868
21
-195.9740066
0
LINE
5
4CC
100
AcDbEntity
8
0
6
ByLayer
62
256
370
-1
100
AcDbLine
10
262.0685868
20
-195.9740066
11
262.0685868
21
-194.9944066
0
LINE
5
4CD
100
AcDbEntity
8
0
6
ByLayer
62
256
370
-1
100
AcDbLine
10
262.0685868
20
-194.9944066
11
263.7935868
21
-194.9944066
0
LINE
5
4CE
100
AcDbEntity
8
0
6
ByLayer
62
256
370
-1
100
AcDbLine
10
263.7935868
20
-194.9944066
11
263.7935868
21
-190.5240066
0
LINE
5
4CF
100
AcDbEntity
8
0
6
ByLayer
62
256
370
-1
100
AcDbLine
10
263.7935868
20
-190.5240066
11
265.3185868
21
-190.5240066
0
LINE
5
4D0
100
AcDbEntity
8
0
6
ByLayer
62
256
370
-1
100
AcDbLine
10
265.3185868
20
-190.5240066
11
265.3185868
21
-195.2244066
0
LINE
5
4D1
100
AcDbEntity
8
0
6
ByLayer
62
256
370
-1
100
AcDbLine
10
265.3185868
20
-195.2244066
11
279.3185868
21
-195.2244066
0
LINE
5
4D2
100
AcDbEntity
8
0
6
ByLayer
62
256
370
-1
100
AcDbLine
10
279.3185868
20
-195.2244066
11
279.3185868
21
-190.5240066
0
LINE
5
4D3
100
AcDbEntity
8
0
6
ByLayer
62
256
370
-1
100
AcDbLine
10
279.3185868
20
-190.5240066
11
280.8425868
21
-190.5240066
0
LINE
5
4D4
100
AcDbEntity
8
0
6
ByLayer
62
256
370
-1
100
AcDbLine
10
280.8425868
20
-190.5240066
11
280.8425868
21
-194.9944066
0
LINE
5
4D5
100
AcDbEntity
8
0
6
ByLayer
62
256
370
-1
100
AcDbLine
10
280.8425868
20
-194.9944066
11
282.5685868
21
-194.9944066
0
LINE
5
4D6
100
AcDbEntity
8
0
6
ByLayer
62
256
370
-1
100
AcDbLine
10
282.5685868
20
-194.9944066
11
282.5685868
21
-195.9740066
0
LINE
5
4D7
100
AcDbEntity
8
0
6
ByLayer
62
256
370
-1
100
AcDbLine
10
282.5685868
20
-195.9740066
11
285.8685868
21
-195.9740066
0
LINE
5
4D8
100
AcDbEntity
8
0
6
ByLayer
62
256
370
-1
100
AcDbLine
10
285.8685868
20
-195.9740066
11
285.8685868
21
-194.9944066
0
LINE
5
4D9
100
AcDbEntity
8
0
6
ByLayer
62
256
370
-1
100
AcDbLine
10
285.8685868
20
-194.9944066
11
287.5925868
21
-194.9944066
0
LINE
5
4DA
100
AcDbEntity
8
0
6
ByLayer
62
256
370
-1
100
AcDbLine
10
287.5925868
20
-194.9944066
11
287.5925868
21
-188.7245066
0
LINE
5
4DB
100
AcDbEntity
8
0
6
ByLayer
62
256
370
-1
100
AcDbLine
10
287.5925868
20
-188.7245066
11
288.4185868
21
-188.7245066
0
LINE
5
4DC
100
AcDbEntity
8
0
6
ByLayer
62
256
370
-1
100
AcDbLine
10
288.4185868
20
-188.7245066
11
288.4185868
21
-185.9241066
0
LINE
5
4DD
100
AcDbEntity
8
0
6
ByLayer
62
256
370
-1
100
AcDbLine
10
288.4185868
20
-185.9241066
11
287.5925868
21
-185.9241066
0
LINE
5
4DE
100
AcDbEntity
8
0
6
ByLayer
62
256
370
-1
100
AcDbLine
10
287.5925868
20
-185.9241066
11
287.5925868
21
-182.6941066
0
LINE
5
4DF
100
AcDbEntity
8
0
6
ByLayer
62
256
370
-1
100
AcDbLine
10
287.5925868
20
-182.6941066
11
285.8685868
21
-182.6941066
0
LINE
5
4E0
100
AcDbEntity
8
0
6
ByLayer
62
256
370
-1
100
AcDbLine
10
285.8685868
20
-182.6941066
11
285.8685868
21
-181.7747066
0
LINE
5
4E1
100
AcDbEntity
8
0
6
ByLayer
62
256
370
-1
100
AcDbLine
10
285.8685868
20
-181.7747066
11
282.5685868
21
-181.7747066
0
LINE
5
4E2
100
AcDbEntity
8
0
6
ByLayer
62
256
370
-1
100
AcDbLine
10
282.5685868
20
-181.7747066
11
282.5685868
21
-182.6941066
0
LINE
5
4E3
100
AcDbEntity
8
0
6
ByLayer
62
256
370
-1
100
AcDbLine
10
282.5685868
20
-182.6941066
11
280.8425868
21
-182.6941066
0
LINE
5
4E4
100
AcDbEntity
8
0
6
ByLayer
62
256
370
-1
100
AcDbLine
10
280.8425868
20
-182.6941066
11
280.8425868
21
-185.9241066
0
LINE
5
4E5
100
AcDbEntity
8
0
6
ByLayer
62
256
370
-1
100
AcDbLine
10
280.8425868
20
-185.9241066
11
279.3185868
21
-185.9241066
0
LINE
5
4E6
100
AcDbEntity
8
0
6
ByLayer
62
256
370
-1
100
AcDbLine
10
279.3185868
20
-185.9241066
11
279.3185868
21
-181.2251066
0
LINE
5
4E7
100
AcDbEntity
8
0
6
ByLayer
62
256
370
-1
100
AcDbLine
10
279.3185868
20
-181.2251066
11
265.3185868
21
-181.2251066
0
LINE
5
4E8
100
AcDbEntity
8
0
6
ByLayer
62
256
370
-1
100
AcDbLine
10
17.6680868
20
-181.2251066
11
31.6689868
21
-181.2251066
0
LINE
5
4E9
100
AcDbEntity
8
0
6
ByLayer
62
256
370
-1
100
AcDbLine
10
31.6689868
20
-181.2251066
11
31.6689868
21
-195.2244066
0
LINE
5
4EA
100
AcDbEntity
8
0
6
ByLayer
62
256
370
-1
100
AcDbLine
10
31.6689868
20
-195.2244066
11
17.6680868
21
-195.2244066
0
LINE
5
4EB
100
AcDbEntity
8
0
6
ByLayer
62
256
370
-1
100
AcDbLine
10
17.6680868
20
-195.2244066
11
17.6680868
21
-181.2251066
0
LINE
5
4EC
100
AcDbEntity
8
0
6
ByLayer
62
256
370
-1
100
AcDbLine
10
43.8619868
20
-181.2251066
11
57.8626868
21
-181.2251066
0
LINE
5
4ED
100
AcDbEntity
8
0
6
ByLayer
62
256
370
-1
100
AcDbLine
10
57.8626868
20
-181.2251066
11
57.8626868
21
-195.2244066
0
LINE
5
4EE
100
AcDbEntity
8
0
6
ByLayer
62
256
370
-1
100
AcDbLine
10
57.8626868
20
-195.2244066
11
43.8619868
21
-195.2244066
0
LINE
5
4EF
100
AcDbEntity
8
0
6
ByLayer
62
256
370
-1
100
AcDbLine
10
43.8619868
20
-195.2244066
11
43.8619868
21
-181.2251066
0
LINE
5
4F0
100
AcDbEntity
8
0
6
ByLayer
62
256
370
-1
100
AcDbLine
10
62.9119868
20
-181.2251066
11
76.9126868
21
-181.2251066
0
LINE
5
4F1
100
AcDbEntity
8
0
6
ByLayer
62
256
370
-1
100
AcDbLine
10
76.9126868
20
-181.2251066
11
76.9126868
21
-195.2244066
0
LINE
5
4F2
100
AcDbEntity
8
0
6
ByLayer
62
256
370
-1
100
AcDbLine
10
76.9126868
20
-195.2244066
11
62.9119868
21
-195.2244066
0
LINE
5
4F3
100
AcDbEntity
8
0
6
ByLayer
62
256
370
-1
100
AcDbLine
10
62.9119868
20
-195.2244066
11
62.9119868
21
-181.2251066
0
LINE
5
4F4
100
AcDbEntity
8
0
6
ByLayer
62
256
370
-1
100
AcDbLine
10
81.9619868
20
-181.2251066
11
95.9626868
21
-181.2251066
0
LINE
5
4F5
100
AcDbEntity
8
0
6
ByLayer
62
256
370
-1
100
AcDbLine
10
95.9626868
20
-181.2251066
11
95.9626868
21
-195.2244066
0
LINE
5
4F6
100
AcDbEntity
8
0
6
ByLayer
62
256
370
-1
100
AcDbLine
10
95.9626868
20
-195.2244066
11
81.9619868
21
-195.2244066
0
LINE
5
4F7
100
AcDbEntity
8
0
6
ByLayer
62
256
370
-1
100
AcDbLine
10
81.9619868
20
-195.2244066
11
81.9619868
21
-181.2251066
0
LINE
5
4F8
100
AcDbEntity
8
0
6
ByLayer
62
256
370
-1
100
AcDbLine
10
101.0115868
20
-181.2251066
11
115.0125868
21
-181.2251066
0
LINE
5
4F9
100
AcDbEntity
8
0
6
ByLayer
62
256
370
-1
100
AcDbLine
10
115.0125868
20
-181.2251066
11
115.0125868
21
-195.2244066
0
LINE
5
4FA
100
AcDbEntity
8
0
6
ByLayer
62
256
370
-1
100
AcDbLine
10
115.0125868
20
-195.2244066
11
101.0115868
21
-195.2244066
0
LINE
5
4FB
100
AcDbEntity
8
0
6
ByLayer
62
256
370
-1
100
AcDbLine
10
101.0115868
20
-195.2244066
11
101.0115868
21
-181.2251066
0
LINE
5
4FC
100
AcDbEntity
8
0
6
ByLayer
62
256
370
-1
100
AcDbLine
10
120.0615868
20
-181.2251066
11
134.0625868
21
-181.2251066
0
LINE
5
4FD
100
AcDbEntity
8
0
6
ByLayer
62
256
370
-1
100
AcDbLine
10
134.0625868
20
-181.2251066
11
134.0625868
21
-195.2244066
0
LINE
5
4FE
100
AcDbEntity
8
0
6
ByLayer
62
256
370
-1
100
AcDbLine
10
134.0625868
20
-195.2244066
11
120.0615868
21
-195.2244066
0
LINE
5
4FF
100
AcDbEntity
8
0
6
ByLayer
62
256
370
-1
100
AcDbLine
10
120.0615868
20
-195.2244066
11
120.0615868
21
-181.2251066
0
LINE
5
500
100
AcDbEntity
8
0
6
ByLayer
62
256
370
-1
100
AcDbLine
10
139.1115868
20
-181.2251066
11
153.1125868
21
-181.2251066
0
LINE
5
501
100
AcDbEntity
8
0
6
ByLayer
62
256
370
-1
100
AcDbLine
10
153.1125868
20
-181.2251066
11
153.1125868
21
-195.2244066
0
LINE
5
502
100
AcDbEntity
8
0
6
ByLayer
62
256
370
-1
100
AcDbLine
10
153.1125868
20
-195.2244066
11
139.1115868
21
-195.2244066
0
LINE
5
503
100
AcDbEntity
8
0
6
ByLayer
62
256
370
-1
100
AcDbLine
10
139.1115868
20
-195.2244066
11
139.1115868
21
-181.2251066
0
LINE
5
504
100
AcDbEntity
8
0
6
ByLayer
62
256
370
-1
100
AcDbLine
10
158.1615868
20
-181.2251066
11
172.1625868
21
-181.2251066
0
LINE
5
505
100
AcDbEntity
8
0
6
ByLayer
62
256
370
-1
100
AcDbLine
10
172.1625868
20
-181.2251066
11
172.1625868
21
-195.2244066
0
LINE
5
506
100
AcDbEntity
8
0
6
ByLayer
62
256
370
-1
100
AcDbLine
10
172.1625868
20
-195.2244066
11
158.1615868
21
-195.2244066
0
LINE
5
507
100
AcDbEntity
8
0
6
ByLayer
62
256
370
-1
100
AcDbLine
10
158.1615868
20
-195.2244066
11
158.1615868
21
-181.2251066
0
LINE
5
508
100
AcDbEntity
8
0
6
ByLayer
62
256
370
-1
100
AcDbLine
10
177.2115868
20
-181.2251066
11
191.2125868
21
-181.2251066
0
LINE
5
509
100
AcDbEntity
8
0
6
ByLayer
62
256
370
-1
100
AcDbLine
10
191.2125868
20
-181.2251066
11
191.2125868
21
-195.2244066
0
LINE
5
50A
100
AcDbEntity
8
0
6
ByLayer
62
256
370
-1
100
AcDbLine
10
191.2125868
20
-195.2244066
11
177.2115868
21
-195.2244066
0
LINE
5
50B
100
AcDbEntity
8
0
6
ByLayer
62
256
370
-1
100
AcDbLine
10
177.2115868
20
-195.2244066
11
177.2115868
21
-181.2251066
0
LINE
5
50C
100
AcDbEntity
8
0
6
ByLayer
62
256
370
-1
100
AcDbLine
10
196.2615868
20
-181.2251066
11
210.2625868
21
-181.2251066
0
LINE
5
50D
100
AcDbEntity
8
0
6
ByLayer
62
256
370
-1
100
AcDbLine
10
210.2625868
20
-181.2251066
11
210.2625868
21
-195.2244066
0
LINE
5
50E
100
AcDbEntity
8
0
6
ByLayer
62
256
370
-1
100
AcDbLine
10
210.2625868
20
-195.2244066
11
196.2615868
21
-195.2244066
0
LINE
5
50F
100
AcDbEntity
8
0
6
ByLayer
62
256
370
-1
100
AcDbLine
10
196.2615868
20
-195.2244066
11
196.2615868
21
-181.2251066
0
LINE
5
510
100
AcDbEntity
8
0
6
ByLayer
62
256
370
-1
100
AcDbLine
10
215.3115868
20
-181.2251066
11
229.3125868
21
-181.2251066
0
LINE
5
511
100
AcDbEntity
8
0
6
ByLayer
62
256
370
-1
100
AcDbLine
10
229.3125868
20
-181.2251066
11
229.3125868
21
-195.2244066
0
LINE
5
512
100
AcDbEntity
8
0
6
ByLayer
62
256
370
-1
100
AcDbLine
10
229.3125868
20
-195.2244066
11
215.3115868
21
-195.2244066
0
LINE
5
513
100
AcDbEntity
8
0
6
ByLayer
62
256
370
-1
100
AcDbLine
10
215.3115868
20
-195.2244066
11
215.3115868
21
-181.2251066
0
LINE
5
514
100
AcDbEntity
8
0
6
ByLayer
62
256
370
-1
100
AcDbLine
10
234.3615868
20
-181.2251066
11
248.3625868
21
-181.2251066
0
LINE
5
515
100
AcDbEntity
8
0
6
ByLayer
62
256
370
-1
100
AcDbLine
10
248.3625868
20
-181.2251066
11
248.3625868
21
-195.2244066
0
LINE
5
516
100
AcDbEntity
8
0
6
ByLayer
62
256
370
-1
100
AcDbLine
10
248.3625868
20
-195.2244066
11
234.3615868
21
-195.2244066
0
LINE
5
517
100
AcDbEntity
8
0
6
ByLayer
62
256
370
-1
100
AcDbLine
10
234.3615868
20
-195.2244066
11
234.3615868
21
-181.2251066
0
LINE
5
518
100
AcDbEntity
8
0
6
ByLayer
62
256
370
-1
100
AcDbLine
10
15.2868868
20
-162.1751066
11
29.2877868
21
-162.1751066
0
LINE
5
519
100
AcDbEntity
8
0
6
ByLayer
62
256
370
-1
100
AcDbLine
10
29.2877868
20
-162.1751066
11
29.2877868
21
-176.1744066
0
LINE
5
51A
100
AcDbEntity
8
0
6
ByLayer
62
256
370
-1
100
AcDbLine
10
29.2877868
20
-176.1744066
11
15.2868868
21
-176.1744066
0
LINE
5
51B
100
AcDbEntity
8
0
6
ByLayer
62
256
370
-1
100
AcDbLine
10
15.2868868
20
-176.1744066
11
15.2868868
21
-162.1751066
0
LINE
5
51C
100
AcDbEntity
8
0
6
ByLayer
62
256
370
-1
100
AcDbLine
10
39.1008868
20
-162.1751066
11
53.1001868
21
-162.1751066
0
LINE
5
51D
100
AcDbEntity
8
0
6
ByLayer
62
256
370
-1
100
AcDbLine
10
53.1001868
20
-162.1751066
11
53.1001868
21
-176.1744066
0
LINE
5
51E
100
AcDbEntity
8
0
6
ByLayer
62
256
370
-1
100
AcDbLine
10
53.1001868
20
-176.1744066
11
39.1008868
21
-176.1744066
0
LINE
5
51F
100
AcDbEntity
8
0
6
ByLayer
62
256
370
-1
100
AcDbLine
10
39.1008868
20
-176.1744066
11
39.1008868
21
-162.1751066
0
LINE
5
520
100
AcDbEntity
8
0
6
ByLayer
62
256
370
-1
100
AcDbLine
10
58.1508868
20
-162.1751066
11
72.1501868
21
-162.1751066
0
LINE
5
521
100
AcDbEntity
8
0
6
ByLayer
62
256
370
-1
100
AcDbLine
10
72.1501868
20
-162.1751066
11
72.1501868
21
-176.1744066
0
LINE
5
522
100
AcDbEntity
8
0
6
ByLayer
62
256
370
-1
100
AcDbLine
10
72.1501868
20
-176.1744066
11
58.1508868
21
-176.1744066
0
LINE
5
523
100
AcDbEntity
8
0
6
ByLayer
62
256
370
-1
100
AcDbLine
10
58.1508868
20
-176.1744066
11
58.1508868
21
-162.1751066
0
LINE
5
524
100
AcDbEntity
8
0
6
ByLayer
62
256
370
-1
100
AcDbLine
10
77.2008868
20
-162.1751066
11
91.2001868
21
-162.1751066
0
LINE
5
525
100
AcDbEntity
8
0
6
ByLayer
62
256
370
-1
100
AcDbLine
10
91.2001868
20
-162.1751066
11
91.2001868
21
-176.1744066
0
LINE
5
526
100
AcDbEntity
8
0
6
ByLayer
62
256
370
-1
100
AcDbLine
10
91.2001868
20
-176.1744066
11
77.2008868
21
-176.1744066
0
LINE
5
527
100
AcDbEntity
8
0
6
ByLayer
62
256
370
-1
100
AcDbLine
10
77.2008868
20
-176.1744066
11
77.2008868
21
-162.1751066
0
LINE
5
528
100
AcDbEntity
8
0
6
ByLayer
62
256
370
-1
100
AcDbLine
10
96.2508868
20
-162.1751066
11
110.2505868
21
-162.1751066
0
LINE
5
529
100
AcDbEntity
8
0
6
ByLayer
62
256
370
-1
100
AcDbLine
10
110.2505868
20
-162.1751066
11
110.2505868
21
-176.1744066
0
LINE
5
52A
100
AcDbEntity
8
0
6
ByLayer
62
256
370
-1
100
AcDbLine
10
110.2505868
20
-176.1744066
11
96.2508868
21
-176.1744066
0
LINE
5
52B
100
AcDbEntity
8
0
6
ByLayer
62
256
370
-1
100
AcDbLine
10
96.2508868
20
-176.1744066
11
96.2508868
21
-162.1751066
0
LINE
5
52C
100
AcDbEntity
8
0
6
ByLayer
62
256
370
-1
100
AcDbLine
10
115.3005868
20
-162.1751066
11
129.3005868
21
-162.1751066
0
LINE
5
52D
100
AcDbEntity
8
0
6
ByLayer
62
256
370
-1
100
AcDbLine
10
129.3005868
20
-162.1751066
11
129.3005868
21
-176.1744066
0
LINE
5
52E
100
AcDbEntity
8
0
6
ByLayer
62
256
370
-1
100
AcDbLine
10
129.3005868
20
-176.1744066
11
115.3005868
21
-176.1744066
0
LINE
5
52F
100
AcDbEntity
8
0
6
ByLayer
62
256
370
-1
100
AcDbLine
10
115.3005868
20
-176.1744066
11
115.3005868
21
-162.1751066
0
LINE
5
530
100
AcDbEntity
8
0
6
ByLayer
62
256
370
-1
100
AcDbLine
10
134.3505868
20
-162.1751066
11
148.3505868
21
-162.1751066
0
LINE
5
531
100
AcDbEntity
8
0
6
ByLayer
62
256
370
-1
100
AcDbLine
10
148.3505868
20
-162.1751066
11
148.3505868
21
-176.1744066
0
LINE
5
532
100
AcDbEntity
8
0
6
ByLayer
62
256
370
-1
100
AcDbLine
10
148.3505868
20
-176.1744066
11
134.3505868
21
-176.1744066
0
LINE
5
533
100
AcDbEntity
8
0
6
ByLayer
62
256
370
-1
100
AcDbLine
10
134.3505868
20
-176.1744066
11
134.3505868
21
-162.1751066
0
LINE
5
534
100
AcDbEntity
8
0
6
ByLayer
62
256
370
-1
100
AcDbLine
10
153.4005868
20
-162.1751066
11
167.4005868
21
-162.1751066
0
LINE
5
535
100
AcDbEntity
8
0
6
ByLayer
62
256
370
-1
100
AcDbLine
10
167.4005868
20
-162.1751066
11
167.4005868
21
-176.1744066
0
LINE
5
536
100
AcDbEntity
8
0
6
ByLayer
62
256
370
-1
100
AcDbLine
10
167.4005868
20
-176.1744066
11
153.4005868
21
-176.1744066
0
LINE
5
537
100
AcDbEntity
8
0
6
ByLayer
62
256
370
-1
100
AcDbLine
10
153.4005868
20
-176.1744066
11
153.4005868
21
-162.1751066
0
LINE
5
538
100
AcDbEntity
8
0
6
ByLayer
62
256
370
-1
100
AcDbLine
10
172.4505868
20
-162.1751066
11
186.4505868
21
-162.1751066
0
LINE
5
539
100
AcDbEntity
8
0
6
ByLayer
62
256
370
-1
100
AcDbLine
10
186.4505868
20
-162.1751066
11
186.4505868
21
-176.1744066
0
LINE
5
53A
100
AcDbEntity
8
0
6
ByLayer
62
256
370
-1
100
AcDbLine
10
186.4505868
20
-176.1744066
11
172.4505868
21
-176.1744066
0
LINE
5
53B
100
AcDbEntity
8
0
6
ByLayer
62
256
370
-1
100
AcDbLine
10
172.4505868
20
-176.1744066
11
172.4505868
21
-162.1751066
0
LINE
5
53C
100
AcDbEntity
8
0
6
ByLayer
62
256
370
-1
100
AcDbLine
10
191.5005868
20
-162.1751066
11
205.5005868
21
-162.1751066
0
LINE
5
53D
100
AcDbEntity
8
0
6
ByLayer
62
256
370
-1
100
AcDbLine
10
205.5005868
20
-162.1751066
11
205.5005868
21
-176.1744066
0
LINE
5
53E
100
AcDbEntity
8
0
6
ByLayer
62
256
370
-1
100
AcDbLine
10
205.5005868
20
-176.1744066
11
191.5005868
21
-176.1744066
0
LINE
5
53F
100
AcDbEntity
8
0
6
ByLayer
62
256
370
-1
100
AcDbLine
10
191.5005868
20
-176.1744066
11
191.5005868
21
-162.1751066
0
LINE
5
540
100
AcDbEntity
8
0
6
ByLayer
62
256
370
-1
100
AcDbLine
10
210.5505868
20
-162.1751066
11
224.5505868
21
-162.1751066
0
LINE
5
541
100
AcDbEntity
8
0
6
ByLayer
62
256
370
-1
100
AcDbLine
10
224.5505868
20
-162.1751066
11
224.5505868
21
-176.1744066
0
LINE
5
542
100
AcDbEntity
8
0
6
ByLayer
62
256
370
-1
100
AcDbLine
10
224.5505868
20
-176.1744066
11
210.5505868
21
-176.1744066
0
LINE
5
543
100
AcDbEntity
8
0
6
ByLayer
62
256
370
-1
100
AcDbLine
10
210.5505868
20
-176.1744066
11
210.5505868
21
-162.1751066
0
LINE
5
544
100
AcDbEntity
8
0
6
ByLayer
62
256
370
-1
100
AcDbLine
10
229.6005868
20
-162.1751066
11
243.6005868
21
-162.1751066
0
LINE
5
545
100
AcDbEntity
8
0
6
ByLayer
62
256
370
-1
100
AcDbLine
10
243.6005868
20
-162.1751066
11
243.6005868
21
-176.1744066
0
LINE
5
546
100
AcDbEntity
8
0
6
ByLayer
62
256
370
-1
100
AcDbLine
10
243.6005868
20
-176.1744066
11
229.6005868
21
-176.1744066
0
LINE
5
547
100
AcDbEntity
8
0
6
ByLayer
62
256
370
-1
100
AcDbLine
10
229.6005868
20
-176.1744066
11
229.6005868
21
-162.1751066
0
LINE
5
548
100
AcDbEntity
8
0
6
ByLayer
62
256
370
-1
100
AcDbLine
10
248.6505868
20
-162.1751066
11
262.6505868
21
-162.1751066
0
LINE
5
549
100
AcDbEntity
8
0
6
ByLayer
62
256
370
-1
100
AcDbLine
10
262.6505868
20
-162.1751066
11
262.6505868
21
-176.1744066
0
LINE
5
54A
100
AcDbEntity
8
0
6
ByLayer
62
256
370
-1
100
AcDbLine
10
262.6505868
20
-176.1744066
11
248.6505868
21
-176.1744066
0
LINE
5
54B
100
AcDbEntity
8
0
6
ByLayer
62
256
370
-1
100
AcDbLine
10
248.6505868
20
-176.1744066
11
248.6505868
21
-162.1751066
0
LINE
5
54C
100
AcDbEntity
8
0
6
ByLayer
62
256
370
-1
100
AcDbLine
10
272.4615868
20
-162.1751066
11
286.4625868
21
-162.1751066
0
LINE
5
54D
100
AcDbEntity
8
0
6
ByLayer
62
256
370
-1
100
AcDbLine
10
286.4625868
20
-162.1751066
11
286.4625868
21
-176.1744066
0
LINE
5
54E
100
AcDbEntity
8
0
6
ByLayer
62
256
370
-1
100
AcDbLine
10
286.4625868
20
-176.1744066
11
272.4615868
21
-176.1744066
0
LINE
5
54F
100
AcDbEntity
8
0
6
ByLayer
62
256
370
-1
100
AcDbLine
10
272.4615868
20
-176.1744066
11
272.4615868
21
-162.1751066
0
LINE
5
550
100
AcDbEntity
8
0
6
ByLayer
62
256
370
-1
100
AcDbLine
10
267.7005868
20
-143.1237066
11
267.7005868
21
-147.8241066
0
LINE
5
551
100
AcDbEntity
8
0
6
ByLayer
62
256
370
-1
100
AcDbLine
10
267.7005868
20
-147.8241066
11
266.1755868
21
-147.8241066
0
LINE
5
552
100
AcDbEntity
8
0
6
ByLayer
62
256
370
-1
100
AcDbLine
10
266.1755868
20
-147.8241066
11
266.1755868
21
-144.5941066
0
LINE
5
553
100
AcDbEntity
8
0
6
ByLayer
62
256
370
-1
100
AcDbLine
10
266.1755868
20
-144.5941066
11
264.4495868
21
-144.5941066
0
LINE
5
554
100
AcDbEntity
8
0
6
ByLayer
62
256
370
-1
100
AcDbLine
10
264.4495868
20
-144.5941066
11
264.4495868
21
-143.6747066
0
LINE
5
555
100
AcDbEntity
8
0
6
ByLayer
62
256
370
-1
100
AcDbLine
10
264.4495868
20
-143.6747066
11
261.1505868
21
-143.6747066
0
LINE
5
556
100
AcDbEntity
8
0
6
ByLayer
62
256
370
-1
100
AcDbLine
10
261.1505868
20
-143.6747066
11
261.1505868
21
-144.5941066
0
LINE
5
557
100
AcDbEntity
8
0
6
ByLayer
62
256
370
-1
100
AcDbLine
10
261.1505868
20
-144.5941066
11
259.4255868
21
-144.5941066
0
LINE
5
558
100
AcDbEntity
8
0
6
ByLayer
62
256
370
-1
100
AcDbLine
10
259.4255868
20
-144.5941066
11
259.4255868
21
-147.8241066
0
LINE
5
559
100
AcDbEntity
8
0
6
ByLayer
62
256
370
-1
100
AcDbLine
10
259.4255868
20
-147.8241066
11
258.6005868
21
-147.8241066
0
LINE
5
55A
100
AcDbEntity
8
0
6
ByLayer
62
256
370
-1
100
AcDbLine
10
258.6005868
20
-147.8241066
11
258.6005868
21
-150.6244066
0
LINE
5
55B
100
AcDbEntity
8
0
6
ByLayer
62
256
370
-1
100
AcDbLine
10
258.6005868
20
-150.6244066
11
259.4255868
21
-150.6244066
0
LINE
5
55C
100
AcDbEntity
8
0
6
ByLayer
62
256
370
-1
100
AcDbLine
10
259.4255868
20
-150.6244066
11
259.4255868
21
-156.8930066
0
LINE
5
55D
100
AcDbEntity
8
0
6
ByLayer
62
256
370
-1
100
AcDbLine
10
259.4255868
20
-156.8930066
11
261.1505868
21
-156.8930066
0
LINE
5
55E
100
AcDbEntity
8
0
6
ByLayer
62
256
370
-1
100
AcDbLine
10
261.1505868
20
-156.8930066
11
261.1505868
21
-157.8740066
0
LINE
5
55F
100
AcDbEntity
8
0
6
ByLayer
62
256
370
-1
100
AcDbLine
10
261.1505868
20
-157.8740066
11
264.4495868
21
-157.8740066
0
LINE
5
560
100
AcDbEntity
8
0
6
ByLayer
62
256
370
-1
100
AcDbLine
10
264.4495868
20
-157.8740066
11
264.4495868
21
-156.8930066
0
LINE
5
561
100
AcDbEntity
8
0
6
ByLayer
62
256
370
-1
100
AcDbLine
10
264.4495868
20
-156.8930066
11
266.1755868
21
-156.8930066
0
LINE
5
562
100
AcDbEntity
8
0
6
ByLayer
62
256
370
-1
100
AcDbLine
10
266.1755868
20
-156.8930066
11
266.1755868
21
-152.4240066
0
LINE
5
563
100
AcDbEntity
8
0
6
ByLayer
62
256
370
-1
100
AcDbLine
10
266.1755868
20
-152.4240066
11
267.7005868
21
-152.4240066
0
LINE
5
564
100
AcDbEntity
8
0
6
ByLayer
62
256
370
-1
100
AcDbLine
10
267.7005868
20
-152.4240066
11
267.7005868
21
-157.1244066
0
LINE
5
565
100
AcDbEntity
8
0
6
ByLayer
62
256
370
-1
100
AcDbLine
10
267.7005868
20
-157.1244066
11
281.7005868
21
-157.1244066
0
LINE
5
566
100
AcDbEntity
8
0
6
ByLayer
62
256
370
-1
100
AcDbLine
10
281.7005868
20
-157.1244066
11
281.7005868
21
-152.4240066
0
LINE
5
567
100
AcDbEntity
8
0
6
ByLayer
62
256
370
-1
100
AcDbLine
10
281.7005868
20
-152.4240066
11
283.2255868
21
-152.4240066
0
LINE
5
568
100
AcDbEntity
8
0
6
ByLayer
62
256
370
-1
100
AcDbLine
10
283.2255868
20
-152.4240066
11
283.2255868
21
-156.8930066
0
LINE
5
569
100
AcDbEntity
8
0
6
ByLayer
62
256
370
-1
100
AcDbLine
10
283.2255868
20
-156.8930066
11
284.9495868
21
-156.8930066
0
LINE
5
56A
100
AcDbEntity
8
0
6
ByLayer
62
256
370
-1
100
AcDbLine
10
284.9495868
20
-156.8930066
11
284.9495868
21
-157.8740066
0
LINE
5
56B
100
AcDbEntity
8
0
6
ByLayer
62
256
370
-1
100
AcDbLine
10
284.9495868
20
-157.8740066
11
288.2505868
21
-157.8740066
0
LINE
5
56C
100
AcDbEntity
8
0
6
ByLayer
62
256
370
-1
100
AcDbLine
10
288.2505868
20
-157.8740066
11
288.2505868
21
-156.8930066
0
LINE
5
56D
100
AcDbEntity
8
0
6
ByLayer
62
256
370
-1
100
AcDbLine
10
288.2505868
20
-156.8930066
11
289.9755868
21
-156.8930066
0
LINE
5
56E
100
AcDbEntity
8
0
6
ByLayer
62
256
370
-1
100
AcDbLine
10
289.9755868
20
-156.8930066
11
289.9755868
21
-150.6244066
0
LINE
5
56F
100
AcDbEntity
8
0
6
ByLayer
62
256
370
-1
100
AcDbLine
10
289.9755868
20
-150.6244066
11
290.8005868
21
-150.6244066
0
LINE
5
570
100
AcDbEntity
8
0
6
ByLayer
62
256
370
-1
100
AcDbLine
10
290.8005868
20
-150.6244066
11
290.8005868
21
-147.8241066
0
LINE
5
571
100
AcDbEntity
8
0
6
ByLayer
62
256
370
-1
100
AcDbLine
10
290.8005868
20
-147.8241066
11
289.9755868
21
-147.8241066
0
LINE
5
572
100
AcDbEntity
8
0
6
ByLayer
62
256
370
-1
100
AcDbLine
10
289.9755868
20
-147.8241066
11
289.9755868
21
-144.5941066
0
LINE
5
573
100
AcDbEntity
8
0
6
ByLayer
62
256
370
-1
100
AcDbLine
10
289.9755868
20
-144.5941066
11
288.2505868
21
-144.5941066
0
LINE
5
574
100
AcDbEntity
8
0
6
ByLayer
62
256
370
-1
100
AcDbLine
10
288.2505868
20
-144.5941066
11
288.2505868
21
-143.6747066
0
LINE
5
575
100
AcDbEntity
8
0
6
ByLayer
62
256
370
-1
100
AcDbLine
10
288.2505868
20
-143.6747066
11
284.9495868
21
-143.6747066
0
LINE
5
576
100
AcDbEntity
8
0
6
ByLayer
62
256
370
-1
100
AcDbLine
10
284.9495868
20
-143.6747066
11
284.9495868
21
-144.5941066
0
LINE
5
577
100
AcDbEntity
8
0
6
ByLayer
62
256
370
-1
100
AcDbLine
10
284.9495868
20
-144.5941066
11
283.2255868
21
-144.5941066
0
LINE
5
578
100
AcDbEntity
8
0
6
ByLayer
62
256
370
-1
100
AcDbLine
10
283.2255868
20
-144.5941066
11
283.2255868
21
-147.8241066
0
LINE
5
579
100
AcDbEntity
8
0
6
ByLayer
62
256
370
-1
100
AcDbLine
10
283.2255868
20
-147.8241066
11
281.7005868
21
-147.8241066
0
LINE
5
57A
100
AcDbEntity
8
0
6
ByLayer
62
256
370
-1
100
AcDbLine
10
281.7005868
20
-147.8241066
11
281.7005868
21
-143.1237066
0
LINE
5
57B
100
AcDbEntity
8
0
6
ByLayer
62
256
370
-1
100
AcDbLine
10
281.7005868
20
-143.1237066
11
267.7005868
21
-143.1237066
0
LINE
5
57C
100
AcDbEntity
8
0
6
ByLayer
62
256
370
-1
100
AcDbLine
10
10.5243868
20
-143.1237066
11
24.5252868
21
-143.1237066
0
LINE
5
57D
100
AcDbEntity
8
0
6
ByLayer
62
256
370
-1
100
AcDbLine
10
24.5252868
20
-143.1237066
11
24.5252868
21
-157.1244066
0
LINE
5
57E
100
AcDbEntity
8
0
6
ByLayer
62
256
370
-1
100
AcDbLine
10
24.5252868
20
-157.1244066
11
10.5243868
21
-157.1244066
0
LINE
5
57F
100
AcDbEntity
8
0
6
ByLayer
62
256
370
-1
100
AcDbLine
10
10.5243868
20
-157.1244066
11
10.5243868
21
-143.1237066
0
LINE
5
580
100
AcDbEntity
8
0
6
ByLayer
62
256
370
-1
100
AcDbLine
10
29.5757868
20
-143.1237066
11
43.5751868
21
-143.1237066
0
LINE
5
581
100
AcDbEntity
8
0
6
ByLayer
62
256
370
-1
100
AcDbLine
10
43.5751868
20
-143.1237066
11
43.5751868
21
-157.1244066
0
LINE
5
582
100
AcDbEntity
8
0
6
ByLayer
62
256
370
-1
100
AcDbLine
10
43.5751868
20
-157.1244066
11
29.5757868
21
-157.1244066
0
LINE
5
583
100
AcDbEntity
8
0
6
ByLayer
62
256
370
-1
100
AcDbLine
10
29.5757868
20
-157.1244066
11
29.5757868
21
-143.1237066
0
LINE
5
584
100
AcDbEntity
8
0
6
ByLayer
62
256
370
-1
100
AcDbLine
10
48.6258868
20
-143.1237066
11
62.6251868
21
-143.1237066
0
LINE
5
585
100
AcDbEntity
8
0
6
ByLayer
62
256
370
-1
100
AcDbLine
10
62.6251868
20
-143.1237066
11
62.6251868
21
-157.1244066
0
LINE
5
586
100
AcDbEntity
8
0
6
ByLayer
62
256
370
-1
100
AcDbLine
10
62.6251868
20
-157.1244066
11
48.6258868
21
-157.1244066
0
LINE
5
587
100
AcDbEntity
8
0
6
ByLayer
62
256
370
-1
100
AcDbLine
10
48.6258868
20
-157.1244066
11
48.6258868
21
-143.1237066
0
LINE
5
588
100
AcDbEntity
8
0
6
ByLayer
62
256
370
-1
100
AcDbLine
10
67.6758868
20
-143.1237066
11
81.6751868
21
-143.1237066
0
LINE
5
589
100
AcDbEntity
8
0
6
ByLayer
62
256
370
-1
100
AcDbLine
10
81.6751868
20
-143.1237066
11
81.6751868
21
-157.1244066
0
LINE
5
58A
100
AcDbEntity
8
0
6
ByLayer
62
256
370
-1
100
AcDbLine
10
81.6751868
20
-157.1244066
11
67.6758868
21
-157.1244066
0
LINE
5
58B
100
AcDbEntity
8
0
6
ByLayer
62
256
370
-1
100
AcDbLine
10
67.6758868
20
-157.1244066
11
67.6758868
21
-143.1237066
0
LINE
5
58C
100
AcDbEntity
8
0
6
ByLayer
62
256
370
-1
100
AcDbLine
10
86.7258868
20
-143.1237066
11
100.7255868
21
-143.1237066
0
LINE
5
58D
100
AcDbEntity
8
0
6
ByLayer
62
256
370
-1
100
AcDbLine
10
100.7255868
20
-143.1237066
11
100.7255868
21
-157.1244066
0
LINE
5
58E
100
AcDbEntity
8
0
6
ByLayer
62
256
370
-1
100
AcDbLine
10
100.7255868
20
-157.1244066
11
86.7258868
21
-157.1244066
0
LINE
5
58F
100
AcDbEntity
8
0
6
ByLayer
62
256
370
-1
100
AcDbLine
10
86.7258868
20
-157.1244066
11
86.7258868
21
-143.1237066
0
LINE
5
590
100
AcDbEntity
8
0
6
ByLayer
62
256
370
-1
100
AcDbLine
10
105.7745868
20
-143.1237066
11
119.7735868
21
-143.1237066
0
LINE
5
591
100
AcDbEntity
8
0
6
ByLayer
62
256
370
-1
100
AcDbLine
10
119.7735868
20
-143.1237066
11
119.7735868
21
-157.1244066
0
LINE
5
592
100
AcDbEntity
8
0
6
ByLayer
62
256
370
-1
100
AcDbLine
10
119.7735868
20
-157.1244066
11
105.7745868
21
-157.1244066
0
LINE
5
593
100
AcDbEntity
8
0
6
ByLayer
62
256
370
-1
100
AcDbLine
10
105.7745868
20
-157.1244066
11
105.7745868
21
-143.1237066
0
LINE
5
594
100
AcDbEntity
8
0
6
ByLayer
62
256
370
-1
100
AcDbLine
10
124.8245868
20
-143.1237066
11
138.8255868
21
-143.1237066
0
LINE
5
595
100
AcDbEntity
8
0
6
ByLayer
62
256
370
-1
100
AcDbLine
10
138.8255868
20
-143.1237066
11
138.8255868
21
-157.1244066
0
LINE
5
596
100
AcDbEntity
8
0
6
ByLayer
62
256
370
-1
100
AcDbLine
10
138.8255868
20
-157.1244066
11
124.8245868
21
-157.1244066
0
LINE
5
597
100
AcDbEntity
8
0
6
ByLayer
62
256
370
-1
100
AcDbLine
10
124.8245868
20
-157.1244066
11
124.8245868
21
-143.1237066
0
LINE
5
598
100
AcDbEntity
8
0
6
ByLayer
62
256
370
-1
100
AcDbLine
10
143.8755868
20
-143.1237066
11
157.8755868
21
-143.1237066
0
LINE
5
599
100
AcDbEntity
8
0
6
ByLayer
62
256
370
-1
100
AcDbLine
10
157.8755868
20
-143.1237066
11
157.8755868
21
-157.1244066
0
LINE
5
59A
100
AcDbEntity
8
0
6
ByLayer
62
256
370
-1
100
AcDbLine
10
157.8755868
20
-157.1244066
11
143.8755868
21
-157.1244066
0
LINE
5
59B
100
AcDbEntity
8
0
6
ByLayer
62
256
370
-1
100
AcDbLine
10
143.8755868
20
-157.1244066
11
143.8755868
21
-143.1237066
0
LINE
5
59C
100
AcDbEntity
8
0
6
ByLayer
62
256
370
-1
100
AcDbLine
10
162.9255868
20
-143.1237066
11
176.9255868
21
-143.1237066
0
LINE
5
59D
100
AcDbEntity
8
0
6
ByLayer
62
256
370
-1
100
AcDbLine
10
176.9255868
20
-143.1237066
11
176.9255868
21
-157.1244066
0
LINE
5
59E
100
AcDbEntity
8
0
6
ByLayer
62
256
370
-1
100
AcDbLine
10
176.9255868
20
-157.1244066
11
162.9255868
21
-157.1244066
0
LINE
5
59F
100
AcDbEntity
8
0
6
ByLayer
62
256
370
-1
100
AcDbLine
10
162.9255868
20
-157.1244066
11
162.9255868
21
-143.1237066
0
LINE
5
5A0
100
AcDbEntity
8
0
6
ByLayer
62
256
370
-1
100
AcDbLine
10
181.9755868
20
-143.1237066
11
195.9755868
21
-143.1237066
0
LINE
5
5A1
100
AcDbEntity
8
0
6
ByLayer
62
256
370
-1
100
AcDbLine
10
195.9755868
20
-143.1237066
11
195.9755868
21
-157.1244066
0
LINE
5
5A2
100
AcDbEntity
8
0
6
ByLayer
62
256
370
-1
100
AcDbLine
10
195.9755868
20
-157.1244066
11
181.9755868
21
-157.1244066
0
LINE
5
5A3
100
AcDbEntity
8
0
6
ByLayer
62
256
370
-1
100
AcDbLine
10
181.9755868
20
-157.1244066
11
181.9755868
21
-143.1237066
0
LINE
5
5A4
100
AcDbEntity
8
0
6
ByLayer
62
256
370
-1
100
AcDbLine
10
201.0255868
20
-143.1237066
11
215.0255868
21
-143.1237066
0
LINE
5
5A5
100
AcDbEntity
8
0
6
ByLayer
62
256
370
-1
100
AcDbLine
10
215.0255868
20
-143.1237066
11
215.0255868
21
-157.1244066
0
LINE
5
5A6
100
AcDbEntity
8
0
6
ByLayer
62
256
370
-1
100
AcDbLine
10
215.0255868
20
-157.1244066
11
201.0255868
21
-157.1244066
0
LINE
5
5A7
100
AcDbEntity
8
0
6
ByLayer
62
256
370
-1
100
AcDbLine
10
201.0255868
20
-157.1244066
11
201.0255868
21
-143.1237066
0
LINE
5
5A8
100
AcDbEntity
8
0
6
ByLayer
62
256
370
-1
100
AcDbLine
10
220.0755868
20
-143.1237066
11
234.0755868
21
-143.1237066
0
LINE
5
5A9
100
AcDbEntity
8
0
6
ByLayer
62
256
370
-1
100
AcDbLine
10
234.0755868
20
-143.1237066
11
234.0755868
21
-157.1244066
0
LINE
5
5AA
100
AcDbEntity
8
0
6
ByLayer
62
256
370
-1
100
AcDbLine
10
234.0755868
20
-157.1244066
11
220.0755868
21
-157.1244066
0
LINE
5
5AB
100
AcDbEntity
8
0
6
ByLayer
62
256
370
-1
100
AcDbLine
10
220.0755868
20
-157.1244066
11
220.0755868
21
-143.1237066
0
LINE
5
5AC
100
AcDbEntity
8
0
6
ByLayer
62
256
370
-1
100
AcDbLine
10
239.1255868
20
-143.1237066
11
253.1255868
21
-143.1237066
0
LINE
5
5AD
100
AcDbEntity
8
0
6
ByLayer
62
256
370
-1
100
AcDbLine
10
253.1255868
20
-143.1237066
11
253.1255868
21
-157.1244066
0
LINE
5
5AE
100
AcDbEntity
8
0
6
ByLayer
62
256
370
-1
100
AcDbLine
10
253.1255868
20
-157.1244066
11
239.1255868
21
-157.1244066
0
LINE
5
5AF
100
AcDbEntity
8
0
6
ByLayer
62
256
370
-1
100
AcDbLine
10
239.1255868
20
-157.1244066
11
239.1255868
21
-143.1237066
0
LINE
5
5B0
100
AcDbEntity
8
0
6
ByLayer
62
256
370
-1
100
AcDbLine
10
301.7505868
20
-132.594
11
301.7505868
21
-59.9997066
0
LINE
5
5B1
100
AcDbEntity
8
0
6
ByLayer
62
256
370
-1
100
AcDbLine
10
296.7515868
20
-64.9987066
11
296.7515868
21
-132.594
0
LINE
5
5B2
100
AcDbEntity
8
0
6
ByLayer
62
256
370
-1
100
AcDbLine
10
4.9998168
20
-132.594
11
296.7515868
21
-132.594
0
CIRCLE
5
5B3
100
AcDbEntity
8
0
6
ByLayer
62
256
370
-1
100
AcDbCircle
10
299.2500551
20
-62.4992066
40
1.4992066
0
CIRCLE
5
5B4
100
AcDbEntity
8
0
6
ByLayer
62
256
370
-1
100
AcDbCircle
10
2.4990234
20
-241.3495533
40
1.50055330101
0
CIRCLE
5
5B5
100
AcDbEntity
8
0
6
ByLayer
62
256
370
-1
100
AcDbCircle
10
299.2500551
20
-241.3495533
40
1.50055330251
0
CIRCLE
5
5B6
100
AcDbEntity
8
0
6
ByLayer
62
256
370
-1
100
AcDbCircle
10
299.2500551
20
-135.0992066
40
1.49920699392
0
CIRCLE
5
5B7
100
AcDbEntity
8
0
6
ByLayer
62
256
370
-1
100
AcDbCircle
10
2.5000551
20
-62.4992066
40
1.4992066
0
CIRCLE
5
5B8
100
AcDbEntity
8
0
6
ByLayer
62
256
370
-1
100
AcDbCircle
10
2.5000551
20
-135.0992066
40
1.49920699392
0
LINE
5
5B9
100
AcDbEntity
8
0
6
ByLayer
62
256
370
-1
100
AcDbLine
10
4.9998168
20
-64.9987066
11
5.0002934
21
-59.9997066
0
LINE
5
5BA
100
AcDbEntity
8
0
6
ByLayer
62
256
370
-1
100
AcDbLine
10
296.7515868
20
-59.9997066
11
301.7505868
21
-59.9997066
0
LINE
5
5BB
100
AcDbEntity
8
0
6
ByLayer
62
256
370
-1
100
AcDbLine
10
92.3438868
20
-220.7940066
11
131.9685934
21
-220.7940066
0
LINE
5
5BC
100
AcDbEntity
8
0
6
ByLayer
62
256
370
-1
100
AcDbLine
10
145.9685934
20
-220.7940066
11
185.5925868
21
-220.7940066
0
LINE
5
5BD
100
AcDbEntity
8
0
6
ByLayer
62
256
370
-1
100
AcDbLine
10
131.9685934
20
-220.7940066
11
131.9685868
21
-219.3250066
0
LINE
5
5BE
100
AcDbEntity
8
0
6
ByLayer
62
256
370
-1
100
AcDbLine
10
145.9685868
20
-219.3250066
11
145.9685934
21
-220.7940066
0
LINE
5
5BF
100
AcDbEntity
8
0
6
ByLayer
62
256
370
-1
100
AcDbLine
10
0
20
0
11
0
21
-60
0
LINE
5
5C0
100
AcDbEntity
8
0
6
ByLayer
62
256
370
-1
100
AcDbLine
10
0
20
0
11
110
21
0
0
LINE
5
5C1
100
AcDbEntity
8
0
6
ByLayer
62
256
370
-1
100
AcDbLine
10
110
20
0
11
140
21
-60
0
LINE
5
5C2
100
AcDbEntity
8
0
6
ByLayer
62
256
370
-1
100
AcDbLine
10
5
20
-60
11
5
21
-5
0
LINE
5
5C3
100
AcDbEntity
8
0
6
ByLayer
62
256
370
-1
100
AcDbLine
10
5
20
-5
11
108
21
-5
0
LINE
5
5C4
100
AcDbEntity
8
0
6
ByLayer
62
256
370
-1
100
AcDbLine
10
136.42229124
20
-61.788854382
11
138
21
-65
0
LINE
5
5C5
100
AcDbEntity
8
0
6
ByLayer
62
256
370
-1
100
AcDbLine
10
108
20
-5
11
136.42229124
21
-61.788854382
0
CIRCLE
5
5C6
100
AcDbEntity
8
0
6
ByLayer
62
256
370
-1
100
AcDbCircle
10
2.5
20
-2.5
40
1.4992066
0
CIRCLE
5
5C7
100
AcDbEntity
8
0
6
ByLayer
62
256
370
-1
100
AcDbCircle
10
105
20
-2.5
40
1.4992066
0
CIRCLE
5
5C8
100
AcDbEntity
8
0
6
ByLayer
62
256
370
-1
100
AcDbCircle
10
144
20
-62.5
40
1.4992066
0
LINE
5
5C9
100
AcDbEntity
8
0
6
ByLayer
62
256
370
-1
100
AcDbLine
10
0.000293400000032
20
-91.4997066
11
5.0002934
21
-91.4997066
0
LINE
5
5CA
100
AcDbEntity
8
0
6
ByLayer
62
256
370
-1
100
AcDbLine
10
5.0002934
20
-109.9997066
11
0.000293400000032
21
-109.9997066
0
LINE
5
5CB
100
AcDbEntity
8
0
6
ByLayer
62
256
370
-1
100
AcDbLine
10
4.9998168
20
-64.9987066
11
5.0002934
21
-91.4997066
0
LINE
5
5CC
100
AcDbEntity
8
0
6
ByLayer
62
256
370
-1
100
AcDbLine
10
0
20
-60
11
0.000293400000032
21
-91.4997066
0
LINE
5
5CD
100
AcDbEntity
8
0
6
ByLayer
62
256
370
-1
100
AcDbLine
10
5.0002934
20
-109.9997066
11
4.9998168
21
-132.594
0
LINE
5
5CE
100
AcDbEntity
8
0
6
ByLayer
62
256
370
-1
100
AcDbLine
10
0.000293400000032
20
-132.5997066
11
0.000293400000032
21
-109.9997066
0
LINE
5
5CF
100
AcDbEntity
8
0
6
ByLayer
62
256
370
-1
100
AcDbLine
10
159.9997066
20
-65.0002934
11
159.9997066
21
-60.0002934
0
LINE
5
5D0
100
AcDbEntity
8
0
6
ByLayer
62
256
370
-1
100
AcDbLine
10
247.9997066
20
-60.0002934
11
247.9997066
21
-65.0002934
0
LINE
5
5D1
100
AcDbEntity
8
0
6
ByLayer
62
256
370
-1
100
AcDbLine
10
139.9997066
20
-60.0002934
11
159.9997066
21
-60.0002934
0
LINE
5
5D2
100
AcDbEntity
8
0
6
ByLayer
62
256
370
-1
100
AcDbLine
10
159.9997066
20
-65.0002934
11
137.9997066
21
-65.0002934
0
LINE
5
5D3
100
AcDbEntity
8
0
6
ByLayer
62
256
370
-1
100
AcDbLine
10
247.9997066
20
-60.0002934
11
296.7512934
21
-60.0002934
0
LINE
5
5D4
100
AcDbEntity
8
0
6
ByLayer
62
256
370
-1
100
AcDbLine
10
296.7512934
20
-64.999
11
247.9997066
21
-65.0002934
0
ENDSEC
0
SECTION
2
OBJECTS
0
DICTIONARY
5
C
330
0
100
AcDbDictionary
281
1
3
ACAD_GROUP
350
D
3
ACAD_IMAGE_DICT
350
5D5
0
DICTIONARY
5
D
330
C
100
AcDbDictionary
281
1
0
IMAGEDEF_REACTOR
5
6A
330
6B
100
AcDbRasterImageDefReactor
90
2
330
6B
0
IMAGEDEF_REACTOR
5
74
330
75
100
AcDbRasterImageDefReactor
90
2
330
75
0
IMAGEDEF_REACTOR
5
7B
330
7C
100
AcDbRasterImageDefReactor
90
2
330
7C
0
DICTIONARY
5
5D5
330
C
100
AcDbDictionary
281
1
3
promicro
350
69
3
pizero
350
73
3
18650
350
7A
0
IMAGEDEF
5
69
102
{ACAD_REACTORS
330
6A
102
}
100
AcDbRasterImageDef
90
0
1
/home/pieter/Documents/CompuKeyboard/promicro.png
10
719
20
368
11
1
21
1
280
1
281
0
0
IMAGEDEF
5
73
102
{ACAD_REACTORS
330
74
102
}
100
AcDbRasterImageDef
90
0
1
/home/pieter/Documents/CompuKeyboard/pizero.png
10
774
20
354
11
1
21
1
280
1
281
0
0
IMAGEDEF
5
7A
102
{ACAD_REACTORS
330
7B
102
}
100
AcDbRasterImageDef
90
0
1
/home/pieter/Documents/CompuKeyboard/18650.png
10
130
20
450
11
1
21
1
280
1
281
0
0
ENDSEC
0
EOF
