  0
SECTION
  2
HEADER
  9
$ACADVER
  1
AC1009
  9
$EXTMIN
 10
0.0
 20
0.0
 30
0.0
  9
$EXTMAX
 10
1000.0
 20
1000.0
 30
0.0
  9
$FILLMODE
 70
 0
  9
$SPLFRAME
 70
 1
  0
ENDSEC
  0
SECTION
  2
TABLES
  0
TABLE
  2
LAYER
 70
1
  0
LAYER
  2
0
 70
     0
 62
     7
  6
CONTINUOUS
  0
ENDTAB
  0
ENDSEC
  0
SECTION
  2
ENTITIES
  0
LINE
  8
0
 62
     0
 10
0.0937066
 20
111.344
 30
0.0
 11
301.844
 21
111.344
 31
0.0
  0
LINE
  8
0
 62
     0
 10
301.844
 20
111.344
 30
0.0
 11
301.844
 21
0.0937066
 31
0.0
  0
LINE
  8
0
 62
     0
 10
301.844
 20
0.0937066
 30
0.0
 11
0.0937066
 21
0.0937066
 31
0.0
  0
LINE
  8
0
 62
     0
 10
0.0937066
 20
0.0937066
 30
0.0
 11
0.0937066
 21
111.344
 31
0.0
  0
LINE
  8
0
 62
     0
 10
298.881
 20
4.01973
 30
0.0
 11
298.462
 21
3.80753
 31
0.0
  0
LINE
  8
0
 62
     0
 10
298.462
 20
3.80753
 30
0.0
 11
298.13
 21
3.47541
 31
0.0
  0
LINE
  8
0
 62
     0
 10
298.13
 20
3.47541
 30
0.0
 11
297.918
 21
3.05649
 31
0.0
  0
LINE
  8
0
 62
     0
 10
297.918
 20
3.05649
 30
0.0
 11
297.845
 21
2.59347
 31
0.0
  0
LINE
  8
0
 62
     0
 10
297.845
 20
2.59347
 30
0.0
 11
297.918
 21
2.13045
 31
0.0
  0
LINE
  8
0
 62
     0
 10
297.918
 20
2.13045
 30
0.0
 11
298.13
 21
1.71152
 31
0.0
  0
LINE
  8
0
 62
     0
 10
298.13
 20
1.71152
 30
0.0
 11
298.462
 21
1.37942
 31
0.0
  0
LINE
  8
0
 62
     0
 10
298.462
 20
1.37942
 30
0.0
 11
298.881
 21
1.1672
 31
0.0
  0
LINE
  8
0
 62
     0
 10
298.881
 20
1.1672
 30
0.0
 11
299.344
 21
1.09416
 31
0.0
  0
LINE
  8
0
 62
     0
 10
299.344
 20
1.09416
 30
0.0
 11
299.807
 21
1.1672
 31
0.0
  0
LINE
  8
0
 62
     0
 10
299.807
 20
1.1672
 30
0.0
 11
300.226
 21
1.37942
 31
0.0
  0
LINE
  8
0
 62
     0
 10
300.226
 20
1.37942
 30
0.0
 11
300.559
 21
1.71152
 31
0.0
  0
LINE
  8
0
 62
     0
 10
300.559
 20
1.71152
 30
0.0
 11
300.771
 21
2.13045
 31
0.0
  0
LINE
  8
0
 62
     0
 10
300.771
 20
2.13045
 30
0.0
 11
300.845
 21
2.59347
 31
0.0
  0
LINE
  8
0
 62
     0
 10
300.845
 20
2.59347
 30
0.0
 11
300.771
 21
3.05649
 31
0.0
  0
LINE
  8
0
 62
     0
 10
300.771
 20
3.05649
 30
0.0
 11
300.559
 21
3.47541
 31
0.0
  0
LINE
  8
0
 62
     0
 10
300.559
 20
3.47541
 30
0.0
 11
300.226
 21
3.80753
 31
0.0
  0
LINE
  8
0
 62
     0
 10
300.226
 20
3.80753
 30
0.0
 11
299.807
 21
4.01973
 31
0.0
  0
LINE
  8
0
 62
     0
 10
299.807
 20
4.01973
 30
0.0
 11
299.344
 21
4.09416
 31
0.0
  0
LINE
  8
0
 62
     0
 10
299.344
 20
4.09416
 30
0.0
 11
298.881
 21
4.01973
 31
0.0
  0
LINE
  8
0
 62
     0
 10
2.12907
 20
4.01973
 30
0.0
 11
1.71152
 21
3.80753
 31
0.0
  0
LINE
  8
0
 62
     0
 10
1.71152
 20
3.80753
 30
0.0
 11
1.37942
 21
3.47541
 31
0.0
  0
LINE
  8
0
 62
     0
 10
1.37942
 20
3.47541
 30
0.0
 11
1.1672
 21
3.05649
 31
0.0
  0
LINE
  8
0
 62
     0
 10
1.1672
 20
3.05649
 30
0.0
 11
1.09279
 21
2.59347
 31
0.0
  0
LINE
  8
0
 62
     0
 10
1.09279
 20
2.59347
 30
0.0
 11
1.1672
 21
2.13045
 31
0.0
  0
LINE
  8
0
 62
     0
 10
1.1672
 20
2.13045
 30
0.0
 11
1.37942
 21
1.71152
 31
0.0
  0
LINE
  8
0
 62
     0
 10
1.37942
 20
1.71152
 30
0.0
 11
1.71152
 21
1.37942
 31
0.0
  0
LINE
  8
0
 62
     0
 10
1.71152
 20
1.37942
 30
0.0
 11
2.12907
 21
1.1672
 31
0.0
  0
LINE
  8
0
 62
     0
 10
2.12907
 20
1.1672
 30
0.0
 11
2.59347
 21
1.09416
 31
0.0
  0
LINE
  8
0
 62
     0
 10
2.59347
 20
1.09416
 30
0.0
 11
3.05649
 21
1.1672
 31
0.0
  0
LINE
  8
0
 62
     0
 10
3.05649
 20
1.1672
 30
0.0
 11
3.47541
 21
1.37942
 31
0.0
  0
LINE
  8
0
 62
     0
 10
3.47541
 20
1.37942
 30
0.0
 11
3.80615
 21
1.71152
 31
0.0
  0
LINE
  8
0
 62
     0
 10
3.80615
 20
1.71152
 30
0.0
 11
4.01973
 21
2.13045
 31
0.0
  0
LINE
  8
0
 62
     0
 10
4.01973
 20
2.13045
 30
0.0
 11
4.09416
 21
2.59347
 31
0.0
  0
LINE
  8
0
 62
     0
 10
4.09416
 20
2.59347
 30
0.0
 11
4.01973
 21
3.05649
 31
0.0
  0
LINE
  8
0
 62
     0
 10
4.01973
 20
3.05649
 30
0.0
 11
3.80615
 21
3.47541
 31
0.0
  0
LINE
  8
0
 62
     0
 10
3.80615
 20
3.47541
 30
0.0
 11
3.47541
 21
3.80753
 31
0.0
  0
LINE
  8
0
 62
     0
 10
3.47541
 20
3.80753
 30
0.0
 11
3.05649
 21
4.01973
 31
0.0
  0
LINE
  8
0
 62
     0
 10
3.05649
 20
4.01973
 30
0.0
 11
2.59347
 21
4.09416
 31
0.0
  0
LINE
  8
0
 62
     0
 10
2.59347
 20
4.09416
 30
0.0
 11
2.12907
 21
4.01973
 31
0.0
  0
LINE
  8
0
 62
     0
 10
132.062
 20
24.6187
 30
0.0
 11
132.062
 21
19.9195
 31
0.0
  0
LINE
  8
0
 62
     0
 10
132.062
 20
19.9195
 30
0.0
 11
92.4373
 21
19.9195
 31
0.0
  0
LINE
  8
0
 62
     0
 10
92.4373
 20
19.9195
 30
0.0
 11
92.4373
 21
23.1497
 31
0.0
  0
LINE
  8
0
 62
     0
 10
92.4373
 20
23.1497
 30
0.0
 11
90.7122
 21
23.1497
 31
0.0
  0
LINE
  8
0
 62
     0
 10
90.7122
 20
23.1497
 30
0.0
 11
90.7122
 21
24.0702
 31
0.0
  0
LINE
  8
0
 62
     0
 10
90.7122
 20
24.0702
 30
0.0
 11
87.4116
 21
24.0702
 31
0.0
  0
LINE
  8
0
 62
     0
 10
87.4116
 20
24.0702
 30
0.0
 11
87.4116
 21
23.1497
 31
0.0
  0
LINE
  8
0
 62
     0
 10
87.4116
 20
23.1497
 30
0.0
 11
85.6865
 21
23.1497
 31
0.0
  0
LINE
  8
0
 62
     0
 10
85.6865
 20
23.1497
 30
0.0
 11
85.6865
 21
19.9195
 31
0.0
  0
LINE
  8
0
 62
     0
 10
85.6865
 20
19.9195
 30
0.0
 11
84.8625
 21
19.9195
 31
0.0
  0
LINE
  8
0
 62
     0
 10
84.8625
 20
19.9195
 30
0.0
 11
84.8625
 21
17.1194
 31
0.0
  0
LINE
  8
0
 62
     0
 10
84.8625
 20
17.1194
 30
0.0
 11
85.6865
 21
17.1194
 31
0.0
  0
LINE
  8
0
 62
     0
 10
85.6865
 20
17.1194
 30
0.0
 11
85.6865
 21
10.8507
 31
0.0
  0
LINE
  8
0
 62
     0
 10
85.6865
 20
10.8507
 30
0.0
 11
87.4116
 21
10.8507
 31
0.0
  0
LINE
  8
0
 62
     0
 10
87.4116
 20
10.8507
 30
0.0
 11
87.4116
 21
9.86952
 31
0.0
  0
LINE
  8
0
 62
     0
 10
87.4116
 20
9.86952
 30
0.0
 11
90.7122
 21
9.86952
 31
0.0
  0
LINE
  8
0
 62
     0
 10
90.7122
 20
9.86952
 30
0.0
 11
90.7122
 21
10.8507
 31
0.0
  0
LINE
  8
0
 62
     0
 10
90.7122
 20
10.8507
 30
0.0
 11
92.4373
 21
10.8507
 31
0.0
  0
LINE
  8
0
 62
     0
 10
92.4373
 20
10.8507
 30
0.0
 11
92.4373
 21
15.3197
 31
0.0
  0
LINE
  8
0
 62
     0
 10
92.4373
 20
15.3197
 30
0.0
 11
132.062
 21
15.3197
 31
0.0
  0
LINE
  8
0
 62
     0
 10
132.062
 20
15.3197
 30
0.0
 11
132.062
 21
10.6192
 31
0.0
  0
LINE
  8
0
 62
     0
 10
132.062
 20
10.6192
 30
0.0
 11
146.062
 21
10.6192
 31
0.0
  0
LINE
  8
0
 62
     0
 10
146.062
 20
10.6192
 30
0.0
 11
146.062
 21
15.3197
 31
0.0
  0
LINE
  8
0
 62
     0
 10
146.062
 20
15.3197
 30
0.0
 11
185.686
 21
15.3197
 31
0.0
  0
LINE
  8
0
 62
     0
 10
185.686
 20
15.3197
 30
0.0
 11
185.686
 21
10.8507
 31
0.0
  0
LINE
  8
0
 62
     0
 10
185.686
 20
10.8507
 30
0.0
 11
187.412
 21
10.8507
 31
0.0
  0
LINE
  8
0
 62
     0
 10
187.412
 20
10.8507
 30
0.0
 11
187.412
 21
9.86952
 31
0.0
  0
LINE
  8
0
 62
     0
 10
187.412
 20
9.86952
 30
0.0
 11
190.712
 21
9.86952
 31
0.0
  0
LINE
  8
0
 62
     0
 10
190.712
 20
9.86952
 30
0.0
 11
190.712
 21
10.8507
 31
0.0
  0
LINE
  8
0
 62
     0
 10
190.712
 20
10.8507
 30
0.0
 11
192.436
 21
10.8507
 31
0.0
  0
LINE
  8
0
 62
     0
 10
192.436
 20
10.8507
 30
0.0
 11
192.436
 21
17.1194
 31
0.0
  0
LINE
  8
0
 62
     0
 10
192.436
 20
17.1194
 30
0.0
 11
193.262
 21
17.1194
 31
0.0
  0
LINE
  8
0
 62
     0
 10
193.262
 20
17.1194
 30
0.0
 11
193.262
 21
19.9195
 31
0.0
  0
LINE
  8
0
 62
     0
 10
193.262
 20
19.9195
 30
0.0
 11
192.436
 21
19.9195
 31
0.0
  0
LINE
  8
0
 62
     0
 10
192.436
 20
19.9195
 30
0.0
 11
192.436
 21
23.1497
 31
0.0
  0
LINE
  8
0
 62
     0
 10
192.436
 20
23.1497
 30
0.0
 11
190.712
 21
23.1497
 31
0.0
  0
LINE
  8
0
 62
     0
 10
190.712
 20
23.1497
 30
0.0
 11
190.712
 21
24.0702
 31
0.0
  0
LINE
  8
0
 62
     0
 10
190.712
 20
24.0702
 30
0.0
 11
187.412
 21
24.0702
 31
0.0
  0
LINE
  8
0
 62
     0
 10
187.412
 20
24.0702
 30
0.0
 11
187.412
 21
23.1497
 31
0.0
  0
LINE
  8
0
 62
     0
 10
187.412
 20
23.1497
 30
0.0
 11
185.686
 21
23.1497
 31
0.0
  0
LINE
  8
0
 62
     0
 10
185.686
 20
23.1497
 30
0.0
 11
185.686
 21
19.9195
 31
0.0
  0
LINE
  8
0
 62
     0
 10
185.686
 20
19.9195
 30
0.0
 11
146.062
 21
19.9195
 31
0.0
  0
LINE
  8
0
 62
     0
 10
146.062
 20
19.9195
 30
0.0
 11
146.062
 21
24.6187
 31
0.0
  0
LINE
  8
0
 62
     0
 10
146.062
 20
24.6187
 30
0.0
 11
132.062
 21
24.6187
 31
0.0
  0
LINE
  8
0
 62
     0
 10
13.0004
 20
24.6187
 30
0.0
 11
26.9999
 21
24.6187
 31
0.0
  0
LINE
  8
0
 62
     0
 10
26.9999
 20
24.6187
 30
0.0
 11
26.9999
 21
10.6192
 31
0.0
  0
LINE
  8
0
 62
     0
 10
26.9999
 20
10.6192
 30
0.0
 11
13.0004
 21
10.6192
 31
0.0
  0
LINE
  8
0
 62
     0
 10
13.0004
 20
10.6192
 30
0.0
 11
13.0004
 21
24.6187
 31
0.0
  0
LINE
  8
0
 62
     0
 10
36.8117
 20
24.6187
 30
0.0
 11
50.8123
 21
24.6187
 31
0.0
  0
LINE
  8
0
 62
     0
 10
50.8123
 20
24.6187
 30
0.0
 11
50.8123
 21
10.6192
 31
0.0
  0
LINE
  8
0
 62
     0
 10
50.8123
 20
10.6192
 30
0.0
 11
36.8117
 21
10.6192
 31
0.0
  0
LINE
  8
0
 62
     0
 10
36.8117
 20
10.6192
 30
0.0
 11
36.8117
 21
24.6187
 31
0.0
  0
LINE
  8
0
 62
     0
 10
60.6256
 20
24.6187
 30
0.0
 11
74.6248
 21
24.6187
 31
0.0
  0
LINE
  8
0
 62
     0
 10
74.6248
 20
24.6187
 30
0.0
 11
74.6248
 21
10.6192
 31
0.0
  0
LINE
  8
0
 62
     0
 10
74.6248
 20
10.6192
 30
0.0
 11
60.6256
 21
10.6192
 31
0.0
  0
LINE
  8
0
 62
     0
 10
60.6256
 20
10.6192
 30
0.0
 11
60.6256
 21
24.6187
 31
0.0
  0
LINE
  8
0
 62
     0
 10
203.501
 20
24.6187
 30
0.0
 11
217.5
 21
24.6187
 31
0.0
  0
LINE
  8
0
 62
     0
 10
217.5
 20
24.6187
 30
0.0
 11
217.5
 21
10.6192
 31
0.0
  0
LINE
  8
0
 62
     0
 10
217.5
 20
10.6192
 30
0.0
 11
203.501
 21
10.6192
 31
0.0
  0
LINE
  8
0
 62
     0
 10
203.501
 20
10.6192
 30
0.0
 11
203.501
 21
24.6187
 31
0.0
  0
LINE
  8
0
 62
     0
 10
227.312
 20
24.6187
 30
0.0
 11
241.312
 21
24.6187
 31
0.0
  0
LINE
  8
0
 62
     0
 10
241.312
 20
24.6187
 30
0.0
 11
241.312
 21
10.6192
 31
0.0
  0
LINE
  8
0
 62
     0
 10
241.312
 20
10.6192
 30
0.0
 11
227.312
 21
10.6192
 31
0.0
  0
LINE
  8
0
 62
     0
 10
227.312
 20
10.6192
 30
0.0
 11
227.312
 21
24.6187
 31
0.0
  0
LINE
  8
0
 62
     0
 10
251.126
 20
24.6187
 30
0.0
 11
265.125
 21
24.6187
 31
0.0
  0
LINE
  8
0
 62
     0
 10
265.125
 20
24.6187
 30
0.0
 11
265.125
 21
10.6192
 31
0.0
  0
LINE
  8
0
 62
     0
 10
265.125
 20
10.6192
 30
0.0
 11
251.126
 21
10.6192
 31
0.0
  0
LINE
  8
0
 62
     0
 10
251.126
 20
10.6192
 30
0.0
 11
251.126
 21
24.6187
 31
0.0
  0
LINE
  8
0
 62
     0
 10
274.937
 20
24.6187
 30
0.0
 11
288.937
 21
24.6187
 31
0.0
  0
LINE
  8
0
 62
     0
 10
288.937
 20
24.6187
 30
0.0
 11
288.937
 21
10.6192
 31
0.0
  0
LINE
  8
0
 62
     0
 10
288.937
 20
10.6192
 30
0.0
 11
274.937
 21
10.6192
 31
0.0
  0
LINE
  8
0
 62
     0
 10
274.937
 20
10.6192
 30
0.0
 11
274.937
 21
24.6187
 31
0.0
  0
LINE
  8
0
 62
     0
 10
22.5254
 20
43.6686
 30
0.0
 11
22.5254
 21
38.9696
 31
0.0
  0
LINE
  8
0
 62
     0
 10
22.5254
 20
38.9696
 30
0.0
 11
20.9999
 21
38.9696
 31
0.0
  0
LINE
  8
0
 62
     0
 10
20.9999
 20
38.9696
 30
0.0
 11
20.9999
 21
42.1996
 31
0.0
  0
LINE
  8
0
 62
     0
 10
20.9999
 20
42.1996
 30
0.0
 11
19.2746
 21
42.1996
 31
0.0
  0
LINE
  8
0
 62
     0
 10
19.2746
 20
42.1996
 30
0.0
 11
19.2746
 21
43.119
 31
0.0
  0
LINE
  8
0
 62
     0
 10
19.2746
 20
43.119
 30
0.0
 11
15.9742
 21
43.119
 31
0.0
  0
LINE
  8
0
 62
     0
 10
15.9742
 20
43.119
 30
0.0
 11
15.9742
 21
42.1996
 31
0.0
  0
LINE
  8
0
 62
     0
 10
15.9742
 20
42.1996
 30
0.0
 11
14.2503
 21
42.1996
 31
0.0
  0
LINE
  8
0
 62
     0
 10
14.2503
 20
42.1996
 30
0.0
 11
14.2503
 21
38.9696
 31
0.0
  0
LINE
  8
0
 62
     0
 10
14.2503
 20
38.9696
 30
0.0
 11
13.4249
 21
38.9696
 31
0.0
  0
LINE
  8
0
 62
     0
 10
13.4249
 20
38.9696
 30
0.0
 11
13.4249
 21
36.1692
 31
0.0
  0
LINE
  8
0
 62
     0
 10
13.4249
 20
36.1692
 30
0.0
 11
14.2503
 21
36.1692
 31
0.0
  0
LINE
  8
0
 62
     0
 10
14.2503
 20
36.1692
 30
0.0
 11
14.2503
 21
29.8993
 31
0.0
  0
LINE
  8
0
 62
     0
 10
14.2503
 20
29.8993
 30
0.0
 11
15.9742
 21
29.8993
 31
0.0
  0
LINE
  8
0
 62
     0
 10
15.9742
 20
29.8993
 30
0.0
 11
15.9742
 21
28.9195
 31
0.0
  0
LINE
  8
0
 62
     0
 10
15.9742
 20
28.9195
 30
0.0
 11
19.2746
 21
28.9195
 31
0.0
  0
LINE
  8
0
 62
     0
 10
19.2746
 20
28.9195
 30
0.0
 11
19.2746
 21
29.8993
 31
0.0
  0
LINE
  8
0
 62
     0
 10
19.2746
 20
29.8993
 30
0.0
 11
20.9999
 21
29.8993
 31
0.0
  0
LINE
  8
0
 62
     0
 10
20.9999
 20
29.8993
 30
0.0
 11
20.9999
 21
34.3697
 31
0.0
  0
LINE
  8
0
 62
     0
 10
20.9999
 20
34.3697
 30
0.0
 11
22.5254
 21
34.3697
 31
0.0
  0
LINE
  8
0
 62
     0
 10
22.5254
 20
34.3697
 30
0.0
 11
22.5254
 21
29.6692
 31
0.0
  0
LINE
  8
0
 62
     0
 10
22.5254
 20
29.6692
 30
0.0
 11
36.5248
 21
29.6692
 31
0.0
  0
LINE
  8
0
 62
     0
 10
36.5248
 20
29.6692
 30
0.0
 11
36.5248
 21
34.3697
 31
0.0
  0
LINE
  8
0
 62
     0
 10
36.5248
 20
34.3697
 30
0.0
 11
38.0503
 21
34.3697
 31
0.0
  0
LINE
  8
0
 62
     0
 10
38.0503
 20
34.3697
 30
0.0
 11
38.0503
 21
29.8993
 31
0.0
  0
LINE
  8
0
 62
     0
 10
38.0503
 20
29.8993
 30
0.0
 11
39.7743
 21
29.8993
 31
0.0
  0
LINE
  8
0
 62
     0
 10
39.7743
 20
29.8993
 30
0.0
 11
39.7743
 21
28.9195
 31
0.0
  0
LINE
  8
0
 62
     0
 10
39.7743
 20
28.9195
 30
0.0
 11
43.0749
 21
28.9195
 31
0.0
  0
LINE
  8
0
 62
     0
 10
43.0749
 20
28.9195
 30
0.0
 11
43.0749
 21
29.8993
 31
0.0
  0
LINE
  8
0
 62
     0
 10
43.0749
 20
29.8993
 30
0.0
 11
44.8
 21
29.8993
 31
0.0
  0
LINE
  8
0
 62
     0
 10
44.8
 20
29.8993
 30
0.0
 11
44.8
 21
36.1692
 31
0.0
  0
LINE
  8
0
 62
     0
 10
44.8
 20
36.1692
 30
0.0
 11
45.624
 21
36.1692
 31
0.0
  0
LINE
  8
0
 62
     0
 10
45.624
 20
36.1692
 30
0.0
 11
45.624
 21
38.9696
 31
0.0
  0
LINE
  8
0
 62
     0
 10
45.624
 20
38.9696
 30
0.0
 11
44.8
 21
38.9696
 31
0.0
  0
LINE
  8
0
 62
     0
 10
44.8
 20
38.9696
 30
0.0
 11
44.8
 21
42.1996
 31
0.0
  0
LINE
  8
0
 62
     0
 10
44.8
 20
42.1996
 30
0.0
 11
43.0749
 21
42.1996
 31
0.0
  0
LINE
  8
0
 62
     0
 10
43.0749
 20
42.1996
 30
0.0
 11
43.0749
 21
43.119
 31
0.0
  0
LINE
  8
0
 62
     0
 10
43.0749
 20
43.119
 30
0.0
 11
39.7743
 21
43.119
 31
0.0
  0
LINE
  8
0
 62
     0
 10
39.7743
 20
43.119
 30
0.0
 11
39.7743
 21
42.1996
 31
0.0
  0
LINE
  8
0
 62
     0
 10
39.7743
 20
42.1996
 30
0.0
 11
38.0503
 21
42.1996
 31
0.0
  0
LINE
  8
0
 62
     0
 10
38.0503
 20
42.1996
 30
0.0
 11
38.0503
 21
38.9696
 31
0.0
  0
LINE
  8
0
 62
     0
 10
38.0503
 20
38.9696
 30
0.0
 11
36.5248
 21
38.9696
 31
0.0
  0
LINE
  8
0
 62
     0
 10
36.5248
 20
38.9696
 30
0.0
 11
36.5248
 21
43.6686
 31
0.0
  0
LINE
  8
0
 62
     0
 10
36.5248
 20
43.6686
 30
0.0
 11
22.5254
 21
43.6686
 31
0.0
  0
LINE
  8
0
 62
     0
 10
260.651
 20
43.6686
 30
0.0
 11
260.651
 21
38.9696
 31
0.0
  0
LINE
  8
0
 62
     0
 10
260.651
 20
38.9696
 30
0.0
 11
259.125
 21
38.9696
 31
0.0
  0
LINE
  8
0
 62
     0
 10
259.125
 20
38.9696
 30
0.0
 11
259.125
 21
42.1996
 31
0.0
  0
LINE
  8
0
 62
     0
 10
259.125
 20
42.1996
 30
0.0
 11
257.4
 21
42.1996
 31
0.0
  0
LINE
  8
0
 62
     0
 10
257.4
 20
42.1996
 30
0.0
 11
257.4
 21
43.119
 31
0.0
  0
LINE
  8
0
 62
     0
 10
257.4
 20
43.119
 30
0.0
 11
254.099
 21
43.119
 31
0.0
  0
LINE
  8
0
 62
     0
 10
254.099
 20
43.119
 30
0.0
 11
254.099
 21
42.1996
 31
0.0
  0
LINE
  8
0
 62
     0
 10
254.099
 20
42.1996
 30
0.0
 11
252.375
 21
42.1996
 31
0.0
  0
LINE
  8
0
 62
     0
 10
252.375
 20
42.1996
 30
0.0
 11
252.375
 21
38.9696
 31
0.0
  0
LINE
  8
0
 62
     0
 10
252.375
 20
38.9696
 30
0.0
 11
251.55
 21
38.9696
 31
0.0
  0
LINE
  8
0
 62
     0
 10
251.55
 20
38.9696
 30
0.0
 11
251.55
 21
36.1692
 31
0.0
  0
LINE
  8
0
 62
     0
 10
251.55
 20
36.1692
 30
0.0
 11
252.375
 21
36.1692
 31
0.0
  0
LINE
  8
0
 62
     0
 10
252.375
 20
36.1692
 30
0.0
 11
252.375
 21
29.8993
 31
0.0
  0
LINE
  8
0
 62
     0
 10
252.375
 20
29.8993
 30
0.0
 11
254.099
 21
29.8993
 31
0.0
  0
LINE
  8
0
 62
     0
 10
254.099
 20
29.8993
 30
0.0
 11
254.099
 21
28.9195
 31
0.0
  0
LINE
  8
0
 62
     0
 10
254.099
 20
28.9195
 30
0.0
 11
257.4
 21
28.9195
 31
0.0
  0
LINE
  8
0
 62
     0
 10
257.4
 20
28.9195
 30
0.0
 11
257.4
 21
29.8993
 31
0.0
  0
LINE
  8
0
 62
     0
 10
257.4
 20
29.8993
 30
0.0
 11
259.125
 21
29.8993
 31
0.0
  0
LINE
  8
0
 62
     0
 10
259.125
 20
29.8993
 30
0.0
 11
259.125
 21
34.3697
 31
0.0
  0
LINE
  8
0
 62
     0
 10
259.125
 20
34.3697
 30
0.0
 11
260.651
 21
34.3697
 31
0.0
  0
LINE
  8
0
 62
     0
 10
260.651
 20
34.3697
 30
0.0
 11
260.651
 21
29.6692
 31
0.0
  0
LINE
  8
0
 62
     0
 10
260.651
 20
29.6692
 30
0.0
 11
274.65
 21
29.6692
 31
0.0
  0
LINE
  8
0
 62
     0
 10
274.65
 20
29.6692
 30
0.0
 11
274.65
 21
34.3697
 31
0.0
  0
LINE
  8
0
 62
     0
 10
274.65
 20
34.3697
 30
0.0
 11
276.175
 21
34.3697
 31
0.0
  0
LINE
  8
0
 62
     0
 10
276.175
 20
34.3697
 30
0.0
 11
276.175
 21
29.8993
 31
0.0
  0
LINE
  8
0
 62
     0
 10
276.175
 20
29.8993
 30
0.0
 11
277.899
 21
29.8993
 31
0.0
  0
LINE
  8
0
 62
     0
 10
277.899
 20
29.8993
 30
0.0
 11
277.899
 21
28.9195
 31
0.0
  0
LINE
  8
0
 62
     0
 10
277.899
 20
28.9195
 30
0.0
 11
281.2
 21
28.9195
 31
0.0
  0
LINE
  8
0
 62
     0
 10
281.2
 20
28.9195
 30
0.0
 11
281.2
 21
29.8993
 31
0.0
  0
LINE
  8
0
 62
     0
 10
281.2
 20
29.8993
 30
0.0
 11
282.925
 21
29.8993
 31
0.0
  0
LINE
  8
0
 62
     0
 10
282.925
 20
29.8993
 30
0.0
 11
282.925
 21
36.1692
 31
0.0
  0
LINE
  8
0
 62
     0
 10
282.925
 20
36.1692
 30
0.0
 11
283.749
 21
36.1692
 31
0.0
  0
LINE
  8
0
 62
     0
 10
283.749
 20
36.1692
 30
0.0
 11
283.749
 21
38.9696
 31
0.0
  0
LINE
  8
0
 62
     0
 10
283.749
 20
38.9696
 30
0.0
 11
282.925
 21
38.9696
 31
0.0
  0
LINE
  8
0
 62
     0
 10
282.925
 20
38.9696
 30
0.0
 11
282.925
 21
42.1996
 31
0.0
  0
LINE
  8
0
 62
     0
 10
282.925
 20
42.1996
 30
0.0
 11
281.2
 21
42.1996
 31
0.0
  0
LINE
  8
0
 62
     0
 10
281.2
 20
42.1996
 30
0.0
 11
281.2
 21
43.119
 31
0.0
  0
LINE
  8
0
 62
     0
 10
281.2
 20
43.119
 30
0.0
 11
277.899
 21
43.119
 31
0.0
  0
LINE
  8
0
 62
     0
 10
277.899
 20
43.119
 30
0.0
 11
277.899
 21
42.1996
 31
0.0
  0
LINE
  8
0
 62
     0
 10
277.899
 20
42.1996
 30
0.0
 11
276.175
 21
42.1996
 31
0.0
  0
LINE
  8
0
 62
     0
 10
276.175
 20
42.1996
 30
0.0
 11
276.175
 21
38.9696
 31
0.0
  0
LINE
  8
0
 62
     0
 10
276.175
 20
38.9696
 30
0.0
 11
274.65
 21
38.9696
 31
0.0
  0
LINE
  8
0
 62
     0
 10
274.65
 20
38.9696
 30
0.0
 11
274.65
 21
43.6686
 31
0.0
  0
LINE
  8
0
 62
     0
 10
274.65
 20
43.6686
 30
0.0
 11
260.651
 21
43.6686
 31
0.0
  0
LINE
  8
0
 62
     0
 10
53.4804
 20
43.6686
 30
0.0
 11
67.4811
 21
43.6686
 31
0.0
  0
LINE
  8
0
 62
     0
 10
67.4811
 20
43.6686
 30
0.0
 11
67.4811
 21
29.6692
 31
0.0
  0
LINE
  8
0
 62
     0
 10
67.4811
 20
29.6692
 30
0.0
 11
53.4804
 21
29.6692
 31
0.0
  0
LINE
  8
0
 62
     0
 10
53.4804
 20
29.6692
 30
0.0
 11
53.4804
 21
43.6686
 31
0.0
  0
LINE
  8
0
 62
     0
 10
72.5304
 20
43.6686
 30
0.0
 11
86.5311
 21
43.6686
 31
0.0
  0
LINE
  8
0
 62
     0
 10
86.5311
 20
43.6686
 30
0.0
 11
86.5311
 21
29.6692
 31
0.0
  0
LINE
  8
0
 62
     0
 10
86.5311
 20
29.6692
 30
0.0
 11
72.5304
 21
29.6692
 31
0.0
  0
LINE
  8
0
 62
     0
 10
72.5304
 20
29.6692
 30
0.0
 11
72.5304
 21
43.6686
 31
0.0
  0
LINE
  8
0
 62
     0
 10
91.5804
 20
43.6686
 30
0.0
 11
105.581
 21
43.6686
 31
0.0
  0
LINE
  8
0
 62
     0
 10
105.581
 20
43.6686
 30
0.0
 11
105.581
 21
29.6692
 31
0.0
  0
LINE
  8
0
 62
     0
 10
105.581
 20
29.6692
 30
0.0
 11
91.5804
 21
29.6692
 31
0.0
  0
LINE
  8
0
 62
     0
 10
91.5804
 20
29.6692
 30
0.0
 11
91.5804
 21
43.6686
 31
0.0
  0
LINE
  8
0
 62
     0
 10
110.63
 20
43.6686
 30
0.0
 11
124.631
 21
43.6686
 31
0.0
  0
LINE
  8
0
 62
     0
 10
124.631
 20
43.6686
 30
0.0
 11
124.631
 21
29.6692
 31
0.0
  0
LINE
  8
0
 62
     0
 10
124.631
 20
29.6692
 30
0.0
 11
110.63
 21
29.6692
 31
0.0
  0
LINE
  8
0
 62
     0
 10
110.63
 20
29.6692
 30
0.0
 11
110.63
 21
43.6686
 31
0.0
  0
LINE
  8
0
 62
     0
 10
129.68
 20
43.6686
 30
0.0
 11
143.681
 21
43.6686
 31
0.0
  0
LINE
  8
0
 62
     0
 10
143.681
 20
43.6686
 30
0.0
 11
143.681
 21
29.6692
 31
0.0
  0
LINE
  8
0
 62
     0
 10
143.681
 20
29.6692
 30
0.0
 11
129.68
 21
29.6692
 31
0.0
  0
LINE
  8
0
 62
     0
 10
129.68
 20
29.6692
 30
0.0
 11
129.68
 21
43.6686
 31
0.0
  0
LINE
  8
0
 62
     0
 10
148.73
 20
43.6686
 30
0.0
 11
162.731
 21
43.6686
 31
0.0
  0
LINE
  8
0
 62
     0
 10
162.731
 20
43.6686
 30
0.0
 11
162.731
 21
29.6692
 31
0.0
  0
LINE
  8
0
 62
     0
 10
162.731
 20
29.6692
 30
0.0
 11
148.73
 21
29.6692
 31
0.0
  0
LINE
  8
0
 62
     0
 10
148.73
 20
29.6692
 30
0.0
 11
148.73
 21
43.6686
 31
0.0
  0
LINE
  8
0
 62
     0
 10
167.78
 20
43.6686
 30
0.0
 11
181.781
 21
43.6686
 31
0.0
  0
LINE
  8
0
 62
     0
 10
181.781
 20
43.6686
 30
0.0
 11
181.781
 21
29.6692
 31
0.0
  0
LINE
  8
0
 62
     0
 10
181.781
 20
29.6692
 30
0.0
 11
167.78
 21
29.6692
 31
0.0
  0
LINE
  8
0
 62
     0
 10
167.78
 20
29.6692
 30
0.0
 11
167.78
 21
43.6686
 31
0.0
  0
LINE
  8
0
 62
     0
 10
186.83
 20
43.6686
 30
0.0
 11
200.831
 21
43.6686
 31
0.0
  0
LINE
  8
0
 62
     0
 10
200.831
 20
43.6686
 30
0.0
 11
200.831
 21
29.6692
 31
0.0
  0
LINE
  8
0
 62
     0
 10
200.831
 20
29.6692
 30
0.0
 11
186.83
 21
29.6692
 31
0.0
  0
LINE
  8
0
 62
     0
 10
186.83
 20
29.6692
 30
0.0
 11
186.83
 21
43.6686
 31
0.0
  0
LINE
  8
0
 62
     0
 10
205.88
 20
43.6686
 30
0.0
 11
219.881
 21
43.6686
 31
0.0
  0
LINE
  8
0
 62
     0
 10
219.881
 20
43.6686
 30
0.0
 11
219.881
 21
29.6692
 31
0.0
  0
LINE
  8
0
 62
     0
 10
219.881
 20
29.6692
 30
0.0
 11
205.88
 21
29.6692
 31
0.0
  0
LINE
  8
0
 62
     0
 10
205.88
 20
29.6692
 30
0.0
 11
205.88
 21
43.6686
 31
0.0
  0
LINE
  8
0
 62
     0
 10
224.93
 20
43.6686
 30
0.0
 11
238.931
 21
43.6686
 31
0.0
  0
LINE
  8
0
 62
     0
 10
238.931
 20
43.6686
 30
0.0
 11
238.931
 21
29.6692
 31
0.0
  0
LINE
  8
0
 62
     0
 10
238.931
 20
29.6692
 30
0.0
 11
224.93
 21
29.6692
 31
0.0
  0
LINE
  8
0
 62
     0
 10
224.93
 20
29.6692
 30
0.0
 11
224.93
 21
43.6686
 31
0.0
  0
LINE
  8
0
 62
     0
 10
265.412
 20
62.7186
 30
0.0
 11
265.412
 21
58.0196
 31
0.0
  0
LINE
  8
0
 62
     0
 10
265.412
 20
58.0196
 30
0.0
 11
263.887
 21
58.0196
 31
0.0
  0
LINE
  8
0
 62
     0
 10
263.887
 20
58.0196
 30
0.0
 11
263.887
 21
61.2496
 31
0.0
  0
LINE
  8
0
 62
     0
 10
263.887
 20
61.2496
 30
0.0
 11
262.162
 21
61.2496
 31
0.0
  0
LINE
  8
0
 62
     0
 10
262.162
 20
61.2496
 30
0.0
 11
262.162
 21
62.169
 31
0.0
  0
LINE
  8
0
 62
     0
 10
262.162
 20
62.169
 30
0.0
 11
258.862
 21
62.169
 31
0.0
  0
LINE
  8
0
 62
     0
 10
258.862
 20
62.169
 30
0.0
 11
258.862
 21
61.2496
 31
0.0
  0
LINE
  8
0
 62
     0
 10
258.862
 20
61.2496
 30
0.0
 11
257.137
 21
61.2496
 31
0.0
  0
LINE
  8
0
 62
     0
 10
257.137
 20
61.2496
 30
0.0
 11
257.137
 21
58.0196
 31
0.0
  0
LINE
  8
0
 62
     0
 10
257.137
 20
58.0196
 30
0.0
 11
256.312
 21
58.0196
 31
0.0
  0
LINE
  8
0
 62
     0
 10
256.312
 20
58.0196
 30
0.0
 11
256.312
 21
55.2192
 31
0.0
  0
LINE
  8
0
 62
     0
 10
256.312
 20
55.2192
 30
0.0
 11
257.137
 21
55.2192
 31
0.0
  0
LINE
  8
0
 62
     0
 10
257.137
 20
55.2192
 30
0.0
 11
257.137
 21
48.9493
 31
0.0
  0
LINE
  8
0
 62
     0
 10
257.137
 20
48.9493
 30
0.0
 11
258.862
 21
48.9493
 31
0.0
  0
LINE
  8
0
 62
     0
 10
258.862
 20
48.9493
 30
0.0
 11
258.862
 21
47.9697
 31
0.0
  0
LINE
  8
0
 62
     0
 10
258.862
 20
47.9697
 30
0.0
 11
262.162
 21
47.9697
 31
0.0
  0
LINE
  8
0
 62
     0
 10
262.162
 20
47.9697
 30
0.0
 11
262.162
 21
48.9493
 31
0.0
  0
LINE
  8
0
 62
     0
 10
262.162
 20
48.9493
 30
0.0
 11
263.887
 21
48.9493
 31
0.0
  0
LINE
  8
0
 62
     0
 10
263.887
 20
48.9493
 30
0.0
 11
263.887
 21
53.4197
 31
0.0
  0
LINE
  8
0
 62
     0
 10
263.887
 20
53.4197
 30
0.0
 11
265.412
 21
53.4197
 31
0.0
  0
LINE
  8
0
 62
     0
 10
265.412
 20
53.4197
 30
0.0
 11
265.412
 21
48.7193
 31
0.0
  0
LINE
  8
0
 62
     0
 10
265.412
 20
48.7193
 30
0.0
 11
279.412
 21
48.7193
 31
0.0
  0
LINE
  8
0
 62
     0
 10
279.412
 20
48.7193
 30
0.0
 11
279.412
 21
53.4197
 31
0.0
  0
LINE
  8
0
 62
     0
 10
279.412
 20
53.4197
 30
0.0
 11
280.936
 21
53.4197
 31
0.0
  0
LINE
  8
0
 62
     0
 10
280.936
 20
53.4197
 30
0.0
 11
280.936
 21
48.9493
 31
0.0
  0
LINE
  8
0
 62
     0
 10
280.936
 20
48.9493
 30
0.0
 11
282.662
 21
48.9493
 31
0.0
  0
LINE
  8
0
 62
     0
 10
282.662
 20
48.9493
 30
0.0
 11
282.662
 21
47.9697
 31
0.0
  0
LINE
  8
0
 62
     0
 10
282.662
 20
47.9697
 30
0.0
 11
285.962
 21
47.9697
 31
0.0
  0
LINE
  8
0
 62
     0
 10
285.962
 20
47.9697
 30
0.0
 11
285.962
 21
48.9493
 31
0.0
  0
LINE
  8
0
 62
     0
 10
285.962
 20
48.9493
 30
0.0
 11
287.686
 21
48.9493
 31
0.0
  0
LINE
  8
0
 62
     0
 10
287.686
 20
48.9493
 30
0.0
 11
287.686
 21
55.2192
 31
0.0
  0
LINE
  8
0
 62
     0
 10
287.686
 20
55.2192
 30
0.0
 11
288.512
 21
55.2192
 31
0.0
  0
LINE
  8
0
 62
     0
 10
288.512
 20
55.2192
 30
0.0
 11
288.512
 21
58.0196
 31
0.0
  0
LINE
  8
0
 62
     0
 10
288.512
 20
58.0196
 30
0.0
 11
287.686
 21
58.0196
 31
0.0
  0
LINE
  8
0
 62
     0
 10
287.686
 20
58.0196
 30
0.0
 11
287.686
 21
61.2496
 31
0.0
  0
LINE
  8
0
 62
     0
 10
287.686
 20
61.2496
 30
0.0
 11
285.962
 21
61.2496
 31
0.0
  0
LINE
  8
0
 62
     0
 10
285.962
 20
61.2496
 30
0.0
 11
285.962
 21
62.169
 31
0.0
  0
LINE
  8
0
 62
     0
 10
285.962
 20
62.169
 30
0.0
 11
282.662
 21
62.169
 31
0.0
  0
LINE
  8
0
 62
     0
 10
282.662
 20
62.169
 30
0.0
 11
282.662
 21
61.2496
 31
0.0
  0
LINE
  8
0
 62
     0
 10
282.662
 20
61.2496
 30
0.0
 11
280.936
 21
61.2496
 31
0.0
  0
LINE
  8
0
 62
     0
 10
280.936
 20
61.2496
 30
0.0
 11
280.936
 21
58.0196
 31
0.0
  0
LINE
  8
0
 62
     0
 10
280.936
 20
58.0196
 30
0.0
 11
279.412
 21
58.0196
 31
0.0
  0
LINE
  8
0
 62
     0
 10
279.412
 20
58.0196
 30
0.0
 11
279.412
 21
62.7186
 31
0.0
  0
LINE
  8
0
 62
     0
 10
279.412
 20
62.7186
 30
0.0
 11
265.412
 21
62.7186
 31
0.0
  0
LINE
  8
0
 62
     0
 10
17.7615
 20
62.7186
 30
0.0
 11
31.7624
 21
62.7186
 31
0.0
  0
LINE
  8
0
 62
     0
 10
31.7624
 20
62.7186
 30
0.0
 11
31.7624
 21
48.7193
 31
0.0
  0
LINE
  8
0
 62
     0
 10
31.7624
 20
48.7193
 30
0.0
 11
17.7615
 21
48.7193
 31
0.0
  0
LINE
  8
0
 62
     0
 10
17.7615
 20
48.7193
 30
0.0
 11
17.7615
 21
62.7186
 31
0.0
  0
LINE
  8
0
 62
     0
 10
43.9554
 20
62.7186
 30
0.0
 11
57.9561
 21
62.7186
 31
0.0
  0
LINE
  8
0
 62
     0
 10
57.9561
 20
62.7186
 30
0.0
 11
57.9561
 21
48.7193
 31
0.0
  0
LINE
  8
0
 62
     0
 10
57.9561
 20
48.7193
 30
0.0
 11
43.9554
 21
48.7193
 31
0.0
  0
LINE
  8
0
 62
     0
 10
43.9554
 20
48.7193
 30
0.0
 11
43.9554
 21
62.7186
 31
0.0
  0
LINE
  8
0
 62
     0
 10
63.0054
 20
62.7186
 30
0.0
 11
77.0061
 21
62.7186
 31
0.0
  0
LINE
  8
0
 62
     0
 10
77.0061
 20
62.7186
 30
0.0
 11
77.0061
 21
48.7193
 31
0.0
  0
LINE
  8
0
 62
     0
 10
77.0061
 20
48.7193
 30
0.0
 11
63.0054
 21
48.7193
 31
0.0
  0
LINE
  8
0
 62
     0
 10
63.0054
 20
48.7193
 30
0.0
 11
63.0054
 21
62.7186
 31
0.0
  0
LINE
  8
0
 62
     0
 10
82.0554
 20
62.7186
 30
0.0
 11
96.0561
 21
62.7186
 31
0.0
  0
LINE
  8
0
 62
     0
 10
96.0561
 20
62.7186
 30
0.0
 11
96.0561
 21
48.7193
 31
0.0
  0
LINE
  8
0
 62
     0
 10
96.0561
 20
48.7193
 30
0.0
 11
82.0554
 21
48.7193
 31
0.0
  0
LINE
  8
0
 62
     0
 10
82.0554
 20
48.7193
 30
0.0
 11
82.0554
 21
62.7186
 31
0.0
  0
LINE
  8
0
 62
     0
 10
101.105
 20
62.7186
 30
0.0
 11
115.106
 21
62.7186
 31
0.0
  0
LINE
  8
0
 62
     0
 10
115.106
 20
62.7186
 30
0.0
 11
115.106
 21
48.7193
 31
0.0
  0
LINE
  8
0
 62
     0
 10
115.106
 20
48.7193
 30
0.0
 11
101.105
 21
48.7193
 31
0.0
  0
LINE
  8
0
 62
     0
 10
101.105
 20
48.7193
 30
0.0
 11
101.105
 21
62.7186
 31
0.0
  0
LINE
  8
0
 62
     0
 10
120.155
 20
62.7186
 30
0.0
 11
134.156
 21
62.7186
 31
0.0
  0
LINE
  8
0
 62
     0
 10
134.156
 20
62.7186
 30
0.0
 11
134.156
 21
48.7193
 31
0.0
  0
LINE
  8
0
 62
     0
 10
134.156
 20
48.7193
 30
0.0
 11
120.155
 21
48.7193
 31
0.0
  0
LINE
  8
0
 62
     0
 10
120.155
 20
48.7193
 30
0.0
 11
120.155
 21
62.7186
 31
0.0
  0
LINE
  8
0
 62
     0
 10
139.205
 20
62.7186
 30
0.0
 11
153.206
 21
62.7186
 31
0.0
  0
LINE
  8
0
 62
     0
 10
153.206
 20
62.7186
 30
0.0
 11
153.206
 21
48.7193
 31
0.0
  0
LINE
  8
0
 62
     0
 10
153.206
 20
48.7193
 30
0.0
 11
139.205
 21
48.7193
 31
0.0
  0
LINE
  8
0
 62
     0
 10
139.205
 20
48.7193
 30
0.0
 11
139.205
 21
62.7186
 31
0.0
  0
LINE
  8
0
 62
     0
 10
158.255
 20
62.7186
 30
0.0
 11
172.256
 21
62.7186
 31
0.0
  0
LINE
  8
0
 62
     0
 10
172.256
 20
62.7186
 30
0.0
 11
172.256
 21
48.7193
 31
0.0
  0
LINE
  8
0
 62
     0
 10
172.256
 20
48.7193
 30
0.0
 11
158.255
 21
48.7193
 31
0.0
  0
LINE
  8
0
 62
     0
 10
158.255
 20
48.7193
 30
0.0
 11
158.255
 21
62.7186
 31
0.0
  0
LINE
  8
0
 62
     0
 10
177.305
 20
62.7186
 30
0.0
 11
191.306
 21
62.7186
 31
0.0
  0
LINE
  8
0
 62
     0
 10
191.306
 20
62.7186
 30
0.0
 11
191.306
 21
48.7193
 31
0.0
  0
LINE
  8
0
 62
     0
 10
191.306
 20
48.7193
 30
0.0
 11
177.305
 21
48.7193
 31
0.0
  0
LINE
  8
0
 62
     0
 10
177.305
 20
48.7193
 30
0.0
 11
177.305
 21
62.7186
 31
0.0
  0
LINE
  8
0
 62
     0
 10
196.355
 20
62.7186
 30
0.0
 11
210.356
 21
62.7186
 31
0.0
  0
LINE
  8
0
 62
     0
 10
210.356
 20
62.7186
 30
0.0
 11
210.356
 21
48.7193
 31
0.0
  0
LINE
  8
0
 62
     0
 10
210.356
 20
48.7193
 30
0.0
 11
196.355
 21
48.7193
 31
0.0
  0
LINE
  8
0
 62
     0
 10
196.355
 20
48.7193
 30
0.0
 11
196.355
 21
62.7186
 31
0.0
  0
LINE
  8
0
 62
     0
 10
215.405
 20
62.7186
 30
0.0
 11
229.406
 21
62.7186
 31
0.0
  0
LINE
  8
0
 62
     0
 10
229.406
 20
62.7186
 30
0.0
 11
229.406
 21
48.7193
 31
0.0
  0
LINE
  8
0
 62
     0
 10
229.406
 20
48.7193
 30
0.0
 11
215.405
 21
48.7193
 31
0.0
  0
LINE
  8
0
 62
     0
 10
215.405
 20
48.7193
 30
0.0
 11
215.405
 21
62.7186
 31
0.0
  0
LINE
  8
0
 62
     0
 10
234.455
 20
62.7186
 30
0.0
 11
248.456
 21
62.7186
 31
0.0
  0
LINE
  8
0
 62
     0
 10
248.456
 20
62.7186
 30
0.0
 11
248.456
 21
48.7193
 31
0.0
  0
LINE
  8
0
 62
     0
 10
248.456
 20
48.7193
 30
0.0
 11
234.455
 21
48.7193
 31
0.0
  0
LINE
  8
0
 62
     0
 10
234.455
 20
48.7193
 30
0.0
 11
234.455
 21
62.7186
 31
0.0
  0
LINE
  8
0
 62
     0
 10
15.3803
 20
81.7686
 30
0.0
 11
29.3812
 21
81.7686
 31
0.0
  0
LINE
  8
0
 62
     0
 10
29.3812
 20
81.7686
 30
0.0
 11
29.3812
 21
67.7693
 31
0.0
  0
LINE
  8
0
 62
     0
 10
29.3812
 20
67.7693
 30
0.0
 11
15.3803
 21
67.7693
 31
0.0
  0
LINE
  8
0
 62
     0
 10
15.3803
 20
67.7693
 30
0.0
 11
15.3803
 21
81.7686
 31
0.0
  0
LINE
  8
0
 62
     0
 10
39.1943
 20
81.7686
 30
0.0
 11
53.1936
 21
81.7686
 31
0.0
  0
LINE
  8
0
 62
     0
 10
53.1936
 20
81.7686
 30
0.0
 11
53.1936
 21
67.7693
 31
0.0
  0
LINE
  8
0
 62
     0
 10
53.1936
 20
67.7693
 30
0.0
 11
39.1943
 21
67.7693
 31
0.0
  0
LINE
  8
0
 62
     0
 10
39.1943
 20
67.7693
 30
0.0
 11
39.1943
 21
81.7686
 31
0.0
  0
LINE
  8
0
 62
     0
 10
58.2443
 20
81.7686
 30
0.0
 11
72.2436
 21
81.7686
 31
0.0
  0
LINE
  8
0
 62
     0
 10
72.2436
 20
81.7686
 30
0.0
 11
72.2436
 21
67.7693
 31
0.0
  0
LINE
  8
0
 62
     0
 10
72.2436
 20
67.7693
 30
0.0
 11
58.2443
 21
67.7693
 31
0.0
  0
LINE
  8
0
 62
     0
 10
58.2443
 20
67.7693
 30
0.0
 11
58.2443
 21
81.7686
 31
0.0
  0
LINE
  8
0
 62
     0
 10
77.2943
 20
81.7686
 30
0.0
 11
91.2936
 21
81.7686
 31
0.0
  0
LINE
  8
0
 62
     0
 10
91.2936
 20
81.7686
 30
0.0
 11
91.2936
 21
67.7693
 31
0.0
  0
LINE
  8
0
 62
     0
 10
91.2936
 20
67.7693
 30
0.0
 11
77.2943
 21
67.7693
 31
0.0
  0
LINE
  8
0
 62
     0
 10
77.2943
 20
67.7693
 30
0.0
 11
77.2943
 21
81.7686
 31
0.0
  0
LINE
  8
0
 62
     0
 10
96.3443
 20
81.7686
 30
0.0
 11
110.344
 21
81.7686
 31
0.0
  0
LINE
  8
0
 62
     0
 10
110.344
 20
81.7686
 30
0.0
 11
110.344
 21
67.7693
 31
0.0
  0
LINE
  8
0
 62
     0
 10
110.344
 20
67.7693
 30
0.0
 11
96.3443
 21
67.7693
 31
0.0
  0
LINE
  8
0
 62
     0
 10
96.3443
 20
67.7693
 30
0.0
 11
96.3443
 21
81.7686
 31
0.0
  0
LINE
  8
0
 62
     0
 10
115.394
 20
81.7686
 30
0.0
 11
129.394
 21
81.7686
 31
0.0
  0
LINE
  8
0
 62
     0
 10
129.394
 20
81.7686
 30
0.0
 11
129.394
 21
67.7693
 31
0.0
  0
LINE
  8
0
 62
     0
 10
129.394
 20
67.7693
 30
0.0
 11
115.394
 21
67.7693
 31
0.0
  0
LINE
  8
0
 62
     0
 10
115.394
 20
67.7693
 30
0.0
 11
115.394
 21
81.7686
 31
0.0
  0
LINE
  8
0
 62
     0
 10
134.444
 20
81.7686
 30
0.0
 11
148.444
 21
81.7686
 31
0.0
  0
LINE
  8
0
 62
     0
 10
148.444
 20
81.7686
 30
0.0
 11
148.444
 21
67.7693
 31
0.0
  0
LINE
  8
0
 62
     0
 10
148.444
 20
67.7693
 30
0.0
 11
134.444
 21
67.7693
 31
0.0
  0
LINE
  8
0
 62
     0
 10
134.444
 20
67.7693
 30
0.0
 11
134.444
 21
81.7686
 31
0.0
  0
LINE
  8
0
 62
     0
 10
153.494
 20
81.7686
 30
0.0
 11
167.494
 21
81.7686
 31
0.0
  0
LINE
  8
0
 62
     0
 10
167.494
 20
81.7686
 30
0.0
 11
167.494
 21
67.7693
 31
0.0
  0
LINE
  8
0
 62
     0
 10
167.494
 20
67.7693
 30
0.0
 11
153.494
 21
67.7693
 31
0.0
  0
LINE
  8
0
 62
     0
 10
153.494
 20
67.7693
 30
0.0
 11
153.494
 21
81.7686
 31
0.0
  0
LINE
  8
0
 62
     0
 10
172.544
 20
81.7686
 30
0.0
 11
186.544
 21
81.7686
 31
0.0
  0
LINE
  8
0
 62
     0
 10
186.544
 20
81.7686
 30
0.0
 11
186.544
 21
67.7693
 31
0.0
  0
LINE
  8
0
 62
     0
 10
186.544
 20
67.7693
 30
0.0
 11
172.544
 21
67.7693
 31
0.0
  0
LINE
  8
0
 62
     0
 10
172.544
 20
67.7693
 30
0.0
 11
172.544
 21
81.7686
 31
0.0
  0
LINE
  8
0
 62
     0
 10
191.594
 20
81.7686
 30
0.0
 11
205.594
 21
81.7686
 31
0.0
  0
LINE
  8
0
 62
     0
 10
205.594
 20
81.7686
 30
0.0
 11
205.594
 21
67.7693
 31
0.0
  0
LINE
  8
0
 62
     0
 10
205.594
 20
67.7693
 30
0.0
 11
191.594
 21
67.7693
 31
0.0
  0
LINE
  8
0
 62
     0
 10
191.594
 20
67.7693
 30
0.0
 11
191.594
 21
81.7686
 31
0.0
  0
LINE
  8
0
 62
     0
 10
210.644
 20
81.7686
 30
0.0
 11
224.644
 21
81.7686
 31
0.0
  0
LINE
  8
0
 62
     0
 10
224.644
 20
81.7686
 30
0.0
 11
224.644
 21
67.7693
 31
0.0
  0
LINE
  8
0
 62
     0
 10
224.644
 20
67.7693
 30
0.0
 11
210.644
 21
67.7693
 31
0.0
  0
LINE
  8
0
 62
     0
 10
210.644
 20
67.7693
 30
0.0
 11
210.644
 21
81.7686
 31
0.0
  0
LINE
  8
0
 62
     0
 10
229.694
 20
81.7686
 30
0.0
 11
243.694
 21
81.7686
 31
0.0
  0
LINE
  8
0
 62
     0
 10
243.694
 20
81.7686
 30
0.0
 11
243.694
 21
67.7693
 31
0.0
  0
LINE
  8
0
 62
     0
 10
243.694
 20
67.7693
 30
0.0
 11
229.694
 21
67.7693
 31
0.0
  0
LINE
  8
0
 62
     0
 10
229.694
 20
67.7693
 30
0.0
 11
229.694
 21
81.7686
 31
0.0
  0
LINE
  8
0
 62
     0
 10
248.744
 20
81.7686
 30
0.0
 11
262.744
 21
81.7686
 31
0.0
  0
LINE
  8
0
 62
     0
 10
262.744
 20
81.7686
 30
0.0
 11
262.744
 21
67.7693
 31
0.0
  0
LINE
  8
0
 62
     0
 10
262.744
 20
67.7693
 30
0.0
 11
248.744
 21
67.7693
 31
0.0
  0
LINE
  8
0
 62
     0
 10
248.744
 20
67.7693
 30
0.0
 11
248.744
 21
81.7686
 31
0.0
  0
LINE
  8
0
 62
     0
 10
272.555
 20
81.7686
 30
0.0
 11
286.556
 21
81.7686
 31
0.0
  0
LINE
  8
0
 62
     0
 10
286.556
 20
81.7686
 30
0.0
 11
286.556
 21
67.7693
 31
0.0
  0
LINE
  8
0
 62
     0
 10
286.556
 20
67.7693
 30
0.0
 11
272.555
 21
67.7693
 31
0.0
  0
LINE
  8
0
 62
     0
 10
272.555
 20
67.7693
 30
0.0
 11
272.555
 21
81.7686
 31
0.0
  0
LINE
  8
0
 62
     0
 10
267.794
 20
100.82
 30
0.0
 11
267.794
 21
96.1196
 31
0.0
  0
LINE
  8
0
 62
     0
 10
267.794
 20
96.1196
 30
0.0
 11
266.269
 21
96.1196
 31
0.0
  0
LINE
  8
0
 62
     0
 10
266.269
 20
96.1196
 30
0.0
 11
266.269
 21
99.3496
 31
0.0
  0
LINE
  8
0
 62
     0
 10
266.269
 20
99.3496
 30
0.0
 11
264.543
 21
99.3496
 31
0.0
  0
LINE
  8
0
 62
     0
 10
264.543
 20
99.3496
 30
0.0
 11
264.543
 21
100.269
 31
0.0
  0
LINE
  8
0
 62
     0
 10
264.543
 20
100.269
 30
0.0
 11
261.244
 21
100.269
 31
0.0
  0
LINE
  8
0
 62
     0
 10
261.244
 20
100.269
 30
0.0
 11
261.244
 21
99.3496
 31
0.0
  0
LINE
  8
0
 62
     0
 10
261.244
 20
99.3496
 30
0.0
 11
259.519
 21
99.3496
 31
0.0
  0
LINE
  8
0
 62
     0
 10
259.519
 20
99.3496
 30
0.0
 11
259.519
 21
96.1196
 31
0.0
  0
LINE
  8
0
 62
     0
 10
259.519
 20
96.1196
 30
0.0
 11
258.694
 21
96.1196
 31
0.0
  0
LINE
  8
0
 62
     0
 10
258.694
 20
96.1196
 30
0.0
 11
258.694
 21
93.3193
 31
0.0
  0
LINE
  8
0
 62
     0
 10
258.694
 20
93.3193
 30
0.0
 11
259.519
 21
93.3193
 31
0.0
  0
LINE
  8
0
 62
     0
 10
259.519
 20
93.3193
 30
0.0
 11
259.519
 21
87.0507
 31
0.0
  0
LINE
  8
0
 62
     0
 10
259.519
 20
87.0507
 30
0.0
 11
261.244
 21
87.0507
 31
0.0
  0
LINE
  8
0
 62
     0
 10
261.244
 20
87.0507
 30
0.0
 11
261.244
 21
86.0697
 31
0.0
  0
LINE
  8
0
 62
     0
 10
261.244
 20
86.0697
 30
0.0
 11
264.543
 21
86.0697
 31
0.0
  0
LINE
  8
0
 62
     0
 10
264.543
 20
86.0697
 30
0.0
 11
264.543
 21
87.0507
 31
0.0
  0
LINE
  8
0
 62
     0
 10
264.543
 20
87.0507
 30
0.0
 11
266.269
 21
87.0507
 31
0.0
  0
LINE
  8
0
 62
     0
 10
266.269
 20
87.0507
 30
0.0
 11
266.269
 21
91.5197
 31
0.0
  0
LINE
  8
0
 62
     0
 10
266.269
 20
91.5197
 30
0.0
 11
267.794
 21
91.5197
 31
0.0
  0
LINE
  8
0
 62
     0
 10
267.794
 20
91.5197
 30
0.0
 11
267.794
 21
86.8193
 31
0.0
  0
LINE
  8
0
 62
     0
 10
267.794
 20
86.8193
 30
0.0
 11
281.794
 21
86.8193
 31
0.0
  0
LINE
  8
0
 62
     0
 10
281.794
 20
86.8193
 30
0.0
 11
281.794
 21
91.5197
 31
0.0
  0
LINE
  8
0
 62
     0
 10
281.794
 20
91.5197
 30
0.0
 11
283.319
 21
91.5197
 31
0.0
  0
LINE
  8
0
 62
     0
 10
283.319
 20
91.5197
 30
0.0
 11
283.319
 21
87.0507
 31
0.0
  0
LINE
  8
0
 62
     0
 10
283.319
 20
87.0507
 30
0.0
 11
285.043
 21
87.0507
 31
0.0
  0
LINE
  8
0
 62
     0
 10
285.043
 20
87.0507
 30
0.0
 11
285.043
 21
86.0697
 31
0.0
  0
LINE
  8
0
 62
     0
 10
285.043
 20
86.0697
 30
0.0
 11
288.344
 21
86.0697
 31
0.0
  0
LINE
  8
0
 62
     0
 10
288.344
 20
86.0697
 30
0.0
 11
288.344
 21
87.0507
 31
0.0
  0
LINE
  8
0
 62
     0
 10
288.344
 20
87.0507
 30
0.0
 11
290.069
 21
87.0507
 31
0.0
  0
LINE
  8
0
 62
     0
 10
290.069
 20
87.0507
 30
0.0
 11
290.069
 21
93.3193
 31
0.0
  0
LINE
  8
0
 62
     0
 10
290.069
 20
93.3193
 30
0.0
 11
290.894
 21
93.3193
 31
0.0
  0
LINE
  8
0
 62
     0
 10
290.894
 20
93.3193
 30
0.0
 11
290.894
 21
96.1196
 31
0.0
  0
LINE
  8
0
 62
     0
 10
290.894
 20
96.1196
 30
0.0
 11
290.069
 21
96.1196
 31
0.0
  0
LINE
  8
0
 62
     0
 10
290.069
 20
96.1196
 30
0.0
 11
290.069
 21
99.3496
 31
0.0
  0
LINE
  8
0
 62
     0
 10
290.069
 20
99.3496
 30
0.0
 11
288.344
 21
99.3496
 31
0.0
  0
LINE
  8
0
 62
     0
 10
288.344
 20
99.3496
 30
0.0
 11
288.344
 21
100.269
 31
0.0
  0
LINE
  8
0
 62
     0
 10
288.344
 20
100.269
 30
0.0
 11
285.043
 21
100.269
 31
0.0
  0
LINE
  8
0
 62
     0
 10
285.043
 20
100.269
 30
0.0
 11
285.043
 21
99.3496
 31
0.0
  0
LINE
  8
0
 62
     0
 10
285.043
 20
99.3496
 30
0.0
 11
283.319
 21
99.3496
 31
0.0
  0
LINE
  8
0
 62
     0
 10
283.319
 20
99.3496
 30
0.0
 11
283.319
 21
96.1196
 31
0.0
  0
LINE
  8
0
 62
     0
 10
283.319
 20
96.1196
 30
0.0
 11
281.794
 21
96.1196
 31
0.0
  0
LINE
  8
0
 62
     0
 10
281.794
 20
96.1196
 30
0.0
 11
281.794
 21
100.82
 31
0.0
  0
LINE
  8
0
 62
     0
 10
281.794
 20
100.82
 30
0.0
 11
267.794
 21
100.82
 31
0.0
  0
LINE
  8
0
 62
     0
 10
10.6178
 20
100.82
 30
0.0
 11
24.6187
 21
100.82
 31
0.0
  0
LINE
  8
0
 62
     0
 10
24.6187
 20
100.82
 30
0.0
 11
24.6187
 21
86.8193
 31
0.0
  0
LINE
  8
0
 62
     0
 10
24.6187
 20
86.8193
 30
0.0
 11
10.6178
 21
86.8193
 31
0.0
  0
LINE
  8
0
 62
     0
 10
10.6178
 20
86.8193
 30
0.0
 11
10.6178
 21
100.82
 31
0.0
  0
LINE
  8
0
 62
     0
 10
29.6692
 20
100.82
 30
0.0
 11
43.6686
 21
100.82
 31
0.0
  0
LINE
  8
0
 62
     0
 10
43.6686
 20
100.82
 30
0.0
 11
43.6686
 21
86.8193
 31
0.0
  0
LINE
  8
0
 62
     0
 10
43.6686
 20
86.8193
 30
0.0
 11
29.6692
 21
86.8193
 31
0.0
  0
LINE
  8
0
 62
     0
 10
29.6692
 20
86.8193
 30
0.0
 11
29.6692
 21
100.82
 31
0.0
  0
LINE
  8
0
 62
     0
 10
48.7193
 20
100.82
 30
0.0
 11
62.7186
 21
100.82
 31
0.0
  0
LINE
  8
0
 62
     0
 10
62.7186
 20
100.82
 30
0.0
 11
62.7186
 21
86.8193
 31
0.0
  0
LINE
  8
0
 62
     0
 10
62.7186
 20
86.8193
 30
0.0
 11
48.7193
 21
86.8193
 31
0.0
  0
LINE
  8
0
 62
     0
 10
48.7193
 20
86.8193
 30
0.0
 11
48.7193
 21
100.82
 31
0.0
  0
LINE
  8
0
 62
     0
 10
67.7693
 20
100.82
 30
0.0
 11
81.7686
 21
100.82
 31
0.0
  0
LINE
  8
0
 62
     0
 10
81.7686
 20
100.82
 30
0.0
 11
81.7686
 21
86.8193
 31
0.0
  0
LINE
  8
0
 62
     0
 10
81.7686
 20
86.8193
 30
0.0
 11
67.7693
 21
86.8193
 31
0.0
  0
LINE
  8
0
 62
     0
 10
67.7693
 20
86.8193
 30
0.0
 11
67.7693
 21
100.82
 31
0.0
  0
LINE
  8
0
 62
     0
 10
86.8193
 20
100.82
 30
0.0
 11
100.819
 21
100.82
 31
0.0
  0
LINE
  8
0
 62
     0
 10
100.819
 20
100.82
 30
0.0
 11
100.819
 21
86.8193
 31
0.0
  0
LINE
  8
0
 62
     0
 10
100.819
 20
86.8193
 30
0.0
 11
86.8193
 21
86.8193
 31
0.0
  0
LINE
  8
0
 62
     0
 10
86.8193
 20
86.8193
 30
0.0
 11
86.8193
 21
100.82
 31
0.0
  0
LINE
  8
0
 62
     0
 10
105.868
 20
100.82
 30
0.0
 11
119.867
 21
100.82
 31
0.0
  0
LINE
  8
0
 62
     0
 10
119.867
 20
100.82
 30
0.0
 11
119.867
 21
86.8193
 31
0.0
  0
LINE
  8
0
 62
     0
 10
119.867
 20
86.8193
 30
0.0
 11
105.868
 21
86.8193
 31
0.0
  0
LINE
  8
0
 62
     0
 10
105.868
 20
86.8193
 30
0.0
 11
105.868
 21
100.82
 31
0.0
  0
LINE
  8
0
 62
     0
 10
124.918
 20
100.82
 30
0.0
 11
138.919
 21
100.82
 31
0.0
  0
LINE
  8
0
 62
     0
 10
138.919
 20
100.82
 30
0.0
 11
138.919
 21
86.8193
 31
0.0
  0
LINE
  8
0
 62
     0
 10
138.919
 20
86.8193
 30
0.0
 11
124.918
 21
86.8193
 31
0.0
  0
LINE
  8
0
 62
     0
 10
124.918
 20
86.8193
 30
0.0
 11
124.918
 21
100.82
 31
0.0
  0
LINE
  8
0
 62
     0
 10
143.969
 20
100.82
 30
0.0
 11
157.969
 21
100.82
 31
0.0
  0
LINE
  8
0
 62
     0
 10
157.969
 20
100.82
 30
0.0
 11
157.969
 21
86.8193
 31
0.0
  0
LINE
  8
0
 62
     0
 10
157.969
 20
86.8193
 30
0.0
 11
143.969
 21
86.8193
 31
0.0
  0
LINE
  8
0
 62
     0
 10
143.969
 20
86.8193
 30
0.0
 11
143.969
 21
100.82
 31
0.0
  0
LINE
  8
0
 62
     0
 10
163.019
 20
100.82
 30
0.0
 11
177.019
 21
100.82
 31
0.0
  0
LINE
  8
0
 62
     0
 10
177.019
 20
100.82
 30
0.0
 11
177.019
 21
86.8193
 31
0.0
  0
LINE
  8
0
 62
     0
 10
177.019
 20
86.8193
 30
0.0
 11
163.019
 21
86.8193
 31
0.0
  0
LINE
  8
0
 62
     0
 10
163.019
 20
86.8193
 30
0.0
 11
163.019
 21
100.82
 31
0.0
  0
LINE
  8
0
 62
     0
 10
182.069
 20
100.82
 30
0.0
 11
196.069
 21
100.82
 31
0.0
  0
LINE
  8
0
 62
     0
 10
196.069
 20
100.82
 30
0.0
 11
196.069
 21
86.8193
 31
0.0
  0
LINE
  8
0
 62
     0
 10
196.069
 20
86.8193
 30
0.0
 11
182.069
 21
86.8193
 31
0.0
  0
LINE
  8
0
 62
     0
 10
182.069
 20
86.8193
 30
0.0
 11
182.069
 21
100.82
 31
0.0
  0
LINE
  8
0
 62
     0
 10
201.119
 20
100.82
 30
0.0
 11
215.119
 21
100.82
 31
0.0
  0
LINE
  8
0
 62
     0
 10
215.119
 20
100.82
 30
0.0
 11
215.119
 21
86.8193
 31
0.0
  0
LINE
  8
0
 62
     0
 10
215.119
 20
86.8193
 30
0.0
 11
201.119
 21
86.8193
 31
0.0
  0
LINE
  8
0
 62
     0
 10
201.119
 20
86.8193
 30
0.0
 11
201.119
 21
100.82
 31
0.0
  0
LINE
  8
0
 62
     0
 10
220.169
 20
100.82
 30
0.0
 11
234.169
 21
100.82
 31
0.0
  0
LINE
  8
0
 62
     0
 10
234.169
 20
100.82
 30
0.0
 11
234.169
 21
86.8193
 31
0.0
  0
LINE
  8
0
 62
     0
 10
234.169
 20
86.8193
 30
0.0
 11
220.169
 21
86.8193
 31
0.0
  0
LINE
  8
0
 62
     0
 10
220.169
 20
86.8193
 30
0.0
 11
220.169
 21
100.82
 31
0.0
  0
LINE
  8
0
 62
     0
 10
239.219
 20
100.82
 30
0.0
 11
253.219
 21
100.82
 31
0.0
  0
LINE
  8
0
 62
     0
 10
253.219
 20
100.82
 30
0.0
 11
253.219
 21
86.8193
 31
0.0
  0
LINE
  8
0
 62
     0
 10
253.219
 20
86.8193
 30
0.0
 11
239.219
 21
86.8193
 31
0.0
  0
LINE
  8
0
 62
     0
 10
239.219
 20
86.8193
 30
0.0
 11
239.219
 21
100.82
 31
0.0
  0
LINE
  8
0
 62
     0
 10
298.881
 20
110.271
 30
0.0
 11
298.462
 21
110.059
 31
0.0
  0
LINE
  8
0
 62
     0
 10
298.462
 20
110.059
 30
0.0
 11
298.13
 21
109.726
 31
0.0
  0
LINE
  8
0
 62
     0
 10
298.13
 20
109.726
 30
0.0
 11
297.918
 21
109.309
 31
0.0
  0
LINE
  8
0
 62
     0
 10
297.918
 20
109.309
 30
0.0
 11
297.845
 21
108.844
 31
0.0
  0
LINE
  8
0
 62
     0
 10
297.845
 20
108.844
 30
0.0
 11
297.918
 21
108.381
 31
0.0
  0
LINE
  8
0
 62
     0
 10
297.918
 20
108.381
 30
0.0
 11
298.13
 21
107.962
 31
0.0
  0
LINE
  8
0
 62
     0
 10
298.13
 20
107.962
 30
0.0
 11
298.462
 21
107.632
 31
0.0
  0
LINE
  8
0
 62
     0
 10
298.462
 20
107.632
 30
0.0
 11
298.881
 21
107.418
 31
0.0
  0
LINE
  8
0
 62
     0
 10
298.881
 20
107.418
 30
0.0
 11
299.344
 21
107.344
 31
0.0
  0
LINE
  8
0
 62
     0
 10
299.344
 20
107.344
 30
0.0
 11
299.807
 21
107.418
 31
0.0
  0
LINE
  8
0
 62
     0
 10
299.807
 20
107.418
 30
0.0
 11
300.226
 21
107.632
 31
0.0
  0
LINE
  8
0
 62
     0
 10
300.226
 20
107.632
 30
0.0
 11
300.559
 21
107.962
 31
0.0
  0
LINE
  8
0
 62
     0
 10
300.559
 20
107.962
 30
0.0
 11
300.771
 21
108.381
 31
0.0
  0
LINE
  8
0
 62
     0
 10
300.771
 20
108.381
 30
0.0
 11
300.845
 21
108.844
 31
0.0
  0
LINE
  8
0
 62
     0
 10
300.845
 20
108.844
 30
0.0
 11
300.771
 21
109.309
 31
0.0
  0
LINE
  8
0
 62
     0
 10
300.771
 20
109.309
 30
0.0
 11
300.559
 21
109.726
 31
0.0
  0
LINE
  8
0
 62
     0
 10
300.559
 20
109.726
 30
0.0
 11
300.226
 21
110.059
 31
0.0
  0
LINE
  8
0
 62
     0
 10
300.226
 20
110.059
 30
0.0
 11
299.807
 21
110.271
 31
0.0
  0
LINE
  8
0
 62
     0
 10
299.807
 20
110.271
 30
0.0
 11
299.344
 21
110.344
 31
0.0
  0
LINE
  8
0
 62
     0
 10
299.344
 20
110.344
 30
0.0
 11
298.881
 21
110.271
 31
0.0
  0
LINE
  8
0
 62
     0
 10
2.12907
 20
110.271
 30
0.0
 11
1.71152
 21
110.059
 31
0.0
  0
LINE
  8
0
 62
     0
 10
1.71152
 20
110.059
 30
0.0
 11
1.37942
 21
109.726
 31
0.0
  0
LINE
  8
0
 62
     0
 10
1.37942
 20
109.726
 30
0.0
 11
1.1672
 21
109.309
 31
0.0
  0
LINE
  8
0
 62
     0
 10
1.1672
 20
109.309
 30
0.0
 11
1.09279
 21
108.844
 31
0.0
  0
LINE
  8
0
 62
     0
 10
1.09279
 20
108.844
 30
0.0
 11
1.1672
 21
108.381
 31
0.0
  0
LINE
  8
0
 62
     0
 10
1.1672
 20
108.381
 30
0.0
 11
1.37942
 21
107.962
 31
0.0
  0
LINE
  8
0
 62
     0
 10
1.37942
 20
107.962
 30
0.0
 11
1.71152
 21
107.632
 31
0.0
  0
LINE
  8
0
 62
     0
 10
1.71152
 20
107.632
 30
0.0
 11
2.12907
 21
107.418
 31
0.0
  0
LINE
  8
0
 62
     0
 10
2.12907
 20
107.418
 30
0.0
 11
2.59347
 21
107.344
 31
0.0
  0
LINE
  8
0
 62
     0
 10
2.59347
 20
107.344
 30
0.0
 11
3.05649
 21
107.418
 31
0.0
  0
LINE
  8
0
 62
     0
 10
3.05649
 20
107.418
 30
0.0
 11
3.47541
 21
107.632
 31
0.0
  0
LINE
  8
0
 62
     0
 10
3.47541
 20
107.632
 30
0.0
 11
3.80615
 21
107.962
 31
0.0
  0
LINE
  8
0
 62
     0
 10
3.80615
 20
107.962
 30
0.0
 11
4.01973
 21
108.381
 31
0.0
  0
LINE
  8
0
 62
     0
 10
4.01973
 20
108.381
 30
0.0
 11
4.09416
 21
108.844
 31
0.0
  0
LINE
  8
0
 62
     0
 10
4.09416
 20
108.844
 30
0.0
 11
4.01973
 21
109.309
 31
0.0
  0
LINE
  8
0
 62
     0
 10
4.01973
 20
109.309
 30
0.0
 11
3.80615
 21
109.726
 31
0.0
  0
LINE
  8
0
 62
     0
 10
3.80615
 20
109.726
 30
0.0
 11
3.47541
 21
110.059
 31
0.0
  0
LINE
  8
0
 62
     0
 10
3.47541
 20
110.059
 30
0.0
 11
3.05649
 21
110.271
 31
0.0
  0
LINE
  8
0
 62
     0
 10
3.05649
 20
110.271
 30
0.0
 11
2.59347
 21
110.344
 31
0.0
  0
LINE
  8
0
 62
     0
 10
2.59347
 20
110.344
 30
0.0
 11
2.12907
 21
110.271
 31
0.0
  0
ENDSEC
  0
EOF
